<svg width="40" height="8" viewBox="0 0 40 8" fill="none" xmlns="http://www.w3.org/2000/svg">
<path fill-rule="evenodd" clip-rule="evenodd" d="M0.000329269 3.69674C-0.0233454 5.94934 1.23141 6.05368 3.19466 6.41582C4.66687 6.68676 6.83354 7.37245 8.05586 6.75515C7.58675 5.59509 7.19918 5.84499 5.94706 5.33116C13.5764 4.08518 23.0104 3.24604 30.9642 2.7971C32.7064 2.69801 39.0399 3.09873 40 2.47354C39.3845 1.66247 39.16 2.03688 36.1393 1.74051C34.4347 1.57303 32.6836 1.56689 30.9721 1.68527L12.5409 3.31356C9.63943 3.64676 6.37934 4.27457 3.47349 4.19478C3.94698 3.36792 5.30346 2.85848 6.08647 2.35079C8.09093 1.05306 6.91947 -1.40209 4.77297 1.03903C3.8707 2.06581 2.29239 2.86812 0.941178 3.3118L0.000329269 3.69674Z" fill="#7D7D8E"/>
</svg>
