<svg width="293" height="63" viewBox="0 0 293 63" fill="none" xmlns="http://www.w3.org/2000/svg">
<g opacity="0.4">
<path d="M4.21541 12.4279C4.59402 11.9719 4.97263 11.744 4.97263 10.9841C4.97263 10.6801 5.1998 10.2242 5.35124 9.99622C6.10846 9.31232 6.78997 9.69225 7.69863 9.38829C7.77435 9.3123 7.92579 9.38829 8.00152 9.38829C8.00152 7.86851 8.68302 6.42471 10.3489 5.28487C10.4246 5.20888 10.5761 5.20887 10.7275 5.20887C10.879 5.0569 11.1818 4.98091 11.409 5.20887C11.5605 5.28486 12.2419 3.6891 12.4691 3.53712C12.772 3.38514 12.9992 3.23317 13.3021 3.23317C14.0593 3.30916 14.4379 3.6131 14.6651 2.62524C14.7408 2.1693 14.8922 2.01734 15.2708 1.71338C15.498 1.48541 15.9523 1.56139 16.1795 1.56139C17.1639 1.78936 17.1639 1.18143 17.9211 1.02946C18.8298 0.877476 19.5113 1.33342 19.9656 1.94134C20.2685 1.63738 20.7228 1.40942 21.2529 1.33343C22.4644 1.10546 23.7517 1.10545 24.7361 1.86534C24.8875 1.78935 25.039 1.86535 25.1904 2.01733C27.2349 2.70124 28.6736 4.67696 31.0967 4.22102C32.0811 3.99305 32.6869 4.22102 33.4441 4.90492C34.2771 5.74081 33.6713 6.42471 35.4129 6.80466C36.0944 6.95664 36.1701 6.95665 36.7759 7.33659C37.306 7.64055 37.4574 8.32446 37.3817 8.93238C40.2591 9.00837 43.9695 10.6041 43.6666 13.7957C43.7423 13.8717 43.8181 14.0237 43.7423 14.1756C43.6666 14.4796 45.9383 15.0115 46.2412 15.5434C46.4683 15.9994 46.3169 16.3793 46.1654 16.7593C45.7111 17.6712 46.3926 18.1271 46.8469 18.735C47.1498 19.115 46.9226 19.6469 46.8469 20.0268C46.544 21.1667 45.4839 21.5466 45.7111 22.9144C45.9383 24.2822 45.7111 25.3461 44.651 26.258C44.5753 26.3339 44.4996 26.334 44.4238 26.334C44.7267 27.7018 44.2724 29.1456 43.4394 30.5134C43.4394 30.5134 43.4394 30.5134 43.4394 30.5894C43.3637 30.7413 43.2123 30.7413 43.0608 30.7413C42.9094 31.3492 42.6822 31.8052 42.1522 32.1851C41.5464 32.6411 39.8805 32.5651 40.562 34.1609C41.0163 35.1487 40.7135 35.9846 39.9562 36.7445C39.5019 37.2004 39.0476 37.4284 38.4418 37.7324C36.8516 38.5683 37.6846 38.9482 36.9273 39.6321C36.3216 40.164 35.7915 40.088 35.0343 39.8601C34.3528 41.1519 33.217 42.2157 31.6268 42.4437C31.5511 42.4437 31.5511 42.5197 31.4754 42.5197C30.9453 42.8237 30.491 43.1276 29.9609 43.4316C29.5823 43.6595 28.9008 44.1155 28.4465 44.1155V44.1915C28.5222 45.5593 28.295 46.7751 27.4621 47.763C27.3106 48.0669 27.0835 48.2949 26.7806 48.5229C24.1303 50.4986 21.3286 45.7872 19.6627 44.4194C19.1327 44.3434 18.6783 44.0395 18.224 43.7355C18.1483 43.7355 18.1483 43.6595 18.1483 43.6595C18.0725 43.6595 18.0725 43.6595 17.9968 43.6595C17.2396 43.7355 16.5581 43.5076 16.1038 43.0516C14.0593 43.7355 7.32002 45.6353 8.07724 41.6838C8.07724 41.6078 8.00152 41.5318 8.07724 41.4558C8.53158 40.468 8.68301 39.1002 8.91018 37.8084C7.69863 37.3524 5.72985 37.2764 5.8813 35.6047C5.8813 35.3007 6.03274 35.0727 6.10846 34.8448C6.25991 34.3128 5.8813 33.8569 5.50269 33.553C4.97263 33.021 4.74547 32.6411 4.82119 31.8812C4.82119 31.8052 4.82119 31.8052 4.89691 31.7292C3.23102 30.9693 2.17092 29.4495 2.7767 27.3218C2.0952 26.7899 1.18653 25.726 1.03509 25.0421C0.883645 24.4342 1.26226 23.7503 1.4137 23.1424C1.56514 22.3065 1.33797 21.8506 2.09519 21.2427C2.17092 21.2427 2.17091 21.1667 2.24664 21.1667C1.48941 19.8748 2.39808 17.8231 3.07958 16.3793C3.07958 16.3033 3.15531 16.3033 3.15531 16.2273C3.23103 15.7714 3.4582 15.3915 3.91253 15.0875C4.1397 14.9355 5.1998 15.0115 4.66975 14.2516C4.06397 13.8717 3.68536 13.1878 4.21541 12.4279ZM3.91253 21.5466C5.04836 21.6986 6.18419 21.9266 7.32002 22.0785C9.21307 22.2305 11.0304 21.8506 12.9234 21.9266C13.4535 21.3946 10.4246 21.3946 10.046 21.3186C7.16857 20.9387 5.27552 19.4189 3.38247 17.3672C2.77669 18.811 1.86803 21.2426 3.91253 21.5466ZM8.53157 28.3857C10.5003 27.5498 11.409 26.106 12.1662 24.2822C12.1662 24.2062 12.2419 24.1303 12.3177 24.1303C12.3934 23.6743 12.3934 23.2184 12.4691 22.8384C10.9547 22.8384 9.51596 23.1424 8.00152 23.0664C6.48708 22.9144 4.66974 22.8384 3.23102 22.3825C3.00386 22.3065 2.77669 22.1545 2.62525 22.0785L2.54953 22.1545C2.01948 22.6105 2.24664 23.2944 2.09519 23.9023C2.01947 24.2062 1.64086 24.9661 1.86802 25.2701C2.24664 25.878 2.85242 26.7899 3.53392 27.1698C3.83681 27.3218 3.76108 27.5498 3.60963 27.7018C4.06397 29.3735 7.16857 28.9176 8.53157 28.3857ZM7.77435 31.6532C9.44023 31.4252 12.6206 30.2094 12.8477 28.2337C12.6206 27.3978 12.6206 26.4859 12.4691 25.6501C11.409 27.7018 9.81885 29.2215 7.32002 29.5255C6.03275 29.6775 4.29114 29.7535 3.30675 28.8416C3.60964 30.7413 5.80557 31.8812 7.77435 31.6532ZM13.6807 20.9387C14.0593 21.2427 14.2864 21.6986 14.0593 22.1545C13.9836 22.2305 13.3778 22.9144 13.3778 22.9904C13.3021 23.5983 13.2263 24.0543 13.1506 24.5862C13.5292 25.65 13.4535 26.7899 13.7564 27.9297C13.8321 28.0057 13.8321 28.0817 13.8321 28.1577C13.8321 28.3097 13.7564 28.4617 13.7564 28.5376C13.9078 28.6136 14.0593 28.6896 14.2107 28.7656C14.2107 28.3857 14.2864 28.0057 14.3622 27.5498C14.4379 27.2458 14.8165 27.2458 15.0437 27.3978C16.0281 27.8537 16.7853 28.6136 17.5425 29.3735C18.6026 28.7656 19.587 28.0057 20.5714 27.3218C20.8743 27.0938 21.4043 27.3978 21.3286 27.7777C20.8743 29.6015 20.3442 31.4252 20.117 33.325C19.9656 34.3128 19.6627 35.7566 20.117 36.7445C21.2529 34.9207 22.6916 33.249 23.5245 31.1973C24.4332 29.1456 25.1147 26.9419 25.7205 24.8142C25.7962 24.5862 26.0234 24.5102 26.2505 24.5862C26.4777 24.5862 26.7049 24.6622 26.7806 24.8902C27.4621 26.7139 27.6892 29.2216 30.1124 28.6136C30.4152 28.5376 30.9453 28.7656 30.7939 29.1455C30.3395 30.0574 29.8852 30.8933 29.3551 31.7292C30.1124 31.5012 30.8696 31.2733 31.3996 30.5894L31.4754 30.5134C31.7025 29.5255 32.0811 28.4617 32.7626 27.9297C32.7626 27.8537 32.7626 27.7777 32.8384 27.7018C33.3684 27.1698 32.6869 25.954 32.9898 25.1941C33.2927 24.3582 33.9742 23.7503 34.2014 22.9144C33.5199 22.0785 33.1412 21.0147 33.3684 19.6469C33.2927 19.5709 33.217 19.4949 33.217 19.3429C33.217 18.963 32.1569 18.355 31.854 18.1271C31.5511 17.8231 31.3239 17.5952 31.2482 17.1392C31.2482 16.9113 31.2482 16.7593 31.3239 16.5313C31.6268 16.1514 31.3239 15.9234 30.9453 15.6954C30.6424 15.4675 30.3395 15.3155 30.1881 14.9355C30.1881 14.8595 30.1881 14.8595 30.1881 14.7835C28.9765 14.7076 27.8407 14.3276 26.7806 13.3398C26.2505 13.4917 25.7205 13.6437 25.1904 13.6437C24.206 13.6437 23.5245 13.1118 22.4644 13.2638C22.0101 13.3398 21.7829 13.2638 21.48 13.0358C21.2529 13.1878 20.95 13.3398 20.4957 13.2638C20.3442 13.4157 20.117 13.4917 19.8899 13.3398C19.7384 13.2638 18.9812 13.7957 18.754 13.7957C18.4512 13.8717 17.9968 13.7957 17.7697 14.0996C17.391 14.7076 17.391 15.4675 16.861 15.9234C16.861 15.9994 16.861 15.9994 16.861 16.0754C16.9367 16.2274 16.861 16.4553 16.6338 16.5313C16.6338 16.5313 16.6338 16.5313 16.6338 16.6073C16.4824 16.7593 15.6494 17.5192 15.7252 17.5952C15.9523 17.8231 15.8766 18.0511 16.0281 18.2791C16.2552 18.583 16.4067 18.963 16.1038 19.2669C15.8766 19.4189 15.5737 19.7229 15.2708 19.7229C15.0437 19.7229 14.135 19.5709 14.0593 19.8749C13.9836 20.4068 13.9078 20.7107 13.6807 20.9387ZM24.0546 32.3371C23.1459 34.1609 21.8586 35.6807 20.7985 37.4284C21.2529 37.6564 21.6315 37.8843 21.9344 38.2643C25.1147 35.9086 27.765 33.173 29.658 29.6775C29.0523 29.8295 28.3708 29.7535 27.9164 29.2975C27.1592 28.5376 26.7806 27.2458 26.402 26.106C25.6448 28.2337 24.9633 30.2854 24.0546 32.3371ZM19.2084 33.249C19.4355 31.7292 19.7384 30.2094 20.117 28.6896C19.3598 29.2216 18.6783 29.7535 17.8454 30.2094C17.6939 30.3614 17.3911 30.4374 17.1639 30.2094C16.4824 29.6015 15.8766 28.9176 15.1194 28.4616C14.5893 31.7292 16.7853 34.4648 18.224 37.2764C18.5269 37.1245 18.8298 37.0485 19.1327 37.0485C19.2084 37.0485 19.2084 37.0485 19.2841 37.0485C18.754 35.9086 19.0569 34.4648 19.2084 33.249ZM11.2576 33.477C13.7564 32.1091 15.1951 35.5287 17.0882 36.8965C15.8009 34.5408 14.3622 32.2611 14.2107 29.6015H14.135C13.9078 29.5255 13.6807 29.4495 13.4535 29.3735C12.3177 31.3493 9.06163 32.6411 7.09285 32.4891C6.5628 32.4131 6.10847 32.3371 5.57841 32.1851C5.57841 33.249 7.2443 33.8569 6.86569 35.0727C6.63852 35.8326 6.41135 36.3646 7.39574 36.6685C7.92579 36.8205 8.45585 36.9725 8.98591 37.2004C9.36452 35.6047 9.89457 34.2369 11.2576 33.477ZM15.1951 42.5197C13.6049 41.5318 9.6674 39.2521 9.06162 41.3799C8.07723 44.6474 12.9992 43.2036 15.1951 42.5197ZM17.2396 37.9603C16.4824 37.6564 15.8009 37.1244 15.2708 36.4405C14.5136 35.5287 12.9234 33.097 11.5605 34.4648C10.046 35.9846 9.89457 37.9603 9.51596 39.9361C11.2576 39.4041 14.0593 40.9239 15.6494 41.9118C15.498 40.544 16.1795 38.9482 17.2396 37.9603ZM21.48 41.6838C21.7829 40.24 21.6315 38.4163 20.117 37.9603H20.0413C19.8899 37.8843 19.6627 37.8843 19.5113 37.8843C17.8454 37.8083 16.861 39.7841 16.5581 41.2279C16.3309 42.2158 16.861 43.5076 18.1483 42.8996C18.9812 42.4437 19.1327 41.2279 19.5113 40.468C19.7384 40.0121 20.5714 40.316 20.3442 40.7719C19.8899 41.6078 19.6627 42.8237 18.9055 43.4316C19.5113 43.8115 20.2685 44.0395 20.7985 43.3556C21.1771 42.8237 21.4043 42.2917 21.48 41.6838ZM26.6291 47.459C26.7049 47.231 26.7806 47.0791 26.7049 46.7751C26.6291 45.9392 25.9476 45.2553 25.1904 44.8754C23.7517 44.1155 22.313 44.3434 20.7228 44.4954C22.0101 45.7872 23.1459 47.763 24.8875 48.2189C25.4176 48.3709 25.9476 48.1429 26.3263 47.763C26.3263 47.687 26.3263 47.611 26.4777 47.535C26.5534 47.535 26.6291 47.459 26.6291 47.459ZM27.3864 46.0152C27.6135 44.8754 27.3106 43.7355 27.4621 42.5197C27.6135 41.3039 28.2193 39.6321 27.765 38.4923C27.3106 37.1245 25.2661 38.2643 24.4332 38.6442C23.7517 38.9482 23.0702 39.2522 22.313 39.2522C22.5401 40.088 22.4644 40.9999 22.313 41.7598C22.1615 42.4437 22.0101 43.1276 21.6315 43.6595C23.2974 43.5835 24.8875 43.5835 26.3263 44.7234C26.7806 45.1033 27.1592 45.5593 27.3864 46.0152ZM31.1725 31.9572C30.4152 32.4131 29.5823 32.5651 28.6736 32.7931C27.2349 34.7688 25.4933 36.5165 23.5245 38.1123C25.4933 37.4284 28.3708 36.0606 28.6736 38.4163C28.9008 40.088 28.4465 41.7598 28.4465 43.4316C28.5222 43.3556 28.6736 43.3556 28.7494 43.2796C29.0522 43.1276 29.3551 42.9756 29.658 42.8237C30.1124 42.5197 30.6424 42.2917 31.0967 41.9878C33.1412 38.9482 30.491 35.2247 31.1725 31.9572ZM34.3528 34.1609C33.747 32.6411 32.9898 31.2733 32.8384 29.6775C32.6869 30.2094 32.5355 30.7413 32.4597 31.0453C31.9297 32.5651 31.854 34.1609 32.2326 35.7566C32.7626 37.8084 33.217 39.7841 32.384 41.6078C35.0343 40.468 35.4129 36.5925 34.3528 34.1609ZM42.3036 30.3614C42.0007 30.0574 41.7735 29.6015 41.5464 29.2215C40.4863 27.3978 38.5175 26.03 36.7759 24.9661C36.0944 24.5862 35.4886 24.1303 34.9586 23.6743C34.58 24.4342 33.8227 25.1941 33.8227 25.954C33.8227 26.7139 34.2771 27.3978 33.747 28.0057C33.8227 28.1577 33.8227 28.3097 33.6713 28.3857C33.3684 31.5772 36.3216 34.1609 35.8672 37.3524C35.7915 37.9603 35.6401 38.6442 35.4129 39.2522C36.473 39.4801 36.7759 37.8084 37.6088 37.4284C39.5019 36.5165 40.1077 35.8326 39.5776 33.6289C39.5019 33.249 39.729 32.6411 40.0319 32.4891C41.0163 31.8052 41.8493 31.6532 42.3036 30.3614ZM38.8204 22.6864C37.0788 22.1545 35.5644 21.5466 34.2014 20.4068C34.1256 23.2184 37.306 24.2062 39.3504 25.802C40.1834 26.4859 41.0921 27.2458 41.7736 28.0817C41.925 28.3097 42.5308 29.6015 42.8337 29.9814C44.8782 26.258 42.4551 23.8263 38.8204 22.6864ZM42.6822 14.0996C40.4863 11.44 36.2458 13.7957 33.6713 14.4796C32.8383 14.7076 32.0054 14.8595 31.1725 14.9355C31.6268 15.4675 33.0655 15.9234 32.384 16.8353C31.7782 17.5952 33.217 18.2031 33.6713 18.507C33.8985 18.659 34.0499 18.887 34.1256 19.191C34.2013 19.191 34.2014 19.2669 34.2014 19.2669C36.7002 22.0025 41.4707 21.4706 43.6666 24.5102C43.8938 24.8142 44.1209 25.1941 44.2724 25.4981C45.7868 24.0543 44.1209 22.4585 45.1811 21.0147C45.8625 20.1028 46.3169 19.1909 45.3325 18.1271C45.181 17.9751 45.0296 17.6712 45.0296 17.4432C45.0296 16.7593 45.6354 15.7714 44.5753 15.4675C44.1967 15.3915 43.6666 15.3155 43.3637 15.0875C42.9851 14.7835 42.8337 14.5556 42.9094 14.2516C42.7579 14.2516 42.6822 14.1756 42.6822 14.0996ZM35.4129 10.1482C33.3684 10.9081 31.4754 12.0479 29.3551 12.5799C28.8251 12.7318 28.2193 12.9598 27.6135 13.1878C32.0054 16.6833 38.6689 9.4643 42.7579 13.1118C42.5308 10.0722 37.4574 9.3123 35.4129 10.1482ZM21.9344 10.9841C22.0101 11.516 22.0101 12.0479 21.8587 12.5039C22.6159 12.8078 24.0546 12.7318 24.7361 12.8838C25.6448 13.1118 26.7049 12.1999 27.6135 12.0479C30.491 11.516 32.8384 9.76825 35.6401 9.08434C35.8672 9.00835 36.0944 9.00837 36.3973 8.93238C36.7759 7.41259 34.58 7.71653 33.9742 7.1846C32.8384 6.12075 32.6869 5.05691 30.7939 5.1329C28.3708 5.28488 27.0835 3.46113 24.8875 2.77723C24.1303 3.30915 23.3731 4.98091 23.0702 5.58882C22.313 7.41257 21.7829 9.08434 21.9344 10.9841ZM19.8899 3.84107C19.6627 4.75295 19.4355 5.7408 19.3598 6.72866C19.2084 8.47642 18.9055 11.516 20.6471 12.5799C21.2529 12.2759 21.0257 9.23632 21.1014 8.78039C21.3286 7.48857 21.7829 6.27275 22.3887 5.1329C22.7673 4.449 23.2974 3.15718 24.0546 2.47327C22.7673 1.48541 20.2685 2.32129 19.8899 3.84107ZM11.1818 5.96877C12.1662 9.46428 12.772 13.8717 16.2552 15.5434C16.861 15.0115 16.6338 13.5677 17.6939 13.3398C18.2997 13.2638 18.6783 13.1878 19.2084 12.8838C19.2841 12.8078 19.4355 12.8078 19.5113 12.7318C17.6939 10.9081 18.224 6.95665 18.6783 4.75296C18.8298 4.06905 18.9812 3.30915 19.3598 2.70123C19.3598 2.70123 19.3598 2.62524 19.2841 2.62524C18.3754 1.10545 17.7697 2.39728 16.9367 2.47327C16.3309 2.54926 15.498 2.16932 15.4223 3.23317C15.3466 3.76509 15.1951 4.60096 14.4379 4.44898C13.9078 4.37299 13.1506 3.76508 12.8477 4.60097C12.6963 4.98092 12.5448 5.43685 12.1662 5.66482C11.8633 5.89278 11.5605 6.04476 11.1818 5.96877ZM10.6518 13.4917C11.8633 14.6316 13.7564 16.1514 15.5737 16.0754C12.0905 14.1756 11.3333 10.0722 10.3489 6.42471C8.22869 8.40044 8.45585 11.364 10.6518 13.4917ZM5.12408 13.8717C5.57841 14.4796 5.80558 14.9355 5.42697 15.6194C5.04836 16.3033 4.1397 15.6954 3.91253 16.6833C5.72986 18.735 7.9258 20.7107 10.879 20.5588C11.409 20.5588 12.1662 20.4068 12.772 20.4828C12.8477 20.4068 12.9235 20.4068 12.9992 20.4068C13.2263 20.4068 13.3021 19.6469 13.4535 19.4949C13.6049 19.3429 13.7564 19.1909 13.9836 19.115C14.2864 19.039 14.5893 19.115 14.8922 19.115C15.1194 18.963 15.3466 18.887 15.498 18.963C15.4223 18.887 15.4223 18.811 15.3466 18.735C15.1951 18.4311 14.9679 18.0511 14.8922 17.7471C14.8922 17.4432 15.0437 17.1392 15.3466 16.9113C13.1506 16.6833 10.7275 15.0115 9.59168 13.4157C8.83446 12.3519 8.38012 11.288 8.15296 10.3002C7.09285 10.6801 5.80558 9.99623 5.95702 11.972C5.95702 12.8838 4.36686 12.8078 5.12408 13.8717Z" fill="#8A9F96" stroke="#8A9F96"/>
<path d="M58.1095 52.4334C58.1831 52.4084 58.1582 52.3349 58.1332 52.2614C58.1182 49.5602 59.6089 47.9053 62.2384 47.6673C63.1968 47.5874 63.7122 47.4121 64.3235 46.7943C65.0084 46.1514 65.1252 45.0456 65.2183 44.1118L65.1933 44.0383C65.2406 43.6942 65.2879 43.3501 65.2865 43.1045C65.377 41.6796 65.4992 41.5561 67.2689 41.4464C67.3425 41.4214 67.4161 41.3963 67.4648 41.2978C67.4648 41.2978 67.5134 41.1992 67.4634 41.0522C67.0662 40.3672 66.5954 39.7072 66.001 38.9252C64.3163 36.6278 62.4581 34.0614 63.5239 31.1568C63.5725 31.0582 63.5475 30.9847 63.4489 30.9362L63.1766 30.6188L63.5448 30.4936C63.9129 30.3684 64.306 30.3168 64.5755 30.1431L64.9436 30.018L64.8963 30.3621C64.8282 31.3694 64.7722 34.5867 66.1279 35.1918L66.5223 35.3857C68.2974 36.2583 69.7767 36.9854 70.232 39.2908C70.3847 40.2229 70.8332 41.3005 71.3513 41.6164C71.8444 41.8588 72.4598 41.9776 73.1237 41.9979L73.296 42.0213C73.6405 42.0682 73.9599 42.0416 74.3044 42.0884C75.9532 42.3479 76.5254 43.5475 77.1461 44.6485C77.3947 45.1381 77.6683 45.7011 78.0391 46.067C78.3363 46.458 78.7322 46.8975 79.3225 46.9428C79.3961 46.9177 79.3961 46.9177 79.4948 46.9662C80.1337 46.913 80.6991 46.8848 81.2894 46.9301C83.5522 47.0627 85.0078 47.9619 85.9035 49.8716C85.9285 49.9451 86.0271 49.9935 86.1994 50.017C86.3716 50.0404 86.5189 49.9903 86.5675 49.8918C86.6411 49.8668 86.6161 49.7933 86.6161 49.7933C86.483 47.9524 86.129 46.1866 85.775 44.4208C85.3446 42.1889 84.8407 39.982 84.8771 37.6735C84.9257 37.5749 84.7771 37.3794 84.6298 37.4295C83.3992 37.1919 82.313 36.4131 81.8895 35.409C81.5409 34.6255 81.6841 33.8387 82.2454 33.0738C82.294 32.9753 82.3426 32.8768 82.4162 32.8517C82.6357 32.5311 82.8553 32.2104 83.0011 31.9148C83.3888 30.8809 83.2125 30.1208 82.6417 29.1668C81.7987 27.8953 80.3722 27.8062 78.7984 27.7673C77.1996 27.6549 75.6258 27.6159 74.5369 26.346L74.3883 26.1506L74.5841 26.0019C75.1468 25.4826 75.5372 24.9398 75.8776 24.25L75.9262 24.1515L76.0734 24.1015C76.3929 24.0748 76.811 24.0967 77.2041 24.045C78.8766 24.1324 80.6253 24.6859 82.3005 25.2644C83.2117 25.5287 84.0492 25.8179 84.8618 26.0337C85.5757 26.201 86.6342 26.4151 87.6426 26.4822C89.0692 26.5712 90.0999 26.2208 90.6126 25.5544C90.7834 25.3323 91.442 24.3703 91.167 23.5617C90.7408 22.0665 91.7451 21.397 92.7009 20.826C93.1176 20.6023 93.5094 20.3051 93.8761 19.9344C94.6583 19.0944 94.7001 17.768 94.7433 16.6872L94.7419 16.4417C94.8283 14.2802 96.937 13.2351 98.8499 12.3387C99.4139 12.0649 99.9779 11.7911 100.395 11.5674C100.542 11.5174 100.517 11.4438 100.492 11.3703C100.442 11.2233 100.318 11.1013 100.072 11.1029L99.9988 11.128C99.7779 11.2031 99.4584 11.2297 99.2375 11.3048C97.3956 11.6851 95.1606 12.117 93.1437 11.9827C90.635 11.8516 89.0072 10.929 88.0878 9.19139C88.0628 9.11789 87.8656 9.02095 87.792 9.04598L87.7183 9.07102C86.9571 9.24784 86.2459 9.57167 85.6333 9.94398C84.7261 10.4164 83.8927 10.8638 82.8106 10.8217C82.4661 10.7748 82.1216 10.728 81.7521 10.6076C81.1118 10.4153 80.5701 10.2714 80.127 10.1761C79.463 10.1558 78.899 10.4296 78.4364 11.243C77.4861 12.7962 76.4567 13.3922 74.8579 13.2798C74.6121 13.2814 74.2676 13.2345 73.9231 13.1876C73.7509 13.1642 73.6522 13.1157 73.505 13.1657C73.0869 13.1439 72.6938 13.1955 72.3993 13.2957C71.4672 13.6946 70.6364 14.6332 69.8584 16.2098L69.5416 16.7276L69.4153 16.1145C68.964 14.5458 67.8501 13.2023 66.5195 12.6707C65.9528 12.4533 65.4361 12.383 64.9193 12.3127C62.9024 12.1784 61.0396 13.2219 60.1642 14.9956C59.4348 16.4737 58.7858 19.1546 60.5373 20.1992L60.9568 20.4666L60.4414 20.6419C58.9439 21.069 58.2131 22.3016 57.7755 23.1885L57.7269 23.287L57.5796 23.3371C57.506 23.3621 57.506 23.3621 57.4324 23.3872C56.403 23.9832 55.25 24.4572 54.1457 24.8327C51.8883 25.6822 49.7783 26.4817 48.5126 28.7982C48.4639 28.8968 48.4639 28.8968 48.4639 28.8968C48.5139 29.0438 48.7112 29.1408 48.8584 29.0907C50.0641 29.2548 50.7544 29.5941 51.1016 30.1321C51.5238 30.8907 51.1361 31.9245 50.6498 32.91L50.6012 33.0085C50.1399 34.0674 49.6536 35.0528 49.3896 36.2087C49.3409 36.3073 49.5382 36.4042 49.6368 36.4527C51.755 37.1266 52.6939 37.9554 51.9936 40.2437C51.7045 41.3261 51.3655 42.2614 51.175 43.3923L51.2 43.4658C51.225 43.5393 51.4223 43.6363 51.5945 43.6597C52.0126 43.6816 52.3571 43.7284 52.7016 43.7753C54.0545 43.8894 55.2352 43.9799 55.86 45.8176C56.21 46.8468 56.2654 47.976 56.3694 49.0067C56.4485 49.9639 56.6012 50.8961 56.8275 51.8032C56.8775 51.9503 57.0747 52.0472 57.1483 52.0222L57.3206 52.0456L57.3706 52.1927C57.4206 52.3397 57.5928 52.3631 57.765 52.3865C57.8887 52.5085 58.0359 52.4585 58.1095 52.4334ZM52.9697 43.3561C52.7238 43.3577 52.5516 43.3343 52.3057 43.3359L51.9613 43.289L52.0335 43.0184C52.1294 42.5757 52.2739 42.0346 52.4435 41.5669C52.8061 40.4595 53.2174 39.2535 53.0148 38.1743C52.8634 37.4877 52.3454 37.1719 51.7537 36.881C51.0384 36.4682 50.1508 36.0319 50.6357 34.8009C50.7816 34.5053 50.8539 34.2347 50.9997 33.9391C51.6792 32.3139 52.2364 30.8124 51.7642 29.9068C51.4906 29.3438 50.8003 29.0045 49.7419 28.7903L49.3974 28.7434L49.6169 28.4228C50.8853 26.5973 52.9468 25.8964 54.9096 25.147C55.6459 24.8967 56.3821 24.6463 57.0933 24.3225L57.5101 24.0988L57.4142 24.5414C57.1765 26.0164 57.4305 27.4881 58.0763 28.6627C58.3248 29.1522 58.6957 29.5182 59.1651 29.9326L59.3874 30.1031L59.1179 30.2767C57.5759 31.5391 57.3672 33.8242 57.2059 35.7652C56.9722 37.9769 56.8913 41.1206 57.8161 43.8405C57.8911 44.061 58.1369 44.0594 58.2105 44.0344C58.3828 44.0578 58.53 44.0077 58.5787 43.9092C58.5787 43.9092 58.6273 43.8106 58.6023 43.7371C57.6525 40.9438 56.6742 32.9937 59.8082 30.616L59.8818 30.591L60.0041 30.4674L60.1763 30.4909C60.6694 30.7332 61.2847 30.852 61.8501 30.8238C62.0959 30.8222 62.4154 30.7956 62.6613 30.794L63.0544 30.7424L62.9335 31.1115C61.8927 34.0896 63.6524 36.6075 65.387 39.052C65.7342 39.59 66.155 40.103 66.5022 40.641L66.7008 40.9835L66.2827 40.9616C66.0369 40.9632 65.791 40.9648 65.5451 40.9664L65.3729 40.943C65.3729 40.943 65.2993 40.968 65.2743 40.8945C65.1757 40.846 64.9548 40.9211 64.9062 41.0197C64.7853 41.3888 64.788 41.8799 64.7421 42.4696C64.5557 44.3371 64.3721 46.6957 62.6774 47.0259C62.3579 47.0526 62.0634 47.1527 61.7439 47.1793C61.1299 47.3061 60.491 47.3593 59.927 47.6331C58.9213 48.0571 58.2614 48.7735 57.8251 49.9059L57.382 49.8105L57.3293 49.1724C57.1462 47.1845 57.0353 44.926 55.8742 43.9267C55.2811 43.3903 54.4935 43.248 53.7559 43.2528C53.3878 43.378 53.2156 43.3545 52.9697 43.3561ZM81.2367 46.2919C80.77 46.3686 80.3032 46.4453 79.7629 46.547C79.6893 46.572 79.6893 46.572 79.6156 46.5971C78.9517 46.5768 78.3059 45.4023 77.6101 44.0807C77.5352 43.8602 77.4115 43.7382 77.3865 43.6647C76.9644 42.9062 76.1991 42.3463 75.4601 42.1055C75.0906 41.9851 74.6725 41.9633 74.2294 41.8679C73.0974 41.6788 71.8181 41.5397 71.2695 40.1681C71.1196 39.727 71.0183 39.1874 70.9169 38.6479C70.7892 37.7892 70.6865 37.004 70.1671 36.4426C69.4254 35.7107 68.7351 35.3714 67.628 35.2557L67.4558 35.2323C67.1113 35.1854 66.8154 35.04 66.5682 34.796C65.4794 33.5261 65.8534 30.0366 65.8771 29.8646L65.9257 29.766L65.9993 29.741C67.0523 28.9729 67.7358 28.0845 67.9263 26.9536L68.0458 26.3389L68.418 26.9505C70.1135 31.2124 73.8496 35.4365 77.7956 37.6211C77.8943 37.6695 77.8943 37.6696 77.9679 37.6445C78.1401 37.668 78.336 37.5193 78.3846 37.4208C78.3846 37.4208 78.4333 37.3223 78.236 37.2253C74.7094 35.3082 71.247 31.647 69.5291 27.8028L69.3056 27.3867L69.7736 27.5556C70.0445 27.6275 70.389 27.6744 70.7335 27.7213C71.7419 27.7884 72.7976 27.5115 73.7534 26.9405L73.8756 26.8169L73.9993 26.9389C75.0881 28.2088 76.4174 28.4949 78.1885 28.6308C78.951 28.6995 81.436 29.0026 82.0832 30.4227C82.4067 31.1328 82.2149 32.0181 81.5814 33.0536C80.9715 33.917 80.6311 34.6068 80.6365 35.589C80.642 36.5713 81.6282 37.056 82.5157 37.4923C83.3046 37.8801 84.0936 38.2679 84.0977 39.0046C84.1335 41.0426 84.5875 43.1024 85.0165 45.0887C85.2428 45.9959 85.4205 47.0015 85.5732 47.9337L85.7245 48.6203L85.23 48.1324C84.2411 47.1565 82.9841 46.5998 81.8034 46.5092C81.6548 46.3137 81.4089 46.3153 81.2367 46.2919ZM60.6191 21.6475C60.1551 22.2153 59.766 23.0037 59.6965 23.7654C59.5297 24.7242 59.6574 25.5829 60.0782 26.0958C60.3504 26.4133 60.6463 26.5587 61.163 26.6291C61.5075 26.6759 61.9492 26.5257 62.3909 26.3755C62.9799 26.1753 63.2231 25.6826 63.2204 25.1915C63.119 24.6519 62.5746 24.0169 61.812 23.9482C61.6398 23.9247 61.5661 23.9498 61.4189 23.9998C61.2716 24.0499 61.1494 24.1735 61.1744 24.247C61.2244 24.394 61.2744 24.541 61.4466 24.5645C61.4466 24.5645 61.5202 24.5394 61.5939 24.5144L62.1342 24.4127L61.8174 24.9304C61.3784 25.5717 61.1339 25.8189 60.8144 25.8455C60.3963 25.8236 60.4172 25.1605 60.3672 25.0134C60.3659 24.7679 60.3645 24.5223 60.4368 24.2517C60.5063 23.49 60.8217 22.7267 61.3344 22.0604C61.7734 21.4191 62.436 21.1938 63.1736 21.189C63.9362 21.2577 64.6265 21.5971 65.1196 21.8394L65.2182 21.8879L65.2432 21.9614C65.2932 22.1084 65.3432 22.2555 65.589 22.2539L65.6627 22.2288L65.7363 22.2038L65.8349 22.2523C67.1197 23.3736 67.6709 25.2363 67.3359 26.9083C66.8564 29.1216 64.4519 30.0212 62.51 30.1074C62.3377 30.084 62.1905 30.134 62.0182 30.1106C59.7555 29.9779 58.6139 28.0699 58.2849 26.3776C57.9545 24.4397 58.6049 22.0044 60.4941 21.28L60.6191 21.6475ZM66.5725 22.2475L67.0892 22.3178C67.1629 22.2928 67.2615 22.3413 67.3351 22.3162C67.556 22.2411 67.8505 22.141 68.1936 21.9423C68.7576 21.6685 69.4438 21.2712 70.0342 21.3165C70.5259 21.3133 70.8717 21.6058 71.0953 22.0218C71.2939 22.3643 71.2966 22.8554 71.1021 23.2496C71.0535 23.3481 71.0535 23.3481 70.9312 23.4717L70.7117 23.7923L70.5867 23.4248L70.5618 23.3513C70.5368 23.2778 70.4631 23.3028 70.4381 23.2293C70.3145 23.1073 70.2159 23.0588 70.1423 23.0839C69.9701 23.0604 69.7492 23.1355 69.7006 23.2341C69.7006 23.2341 69.6519 23.3326 69.7505 23.3811C70.0478 23.7721 70.4672 24.0395 70.8117 24.0864C70.9839 24.1098 71.2048 24.0347 71.4007 23.8861C71.9397 23.5388 72.0829 22.7521 71.9815 22.2125C71.8538 21.3538 71.0399 20.8925 70.3009 20.6517C70.2023 20.6033 70.0301 20.5798 69.9564 20.6048C69.5383 20.583 69.1702 20.7082 68.6549 20.8834L68.3577 20.4924C68.6994 20.0482 69.0412 19.604 69.2593 19.0377L69.308 18.9392L69.3816 18.9142C70.0928 18.5903 70.9527 18.462 71.7152 18.5307C72.9696 18.5963 74.153 19.178 74.7724 20.0334C75.3918 20.8889 75.6195 22.0416 75.3318 23.3695L75.3082 23.5416L75.1609 23.5917C75.0873 23.6167 74.94 23.6667 74.8914 23.7653C74.8428 23.8638 74.8678 23.9374 74.9914 24.0593L75.115 24.1813L75.0664 24.2799C74.2883 25.8565 72.5977 26.9234 70.8266 26.7875C69.7446 26.7454 68.7584 26.2607 68.0654 25.4302L68.0404 25.3567L67.9418 25.3082L67.9168 25.2347C67.7641 24.3026 67.3655 23.372 66.8447 22.565L66.5725 22.2475ZM76.3902 23.5837L76.0707 23.6103L76.143 23.3397C76.3334 22.2089 76.1058 21.0562 75.4363 20.0537L75.2378 19.7112L75.6309 19.6595C75.7045 19.6345 75.7781 19.6095 75.8267 19.5109C76.9257 18.1532 79.2593 17.7697 81.1999 17.4379C81.593 17.3863 81.9861 17.3346 82.2806 17.2345C83.1154 17.0326 83.9753 16.9043 84.7365 16.7274C85.9645 16.4739 87.2174 16.2939 88.3468 15.9919C88.494 15.9419 88.6163 15.8183 88.5913 15.7448C88.5413 15.5978 88.4913 15.4508 88.319 15.4273C88.319 15.4273 88.2454 15.4524 88.1718 15.4774C86.7966 15.781 85.3478 16.1096 83.9476 16.3397C82.7196 16.5932 81.4666 16.7732 80.2637 17.1002L79.7233 17.2019C78.1273 17.5806 76.1381 18.0109 75.1614 19.2451L74.9905 19.4672L74.7683 19.2968C74.5211 19.0528 74.2739 18.8088 73.978 18.6634C73.4349 18.274 72.721 18.1067 71.9584 18.038C71.368 17.9927 70.7291 18.046 70.0665 18.2713L69.6247 18.4215L69.7942 17.9538C70.5709 16.1315 71.5658 13.7431 74.5911 13.9445C74.6648 13.9195 74.7634 13.968 74.9356 13.9914C75.0343 14.0399 75.1079 14.0149 75.2801 14.0383C76.2886 14.1054 77.0498 13.9286 78.0055 13.3576C78.275 13.184 78.4695 12.7898 78.689 12.4692C78.7377 12.3706 78.7863 12.2721 78.7863 12.2721C79.3712 11.3351 79.8852 10.9143 80.6228 10.9096C80.9673 10.9565 81.3368 11.0768 81.7062 11.1972C81.8785 11.2207 82.0757 11.3176 82.273 11.4146C82.5438 11.4865 82.8883 11.5334 83.1592 11.6053C83.8231 11.6256 84.5107 11.4738 85.1233 11.1015C85.3928 10.9278 85.5887 10.7792 85.8582 10.6056C85.9318 10.5805 86.0541 10.457 86.1277 10.4319C86.5931 10.1097 86.8876 10.0095 87.2071 9.98292C87.6988 9.97974 87.9224 10.3957 88.1946 10.7132C88.3182 10.8352 88.3932 11.0557 88.5904 11.1527C89.3321 11.8846 90.4405 12.2458 91.499 12.4599C92.0407 12.6038 92.631 12.6491 93.2214 12.6943C94.3034 12.7365 95.4341 12.68 96.908 12.4249L97.0579 12.866C95.5382 13.7108 94.1671 14.751 94.0543 16.5935L94.0071 16.9376C93.9375 17.6993 93.868 18.461 93.6512 19.2728C93.5066 19.814 92.6245 20.3599 91.9633 20.8308C91.7674 20.9794 91.5465 21.0545 91.4243 21.1781C90.763 21.6489 90.1768 22.3403 90.2781 22.8799C90.4072 23.9841 90.264 24.7709 89.8 25.3387C89.2624 25.9315 88.4275 26.1334 87.2468 26.0428C85.9925 25.9772 84.466 25.5942 83.2839 25.2581C83.0131 25.1861 82.7422 25.1142 82.57 25.0908C82.1269 24.9954 81.6588 24.8266 81.2157 24.7312C79.8364 24.2981 78.3835 23.89 76.9569 23.801C76.7097 23.5571 76.5625 23.6071 76.3902 23.5837ZM62.1624 20.6307L62.0152 20.6808L61.9166 20.6323L61.793 20.5103L61.8416 20.4118C61.8416 20.4118 61.8902 20.3133 61.8652 20.2398C61.8402 20.1662 61.7666 20.1913 61.668 20.1428C60.954 19.9755 60.5096 19.6346 60.236 19.0716C59.6389 17.7985 60.4642 15.8777 61.0005 15.0393C61.7799 13.7082 63.3246 12.9369 64.8248 13.0009C65.4887 13.0212 66.1291 13.2135 66.6472 13.5294C68.1514 14.33 68.9222 15.8721 68.7844 17.6411C68.5981 19.5086 67.4755 21.0384 65.7822 21.6141L65.635 21.6642L65.5363 21.6157C64.8947 21.1778 64.2043 20.8385 63.4167 20.6963C63.2445 20.6728 63.1459 20.6244 62.9986 20.6744C62.8014 20.5775 62.4819 20.6041 62.1624 20.6307Z" fill="#8A9F96" stroke="#8A9F96"/>
<path d="M199.531 22.6043C199.838 25.0579 196.237 27.6647 194.475 28.6614C193.096 29.4281 191.794 30.2715 190.415 31.0383C192.56 32.9551 192.943 36.6353 192.637 39.3955C192.33 42.4624 191.105 45.4526 188.96 47.7527C184.44 52.5831 178.082 53.4265 171.724 52.5064C166.286 51.7397 160.54 49.1328 159.544 43.0758C158.395 36.482 161.383 29.8115 167.128 26.5146C166.132 24.6745 164.294 23.2944 163.375 21.3009C162.532 19.4608 161.306 17.3907 161.383 15.3205C161.383 15.1672 161.46 15.0905 161.613 15.0138L161.689 14.9372C161.996 14.7071 162.302 14.4771 162.685 14.4004C162.838 14.3238 163.068 14.4771 163.145 14.5538C163.221 14.6305 163.298 14.7071 163.298 14.8605C163.221 16.3939 164.677 18.1574 165.366 19.4608C166.209 20.9176 167.052 22.2977 168.124 23.6011C168.354 23.141 168.66 22.7577 169.12 22.2977C169.196 22.221 169.273 22.221 169.35 22.221C169.35 21.6076 169.503 20.9942 170.039 20.3809C170.116 20.3042 170.116 20.3042 170.192 20.3042C170.039 19.9208 169.886 19.5375 169.733 19.1541L169.733 19.0774C168.507 18.3874 167.511 17.3907 167.128 16.0872C167.052 15.8572 167.281 15.6272 167.511 15.6272C168.201 15.5505 168.89 15.4739 169.579 15.3972C169.962 14.0938 170.652 13.0204 171.495 12.0236C171.495 12.0236 171.418 11.947 171.418 11.8703C171.188 10.4902 170.728 9.8768 171.571 8.65005C172.107 7.80666 173.563 7.57666 174.482 7.65333C175.018 7.65333 175.478 7.80666 175.937 7.88333C177.776 4.12641 184.67 3.20635 187.811 5.65985C190.569 7.88334 191.488 13.2504 188.96 16.0106C188.96 16.0106 188.96 16.0106 188.883 16.0872C189.19 16.5473 189.42 17.084 189.573 17.6207C190.186 19.6908 189.343 20.9942 187.198 21.3009C187.121 21.3009 187.045 21.3009 187.045 21.3009C187.121 21.3776 187.121 21.4543 187.045 21.6076C186.662 22.5277 187.121 23.5244 186.968 24.5211C187.121 24.5978 187.198 24.6745 187.275 24.7512C187.658 25.6712 190.339 26.1313 189.573 27.5113C189.573 27.5113 189.573 27.588 189.496 27.588C189.42 27.7414 189.343 27.818 189.266 27.9714C193.096 27.5114 196.85 25.5179 198.305 21.761C198.305 21.6843 198.382 21.6076 198.459 21.6076C198.612 21.3776 199.072 21.3776 199.225 21.6843C199.378 21.9143 199.531 22.1443 199.684 22.3743C199.684 22.3743 199.608 22.5277 199.531 22.6043ZM176.704 7.96001L176.78 8.03669C177.699 8.34338 178.619 8.80341 179.614 9.18677C181.146 9.80014 182.679 10.3369 184.057 11.2569C185.589 12.2536 187.198 13.6337 188.347 15.2438C190.032 13.0204 189.726 8.65006 187.811 6.80993C185.053 4.12641 178.542 4.35643 176.704 7.96001ZM170.422 15.1672C172.567 15.0905 174.712 15.1672 176.933 15.3205C177.01 15.3205 177.087 15.3972 177.163 15.3972C179.385 16.2406 178.082 20.7642 175.631 20.6109C175.325 20.6109 174.942 20.5342 174.559 20.4575C175.171 22.0677 177.853 23.141 179.078 21.6843C179.385 21.3009 180.227 21.6843 179.844 22.1443C178.082 24.1378 174.022 22.8344 173.563 20.2275C172.644 20.0742 171.648 19.7675 170.728 19.3841C171.878 22.221 175.248 24.6745 178.236 24.7512C180.38 24.8278 183.368 24.2911 184.823 22.451C185.819 21.2242 186.126 19.8442 186.585 18.3874C186.738 17.9274 187.581 18.1574 187.428 18.6174C187.275 19.1541 187.121 19.6908 186.968 20.2275C191.871 19.4608 185.053 12.7137 183.445 11.7169C181.683 10.6435 179.691 9.95348 177.776 9.11009C176.704 8.65006 175.478 8.03669 174.252 8.11336C172.414 8.19004 171.954 9.41679 172.107 10.8736C172.414 10.5669 172.797 10.2602 173.103 9.95348C173.486 9.6468 174.176 10.1835 173.716 10.5669C172.337 11.9469 171.035 13.4037 170.422 15.1672ZM173.333 19.3841C174.405 19.6908 176.627 20.5342 177.087 18.6941C177.24 18.1574 177.623 16.4706 176.857 16.1639C176.857 16.1639 176.78 16.1639 176.78 16.0872C173.869 15.8572 170.958 15.7806 168.124 16.0872C168.967 18.0807 171.495 18.9241 173.333 19.3841ZM173.256 28.8915C175.861 29.6582 177.853 29.5048 180.38 28.7381C181.529 28.3547 182.602 28.2014 183.828 28.2781C185.13 28.3547 187.734 28.7381 188.424 27.2813C188.424 27.2813 188.424 27.2813 188.5 27.2047C188.5 27.2047 188.5 27.2047 188.5 27.128C188.73 26.668 187.734 26.2079 187.428 26.0546C187.045 25.8246 186.662 25.5946 186.432 25.2112C186.202 25.5946 185.972 25.9779 185.589 26.2079C184.44 27.0513 183.062 27.358 181.683 27.2813C181.07 27.2813 181.146 26.5146 181.759 26.5146C183.062 26.5146 184.747 26.2846 185.513 25.0579C185.972 24.2911 185.896 23.5244 185.819 22.7577C185.513 23.1411 185.13 23.5244 184.67 23.8311C182.832 25.0579 180.457 25.8246 178.236 25.5946C175.325 25.2879 172.184 23.4477 170.575 20.9176C169.12 23.3711 172.873 25.3645 174.788 26.0546C175.325 26.2846 175.018 26.9746 174.482 26.8213C172.797 26.2079 170.269 24.8278 169.503 23.0644C167.358 25.7479 170.652 28.1247 173.256 28.8915ZM180.763 39.2422C180.227 39.6255 179.538 39.4722 178.925 39.1655C177.546 38.6288 176.55 37.7087 175.095 38.7055C175.018 38.7821 174.865 38.7821 174.788 38.7821C174.788 39.2422 174.788 39.7789 174.788 40.2389C175.325 39.7789 176.091 39.4722 176.857 39.5488C178.082 39.7022 179.921 41.3123 180.61 39.7022C180.61 39.6255 180.687 39.5488 180.763 39.5488C180.763 39.4722 180.687 39.3188 180.687 39.3188C180.763 39.3188 180.763 39.2422 180.763 39.2422ZM174.942 41.3123C175.018 41.9257 175.171 42.4624 175.325 42.9991C176.091 42.309 176.933 41.6957 178.006 41.7723C178.695 41.849 179.308 41.9257 179.997 42.2324C181.376 42.8457 181.3 41.6957 181.07 40.6989C180.61 41.2356 179.997 41.389 179.231 41.2356C177.776 40.8523 176.32 39.7022 175.095 41.2356C175.018 41.3123 174.942 41.3123 174.942 41.3123ZM183.138 29.0448C182.525 29.0448 181.912 29.1215 181.376 29.2748C179.997 29.6582 178.619 30.2715 177.163 30.2715C177.087 30.2715 177.01 30.2715 176.933 30.2715L176.933 30.3482C176.933 30.4249 176.857 30.4249 176.857 30.5015C176.857 30.5015 176.857 30.5016 176.78 30.5782C175.708 32.8017 174.942 35.3319 174.788 37.8621C175.554 37.4787 176.55 37.2487 177.316 37.5554C177.853 37.7854 179.768 39.0888 180.151 38.5521C180.227 38.3988 180.457 38.3988 180.61 38.3988C180.457 35.3319 180.687 31.0383 183.138 29.0448ZM198.612 22.7577C196.697 26.438 192.637 28.4314 188.577 28.6614C188.424 28.6614 188.347 28.6614 188.271 28.5848C187.428 29.0448 186.279 29.1215 185.283 29.0448C184.977 29.0448 184.67 29.0448 184.364 29.0448C184.364 29.1215 184.364 29.2748 184.211 29.3515C182.219 30.5782 181.606 34.0285 181.606 36.0986C181.529 38.2454 181.912 40.2389 182.296 42.309C182.372 42.8457 181.836 43.3058 181.3 43.3058C180.763 43.3058 180.457 43.3058 179.997 43.0758C178.082 42.2324 176.857 42.6157 175.478 43.9958C175.248 44.2258 174.788 44.2258 174.635 43.8425C173.103 39.3955 173.946 34.2585 176.014 30.1182C172.644 29.7348 167.435 27.5113 167.818 24.4445C166.362 22.6043 165.136 20.6109 163.987 18.6174C163.375 17.6207 162.609 16.5473 162.455 15.3972L162.379 15.4739C162.302 17.6207 163.834 20.4575 164.907 22.221C165.903 23.6778 167.435 24.9045 168.201 26.5146C168.354 26.8213 168.047 27.0513 167.818 27.0513C162.149 30.1949 158.702 37.7087 160.77 44.0725C162.532 49.3628 167.741 51.3563 172.95 51.8164C178.465 52.2764 184.364 51.7397 188.271 47.216C190.186 44.9926 191.564 42.2324 191.794 39.2422C191.947 36.6353 191.794 33.1851 189.649 31.3449C189.496 31.4216 189.266 31.4983 189.037 31.575C187.964 31.9583 186.815 31.575 185.819 31.1916C185.283 30.9616 185.589 30.2716 186.126 30.4249C188.883 31.4216 190.415 29.7348 192.79 28.5848C194.322 27.818 198.842 25.2112 198.612 22.7577Z" fill="#8A9F96" stroke="#8A9F96"/>
<path d="M182.449 16.2407C181.53 15.6273 180.534 15.934 179.691 16.5474C179.232 16.9308 179.921 17.4675 180.304 17.1608C180.764 16.7774 181.223 16.6241 181.759 16.8541C182.372 17.1608 182.602 17.7741 182.296 18.3108C182.066 18.7709 182.908 19.0009 183.138 18.5409C183.751 17.6208 183.291 16.7774 182.449 16.2407Z" fill="#8A9F96" stroke="#8A9F96"/>
<path d="M172.797 12.2536C172.184 12.4069 172.414 13.1736 173.027 13.0203C173.946 12.8669 174.788 13.097 174.788 14.1704C174.788 14.7071 175.708 14.7837 175.708 14.247C175.708 12.6369 174.176 12.0236 172.797 12.2536Z" fill="#8A9F96" stroke="#8A9F96"/>
<path d="M170.805 35.5619C169.427 36.0219 167.894 35.1785 167.511 33.7984C167.128 32.3417 167.818 30.8082 169.427 30.6549C169.503 30.6549 169.58 30.6549 169.656 30.6549C169.733 30.5782 169.81 30.5782 169.886 30.5782C171.188 30.5015 172.184 31.4216 172.261 32.725C172.337 33.7984 171.878 35.1785 170.805 35.5619ZM169.81 31.3449C169.733 31.3449 169.656 31.3449 169.58 31.4216C166.899 31.6516 168.89 36.1752 170.652 34.7185C171.801 33.7217 171.648 31.2683 169.81 31.3449Z" fill="#8A9F96" stroke="#8A9F96"/>
<path d="M169.426 38.5521C169.35 39.6255 168.737 40.9289 167.741 41.4656C166.592 42.079 165.213 41.6956 164.6 40.4689C163.834 38.7821 165.06 36.6353 166.975 36.712C167.051 36.712 167.051 36.712 167.128 36.712C168.43 36.6353 169.503 37.2487 169.426 38.5521ZM167.434 37.5554C167.358 37.5554 167.281 37.5554 167.205 37.4787C167.128 37.4787 167.128 37.4787 167.051 37.4787C165.596 37.4787 164.907 39.6255 165.902 40.6222C166.439 41.1589 167.051 41.1589 167.588 40.6222C168.277 39.8555 169.273 37.402 167.434 37.5554Z" fill="#8A9F96" stroke="#8A9F96"/>
<path d="M126.83 52.1448C126.359 51.0783 126.09 49.9452 125.888 48.8787C123.331 49.6786 120.571 49.3453 118.081 47.0124C117.139 46.1459 116.466 45.1461 115.928 44.013C115.591 44.6795 114.851 44.9461 114.043 44.9461C114.043 45.0128 114.043 45.0794 113.976 45.0794C112.361 47.8123 108.928 49.5453 105.765 48.8787C103.948 48.4788 101.391 47.479 102.131 45.2127C103.141 42.0133 109.265 39.8137 112.226 41.6134C112.63 41.0135 113.236 40.6136 113.976 40.5469C114.38 40.5469 114.716 40.6136 114.985 40.7469C114.245 35.8811 116.062 30.2155 118.081 26.0829C117.206 26.0829 116.197 25.8163 115.658 25.0831C115.591 25.0164 115.524 24.8831 115.524 24.8164C111.553 25.6163 105.496 22.7501 106.371 18.0843C106.707 16.3513 109.063 16.1513 110.409 16.5513C113.236 17.3511 115.524 19.8173 117.206 22.0836C117.274 22.0836 117.341 22.0836 117.408 22.0836C118.351 22.0836 118.956 22.8834 119.36 23.6166C122.792 17.6844 128.378 11.6188 135.714 12.0188C136.185 12.0188 135.983 12.8186 135.512 12.752C126.427 12.2187 119.697 22.3502 117.274 29.8822C116.13 33.4149 114.918 37.7474 115.793 41.5467C116.062 41.9467 116.197 42.4799 116.264 43.0131C116.331 43.2131 116.466 43.4131 116.533 43.613C118.283 47.1457 121.985 49.1454 125.686 48.1455C125.484 46.6791 125.484 45.2127 125.552 43.7463C125.619 42.8132 125.686 41.88 125.821 40.8802C125.282 41.2135 124.609 41.2801 124.004 40.8802C123.936 40.8135 123.869 40.8135 123.802 40.7469C121.716 41.9467 118.081 41.1468 117.139 38.8805C116.668 37.7474 117.408 36.7476 118.485 36.281C120.504 35.4145 122.254 36.1477 123.6 37.6141C123.802 37.4141 124.071 37.2808 124.408 37.2142C125.215 37.0809 125.888 37.5475 126.225 38.1474C126.965 35.0146 128.378 31.9485 130.868 30.0821C130.532 30.0155 130.195 29.8155 130.061 29.4156C129.792 28.8824 129.859 28.2825 130.061 27.7492C127.773 26.9494 125.821 24.7498 125.013 22.5502C124.542 21.1504 124.138 19.0841 125.754 18.3509C127.436 17.5511 129.792 19.684 130.734 20.8172C132.013 22.3502 133.157 24.3499 132.618 26.4161C133.022 26.6828 133.426 27.0827 133.56 27.5493C133.695 28.0158 133.628 28.4824 133.426 28.949C135.108 28.6824 136.791 29.2156 137.397 30.7487C137.531 30.2821 137.8 29.8822 138.339 29.8155C138.675 29.7489 139.079 29.8822 139.348 30.0821C140.223 28.2825 142.242 26.8161 143.925 25.9496C145.338 25.283 147.694 24.6831 148.636 26.4161C149.578 28.0825 148.568 30.4154 147.021 31.4152C145.069 32.6817 142.511 33.1482 140.223 32.8816L140.156 32.9483C139.819 33.2816 139.214 33.6148 138.675 33.4815C138.271 33.4149 137.935 33.2149 137.598 32.9483C137.531 35.8811 136.118 38.8805 134.503 41.2801C134.301 41.5467 134.099 41.88 133.897 42.1466C134.166 42.1466 134.435 42.1466 134.705 42.2133C135.647 42.5465 136.051 43.4131 135.916 44.2796C138.945 43.813 142.242 47.2124 142.713 50.0119C142.915 51.2116 142.108 52.1448 140.896 52.0782C137.464 52.0115 135.378 49.1453 134.099 46.2792C133.762 46.4125 133.426 46.4125 133.022 46.3459C132.147 46.1459 131.811 45.3461 131.811 44.4795C130.195 46.0793 128.311 47.479 126.359 48.2788C126.696 50.1452 127.301 51.8782 128.176 53.6779C128.378 54.1444 128.648 54.611 128.849 55.0776C129.186 55.4109 129.388 55.9441 129.388 56.4107C129.388 56.4774 129.455 56.544 129.455 56.6773C129.994 58.0771 130.195 59.6101 130.936 60.8765C131.138 61.2765 130.532 61.7431 130.263 61.3431C129.59 60.1434 129.388 58.8103 128.917 57.5438C128.446 58.0104 127.705 58.5436 127.032 58.3437C126.965 58.7436 126.898 59.0769 126.628 59.4102C126.359 59.8767 126.023 60.2767 125.619 60.6099C124.744 61.2765 123.735 61.6764 122.658 61.8764C120.841 62.143 118.216 62.0763 116.735 60.6766C113.505 57.6105 122.658 52.678 126.09 55.5442C126.292 55.0776 126.696 54.6777 127.301 54.5444C127.436 54.5444 127.503 54.5444 127.638 54.5444C127.638 54.0111 127.234 53.078 126.83 52.1448ZM126.359 56.8773C124.542 54.5444 120.235 56.2774 118.351 57.8771C117.072 58.9436 116.87 60.2767 118.552 61.0099C120.1 61.6764 122.052 61.8097 123.667 61.3431C124.542 61.1432 125.417 60.7433 126.023 60.0767C126.494 59.5435 126.628 58.9436 126.83 58.277C126.494 57.9438 126.359 57.4105 126.359 56.8773ZM128.513 55.8775C128.244 55.6775 127.907 55.5442 127.571 55.7442C127.301 55.8775 127.167 56.2107 127.167 56.544C127.167 56.544 127.167 56.544 127.167 56.6107C127.234 56.744 127.234 56.8773 127.167 57.0106C127.167 57.2106 127.234 57.4772 127.369 57.6771C127.571 57.6771 127.705 57.7438 127.773 58.0104C128.244 58.1437 128.715 57.7438 129.051 57.3439C129.051 57.2772 129.051 57.2772 129.051 57.2105C129.051 57.1439 129.051 57.1439 129.051 57.0773C128.849 56.6773 128.715 56.2774 128.513 55.8775ZM135.849 45.346C135.647 45.6793 135.378 45.9459 135.041 46.1459C136.185 48.6121 137.868 51.2116 140.829 51.5449C142.444 51.6782 142.444 50.5451 141.906 49.3453C140.964 47.3457 138.406 44.5462 135.849 45.346ZM134.974 43.2797C134.301 42.9465 133.359 43.1464 133.224 44.013C133.224 44.2129 133.089 44.3462 132.887 44.4129C132.753 45.0794 132.955 45.9459 133.762 45.9459C134.301 45.9459 134.839 45.6127 135.176 45.2127C135.176 45.0794 135.243 44.8795 135.445 44.8128C135.647 44.2129 135.579 43.613 134.974 43.2797ZM140.829 32.3484C142.511 32.5484 144.463 32.2817 146.011 31.5485C147.357 30.882 149.443 28.7491 148.232 27.1494C146.213 24.4165 141.233 28.4158 140.156 30.8154C140.223 30.882 140.358 31.0153 140.425 31.082C140.694 31.4152 140.896 31.8818 140.829 32.3484ZM138.339 32.1484C138.339 32.2151 138.339 32.3484 138.271 32.4151C138.743 32.9483 139.618 33.2816 140.021 32.615C140.089 32.5484 140.089 32.3484 140.021 32.1484C139.954 31.9485 139.819 31.7485 139.685 31.5485C139.416 31.6818 139.079 31.5485 139.214 31.2153C139.214 31.1486 139.214 31.1486 139.281 31.082C139.214 31.082 139.214 31.0153 139.146 31.0153C139.012 30.9487 138.945 30.882 138.81 30.882L138.608 30.8154C138.473 30.8154 138.541 30.8153 138.473 30.882C138.473 30.882 138.406 30.9487 138.406 31.0153C138.271 31.3486 138.271 31.7485 138.339 32.1484ZM130.599 27.2826C131.003 26.8161 131.541 26.4161 132.147 26.4161C132.753 23.6833 129.859 20.0173 127.301 19.3508C124.609 18.6176 125.619 22.1503 126.359 23.35C127.301 25.0164 128.648 26.6828 130.599 27.2826ZM130.936 29.2823C131.34 29.6822 132.013 29.6156 132.551 29.4156C132.618 29.4156 132.686 29.3489 132.753 29.3489C133.089 28.8824 133.291 28.2158 132.887 27.7492C132.686 27.4826 132.349 27.216 132.08 27.216C131.743 27.1493 131.407 27.3493 131.205 27.6159C131.272 27.8159 131.138 28.0825 130.936 28.1492C130.734 28.4824 130.667 29.0157 130.936 29.2823ZM123.465 40.2803C123.263 39.8804 123.129 39.4138 123.196 39.0139C123.196 38.8139 123.263 38.6806 123.263 38.4806C122.119 37.0142 120.033 36.0144 118.283 37.3475C117.476 37.9474 117.879 38.8139 118.552 39.4138C119.898 40.4803 121.917 41.0801 123.465 40.2803ZM126.023 40.0137C126.023 39.947 126.023 39.8137 126.09 39.7471C126.09 39.6804 126.023 39.6804 126.023 39.6137C125.955 38.8805 125.282 37.7474 124.408 38.1474C124.004 38.2807 123.936 38.8139 123.936 39.1472C123.936 39.3471 124.004 39.6138 124.138 39.8137C124.408 39.6804 124.609 40.0137 124.542 40.2803L124.609 40.3469C125.081 40.6802 125.619 40.3469 126.023 40.0137ZM126.561 47.9456C126.83 47.8123 127.167 47.6789 127.436 47.5456C130.936 45.6793 133.897 42.2799 135.647 38.7472C136.454 37.0809 137.262 34.9479 137.195 33.0149C137.127 30.6154 135.243 29.4156 133.359 29.8155L133.291 29.8822C133.089 29.9488 132.955 30.0155 132.753 30.0821C132.618 30.1488 132.484 30.1488 132.349 30.1488C132.013 30.3488 131.676 30.5487 131.34 30.8154C127.167 34.4147 126.157 40.4136 126.359 45.6127C126.359 46.4792 126.494 47.2124 126.561 47.9456ZM115.457 24.0832C115.457 23.75 115.524 23.4167 115.726 23.1501C115.928 22.8168 116.197 22.5502 116.466 22.3502C115.187 20.6172 113.438 18.6176 111.486 17.7511C109.601 16.8845 106.169 16.7512 107.38 20.0173C108.457 23.0834 112.293 24.6831 115.457 24.0832ZM118.485 25.3497C118.485 25.3497 118.485 25.283 118.552 25.283C118.754 24.9497 118.889 24.6165 119.091 24.2832C118.956 24.2832 118.889 24.2832 118.822 24.1499C118.552 23.55 118.014 22.8834 117.341 22.8834C116.937 22.8834 116.533 23.1501 116.331 23.4834C116.13 23.8833 116.062 24.3499 116.399 24.7498C116.87 25.283 117.812 25.3497 118.485 25.3497ZM111.957 42.4132C109.534 40.6802 104.823 42.4799 103.275 44.6795C101.862 46.6791 104.285 47.9456 106.034 48.1455C108.928 48.5455 111.89 47.4123 113.438 44.8128C112.63 44.6129 111.89 43.9463 111.957 42.8798C111.89 42.7465 111.89 42.6132 111.957 42.4132ZM115.457 43.2131C115.457 43.0798 115.457 43.0131 115.524 42.8798C115.457 42.6132 115.322 42.3466 115.255 42.0133C114.985 41.6134 114.649 41.3468 114.043 41.3468C113.505 41.3468 113.034 41.6134 112.765 42.08C112.899 42.2799 112.765 42.4799 112.63 42.6132C112.63 42.6799 112.63 42.7465 112.63 42.8132C112.697 43.613 113.37 44.2796 114.178 44.2796C114.851 44.2796 115.524 43.9463 115.457 43.2131Z" fill="#8A9F96" stroke="#8A9F96"/>
<path d="M285.521 51.0188C285.445 50.8657 285.293 50.8657 285.064 50.8657L284.988 50.8657L284.912 50.7892C283.692 49.6414 282.549 48.3406 281.405 46.6572L281.329 46.5042L281.482 46.4277C284.302 45.586 286.893 43.9026 288.189 42.9844C288.418 42.8314 288.646 42.6783 288.799 42.5253C288.951 42.4488 289.027 42.2192 289.027 42.0662C289.027 41.9132 288.951 41.8366 288.875 41.7601C288.189 41.148 287.427 40.7654 286.665 40.3828L286.436 40.2298L286.665 40.0767C287.655 39.6176 288.799 39.082 289.79 38.4699C291.238 37.4751 291.924 36.3274 292 35.1031C292 34.9501 292 34.8735 291.924 34.797C291.848 34.7205 291.695 34.7205 291.543 34.7205L291.466 34.7205L291.39 34.644C291.238 34.491 291.085 34.5675 290.933 34.644C288.875 35.7918 285.979 34.644 283.921 33.8023L283.616 33.6493C281.787 32.8841 279.119 31.7363 277.213 29.8999L277.061 29.7469L277.29 29.6704L277.366 29.5938C277.442 29.5173 277.823 29.2113 277.595 28.9052C276.832 27.7574 276.527 26.5331 276.527 25.0028C276.527 24.9263 276.527 24.9263 276.527 24.8497L276.527 24.7732L276.756 24.6967C276.832 24.6967 276.832 24.6967 276.909 24.6202C277.061 24.5437 277.29 24.4672 277.442 24.3141C278.357 23.702 279.043 22.6307 279.5 21.0239C279.576 20.8708 279.5 20.7178 279.424 20.6413C279.271 20.4882 278.966 20.4882 278.738 20.6413L278.662 20.6413L278.585 20.6413C277.518 20.4117 276.451 20.4117 275.384 20.3352C274.622 20.3352 273.784 20.2587 273.021 20.1822C270.963 19.9526 268.982 18.9579 267.076 18.0397C266.543 17.8101 266.085 17.5806 265.628 17.351L265.399 17.2745L265.552 17.1215C266.085 16.7389 266.466 16.2798 266.848 15.8207C267 15.6676 267 15.4381 267 15.285C266.924 15.132 266.848 15.0555 266.619 15.0555C266.009 14.9025 265.476 14.7494 264.866 14.5964L264.713 14.5199L264.79 14.3668C265.018 13.8312 265.323 13.2956 265.552 12.913C265.933 12.3009 266.238 11.7652 266.466 11.0001C266.466 10.847 266.466 10.7705 266.466 10.694C266.39 10.6175 266.314 10.541 266.162 10.4644C264.866 10.2349 263.646 9.92882 262.351 9.69927C257.168 8.70454 251.756 7.70981 246.878 5.0317C246.726 4.95518 246.573 5.0317 246.345 5.10822C246.268 5.18474 246.192 5.26125 246.192 5.33776L246.116 5.49081C245.887 6.02643 245.887 6.10295 245.811 6.63857L245.811 6.7151L245.811 6.79159C245.735 6.86811 245.735 6.94464 245.735 7.02116C246.192 11.1531 245.963 14.5199 245.125 17.8866C244.744 19.264 244.134 20.5648 243.601 21.8656C242.991 23.2429 242.305 24.6967 242 26.2271C242 26.3801 242 26.5331 242.076 26.6097C242.152 26.6862 242.229 26.7627 242.305 26.7627C243.524 26.7627 244.973 26.4566 246.421 25.921L246.573 25.8445L246.573 26.074C246.573 26.9157 246.573 27.6044 246.345 28.293C246.345 28.4461 246.345 28.5991 246.421 28.6756C246.497 28.7521 246.573 28.8287 246.649 28.8287C248.021 28.8287 249.317 28.5226 250.537 27.8339L250.765 27.6809L250.689 28.3696C250.155 32.8841 249.546 37.4751 248.174 41.9132C248.174 41.9897 248.174 42.1427 248.174 42.2192C248.25 42.2958 248.402 42.3723 248.555 42.4488C249.774 42.7548 251.299 42.3723 252.899 41.5306L252.976 41.4541L253.052 41.5306L253.128 41.6071C254.119 42.2192 255.491 42.2957 257.015 41.9132L257.168 41.8366L257.168 41.9897C257.091 46.7338 256.71 52.243 254.043 57.1402C253.966 57.2932 253.966 57.4462 254.043 57.5993C254.119 57.7523 254.271 57.7523 254.424 57.7523C256.329 57.4462 258.235 56.681 259.835 55.5333C260.293 55.2272 260.75 54.8446 261.207 54.3855L261.36 54.2325L261.436 54.3855C261.588 54.6151 261.665 54.7681 261.817 54.9977C262.274 55.7628 262.808 56.528 263.189 57.3697C263.189 57.4462 263.265 57.4462 263.341 57.5227C263.494 57.5993 263.723 57.5227 263.875 57.4462L263.951 57.3697C265.018 56.6045 265.704 55.9924 266.238 55.0742C266.695 54.3855 267.152 53.6969 267.534 53.0082L267.915 52.3961C268.067 52.1665 268.22 51.937 268.448 51.8604C269.287 51.2483 270.125 52.243 270.735 52.9317C270.887 53.0847 270.963 53.2378 271.116 53.3143C271.116 53.3143 271.192 53.3908 271.268 53.3908L271.345 53.3908L271.345 53.4673C271.649 54.3855 272.031 55.3037 272.335 56.2219C272.793 57.3697 273.25 58.5175 273.631 59.7417C273.707 59.9713 273.936 60.0478 274.088 59.9713C275.841 59.6652 280.338 58.2879 283.311 56.2219C286.131 54.8446 286.817 52.9317 285.521 51.0188ZM275.841 51.4013C276.299 51.5544 276.756 51.7839 277.061 51.7074C277.366 51.6309 277.671 51.5544 277.976 51.3248C279.043 50.6362 279.805 49.0293 280.415 47.7285L280.567 47.3459L280.72 47.4989C281.863 49.1058 283.082 50.4831 284.302 51.6309C284.378 51.7074 284.454 51.7074 284.607 51.7074L284.683 51.7074L284.759 51.7839C285.521 53.0847 284.988 54.462 283.006 55.8393C281.634 56.7576 280.034 57.4462 279.043 57.9053L278.89 57.9818C277.518 58.594 276.146 59.0531 274.927 59.3592C274.698 59.4357 274.622 59.2061 274.317 57.9818C274.241 57.5993 274.088 57.2167 274.012 57.0636C273.86 56.681 273.707 56.2985 273.555 55.9159C273.174 55.0742 272.869 54.156 272.564 53.2378L272.564 53.1612L272.64 53.0847C272.945 52.7021 273.25 52.3195 273.555 51.6309C273.631 51.4013 273.784 51.2483 273.936 51.1718C274.393 50.7892 275.155 51.0953 275.841 51.4013ZM272.945 50.6362C272.716 50.8657 272.488 51.3248 272.335 51.7074C272.259 51.8604 272.183 51.937 272.183 52.09C272.183 52.1665 272.107 52.1665 272.03 52.243C271.573 52.5491 270.582 51.7839 269.515 50.9422C269.439 50.8657 269.363 50.7892 269.287 50.7892C269.134 50.6362 268.829 50.7127 268.677 50.7892C268.601 50.7892 268.601 50.8657 268.601 50.8657C267.915 51.6309 267.381 52.4726 266.848 53.3143C266.085 54.5386 265.323 55.7628 264.18 56.681L264.027 56.7576L263.951 56.6045C263.646 55.9924 263.265 55.3802 262.884 54.7681C262.732 54.462 262.579 54.2325 262.427 53.9264L262.351 53.8499L262.427 53.7734C263.189 52.8552 263.799 51.8604 264.256 50.7892C264.332 50.6362 264.332 50.4831 264.18 50.4066C264.027 50.2536 263.723 50.2536 263.418 50.4831C263.341 50.5596 263.265 50.6362 263.189 50.7892C262.503 52.4726 261.284 54.0029 259.607 55.1507C258.463 55.9159 257.168 56.528 255.796 56.9106L255.491 56.9871L255.643 56.681C258.006 51.7074 258.311 46.3512 258.387 41.7601L258.387 41.6836L258.463 41.6071C258.692 41.5306 258.845 41.3775 258.997 41.2245C259.835 40.6889 260.369 39.7707 260.826 38.4699L260.902 38.3168L261.055 38.3168C261.741 38.4699 262.427 38.3168 263.037 37.8577C264.942 36.5569 266.238 33.0371 266.619 31.3537C266.695 31.2007 266.619 31.0477 266.543 30.9711C266.39 30.8181 266.085 30.8946 265.857 31.0477C265.781 31.1242 265.704 31.2007 265.628 31.3537C265.247 32.8841 264.104 36.0213 262.655 37.016C262.198 37.3221 261.817 37.3986 261.36 37.3221L261.207 37.3221L261.36 36.7865C261.588 35.8683 261.817 34.9501 262.274 34.1849C262.351 33.9553 262.351 33.8023 262.198 33.6493C262.046 33.4962 261.741 33.4962 261.512 33.6493C261.436 33.7258 261.36 33.8023 261.36 33.8788C260.902 34.8736 260.598 35.8683 260.293 36.9395C260.14 37.3986 259.988 37.8577 259.835 38.3934C259.53 39.235 258.921 40.0767 258.006 40.6889C256.787 41.5306 255.415 41.7601 254.271 41.148L254.043 41.0715L254.195 40.9184C256.405 39.3116 257.701 37.0926 257.625 35.2561C257.625 35.1031 257.549 34.9501 257.396 34.9501C257.244 34.8735 256.939 34.8736 256.787 35.0266C256.71 35.1031 256.558 35.2561 256.558 35.4857C256.634 37.0925 255.415 39.0055 253.509 40.3063C252.213 41.2245 250.765 41.7601 249.546 41.6836L249.393 41.6836L249.47 41.5306C250.689 37.2456 251.299 32.7311 251.832 28.3696L251.985 27.2983L251.985 27.1453L252.061 27.0687C253.509 25.921 254.805 24.3141 255.72 22.4012C255.796 22.1716 255.796 22.0186 255.643 21.8656C255.491 21.7125 255.186 21.7125 254.957 21.8656C254.881 21.9421 254.805 22.0186 254.805 22.0951C254.119 23.4724 252.899 25.3854 251.07 26.6862C250.003 27.4513 248.86 27.8339 247.64 27.9104L247.488 27.9104L247.488 27.7574C247.564 27.0688 247.64 26.3036 247.564 25.5384L247.564 25.4619L247.64 25.3854C248.098 25.1558 248.555 24.8497 249.012 24.5437C250.155 23.7785 250.994 22.8603 251.604 21.9421C251.68 21.789 251.756 21.636 251.604 21.483C251.451 21.3299 251.07 21.3299 250.841 21.483C250.765 21.5595 250.689 21.5595 250.689 21.636C250.232 22.4012 249.47 23.0898 248.555 23.7785C248.174 24.0846 247.716 24.3141 247.259 24.5437L247.183 24.5437C247.03 24.5437 246.878 24.5437 246.726 24.6967C246.649 24.7732 246.573 24.7732 246.573 24.8497L246.573 24.9263L246.497 24.9263C245.354 25.3854 244.287 25.6914 243.296 25.8445L243.067 25.8445L243.143 25.6149C243.524 24.1611 244.134 22.7838 244.744 21.4065C245.354 20.0291 246.04 18.4988 246.421 17.045C247.335 13.4486 247.107 9.92882 246.802 6.94464L246.802 6.86811L246.802 6.79159L246.802 6.7151L246.878 6.7151C246.954 6.63858 247.03 6.63856 250.689 8.01588C251.146 8.16891 251.527 8.32195 251.604 8.39846C253.433 9.0106 255.338 9.46971 257.015 9.85229C258.463 10.1584 259.988 10.4644 261.436 10.694C262.122 10.847 262.884 10.9235 263.57 11.0766C264.18 11.2296 264.561 11.3826 264.713 11.7652C264.942 12.3009 264.561 12.913 264.18 13.6017C264.027 13.8312 263.951 14.0608 263.799 14.2903L263.723 14.3668L263.646 14.3668C263.265 14.2903 262.96 14.2138 262.655 14.1373C262.503 14.1373 262.351 14.1373 262.274 14.2138C262.122 14.3668 261.97 14.5964 262.046 14.8259C262.046 14.979 262.198 15.132 262.427 15.132C263.113 15.2851 263.723 15.4381 264.409 15.6676C264.713 15.7442 265.095 15.8972 265.399 15.9737L265.628 16.0502L265.476 16.2033C265.247 16.4328 264.942 16.6624 264.637 16.8919C263.723 17.5806 262.655 17.9632 261.588 18.4223C260.826 18.7283 259.988 19.0344 259.302 19.4935C259.302 19.4935 259.226 19.4935 259.226 19.57C258.997 19.7231 258.997 19.9526 259.073 20.1057C259.226 20.3352 259.53 20.4117 259.835 20.2587C260.598 19.7996 261.436 19.4935 262.274 19.1109C263.113 18.8049 263.799 18.4223 264.561 18.0397L264.713 17.9632L264.713 18.1927C264.713 18.3458 264.79 18.4223 264.942 18.4988C265.323 18.6518 265.704 18.8048 266.085 19.0344C267.991 19.8761 269.973 20.7943 272.03 21.2534C273.098 21.483 274.241 21.5595 275.308 21.5595C276.223 21.5595 277.137 21.636 278.052 21.789L278.204 21.789L278.128 21.9421C277.823 22.7073 277.366 23.2429 276.756 23.702C276.223 24.0846 275.46 24.3906 274.47 24.6202C273.479 24.8497 272.412 25.1558 271.268 25.768L271.192 25.768C270.963 25.921 270.963 26.1505 271.04 26.3036C271.192 26.5331 271.421 26.6096 271.802 26.4566C272.64 25.9975 273.631 25.7679 274.47 25.5384C274.774 25.4619 275.003 25.3854 275.308 25.3088L275.46 25.2323L275.46 25.3854C275.46 26.7627 275.765 27.8339 276.299 28.9817L276.375 29.1347L276.223 29.2112C275.994 29.2878 275.765 29.3643 275.537 29.3643C274.927 29.5173 274.317 29.6704 273.784 29.9764C273.479 30.206 273.25 30.4355 273.174 30.8181C273.098 31.0477 273.098 31.3537 273.021 31.5833C273.021 32.0424 272.945 32.5015 272.564 32.8076C272.335 32.9606 272.107 33.0371 271.726 33.0371L271.421 33.0371C270.735 33.0371 270.125 33.0371 269.439 33.2667C269.363 33.2667 269.287 33.3432 269.287 33.3432C269.058 33.4962 269.058 33.8023 269.134 33.9553C269.21 34.1849 269.439 34.2614 269.744 34.1084C270.354 33.8788 270.963 33.8788 271.497 33.8788C272.183 33.8788 272.716 33.8788 273.326 33.4962C273.555 33.3432 273.784 33.1136 274.012 32.8076C274.241 32.5015 274.165 32.0424 274.165 31.6598C274.165 31.5833 274.165 31.5068 274.165 31.3537C274.165 31.2007 274.241 30.9712 274.47 30.8181C274.774 30.6651 275.155 30.4355 275.841 30.206L275.918 30.206L275.994 30.2825C277.899 32.2719 280.491 33.5728 283.159 34.644C285.521 35.6387 288.494 36.6334 290.704 35.8683L291.009 35.7918L290.933 36.0978C290.704 36.71 290.171 37.3221 289.332 37.9342C288.341 38.6229 287.046 39.1585 286.131 39.6176C285.826 39.7707 285.598 39.8472 285.369 39.9237C285.293 39.9237 285.293 40.0002 285.293 40.0002C285.14 40.1533 284.988 40.3063 284.988 40.4593C284.988 40.6124 285.064 40.6889 285.216 40.8419C285.445 40.9184 285.598 41.0715 285.826 41.148C286.436 41.4541 287.046 41.8366 287.655 42.2192L287.808 42.2957L287.655 42.4488C286.055 43.52 283.692 44.9739 281.177 45.739L281.101 45.739L281.024 45.739C280.796 45.6625 280.567 45.6625 280.415 45.8156C280.338 45.8156 280.338 45.8921 280.262 45.8921L280.186 45.8921C277.976 46.3512 276.223 46.0451 274.927 44.9739C274.851 44.8973 274.774 44.8973 274.622 44.8973L274.546 44.8973L274.47 44.8973C273.479 44.2852 272.564 43.4435 271.649 42.2957L271.497 42.0662L272.335 42.0662C273.326 42.0662 274.393 42.0662 275.46 42.2957C275.613 42.2957 275.689 42.2958 275.841 42.2192C275.994 42.1427 276.07 41.9897 276.07 41.9132L276.146 41.6071C276.299 40.8419 276.375 39.9237 277.061 39.4646C277.137 39.3881 277.29 39.3116 277.366 39.3116C277.899 39.082 278.433 39.0055 279.043 38.929C279.348 38.8524 279.576 38.8525 279.881 38.7759C279.957 38.7759 280.034 38.6994 280.11 38.6994C280.338 38.5464 280.491 38.1638 280.338 37.9342C280.262 37.7812 280.11 37.7812 279.957 37.7812C279.652 37.8577 279.348 37.9342 279.043 37.9342C278.128 38.0873 277.213 38.2403 276.451 38.7759L276.375 38.8525C275.689 39.3116 275.384 40.3063 275.232 41.148L275.232 41.301L275.079 41.301C274.317 41.2245 273.479 41.2245 272.716 41.2245C272.03 41.2245 271.421 41.2245 270.735 41.148C270.582 41.148 270.43 41.148 270.354 41.301C270.125 41.454 269.973 41.6836 270.125 41.9897C271.421 44.1322 272.869 45.5095 274.698 46.2747C275.918 47.0398 277.518 47.3459 279.348 47.1164L279.652 47.1164L279.271 47.805C278.814 48.6467 278.357 49.4884 277.823 50.2536C277.747 50.4066 277.671 50.4831 277.518 50.5596C276.985 50.9422 276.375 50.6362 275.765 50.3301C275.308 50.1005 274.851 49.871 274.546 50.024C274.012 50.1771 273.784 50.2536 273.479 50.4066C273.326 50.3301 273.174 50.4831 272.945 50.6362Z" fill="#8A9F96" stroke="#8A9F96"/>
</g>
</svg>
