<svg width="299" height="85" viewBox="0 0 299 85" fill="none" xmlns="http://www.w3.org/2000/svg">
<g opacity="0.4">
<path d="M282.651 63.8514C282.771 63.7393 282.775 63.6229 282.779 63.5066L282.784 63.3902L282.9 63.3944L283.015 63.3986L283.371 63.1785C284.8 62.1819 286.348 61.0731 287.665 59.9559C289.098 58.8428 290.526 57.8462 291.959 56.7332C293.271 55.7323 294.576 54.9641 295.76 54.3081C295.76 54.3081 295.76 54.3081 295.875 54.3123C295.996 54.2001 295.996 54.2001 296.116 54.088C296.236 53.9758 296.36 53.7474 296.253 53.5105C294.435 49.2507 292.029 45.2026 289.619 41.2709C287.316 37.576 285.014 33.8812 283.303 29.8583L283.192 29.7378L283.312 29.6256C283.432 29.5135 283.676 29.1729 283.453 28.9318C282.688 27.6226 281.803 26.4256 280.919 25.2285C279.591 23.433 278.264 21.6374 277.529 19.5138C277.422 19.277 277.31 19.1564 277.078 19.148L276.962 19.1438L276.851 19.0233C276.739 18.9027 276.507 18.8943 276.276 18.8859C274.628 19.5252 271.2 21.2648 268.712 22.689L268.493 22.3316C271.649 18.4852 272.09 15.9383 270.067 14.1175C268.831 13.0242 267.834 11.7066 266.834 10.5054C265.39 8.70562 263.952 6.78952 262.02 5.67102C260.311 4.7936 258.544 5.54498 257.355 6.31736C256.523 6.86967 255.798 7.65887 255.074 8.44806C253.989 9.57368 253.23 11.2936 252.836 12.5608C251.397 17.0519 252.739 21.6439 253.969 26.1153L254.481 27.9978L253.918 27.5115C252.458 26.1771 250.999 24.8427 249.534 23.6246C248.86 23.0177 248.186 22.4108 247.512 21.8039L246.838 21.197C245.039 19.6173 242.905 17.676 240.733 16.7818C240.617 16.7776 240.617 16.7776 240.501 16.7733L240.385 16.7691C240.269 16.7649 240.149 16.8771 240.033 16.8729C240.033 16.8729 240.033 16.8729 239.917 16.8687L239.797 16.9808C239.797 16.9808 239.797 16.9808 239.677 17.093C239.677 17.093 239.557 17.2051 239.553 17.3215L239.549 17.4378L239.544 17.5541C239.54 17.6705 239.536 17.7868 239.532 17.9032C239.936 19.5488 239.645 21.1692 239.466 22.9101C239.325 23.604 239.304 24.1857 239.167 24.7632L239.163 24.8795L239.047 24.8753C236.369 25.1277 234.374 25.7544 232.946 26.751C232.234 27.1912 231.629 27.8683 231.256 28.5537C230.39 30.0368 230.099 31.6571 230.521 32.8374C230.834 33.7807 231.624 34.3918 232.655 34.7787L232.882 34.9034L232.642 35.1277C231.789 36.2617 231.386 37.7616 231.683 39.1703C231.989 40.3463 232.654 41.1859 233.68 41.6891C235.277 42.446 237.474 42.6422 239.693 42.2566L239.912 42.614C238.484 43.6107 237.403 44.62 236.554 45.6377C236.314 45.8619 236.305 46.0946 236.413 46.3315C237.577 49.4026 239.91 52.2831 242.246 55.0472C242.911 55.8868 243.581 56.6101 244.135 57.3291C244.355 57.6865 244.826 57.4707 244.942 57.4749L245.062 57.3627L245.174 57.4833C250.894 62.933 256.24 69.0681 261.789 76.026C261.901 76.1466 262.013 76.2671 262.364 76.1634C262.48 76.1676 262.596 76.1718 262.716 76.0596C263.308 75.7316 264.016 75.4078 264.733 74.8513C265.089 74.6312 265.449 74.2948 265.805 74.0747C266.161 73.8546 266.521 73.5182 266.877 73.2981L267.117 73.0738C268.902 71.8571 270.79 70.9935 272.682 70.0137L273.153 69.7978L273.274 69.6857L273.389 69.6899C273.505 69.6941 273.621 69.6983 273.857 69.5903C275.273 68.9427 277.049 67.9586 278.713 66.854C280.597 66.1068 281.793 65.1018 282.651 63.8514ZM260.253 28.7896C260.369 28.7938 260.485 28.798 260.601 28.8022L260.717 28.8064L260.828 28.927C261.593 30.2361 262.474 31.5495 263.359 32.7465C264.02 33.7025 264.797 34.6626 265.455 35.7349C265.785 36.2129 266.443 37.2852 267.319 38.7149C277.964 55.5268 282.126 62.3179 281.981 63.1281L281.977 63.2445L281.861 63.2403L281.741 63.3524C280.888 64.4864 279.695 65.3752 278.383 66.376C277.31 67.1526 276.126 67.8087 274.47 68.6806L274.234 68.7885L274.127 68.5517C272.838 65.709 266.644 57.3298 261.112 49.9064C256.246 43.3227 252.157 37.6992 251.405 36.041L251.293 35.9204L251.413 35.8083C252.485 35.0317 253.446 34.1346 254.403 33.3538C254.763 33.0174 255.123 32.681 255.599 32.3487C255.719 32.2366 255.96 32.0123 256.32 31.6759C257.161 30.8909 258.361 29.7695 259.194 29.2172C259.79 28.7728 260.026 28.6649 260.253 28.7896ZM266.075 73.036C265.714 73.3724 265.358 73.5925 264.882 73.9247C264.286 74.3691 263.694 74.6971 263.222 74.913L263.102 75.0252L262.99 74.9046C257.553 68.0672 252.202 62.0484 246.598 56.6029L246.487 56.4824L246.607 56.3703C248.408 54.6881 250.553 53.135 252.577 51.6939L253.65 50.9173C253.886 50.8094 254.126 50.5851 254.362 50.4772C254.602 50.2529 254.954 50.1492 255.194 49.9249C256.146 49.2604 257.219 48.4838 257.72 47.4536L257.849 47.1087L258.072 47.3498C263.377 54.6484 270.79 64.5863 272.955 68.8587L273.063 69.0956L272.827 69.2035C271.643 69.8595 269.991 70.6151 268.451 71.4912C268.095 71.7113 267.739 71.9314 267.263 72.2636C266.791 72.4795 266.431 72.8159 266.075 73.036ZM269.636 38.7989C270.705 38.1387 272.489 36.9219 274.274 35.7052C276.53 34.2726 279.022 32.732 280.807 31.5152C281.283 31.183 281.759 30.8508 282.115 30.6307L282.351 30.5228L282.458 30.7597C284.177 34.5498 286.368 38.1241 288.563 41.5821C290.862 45.3933 293.272 49.325 295.094 53.4685L295.206 53.589L295.085 53.7011C294.017 54.3614 292.833 55.0174 291.641 55.9062C290.212 56.9028 288.78 58.0158 287.351 59.0125C286.159 59.9012 284.846 60.9021 283.654 61.7908L283.418 61.8988L283.31 61.6619C282.992 60.8349 282.447 59.8831 281.897 59.0477C281.678 58.6903 281.459 58.3329 281.351 58.096C280.045 55.7187 276.312 49.8751 273.237 45.1037C271.591 42.4812 270.049 40.2119 269.508 39.1438L269.396 39.0232L269.636 38.7989ZM244.97 40.7005C245.447 40.3683 245.923 40.0361 246.279 39.816C247.471 38.9273 248.9 37.9306 250.216 36.8134L250.452 36.7054L250.56 36.9423C251.544 38.6089 254.31 42.3206 257.299 46.2733L257.522 46.5144L257.286 46.6224C257.17 46.6182 257.166 46.7345 257.05 46.7303C256.93 46.8424 256.93 46.8424 256.81 46.9546C256.437 47.64 255.712 48.4292 254.524 49.2016C254.048 49.5338 253.572 49.866 253.1 50.0819C252.744 50.302 252.268 50.6342 251.912 50.8543L251.792 50.9665C249.647 52.5196 247.386 54.0686 245.461 55.9792L245.341 56.0914L245.233 55.8545C244.125 54.4164 242.91 52.7413 241.466 50.9416C241.247 50.5842 241.024 50.3431 240.689 49.9814C239.804 48.7844 238.804 47.5832 238.275 46.166L238.163 46.0455L238.283 45.9334C239.969 44.247 241.873 42.9181 243.662 41.585C244.022 41.2486 244.498 40.9164 244.97 40.7005ZM268.615 38.1794L268.507 37.9425L268.4 37.7057C267.523 36.2759 266.531 34.842 265.539 33.4081C264.323 31.7331 263.108 30.0581 262.128 28.2751L262.021 28.0382L262.257 27.9303C262.965 27.6065 263.677 27.1663 264.389 26.7261C264.865 26.3939 265.341 26.0617 265.813 25.8458C266.877 25.3019 267.945 24.6417 268.893 24.0936C271.266 22.6651 273.754 21.2409 276.341 20.2862L276.577 20.1783L276.684 20.4152C277.424 22.4224 278.751 24.218 279.966 25.893C280.744 26.8531 281.517 27.9296 282.174 29.0019L282.286 29.1225L282.166 29.2346C281.921 29.5752 281.201 30.2481 279.897 31.0163C278.112 32.233 275.5 33.8857 273.243 35.3184C271.463 36.4188 269.919 37.4112 269.087 37.9635L268.615 38.1794ZM234.616 35.0828L234.732 35.087C237.049 35.171 239.413 33.9753 241.657 32.8917C243.78 31.9202 245.908 30.8324 248.002 30.6753C248.118 30.6795 248.234 30.6837 248.354 30.5716C248.594 30.3473 248.723 30.0025 248.616 29.7656C248.508 29.5287 248.396 29.4082 248.049 29.3956C245.723 29.5442 243.719 30.4035 241.712 31.3792C241.24 31.5951 240.768 31.811 240.296 32.0269C239.116 32.5666 237.941 32.9899 236.885 33.3011C235.941 33.7329 235.01 33.8156 234.327 33.4414C233.413 33.0587 232.636 32.0986 232.111 30.5651L232.115 30.4488L232.12 30.3325C232.63 29.0695 233.359 28.164 234.311 27.4995C234.907 27.0551 235.615 26.7313 236.314 26.6402C239.729 25.2496 245.064 25.3265 248.725 26.7407C250.331 27.2649 251.571 28.2418 252.812 29.2188C253.602 29.8299 254.396 30.3247 255.191 30.8195L255.307 30.8237L255.302 30.94L255.298 31.0564L255.41 31.1769L254.573 31.8455C253.257 32.9628 252.056 34.0842 250.627 35.0808L250.507 35.193C250.391 35.1888 250.271 35.3009 250.155 35.2967C250.155 35.2967 250.155 35.2967 250.035 35.4089C248.594 36.7546 246.926 37.9755 245.617 38.86C245.261 39.0801 244.785 39.4123 244.429 39.6324L244.313 39.6282L244.197 39.624C244.081 39.6198 243.85 39.6114 243.73 39.7236C241.246 41.0315 238.345 41.0428 236.843 40.8718C235.225 40.6966 233.645 39.4744 233.236 37.9452C232.93 36.7691 233.316 35.7346 234.504 34.9622L234.616 35.0828ZM258.017 7.27332L258.605 7.06164C261.432 5.8827 263.536 8.6384 265.529 11.2736C266.414 12.4706 267.299 13.6676 268.201 14.3993C269.218 15.1352 269.648 16.0827 269.726 17.134C269.877 19.3529 267.703 21.7205 266.013 23.5231C265.649 23.9759 265.289 24.3123 264.928 24.6488C264.808 24.7609 264.808 24.7609 264.804 24.8772L264.8 24.9936L264.684 24.9894C264.328 25.2095 263.972 25.4296 263.736 25.5375C263.616 25.6496 259.704 27.9542 257.447 29.3868L256.971 29.7191L257.224 29.1457C257.614 27.9949 257.892 26.7236 258.166 25.5685C258.298 25.1074 258.315 24.642 258.448 24.1808C258.992 21.9871 259.647 19.9139 260.422 17.7286L260.551 17.3838C261.836 13.9356 263.052 9.20332 259.395 7.67276C259.167 7.54802 258.824 7.41907 258.476 7.40647L258.017 7.27332ZM258.657 8.81098C259.46 9.07308 260.13 9.79634 260.555 10.8602C261.402 13.1043 260.13 16.2036 259.114 18.6132C258.861 19.1865 258.728 19.6477 258.48 20.1046C257.966 21.4839 257.683 22.8716 257.289 24.1388C257.161 24.4836 257.144 24.949 257.007 25.5265C256.857 26.4531 256.703 27.4959 256.438 28.4183L256.181 29.1079L255.975 28.4015C255.772 27.5787 255.458 26.6353 255.256 25.8125C254.323 22.7498 253.394 19.5707 253.516 16.1968C253.575 14.568 253.991 12.7191 254.865 11.0034C255.122 10.3137 255.607 9.74884 256.203 9.30447C256.923 8.63162 257.855 8.54889 258.657 8.81098ZM241.36 18.6685L241.7 18.9137C243.06 19.7785 244.413 20.876 245.534 21.9651C245.985 22.331 246.319 22.6926 246.77 23.0584C248.011 24.0354 249.132 25.1245 250.257 26.0972L250.012 26.4379C247.849 25.311 245.896 24.7742 243.574 24.8065C242.879 24.7813 241.948 24.864 241.021 24.8304L240.789 24.822L240.798 24.5893C240.823 23.8913 240.964 23.1974 241.105 22.5036C241.263 21.3443 241.421 20.1851 241.459 19.138L241.36 18.6685Z" fill="#8A9F96" stroke="#8A9F96"/>
<path d="M210.015 70.754C216.955 69.2828 221.133 61.7101 222.82 55.073C225.374 44.6331 224.892 33.0273 221.393 21.3399L221.324 21.2243L221.279 21.0165C221.928 20.0041 221.865 18.712 221.157 17.2557L221.019 17.0245L221.25 16.887C221.689 16.7042 222.059 16.4059 222.336 16.084C222.36 15.9918 222.452 16.0153 222.475 15.9231C222.756 14.8169 222.853 13.6638 222.95 12.5108C222.977 11.6343 223.119 10.689 223.353 9.76719C223.492 9.60628 223.47 9.30627 223.425 9.09846C222.95 7.11257 219.591 6.06076 217.589 5.45279C217.313 5.38246 217.129 5.33556 216.945 5.28867C212.781 3.93367 208.036 3.70669 204.001 4.54379C203.379 4.67966 202.641 4.88425 201.995 5.11231L201.879 5.18105L201.787 5.1576L201.695 5.13416C201.58 5.20289 201.488 5.17946 201.464 5.27165C200.052 6.97301 199.276 10.7993 200.488 12.9728L200.625 13.204L200.486 13.365C198.011 15.7771 197.749 17.9676 199.63 19.8208L199.859 20.0756L199.605 20.3052L199.49 20.3739C197.61 23.5268 195.089 26.1233 192.59 28.6277C191.804 29.4088 191.017 30.1899 190.323 30.9945C187.639 33.8442 186.638 36.2393 187.109 39.4017C187.401 41.3407 188.338 43.0516 189.854 44.0267C191.347 45.094 193.235 45.3785 195.079 45.0631C195.61 44.9038 196.14 44.7445 196.579 44.5617L197.133 44.3102L196.992 44.8633C196.124 48.6662 193.789 61.7138 199.177 67.8953C201.309 70.3032 204.277 71.3534 208.263 71.0929C208.978 70.9804 209.485 70.9133 210.015 70.754ZM208.373 55.6139L208.65 55.6842C211.92 55.9282 216.686 56.4552 220.363 58.5695L220.455 58.593L220.823 58.6867L220.73 59.0555C219.03 63.4317 215.69 68.8624 209.58 70.1524C208.958 70.2883 208.451 70.3554 207.851 70.3991C204.948 70.641 202.67 69.9627 200.926 68.3408C198.608 66.2781 197.24 62.7891 197.03 57.8283L196.985 57.6206L197.193 57.5753C197.285 57.5987 197.308 57.5065 197.308 57.5065C198.302 56.6801 199.502 56.2005 200.978 55.7913C203.353 55.3166 206.163 55.4434 208.373 55.6139ZM197.266 56.5144L196.804 56.7893L196.829 56.305C196.792 54.1363 197.01 51.738 197.366 49.1788L197.413 48.9944L197.528 48.9257C198.935 48.4008 200.319 47.9682 201.772 47.6511C208.297 46.2705 215.596 47.2461 222.217 50.5028C222.309 50.5263 222.309 50.5263 222.401 50.5497L222.7 50.5279L222.63 50.8044C222.297 53.2715 221.735 55.4838 221.081 57.6727L220.987 58.0415L220.643 57.8555C217.15 55.7881 212.591 55.2158 208.653 54.8998C206.35 54.7059 203.356 54.5322 200.658 55.121C199.413 55.3927 198.213 55.8723 197.266 56.5144ZM197.854 48.0273L197.416 48.2101L197.533 47.7491C197.792 46.343 198.051 44.9368 198.379 43.6463C198.403 43.5541 198.426 43.4619 198.334 43.4385C198.242 43.415 198.173 43.2994 197.966 43.3447L197.874 43.3212L197.782 43.2978C197.69 43.2743 197.506 43.2275 197.39 43.2962C197.298 43.2728 197.275 43.3649 197.183 43.3415C196.466 43.8461 195.682 44.2351 194.852 44.4162C192.569 44.9145 190.316 43.7518 188.898 41.2315C187.251 38.4564 187.818 35.0676 190.572 31.9414C191.429 30.8837 192.378 29.8494 193.257 29.0917L193.395 28.9308L193.58 28.9777C193.58 28.9777 193.672 29.0011 193.58 28.9777C195.628 29.4013 197.583 30.1936 199.538 30.986C201.308 31.7314 203.171 32.5003 205.128 32.9005C206.716 33.2068 208.558 33.2836 210.24 33.2212C210.632 33.2228 211.116 33.2479 211.507 33.2495C211.899 33.2511 212.29 33.2527 212.866 33.3012C214.893 33.4248 217.91 33.5063 220.077 33.0768C221.023 32.8269 221.784 32.5301 222.27 32.163L222.639 31.8646L222.706 32.3724C223.443 37.9582 223.466 43.6564 222.842 49.5826L222.841 49.9748L222.496 49.7888C215.759 46.6009 208.277 45.5784 201.636 47.0277C200.323 47.1838 199.054 47.5477 197.854 48.0273ZM196.334 25.8515L196.518 25.8984C203.83 29.1349 212.534 29.9778 221.802 28.2163L222.102 28.1944L222.124 28.4944C222.236 29.21 222.348 29.9256 222.505 30.849L222.527 31.149L222.228 31.1709C222.112 31.2396 221.997 31.3083 221.881 31.3771C221.696 31.7223 221.234 31.9973 220.496 32.2019C219.458 32.4284 217.892 32.422 216.993 32.4875C216.693 32.5093 216.509 32.4625 216.394 32.5312C213.997 32.706 211.648 32.6964 209.413 32.6181C206.004 32.5349 203.037 31.4847 200.185 30.3658C198.391 29.7125 196.413 29.0124 194.48 28.52L194.02 28.4028L194.413 28.0122C195.06 27.392 195.731 26.6796 196.287 26.0359L196.334 25.8515ZM200.549 20.4475L200.802 20.61C204.362 23.1852 211.774 24.4843 216.962 23.352C218.299 23.1037 219.407 22.6007 220.215 22.1195L220.561 21.9133L220.652 22.3289C221.129 23.9226 221.491 25.5851 221.852 27.2476L221.874 27.5475L221.575 27.5694C212.698 29.3326 204.27 28.56 197.234 25.3938L196.889 25.2079L197.167 24.886C198.533 23.369 199.552 22.0582 200.41 20.6084L200.549 20.4475ZM201.291 13.6682L201.52 13.9228C202.851 15.2432 204.968 15.7824 206.901 16.2748L206.993 16.2982C210.123 17.0954 213.554 17.4785 217.194 17.4241C217.977 17.4273 219.06 17.4087 219.982 17.2509L220.281 17.2291L220.303 17.5291L220.28 17.6213C220.805 18.6384 220.847 19.6306 220.452 20.4133C219.895 21.4492 218.602 22.2975 216.527 22.7504C210.924 23.9733 201.878 22.16 199.842 18.599C199.317 17.5819 199.024 16.035 200.921 13.9665L201.291 13.6682ZM202.222 5.75918L202.406 5.80607C204.708 6.39219 206.847 7.23142 208.962 8.16283C211.606 9.32708 214.274 10.3992 217.198 10.8494C217.774 10.8979 219.916 10.9528 221.46 10.6592C221.576 10.5904 221.76 10.6373 221.875 10.5686L222.291 10.478L222.289 10.8702C222.264 11.3545 222.215 11.9311 222.098 12.392C222.025 13.4528 221.928 14.6059 221.647 15.7121L221.623 15.8043L221.6 15.8965C221.16 16.4714 220.491 16.7916 219.545 17.0415C216.64 17.6756 211.783 16.733 209.458 16.2391L208.814 16.075C206.466 15.6732 204.648 15.1121 203.085 14.3214C202.12 13.8791 201.479 12.9307 201.184 11.776C200.661 9.97448 201.063 7.62305 202.037 6.10445L202.222 5.75918ZM203.422 5.27963L204.46 5.05318C209.624 4.01307 217.016 4.61994 221.885 8.21555C222.299 8.51713 222.413 8.84058 222.434 9.14058C222.341 9.5093 221.879 9.78423 221.049 9.9654C219.919 10.1684 218.537 10.2089 218.445 10.1855C215.98 10.2446 213.496 9.21945 211.265 8.35678C210.368 8.03015 209.586 7.63477 208.781 7.33158C207.355 6.7721 205.953 6.12046 204.503 5.65316L203.422 5.27963Z" fill="#8A9F96" stroke="#8A9F96"/>
<path d="M55.8419 68.4508C52.4255 69.2262 48.477 68.1544 47.5532 64.685C47.3905 64.7219 47.2278 64.7589 47.1269 64.6962C46.8015 64.7701 46.4144 64.9435 46.089 65.0173C43.1381 65.9437 40.383 67.6813 37.1803 67.2103C34.6058 66.8535 32.0764 65.973 29.6088 64.993C27.5058 64.1013 23.384 61.9566 24.2379 59.4527C21.9887 59.022 20.1553 57.4703 18.6472 55.8446C17.4811 54.5692 15.9112 53.0432 15.4184 51.3583C15.0824 50.3223 15.4137 49.5626 15.9861 49.0904C12.8345 47.41 10.0155 42.4884 10.9928 39.7854L10.8919 39.7228C9.76501 38.6096 8.17257 37.3453 8.1061 35.6492C8.07882 34.1153 9.52641 33.359 10.968 33.2885C10.7104 32.5769 10.4527 31.8654 10.3577 31.1169C10.2793 30.7924 10.5263 30.3942 10.9527 30.383C11.4799 30.4344 12.0072 30.4859 12.5344 30.5373C11.9739 29.6378 11.3968 28.3143 12.1771 27.2816C12.6711 26.485 13.8099 26.2265 14.6625 26.2041C15.6778 26.1448 18.0896 26.5386 18.7285 27.7626C18.8912 27.7257 19.0147 27.5265 19.1774 27.4896C21.8873 26.2756 25.4878 27.683 28.0729 29.1497C28.1572 28.7884 28.0789 28.4639 28.1632 28.1026C28.2475 27.7412 28.5337 27.5051 28.8983 27.5935C34.0022 28.8308 39.2236 30.5548 42.862 34.6059C43.6754 34.4213 44.73 34.5242 45.902 35.1138C53.0187 38.29 56.5822 46.2939 54.2058 53.5069C54.1441 53.6065 54.0823 53.7061 54.0206 53.8056C54.34 54.4176 54.5585 54.967 54.8162 55.6785C54.8554 55.8407 54.7936 55.9403 54.8328 56.1025C58.6245 56.5254 61.0457 60.5105 61.0551 64.1019L60.9934 64.2015C63.6177 65.8304 67.1054 68.5468 67.8499 71.6291C68.1634 72.9269 67.9828 75.0213 66.2384 74.9039C62.3683 74.1566 58.8474 70.5921 55.8419 68.4508ZM43.1135 47.7251C39.9108 47.2541 36.3994 47.281 36.4646 51.4586C36.5916 55.5367 40.11 64.0642 45.411 63.6311C45.899 63.5203 46.3871 63.4096 46.8752 63.2988C46.9369 63.1992 47.0379 63.2619 47.0996 63.1623C47.1614 63.0627 47.2623 63.1254 47.3633 63.1881C47.3538 59.5967 50.0032 56.0008 53.6382 55.7747C52.199 50.8822 47.8979 48.3504 43.1135 47.7251ZM40.3016 39.6362C40.0819 41.5683 40.2885 43.4893 41.0841 45.3622C41.2242 45.587 41.1399 45.9484 41.0164 46.1476C41.7063 46.1621 42.4972 46.2393 43.2263 46.4161C47.36 47.1891 51.0389 48.9209 53.2642 52.095C54.8544 46.6005 52.7478 41.4316 48.2116 37.9265C45.4923 35.549 40.8931 34.625 40.3016 39.6362ZM29.2735 28.7917C28.9635 31.7711 30.5274 33.983 31.5581 36.8292C34.3737 37.4736 36.8413 38.4536 39.1794 40.3186C39.3208 38.062 40.0903 35.9195 41.5605 34.9013C38.2415 31.4622 33.8501 29.9776 29.2735 28.7917ZM19.663 32.3419C19.8031 32.5667 19.8815 32.8912 19.758 33.0903C21.4347 33.9932 23.0889 35.1578 24.9283 36.0238C25.1302 36.1491 25.1693 36.3113 25.2085 36.4735C26.5718 36.0786 28.2545 36.2956 29.6735 36.4869C29.7745 36.5495 29.9372 36.5126 30.0381 36.5752C29.1641 34.3779 28.1441 32.6415 27.9601 30.4588C26.1824 29.4933 24.1411 28.502 22.0321 28.2962C19.3567 27.8767 17.5326 29.9163 19.663 32.3419ZM17.9803 32.1248C17.4423 30.9635 17.1289 29.6657 17.6455 28.6073C17.6063 28.4451 17.5053 28.3824 17.5279 28.1206L17.427 28.058C17.2251 27.9327 16.9223 27.7447 16.6587 27.719C15.9913 27.4427 15.3631 27.3285 14.6114 27.4136C14.1851 27.4248 13.3325 27.4472 13.0237 27.945C12.6532 28.5425 13.3764 29.4051 13.6566 29.8548C13.7967 30.0797 13.7742 30.3415 13.6507 30.5407C15.2716 30.8573 16.7073 31.4726 17.9803 32.1248ZM11.7542 31.57C12.8739 35.8505 18.2117 40.5427 22.413 40.5303L22.514 40.593C22.6826 39.8703 22.7895 39.2471 23.0591 38.587C23.3287 37.9269 23.5757 37.5286 24.0863 37.156C19.8636 34.9487 16.5612 31.9335 11.7542 31.57ZM11.6329 38.5279C11.7339 38.5905 11.7339 38.5905 11.6329 38.5279C12.2445 38.2179 13.0188 37.8711 14.135 37.8744C13.109 36.8239 12.2457 35.7364 11.6069 34.5125C10.7151 34.3726 8.70107 34.9153 9.50261 36.1023C10.0631 37.0018 10.949 37.8275 11.6329 38.5279ZM23.4246 47.9156C22.6291 46.0427 22.3833 43.9595 22.3394 42.0016C20.1069 41.9949 17.6001 40.8526 15.5647 39.1756C15.4412 39.3747 15.2786 39.4117 15.0149 39.3859C13.9604 39.283 11.9524 39.1398 11.8169 40.7106C11.7267 41.7578 12.1637 42.8565 12.6232 43.6934C13.6433 45.4298 15.1062 47.579 17.2936 48.1092C17.3945 48.1719 17.4955 48.2346 17.4955 48.2346C19.4085 47.6292 21.8429 47.7612 23.4246 47.9156ZM30.9046 53.6617C31.0056 53.7243 31.0056 53.7243 31.1065 53.787C32.5315 53.2924 33.9731 53.2219 35.3696 53.675C35.1179 52.2776 35.1298 50.906 35.4445 49.7223C36.0965 47.0931 37.9312 46.1633 40.1246 46.0077C39.6258 45.0086 39.3349 43.4491 39.2685 41.7529C39.1675 41.6903 39.1675 41.6903 39.0666 41.6277C36.5883 39.5378 24.6208 34.0401 24.0791 40.3233C23.566 45.6589 24.9315 52.0227 30.9046 53.6617ZM24.9789 58.2578L25.0406 58.1582C26.0679 56.7273 27.4596 55.3847 29.1317 54.4918C26.9894 53.4379 25.2403 51.5248 24.0017 49.2391C22.42 49.0847 20.7373 48.8677 19.1722 49.1374C18.5214 49.2851 15.8175 49.8132 16.6974 51.3247C17.0786 51.8371 17.4597 52.3495 17.8409 52.8619C19.6293 54.9373 21.6978 57.4624 24.4742 57.9446C24.8388 58.0329 24.9397 58.0956 24.9789 58.2578ZM42.7854 64.4837C39.5103 63.0024 36.9263 59.0542 35.8232 55.1977C35.7223 55.135 35.6606 55.2346 35.5596 55.172C32.1836 53.6281 27.9584 56.3838 26.1284 59.1092C26.0666 59.2088 26.0666 59.2088 26.0049 59.3084C23.5075 61.7575 34.0739 65.0063 35.5321 65.3598C38.084 65.9785 40.3225 65.2993 42.7854 64.4837ZM59.7988 63.8737C59.8605 63.7741 59.8605 63.7741 59.7988 63.8737C59.7668 60.5441 57.2446 56.4963 53.3626 57.1206C50.8831 57.5123 48.1779 60.5219 48.4795 63.1914C48.7823 63.3793 48.7989 63.8034 48.6137 64.1021L48.6529 64.2643C50.7036 68.8469 58.1813 67.8343 59.7988 63.8737ZM63.7043 72.2277C64.6745 72.692 67.0578 74.0335 66.7111 71.8876C66.2468 69.255 63.2638 66.8519 60.9423 65.4109C60.7796 65.4478 60.6169 65.4847 60.516 65.4221C59.8367 66.5174 58.6919 67.4617 57.4296 67.9193C59.4258 69.4341 61.4611 71.1112 63.7043 72.2277Z" fill="#8A9F96" stroke="#8A9F96"/>
<path d="M122.346 68.4567C123.392 66.5473 124.96 65.0718 126.093 63.2492C127.226 61.253 127.052 59.7776 127.313 57.6078C127.575 55.2645 130.712 55.6116 132.281 55.2645C134.895 54.5701 135.854 53.6154 136.289 51.0985C136.551 49.7966 136.812 48.4948 137.51 47.2797C138.207 46.0646 139.775 44.4156 141.431 44.242C140.821 43.027 140.473 41.7251 140.821 40.4232C141.605 37.6459 144.917 35.7365 147.706 36.2573C148.229 36.3441 148.664 36.5177 149.1 36.6912C149.1 36.5177 149.1 36.3441 149.1 36.2573C149.1 33.5668 151.366 31.5706 153.893 31.0498C155.898 30.6159 157.553 31.3102 158.686 32.4385C158.512 30.7026 158.861 28.6197 159.035 26.9707C159.296 25.148 160.168 24.1933 162.085 23.933C163.131 23.7594 165.048 23.8462 164.961 22.0236C164.874 20.6349 164.089 19.8538 163.479 18.8123C163.131 18.2048 163.044 17.3369 163.567 16.8161C164.7 15.601 166.355 14.9067 167.575 13.6917C169.318 11.8691 170.626 9.78606 171.671 7.44271C171.846 7.18234 172.369 7.00875 172.543 7.35592C175.07 11.9558 174.809 17.5972 179.95 20.2877C180.212 20.3745 180.299 20.6349 180.125 20.8953C178.033 24.1065 175.332 27.9253 177.859 31.6574C177.946 31.8309 177.946 32.0913 177.772 32.2649C175.942 34.0007 172.369 35.3894 172.281 38.2535C172.281 39.295 172.891 40.944 172.456 41.8987C172.02 42.7666 170.974 43.027 170.016 43.027C166.791 43.1137 163.741 43.5477 162.259 46.759C164.177 48.6683 167.314 47.974 169.58 47.1061C169.754 47.0193 170.19 47.1061 170.19 47.3665C170.364 48.8419 169.667 51.3589 170.626 52.6607C171.584 53.9626 173.763 55.0909 175.419 54.8305C175.68 54.8305 175.767 54.9173 175.854 55.0041C175.942 55.0909 175.942 55.0909 176.029 55.1777C176.29 56.4795 175.244 57.3474 174.983 58.7361C174.373 61.5134 175.506 63.336 176.9 65.6794C177.859 67.2416 176.813 69.2378 176.552 70.8C175.942 73.9245 175.854 77.1358 176.464 80.2602C176.552 80.6074 176.116 81.0413 175.767 80.8678C173.85 79.9999 172.63 78.5244 171.061 77.1358C169.318 75.4867 167.575 75.0528 165.31 74.6188C164.525 74.4452 164.525 73.4038 164.351 72.7962C163.654 70.1925 162.521 68.1095 159.645 67.5888C158.686 67.4152 158.163 66.2869 157.902 65.419C157.379 63.8568 157.292 62.2945 155.898 61.1662C155.375 60.7323 154.678 60.4719 154.242 60.038C152.063 58.1286 154.068 55.0909 154.155 52.6607C153.196 52.3136 152.325 51.6192 151.627 50.8381C150.233 53.1815 150.756 56.1324 150.756 58.7361C150.756 59.0833 150.407 59.3436 150.146 59.2568C148.926 59.0833 147.27 58.6493 146.921 60.3851C146.834 60.9059 146.747 61.4266 146.573 61.8606C146.224 62.7285 145.876 63.77 145.091 64.3775C143.087 66.0265 140.473 64.2907 138.381 65.9397C136.464 67.4152 135.941 69.0642 133.326 69.151C129.753 69.3246 126.529 68.5435 122.956 69.151C122.433 69.2378 122.259 68.8038 122.346 68.4567ZM154.329 51.6192C154.59 51.4457 154.939 51.5325 155.026 51.8796C155.113 51.8796 155.2 51.9664 155.288 51.9664C157.031 52.2268 158.338 51.5325 159.296 50.4042C159.296 50.3174 159.209 50.2306 159.209 50.1438C159.209 49.4495 159.122 48.7551 158.686 48.1476C158.686 48.1476 158.686 48.1476 158.686 48.0608C158.773 48.3212 158.773 48.6684 158.686 48.9287C158.425 49.4495 157.989 49.7098 157.466 49.8834C157.292 49.9702 157.031 49.8834 156.943 49.7098C156.246 48.5816 156.421 46.9326 157.902 46.5854C158.512 46.4118 159.122 46.6722 159.558 47.1929C159.994 47.7137 160.168 48.3212 160.342 48.9287C160.342 48.9287 160.342 48.8419 160.429 48.8419C160.516 48.7551 160.516 48.6684 160.604 48.6684C161.911 46.8458 160.429 43.7213 158.512 43.027C156.769 42.3326 154.765 42.593 153.196 43.6345C153.022 43.7213 152.935 43.8081 152.848 43.8949C152.76 43.9817 152.673 44.0684 152.499 44.1552C151.366 45.2835 150.93 46.759 151.54 48.408C151.976 49.8834 153.022 51.0985 154.329 51.6192ZM157.641 48.9287C157.728 48.8419 157.815 48.7552 157.815 48.6684C157.815 48.408 157.728 48.2344 157.641 47.974C157.641 47.974 157.641 47.974 157.641 47.8872C157.466 48.2344 157.553 48.6684 157.641 48.9287ZM161.824 47.7137C161.737 48.408 161.475 49.0155 161.127 49.5363C159.819 51.706 157.641 53.4419 155.113 52.9211C155.026 53.789 154.678 54.8305 154.503 55.5248C153.893 58.7361 155.288 59.0833 157.292 60.9059C158.425 61.9474 158.338 63.5964 158.948 64.8982C159.819 66.9812 160.952 66.2001 162.521 67.3284C163.828 68.2831 164.7 69.9321 165.135 71.4944C165.222 71.6679 165.484 73.4905 165.832 73.4905C166.53 73.5773 167.14 73.6641 167.837 73.7509C170.887 74.3584 172.63 77.3093 175.07 79.0452C174.634 77.3961 173.85 76.0075 173.153 74.4452C172.369 72.6226 171.933 70.7132 171.41 68.8038C170.016 64.1171 168.185 59.604 164.438 56.306C164.002 55.872 164.7 55.1777 165.135 55.5248C168.534 58.4757 170.538 62.4681 171.846 66.7209C172.543 68.8906 172.891 71.3208 173.763 73.4038C174.199 74.3584 174.634 75.3132 175.07 76.2678C175.07 74.966 175.157 73.6641 175.244 72.3623C175.419 71.1472 175.68 70.0189 175.942 68.8906C176.552 66.8076 175.767 66.0265 174.809 64.4643C173.937 62.8153 173.501 61.0794 173.763 59.2568C173.85 58.3021 174.983 56.5663 174.983 55.6116C171.671 55.872 168.883 53.1815 169.144 49.9702C169.144 49.7966 169.231 47.974 169.231 48.0608C168.795 48.2344 168.36 48.3212 167.924 48.4948C167.053 48.6684 166.094 48.8419 165.135 48.8419C163.828 48.7551 162.782 48.408 161.824 47.7137ZM159.471 40.8572C162.172 39.295 164.525 37.8195 165.92 34.6082C167.314 31.3102 167.75 27.665 168.97 24.2801C169.144 23.7594 170.19 23.7594 169.928 24.3669C168.708 28.0121 168.36 32.0913 166.53 35.5629C165.745 37.1252 164.7 38.5138 163.392 39.6421C161.998 40.8572 160.342 41.4647 158.774 42.3326C159.906 42.7666 160.865 43.5477 161.388 44.676C161.562 45.0231 161.649 45.3703 161.737 45.7175C162.782 43.8949 164.438 42.9402 166.53 42.3326C167.75 41.9855 168.883 42.159 170.016 42.0723C171.497 41.8987 171.497 41.4647 171.323 40.1629C171.061 38.5138 171.236 36.6044 172.456 35.3026C173.153 34.5215 173.937 33.9139 174.809 33.3064C175.854 32.5253 176.726 32.1781 176.203 30.8762C175.506 28.88 175.767 27.0574 176.464 25.148C176.813 24.2801 179.253 20.9821 178.469 20.4613C174.111 17.684 174.024 12.8237 172.02 8.57098C170.626 11.3483 168.708 14.2992 166.007 15.9482C163.479 17.4236 165.31 18.9859 165.92 20.8953C166.181 21.7632 166.007 22.8047 165.484 23.5858C164.264 25.7556 160.429 23.6726 160.081 26.7971C159.906 28.7065 159.471 30.963 159.819 32.8724C159.819 33.1328 159.732 33.3064 159.558 33.3932C160.865 35.5629 161.039 38.6874 159.471 40.8572ZM150.495 37.7327C151.192 38.427 151.802 39.2082 152.15 40.1629C152.935 40.944 153.893 41.5515 154.939 41.7251C155.113 41.7251 155.2 41.8987 155.288 41.9855C155.636 41.8987 156.072 41.8987 156.421 41.8987C156.595 41.8987 156.856 41.8987 157.031 41.8987C157.031 41.8119 157.118 41.7251 157.205 41.7251C160.168 39.9025 159.994 35.4762 157.989 33.2196C158.338 34.3479 158.599 35.3894 157.902 36.5176C157.553 37.0384 157.118 37.2988 156.508 37.212C155.985 37.1252 155.288 36.8648 154.852 36.5176C154.242 35.9101 154.416 34.9554 155.2 34.6082C156.246 34.1743 156.856 35.129 157.031 35.9969C157.031 36.0837 157.031 36.0837 157.031 36.1705C157.292 35.7365 157.379 35.3026 157.292 34.7818C157.118 34.0007 156.856 33.3064 156.682 32.6121C156.682 32.5253 156.682 32.4385 156.682 32.3517C155.81 31.9177 154.678 31.8309 153.37 32.1781C151.105 32.9592 149.1 34.8686 150.146 37.3856C150.407 37.4723 150.495 37.5591 150.495 37.7327ZM155.636 35.3894C155.462 35.563 155.81 35.7365 156.072 35.9101C155.985 35.5629 155.81 35.2158 155.636 35.3894ZM152.76 42.9402C153.109 42.7666 153.458 42.5062 153.806 42.4194C153.37 42.2458 153.022 42.0723 152.586 41.8119C152.76 42.1591 152.76 42.593 152.76 42.9402ZM145.701 43.5477C145.876 43.027 145.789 42.4194 145.266 42.0723C144.83 41.8119 143.784 43.6345 145.091 43.2005C145.44 43.1138 145.701 43.2873 145.701 43.5477ZM145.789 44.9364C145.004 45.4571 144.22 45.4571 143.436 45.2835C145.178 47.0193 148.054 47.4533 150.407 45.8043C150.669 45.0232 151.192 44.3288 151.802 43.7213C151.802 42.7666 151.627 41.7251 151.366 40.7704C150.582 39.9893 149.884 39.0346 149.536 38.0799C148.839 37.5591 148.054 37.2988 147.096 37.2988C144.656 37.2988 141.605 38.861 141.867 41.7251C141.867 42.2458 142.041 42.8534 142.216 43.2873C142.39 43.2873 142.564 43.2873 142.651 43.4609C143.174 44.1552 144.133 44.8496 145.091 44.5024C145.266 44.4156 145.44 44.3288 145.527 44.1552C142.477 45.1967 143.871 40.3364 145.963 41.2043C146.573 41.4647 146.921 42.3326 147.009 42.9402C146.834 43.7213 146.486 44.5024 145.789 44.9364ZM123.74 68.0227C125.047 67.8491 126.442 67.6756 127.749 67.6756C129.666 67.7623 132.106 68.4567 134.024 68.1095C136.464 67.6756 137.248 64.5511 139.863 64.2039C140.995 64.0303 142.826 64.5511 143.784 64.1171C145.614 63.2492 145.527 61.0795 146.137 59.5172C146.747 58.0418 148.316 58.1286 149.71 58.3021C149.623 55.6116 149.274 52.8343 150.756 50.4042C150.843 50.3174 150.93 50.2306 151.017 50.1438C150.669 49.5363 150.32 48.9287 150.146 48.3212C149.013 51.2721 146.399 53.5286 144.046 55.5248C141.257 57.8682 138.207 60.038 135.244 62.0341C134.721 62.3813 134.198 61.687 134.721 61.253C137.335 59.5172 139.95 57.6946 142.39 55.6984C144.917 53.6154 148.054 51.1853 149.274 48.0608C149.362 47.7137 149.884 47.6269 150.146 47.7137C150.146 47.4533 150.146 47.1929 150.146 47.0193C148.142 48.1476 145.614 48.3212 143.61 46.8457C143 46.4118 142.477 45.8911 142.041 45.2835C141.954 45.2835 141.954 45.2835 141.867 45.2835C139.95 44.9364 138.12 47.8872 137.771 49.2759C137.422 50.4042 137.335 51.706 136.987 52.8343C136.377 54.6569 135.157 55.438 133.326 55.9588C132.106 56.3927 128.272 56.1324 128.272 58.0418C128.272 59.0833 128.446 60.2983 128.098 61.253C127.139 63.9435 125.135 65.7662 123.74 68.0227Z" fill="#8A9F96" stroke="#8A9F96"/>
<path d="M74.9135 22.0847C78.0592 19.1504 92.1226 17.0413 100.542 15.5742C105.076 14.8406 109.609 14.1987 114.143 13.9236C117.381 13.6485 120.897 13.2817 124.043 14.107C129.502 15.3907 132.277 19.1504 132.74 24.5606C133.017 27.5866 133.203 33.7304 128.576 33.1802C128.299 33.1802 128.021 32.9051 128.114 32.63C128.299 31.8047 128.299 31.713 128.669 30.9794C128.761 30.796 128.854 30.796 128.946 30.7043C131.167 26.5779 129.872 20.7092 125.153 18.8753C121.175 17.3164 116.548 17.4081 112.292 17.6832C112.477 19.7006 112.385 21.8096 112.2 23.9187C114.606 23.7353 117.104 24.0104 119.324 24.8356C122.84 26.1194 125.616 28.9621 124.69 32.9968C123.765 37.3066 119.972 39.4157 115.993 40.7911C114.143 41.433 112.107 41.9832 110.072 42.6251C109.979 42.8085 109.702 42.9002 109.517 42.8085C106.001 44.0922 102.855 45.8345 101.652 49.6858C101.19 51.0613 101.005 52.3451 100.82 53.6289C102.115 50.7862 104.428 47.4851 106.649 50.236C107.759 51.6115 107.019 52.987 105.631 54.179C107.296 53.5371 108.962 53.0787 110.72 53.4455C112.94 53.9956 113.773 56.1964 112.57 58.0304C110.257 61.5149 103.78 60.4145 100.635 57.9387C100.635 58.0304 100.635 58.2137 100.635 58.3054C100.727 59.3141 101.005 61.2398 100.357 62.3402C100.357 62.4319 100.357 62.5236 100.357 62.5236C100.172 66.0081 95.3609 68.2088 92.4002 67.2002L92.3077 67.2002C89.9946 67.1085 87.4965 66.5583 85.276 66.0081C83.7031 65.5496 81.2975 65.0911 80.4648 63.5322C80.0022 62.7987 79.9097 62.1568 80.0022 61.6066C80.0022 60.9647 80.0022 60.2311 80.0947 59.5892C80.5573 55.2794 82.2227 50.9696 81.7601 46.5681C81.4825 43.8172 80.8349 41.1579 80.5573 38.407C80.1872 33.3636 81.6676 28.5036 87.3114 27.6783C88.1441 27.5866 88.9768 27.5866 89.717 27.5866C89.3469 25.6609 89.4394 23.6436 89.717 21.6262C87.9591 22.0847 79.0769 24.6523 76.6714 24.6523C74.8209 24.744 73.5256 23.7353 74.9135 22.0847ZM91.0123 27.77C93.0478 28.0451 95.0833 28.4119 97.1188 28.2285C97.9515 28.1368 98.7842 27.9534 99.6169 27.6783C98.9693 25.019 99.3393 22.1764 99.6169 19.4255C96.7487 20.0673 93.8805 20.7092 91.0123 21.4428C90.7348 23.5519 90.6422 25.6609 91.0123 27.77ZM82.0377 39.6907C84.8133 38.8655 91.3824 29.4206 90.8273 29.1455C90.6422 29.0538 90.5497 28.8704 90.5497 28.7787C90.4572 28.7787 90.4572 28.7787 90.3647 28.687C89.717 28.687 89.1619 28.687 88.5142 28.687C81.9452 29.1455 81.4825 34.5556 82.0377 39.6907ZM99.4319 62.6153C99.3393 62.4319 99.2468 62.2485 99.4319 62.0651C99.2468 61.6066 98.8767 61.1481 98.044 60.7813C94.8983 59.4975 90.8273 59.2224 87.4965 59.4058C85.8311 59.4975 83.4255 59.4975 82.2227 60.873C80.5573 62.707 82.0377 63.8073 83.8881 64.5409C86.8488 65.5496 90.7348 66.5583 93.788 66.2832C94.0656 66.2832 94.2506 66.3749 94.3431 66.5583C96.4711 66.2832 99.2468 64.2658 99.4319 62.6153ZM101.282 55.7379C103.318 54.9126 106.556 52.987 106.186 51.2447C105.446 48.3104 102.67 52.2534 102.3 53.1704C101.837 53.9957 101.467 54.8209 101.282 55.7379ZM100.912 56.93C103.41 59.2224 110.535 61.0564 112.015 57.2051C113.125 54.4541 109.517 53.9957 107.759 54.5458C106.741 54.8209 105.816 55.2794 104.798 55.7379C103.503 56.1964 102.3 56.6549 100.912 56.93ZM102.855 45.4677C100.912 45.376 98.8767 45.4677 97.1188 45.9262C94.9908 46.5681 95.0833 48.127 97.3039 48.6771C98.044 48.8605 98.6917 48.9522 99.4319 49.1356C99.7094 49.0439 99.987 48.9523 100.265 48.9523C100.45 48.9523 100.635 48.9523 100.727 49.044C100.82 48.8606 100.82 48.6772 100.912 48.4938C101.375 47.3934 102.022 46.3847 102.855 45.4677ZM100.357 50.236C100.172 50.3277 99.987 50.4194 99.7094 50.3277C99.6169 50.3277 99.5244 50.236 99.4319 50.236C97.6739 50.7862 95.5459 51.9783 94.7132 53.3537C94.2506 54.0873 96.7487 54.5458 97.2113 54.6375C98.044 54.8209 98.7842 55.0043 99.5244 55.4628L99.5244 55.3711C99.5244 53.7206 99.8945 51.8866 100.357 50.236ZM108.499 42.0749C107.389 41.3413 106.279 40.6077 105.076 40.0575C104.058 39.599 102.763 38.9572 101.652 38.9572C101.19 38.9572 98.4141 39.1405 99.0618 40.4243C100.08 42.2583 102.3 43.267 104.058 44.459C105.261 43.4504 106.834 42.7168 108.499 42.0749ZM113.773 32.9051C115.161 35.0141 116.919 37.3983 119.417 38.2236C120.619 37.49 121.637 36.6647 122.377 35.5643C125.338 31.0711 122.933 26.4862 117.936 25.2941C115.901 24.8356 114.05 24.7439 112.2 24.8356C112.2 24.9273 112.2 24.9273 112.107 25.019C110.72 27.4032 112.385 30.8877 113.773 32.9051ZM110.997 25.019C108.684 25.3858 106.464 26.1194 104.15 27.0364C101.745 28.1368 99.0618 29.2372 96.3786 29.1455C94.8058 29.1455 93.2329 28.8704 91.66 28.687C92.6777 31.1628 85.0909 39.7824 82.1302 40.516C82.2227 41.5247 82.4078 42.4417 82.5928 43.267C83.0554 45.7428 83.2405 48.2187 82.8704 50.6945C82.4078 53.8122 81.5751 56.8383 81.2975 60.0477C83.518 58.6722 87.9591 58.3972 89.3469 58.4888C91.3824 58.5805 97.859 58.5806 99.8019 60.873C99.987 59.7726 99.7094 58.2137 99.6169 57.0217C99.6169 57.0217 99.5244 56.93 99.5244 56.8383C99.4319 56.7466 99.4319 56.7466 99.4319 56.6549C99.3393 56.6549 99.2468 56.5632 99.2468 56.5632C97.9515 55.3711 95.916 55.4628 94.3431 54.6375C93.788 54.3624 93.3254 53.7206 93.6955 53.0787C94.4357 51.7949 96.0085 50.6028 97.6739 49.8692C96.6562 49.6858 95.5459 49.4107 95.0833 48.7688C94.5282 47.9436 93.9731 46.7515 94.9908 45.9262C96.8412 44.5507 99.7094 44.3674 102.208 44.459C100.08 43.0836 96.7487 40.8828 98.044 39.2322C101.005 35.656 106.741 39.9658 109.609 41.6164C109.702 41.6164 109.702 41.6164 109.794 41.5247C112.292 40.6994 115.623 40.0575 118.306 38.7738C115.808 37.5817 113.773 35.0141 112.385 32.7217C111.182 30.6126 109.794 27.4949 110.997 25.019ZM111.275 17.6832C107.666 17.9583 104.151 18.5085 100.635 19.2421C100.727 19.3338 100.727 19.4255 100.727 19.5172C100.542 22.0847 100.08 24.744 100.635 27.3115C102.855 26.4862 104.983 25.3858 107.296 24.6523C108.499 24.2855 109.794 24.0104 111.09 23.9187C111.367 21.9013 111.46 19.7923 111.275 17.6832ZM93.788 17.7749C87.774 18.6919 77.6891 20.9843 75.9312 22.4515C75.2835 23.0017 75.006 23.6436 76.1163 23.7353C77.0415 23.827 77.8742 23.7353 78.7994 23.5519C80.2798 23.3685 106.649 15.7575 118.491 16.5828C122.285 16.8579 126.818 17.2247 129.224 20.6175C131.537 23.9187 131.907 27.77 129.872 31.2545C129.779 31.3462 129.779 31.4379 129.687 31.4379C129.594 31.6213 129.594 31.8964 129.502 32.0798C133.203 31.713 131.815 22.91 131.074 20.7092C129.039 14.2904 121.36 14.2904 115.808 14.6572C108.314 15.2991 101.097 16.6745 93.788 17.7749Z" fill="#8A9F96" stroke="#8A9F96"/>
</g>
</svg>
