<svg width="74" height="95" viewBox="0 0 74 95" fill="none" xmlns="http://www.w3.org/2000/svg">
<path d="M70.6924 77.7601C70.843 77.6464 70.9629 77.5827 71.0476 77.5678C71.655 77.5466 72.0332 77.2193 72.1818 76.5851C72.3173 75.8639 72.0241 75.4371 71.3039 75.3015C71.1176 75.2468 70.9775 75.1831 70.8783 75.1152C68.6172 74.6397 66.9138 74.242 65.7692 73.9209C64.6241 73.5978 63.2656 73.0533 61.6932 72.2844C60.1227 71.5152 58.8025 70.57 57.7361 69.4504C57.2784 68.8322 56.7663 68.7718 56.2004 69.2619C55.6339 69.7542 55.6116 70.2576 56.1409 70.7749C58.0056 72.9728 60.7442 74.6713 64.3491 75.8675C56.2028 76.5978 49.2387 76.8619 43.4527 76.6594C32.4051 76.2457 23.9994 74.0153 18.2401 69.9766C14.3666 67.2599 11.916 63.8347 10.886 59.7046C9.85385 55.5738 9.99713 51.2795 11.3065 46.8263C12.6157 42.3722 14.8428 37.6931 17.9894 32.7857C22.3743 26.0073 27.7583 19.8374 34.1445 14.2755C40.5297 8.71376 46.1188 5.20646 50.9175 3.75666C51.662 3.53875 51.9248 3.05712 51.7106 2.31089C51.4908 1.56669 51.0099 1.30279 50.2652 1.5197C45.1418 3.1148 39.3006 6.79423 32.7335 12.5635C26.1522 18.2459 20.608 24.6195 16.0963 31.6821C12.8797 36.6881 10.5959 41.5304 9.23898 46.2102C7.7815 50.8203 7.63901 55.4607 8.80614 60.1354C9.89036 64.8236 12.6139 68.6993 16.9872 71.7649C23.0593 76.0991 31.8377 78.4803 43.3246 78.9043C49.0221 79.1233 55.5595 78.8924 62.9312 78.2086C58.323 80.2352 54.6751 82.7929 51.9952 85.8752C51.4893 86.4868 51.5207 87.0244 52.0829 87.4923C52.6431 87.9596 53.1387 87.9376 53.574 87.4267C57.1338 83.4053 62.8409 80.1829 70.6924 77.7601Z" fill="#B9293D"/>
</svg>
