<svg width="20" height="15" viewBox="0 0 20 15" fill="none" xmlns="http://www.w3.org/2000/svg">
<path d="M19.0161 6.93277C19.0019 6.90464 18.9831 6.87764 18.9599 6.85289C18.8519 6.73814 18.7296 6.64532 18.6463 6.58738L10.9315 1.27887C10.3915 0.907043 9.45773 0.907043 8.91771 1.27887L1.2044 6.58738C1.12114 6.64476 0.998889 6.73758 0.890135 6.85233C0.866884 6.87764 0.848133 6.90464 0.833883 6.93277C0.724378 7.15609 0.666626 7.37435 0.666626 7.56336V13.4445C0.666626 14.0172 1.2779 14.4829 2.03018 14.4829H17.8191C18.5706 14.4829 19.1826 14.0172 19.1826 13.4445V7.56336C19.1826 7.37435 19.1249 7.15609 19.0161 6.93277ZM9.54173 1.78851C9.74124 1.65126 10.1088 1.65126 10.3075 1.78851L17.453 6.70607H2.3962L9.54173 1.78851ZM16.7323 7.39854L9.925 10.1121L3.11697 7.39854H16.7323ZM17.8191 13.7905H2.03093C1.78792 13.7905 1.58991 13.6358 1.58991 13.4445V7.57179L9.70899 10.8091C9.77649 10.8361 9.85074 10.8496 9.92575 10.8496C10.0007 10.8496 10.0743 10.8361 10.1425 10.8091L18.2616 7.57179V13.444C18.2601 13.6358 18.0628 13.7905 17.8191 13.7905Z" fill="#B9293D" stroke="#B9293D" stroke-width="0.5"/>
</svg>
