<svg width="20" height="20" viewBox="0 0 20 20" fill="none" xmlns="http://www.w3.org/2000/svg">
<path fill-rule="evenodd" clip-rule="evenodd" d="M10 0C4.47715 0 0 4.47715 0 10C0 15.5228 4.47715 20 10 20C15.5228 20 20 15.5228 20 10C20 4.47715 15.5228 0 10 0ZM7.80157 4.69889C8.37046 4.673 8.55224 4.66667 10.0007 4.66667H9.99904C11.4479 4.66667 11.6291 4.673 12.1979 4.69889C12.7657 4.72489 13.1535 4.81478 13.4935 4.94667C13.8446 5.08278 14.1413 5.26501 14.438 5.56168C14.7346 5.85813 14.9169 6.15568 15.0535 6.50646C15.1846 6.84558 15.2746 7.23314 15.3013 7.80092C15.3269 8.36982 15.3335 8.5516 15.3335 10.0001C15.3335 11.4485 15.3269 11.6299 15.3013 12.1987C15.2746 12.7663 15.1846 13.154 15.0535 13.4932C14.9169 13.8439 14.7346 14.1414 14.438 14.4379C14.1416 14.7346 13.8445 14.9172 13.4939 15.0534C13.1545 15.1853 12.7665 15.2752 12.1987 15.3012C11.6298 15.3271 11.4486 15.3334 10 15.3334C8.55169 15.3334 8.37002 15.3271 7.80113 15.3012C7.23345 15.2752 6.84578 15.1853 6.50644 15.0534C6.15589 14.9172 5.85833 14.7346 5.56199 14.4379C5.26543 14.1414 5.08321 13.8439 4.94687 13.4931C4.81509 13.154 4.7252 12.7664 4.69909 12.1986C4.67331 11.6297 4.66687 11.4485 4.66687 10.0001C4.66687 8.5516 4.67354 8.36971 4.69898 7.80081C4.72454 7.23325 4.81454 6.84558 4.94676 6.50635C5.08343 6.15568 5.26565 5.85813 5.56232 5.56168C5.85877 5.26512 6.15633 5.08289 6.50711 4.94667C6.84623 4.81478 7.23379 4.72489 7.80157 4.69889Z" fill="#B9293D"/>
<path fill-rule="evenodd" clip-rule="evenodd" d="M9.52211 5.62784C9.61502 5.6277 9.71496 5.62774 9.8228 5.62779L10.0006 5.62784C11.4246 5.62784 11.5934 5.63296 12.1557 5.65851C12.6757 5.68229 12.9579 5.76918 13.1459 5.84218C13.3948 5.93885 13.5723 6.0544 13.7588 6.24107C13.9455 6.42774 14.0611 6.60552 14.1579 6.85441C14.2309 7.04219 14.3179 7.32442 14.3416 7.84442C14.3672 8.40665 14.3727 8.57554 14.3727 9.99889C14.3727 11.4222 14.3672 11.5911 14.3416 12.1534C14.3178 12.6734 14.2309 12.9556 14.1579 13.1434C14.0613 13.3923 13.9455 13.5695 13.7588 13.756C13.5722 13.9427 13.3949 14.0583 13.1459 14.1549C12.9582 14.2283 12.6757 14.3149 12.1557 14.3387C11.5935 14.3643 11.4246 14.3698 10.0006 14.3698C8.57644 14.3698 8.40766 14.3643 7.84543 14.3387C7.32542 14.3147 7.0432 14.2278 6.85509 14.1548C6.6062 14.0582 6.42842 13.9426 6.24175 13.7559C6.05508 13.5693 5.93952 13.3919 5.84263 13.1429C5.76963 12.9551 5.68263 12.6729 5.65896 12.1529C5.63341 11.5907 5.6283 11.4218 5.6283 9.99756C5.6283 8.57332 5.63341 8.40532 5.65896 7.84309C5.68274 7.32308 5.76963 7.04086 5.84263 6.85286C5.9393 6.60397 6.05508 6.42619 6.24175 6.23952C6.42842 6.05285 6.6062 5.93729 6.85509 5.8404C7.04309 5.76707 7.32542 5.6804 7.84543 5.65651C8.33744 5.63429 8.5281 5.62762 9.52211 5.62651V5.62784ZM12.8473 6.51343C12.4939 6.51343 12.2073 6.79977 12.2073 7.15321C12.2073 7.50655 12.4939 7.79322 12.8473 7.79322C13.2006 7.79322 13.4873 7.50655 13.4873 7.15321C13.4873 6.79988 13.2006 6.51321 12.8473 6.51321V6.51343ZM7.2616 10.0001C7.2616 8.4876 8.48788 7.26127 10.0004 7.26122C11.513 7.26122 12.739 8.48756 12.739 10.0001C12.739 11.5127 11.5131 12.7385 10.0005 12.7385C8.48794 12.7385 7.2616 11.5127 7.2616 10.0001Z" fill="#B9293D"/>
<path fill-rule="evenodd" clip-rule="evenodd" d="M10.0005 8.22229C10.9822 8.22229 11.7782 9.01819 11.7782 10.0001C11.7782 10.9819 10.9822 11.7779 10.0005 11.7779C9.01855 11.7779 8.22266 10.9819 8.22266 10.0001C8.22266 9.01819 9.01855 8.22229 10.0005 8.22229V8.22229Z" fill="#B9293D"/>
</svg>
