<svg width="20" height="20" viewBox="0 0 20 20" fill="none" xmlns="http://www.w3.org/2000/svg">
<path d="M19.3176 5.55899H13.6967C15.0631 4.33151 15.5185 2.6208 14.752 1.64326C14.597 1.45546 14.4052 1.30141 14.1883 1.1906C13.9715 1.07979 13.7342 1.01457 13.4912 0.998966C12.4843 0.984321 11.5123 1.36754 10.7863 2.06538C10.5715 2.25408 10.3727 2.46029 10.192 2.6819C10.0242 2.34489 9.82126 2.02654 9.58661 1.73212C8.93264 0.819541 7.94433 0.202595 6.83726 0.0158662C6.58089 -0.0180361 6.32024 0.00253223 6.07236 0.0762274C5.82448 0.149923 5.59493 0.275086 5.39872 0.443542C4.37118 1.34888 4.57113 3.32064 5.84861 4.94247C6.02193 5.16344 6.21328 5.36965 6.42069 5.55899H0.677617C0.498121 5.5597 0.32618 5.63132 0.199256 5.75825C0.0723325 5.88517 0.000712255 6.05711 0 6.23661L0 9.88019C0.000713708 10.0597 0.0723344 10.2316 0.199258 10.3585C0.326181 10.4855 0.498121 10.5571 0.677617 10.5578H1.11085V18.9725C1.11118 19.2449 1.21954 19.506 1.41217 19.6987C1.6048 19.8913 1.86596 19.9997 2.13838 20H17.8569C18.1293 19.9997 18.3904 19.8913 18.5831 19.6987C18.7757 19.5061 18.8841 19.2449 18.8844 18.9725V10.5578H19.3176C19.4971 10.5571 19.6691 10.4855 19.796 10.3585C19.9229 10.2316 19.9945 10.0597 19.9952 9.88019V6.23661C19.9945 6.05711 19.9229 5.88517 19.796 5.75825C19.6691 5.63132 19.4971 5.5597 19.3176 5.55899ZM11.5195 2.89851C11.9958 2.43977 12.6156 2.15925 13.2746 2.10426C13.3136 2.10333 13.3526 2.10519 13.3913 2.10981C13.4837 2.11096 13.5748 2.1313 13.659 2.16955C13.7431 2.20779 13.8184 2.26311 13.88 2.33198C14.2299 2.77632 13.9189 3.88161 12.9191 4.76474C12.4382 5.2231 11.815 5.50334 11.1529 5.55899C11.1176 5.55992 11.0823 5.55806 11.0474 5.55344C10.8734 5.55004 10.7077 5.4782 10.5864 5.35349C10.5745 5.34721 10.5649 5.33753 10.5586 5.32571C10.4567 5.11998 10.4107 4.89105 10.4254 4.66193C10.44 4.43281 10.5147 4.21157 10.6419 4.02047C10.8565 3.59157 11.1549 3.21007 11.5195 2.89851ZM8.70348 5.55344C7.90049 5.3901 7.19076 4.9249 6.72062 4.25375C5.7653 3.03737 5.6431 1.70991 6.13187 1.28223C6.26953 1.16597 6.44625 1.1064 6.6262 1.1156C6.66331 1.11482 6.70044 1.11667 6.73729 1.12116C7.54028 1.2845 8.25 1.7497 8.72015 2.42085C9.07548 2.86099 9.3364 3.36958 9.48663 3.91494C9.31437 4.36829 9.27205 4.86073 9.36444 5.33682C9.34735 5.35671 9.32878 5.37528 9.3089 5.39236C9.17122 5.5086 8.99452 5.56817 8.81457 5.55899C8.77746 5.55978 8.74033 5.55793 8.70348 5.55344ZM2.22169 10.5578H7.77593V18.8892H2.22169V10.5578ZM11.1085 18.8892H8.88677V10.5578H11.1085V18.8892ZM17.7735 18.8892H12.2193V10.5578H17.7735V18.8892ZM18.8844 9.44695H1.11085V6.66984H18.8844V9.44695Z" fill="#B9293D"/>
</svg>
