<svg width="27" height="15" viewBox="0 0 27 15" fill="none" xmlns="http://www.w3.org/2000/svg">
<path d="M26.0906 7.18237H23.6897C23.5141 7.18237 23.3721 7.32458 23.3721 7.49998C23.3721 7.67537 23.5141 7.81758 23.6897 7.81758H26.0906C26.2662 7.81758 26.4082 7.67537 26.4082 7.49998C26.4082 7.32458 26.2662 7.18237 26.0906 7.18237Z" fill="#B9293D" stroke="#B9293D" stroke-width="0.5"/>
<path d="M22.8095 12.7289L24.9459 13.825C24.9921 13.8489 25.0417 13.86 25.0904 13.86C25.2058 13.86 25.3172 13.7971 25.3733 13.6874C25.4533 13.5314 25.3919 13.3399 25.2356 13.2599L23.0992 12.1638C22.9438 12.0836 22.7518 12.1455 22.6718 12.3013C22.5918 12.4573 22.6532 12.6489 22.8095 12.7289Z" fill="#B9293D" stroke="#B9293D" stroke-width="0.5"/>
<path d="M22.9547 2.87138C23.0034 2.87138 23.053 2.86021 23.0992 2.83633L25.2356 1.74023C25.3919 1.66021 25.4533 1.46868 25.3733 1.31267C25.2933 1.15666 25.1016 1.09432 24.9459 1.17512L22.8095 2.27122C22.6532 2.35124 22.5918 2.54276 22.6718 2.69877C22.7279 2.80841 22.8393 2.87138 22.9547 2.87138Z" fill="#B9293D" stroke="#B9293D" stroke-width="0.5"/>
<path d="M1.3176 7.81758H3.71854C3.89409 7.81758 4.03615 7.67537 4.03615 7.49998C4.03615 7.32458 3.89409 7.18237 3.71854 7.18237H1.3176C1.14205 7.18237 1 7.32458 1 7.49998C1 7.67537 1.14205 7.81758 1.3176 7.81758Z" fill="#B9293D" stroke="#B9293D" stroke-width="0.5"/>
<path d="M4.73657 2.69872C4.8166 2.54271 4.75518 2.35119 4.59886 2.27117L2.46249 1.17507C2.3071 1.09474 2.1148 1.15677 2.03509 1.31262C1.95507 1.46863 2.01648 1.66015 2.1728 1.74018L4.30918 2.83628C4.35539 2.86016 4.40501 2.87133 4.45371 2.87133C4.56909 2.87132 4.68044 2.80836 4.73657 2.69872Z" fill="#B9293D" stroke="#B9293D" stroke-width="0.5"/>
<path d="M2.03509 13.6873C2.09123 13.797 2.20258 13.8599 2.31796 13.8599C2.36665 13.8599 2.41628 13.8488 2.46249 13.8249L4.59886 12.7288C4.75518 12.6488 4.8166 12.4572 4.73657 12.3012C4.65655 12.1451 4.46457 12.083 4.30918 12.1637L2.1728 13.2598C2.01648 13.3398 1.95507 13.5313 2.03509 13.6873Z" fill="#B9293D" stroke="#B9293D" stroke-width="0.5"/>
<path d="M18.4894 1H16.554C15.7528 1 15.0835 1.57395 14.9352 2.3343H9.84615C9.15047 2.3343 8.58474 2.90003 8.58474 3.59556V4.33018C8.19745 4.33599 7.83322 4.50654 7.58354 4.80348C7.32921 5.10557 7.22252 5.50196 7.29013 5.89074L8.55186 13.1413C8.63901 13.6388 9.06858 14 9.57352 14H19.1013C19.408 14 19.6971 13.8654 19.8947 13.6304C20.027 13.4733 20.1027 13.2822 20.1256 13.0814C20.1299 13.0606 20.1382 13.0413 20.1382 13.0193V2.64896C20.1382 1.73973 19.3984 1 18.4894 1ZM9.84615 2.96951H15.2224C15.398 2.96951 15.5401 2.82435 15.5401 2.64896C15.5401 2.0899 15.9947 1.63521 16.554 1.63521H18.4894C19.0483 1.63521 19.503 2.0899 19.503 2.64896V9.56577L18.7074 5.43341C18.596 4.79293 18.0433 4.32801 17.3933 4.32801H9.21994V3.59556C9.21994 3.25036 9.50095 2.96951 9.84615 2.96951ZM19.4087 13.2217C19.3321 13.3127 19.2201 13.3648 19.1013 13.3648H9.57352C9.37781 13.3648 9.21126 13.2248 9.17776 13.0321L7.91603 5.78188C7.88037 5.5781 7.9365 5.3706 8.06956 5.21227C8.20262 5.05393 8.39771 4.96321 8.60459 4.96321H17.3933C17.7338 4.96321 18.0232 5.20669 18.0824 5.54786L19.4967 12.8943C19.5172 13.0114 19.485 13.1308 19.4087 13.2217Z" fill="#B9293D" stroke="#B9293D" stroke-width="0.5"/>
</svg>
