<svg width="20" height="20" viewBox="0 0 20 20" fill="none" xmlns="http://www.w3.org/2000/svg">
<path fill-rule="evenodd" clip-rule="evenodd" d="M10 0C4.47715 0 0 4.47715 0 10C0 15.5228 4.47715 20 10 20C15.5228 20 20 15.5228 20 10C20 4.47715 15.5228 0 10 0ZM10.8141 12.8234C10.7155 12.9274 10.5229 12.9484 10.5229 12.9484H9.88542C9.88542 12.9484 8.4789 13.0313 7.23984 11.7654C5.88862 10.3843 4.69548 7.64397 4.69548 7.64397C4.69548 7.64397 4.62661 7.46422 4.70122 7.37768C4.78521 7.27987 5.01424 7.27372 5.01424 7.27372L6.53815 7.26399C6.53815 7.26399 6.68162 7.28704 6.78439 7.36129C6.86943 7.42274 6.91691 7.53694 6.91691 7.53694C6.91691 7.53694 7.16315 8.1484 7.48922 8.70147C8.12622 9.7815 8.42255 10.0176 8.63854 9.90185C8.95365 9.73337 8.85922 8.37526 8.85922 8.37526C8.85922 8.37526 8.86496 7.88262 8.70062 7.66292C8.57333 7.4929 8.33334 7.44323 8.22744 7.4294C8.14135 7.41814 8.28222 7.22251 8.46481 7.13494C8.73923 7.00333 9.22337 6.99565 9.79569 7.00128C10.2417 7.00589 10.3701 7.03303 10.5443 7.07451C10.9487 7.17031 10.9361 7.4773 10.9089 8.13987C10.9007 8.33802 10.8913 8.56798 10.8913 8.8336C10.8913 8.89329 10.8895 8.95691 10.8877 9.02237C10.8782 9.36181 10.8674 9.75051 11.0953 9.89519C11.2121 9.96894 11.4975 9.90595 12.2117 8.71581C12.5503 8.15147 12.8039 7.48829 12.8039 7.48829C12.8039 7.48829 12.8597 7.37 12.9458 7.3193C13.0339 7.26758 13.1529 7.28345 13.1529 7.28345L14.7566 7.27372C14.7566 7.27372 15.2387 7.21688 15.3164 7.43094C15.3983 7.65473 15.1364 8.1781 14.4811 9.03537C13.8596 9.84878 13.5571 10.1483 13.5848 10.4131C13.6051 10.6067 13.8018 10.7817 14.1791 11.1253C14.9667 11.8431 15.1779 12.2208 15.2286 12.3115C15.2328 12.319 15.2359 12.3246 15.2381 12.3282C15.5913 12.9033 14.8463 12.9484 14.8463 12.9484L13.4216 12.9678C13.4216 12.9678 13.1158 13.0272 12.7131 12.7558C12.5021 12.6138 12.2959 12.3817 12.0996 12.1608C11.7997 11.8233 11.5227 11.5115 11.2862 11.5851C10.8892 11.7091 10.9012 12.5484 10.9012 12.5484C10.9012 12.5484 10.9043 12.7282 10.8141 12.8234Z" fill="#B9293D"/>
</svg>
