<svg width="15" height="22" viewBox="0 0 15 22" fill="none" xmlns="http://www.w3.org/2000/svg">
<path d="M14.342 4.51587L13.436 4.34348L13.2932 1.27022C13.2896 1.19281 13.2544 1.12022 13.196 1.06945C13.1375 1.01864 13.061 0.994026 12.9836 1.00123L1.25677 2.10668C1.25361 2.10696 1.25061 2.10757 1.24749 2.10797C1.24405 2.10842 1.24065 2.10882 1.23725 2.10943C1.23049 2.11052 1.22385 2.11194 1.21729 2.11352C1.21462 2.11417 1.21195 2.11469 1.20927 2.11538C1.19045 2.12044 1.17243 2.12737 1.15543 2.13599C1.1534 2.137 1.15142 2.13822 1.14944 2.13931C1.14304 2.14275 1.13676 2.14635 1.13069 2.15028C1.12806 2.15198 1.12547 2.15376 1.12288 2.15554C1.11733 2.15935 1.11199 2.16332 1.1068 2.16749C1.10522 2.16874 1.10352 2.1698 1.10199 2.17105C1.10114 2.17178 1.10037 2.17263 1.09952 2.17336C1.09344 2.17854 1.08761 2.18401 1.08203 2.18967C1.08089 2.19081 1.07968 2.19186 1.07858 2.19299C1.07207 2.1998 1.06591 2.207 1.06012 2.21441C1.05846 2.21656 1.05696 2.21878 1.05534 2.22101C1.05126 2.22652 1.04737 2.23214 1.04368 2.23797C1.04198 2.24065 1.04041 2.24332 1.03883 2.24603C1.03543 2.25186 1.03227 2.25777 1.02931 2.2638C1.02806 2.26636 1.02676 2.26891 1.02555 2.2715C1.02231 2.27862 1.01939 2.28591 1.01672 2.29336C1.01615 2.29494 1.01547 2.29644 1.01494 2.29806C1.01182 2.30725 1.00915 2.3166 1.007 2.32615C1.00664 2.32773 1.00648 2.32935 1.00615 2.33093C1.00453 2.33862 1.0032 2.3464 1.00223 2.35433C1.00182 2.35769 1.00162 2.36109 1.00134 2.36454C1.00101 2.3685 1.00045 2.37239 1.00028 2.37636C1.0002 2.37879 1.00032 2.38113 1.00028 2.38352C1.00024 2.38526 1 2.38701 1 2.38879V18.2384C1 18.3743 1.09668 18.4913 1.23033 18.5168L14.236 20.995C14.2537 20.9983 14.2714 21 14.2891 21C14.3545 21 14.4186 20.9772 14.4698 20.935C14.5349 20.8811 14.5725 20.8011 14.5725 20.7166V4.79429C14.5724 4.65818 14.4757 4.54133 14.342 4.51587ZM12.7408 1.59343L12.8635 4.23392L12.0934 4.08797L12.0676 4.08238C12.0647 4.08173 12.0617 4.08116 12.0587 4.0806L3.34377 2.47927L12.7408 1.59343ZM14.0058 20.3741H14.0057H14.0056L1.56677 18.0039V2.72904L11.9519 4.63725L11.9661 4.64028L11.9768 4.64263C11.9793 4.64316 11.9816 4.6436 11.984 4.64409H11.984C11.9841 4.64409 11.9841 4.64409 11.9842 4.64409L11.9867 4.64458L14.0058 5.02879V20.3741H14.0058Z" fill="#B9293D" stroke="#B9293D" stroke-width="0.5"/>
<path d="M9.419 6.84148C9.29493 6.8196 9.18164 6.80899 9.07268 6.80899C8.57891 6.80899 8.26321 7.03283 8.02516 7.33226C7.71801 6.81668 7.33983 6.47649 6.67362 6.35911C6.57543 6.34203 6.47677 6.33337 6.38037 6.33337C5.59344 6.33337 5 6.90822 5 7.67049C5 9.07226 6.42628 10.6862 7.80563 12.247C7.85598 12.3041 7.92795 12.3334 8.00047 12.3334C8.05723 12.3334 8.11428 12.3153 8.16164 12.2784C9.55705 11.1885 11 10.0615 11 8.63369C11 7.79723 10.2905 6.99319 9.419 6.84148ZM8.03316 11.7497C6.76561 10.3134 5.50963 8.84428 5.50963 7.67053C5.50963 7.16994 5.86768 6.82033 6.38034 6.82033C6.44623 6.82033 6.51416 6.82635 6.58173 6.83807C7.12464 6.93371 7.42414 7.20816 7.76868 7.9256C7.80884 8.00925 7.89493 8.0641 7.99119 8.0674C8.08766 8.07063 8.17744 8.02184 8.22375 7.94118C8.49733 7.46477 8.7194 7.29595 9.07264 7.29595C9.14916 7.29595 9.23457 7.30415 9.32704 7.32047C9.96842 7.43211 10.4903 8.02125 10.4903 8.63376C10.4903 9.77131 9.2729 10.7786 8.03316 11.7497Z" fill="#B9293D" stroke="#B9293D" stroke-width="0.5"/>
<path d="M5.10327 13.5712L10.3591 14.6102C10.3776 14.6139 10.3961 14.6156 10.4143 14.6156C10.5468 14.6156 10.6654 14.5221 10.692 14.3871C10.7224 14.2335 10.6225 14.0845 10.469 14.0541L5.21319 13.0151C5.05967 12.9848 4.91056 13.0847 4.88019 13.2382C4.84983 13.3917 4.94971 13.5408 5.10327 13.5712Z" fill="#B9293D" stroke="#B9293D" stroke-width="0.5"/>
<path d="M10.4692 16.5418L5.21349 15.5012C5.05997 15.4708 4.91086 15.5706 4.88045 15.7242C4.85005 15.8777 4.94989 16.0269 5.10341 16.0573L10.3592 17.0978C10.3778 17.1016 10.3963 17.1033 10.4146 17.1033C10.5471 17.1033 10.6655 17.0098 10.6922 16.8748C10.7225 16.7213 10.6228 16.5722 10.4692 16.5418Z" fill="#B9293D" stroke="#B9293D" stroke-width="0.5"/>
</svg>
