<svg width="26" height="26" viewBox="0 0 26 26" fill="none" xmlns="http://www.w3.org/2000/svg">
<circle cx="12.6663" cy="13.1124" r="11.5" stroke="#B9293D" stroke-width="2"/>
<path d="M8.70133 7.94183C8.39655 7.94183 8.15707 8.18131 8.15707 8.4861V9.85765L6.98145 9.18276C6.7202 9.03036 6.39364 9.11745 6.24125 9.37869C6.08885 9.63994 6.17594 9.9665 6.43718 10.1189L7.6128 10.7938L6.48073 11.4469C6.21948 11.5993 6.13239 11.9259 6.28479 12.1871C6.39364 12.3613 6.56781 12.4701 6.76374 12.4701C6.85083 12.4701 6.95968 12.4484 7.02499 12.4048L8.70133 11.4251L11.6621 13.1233L8.74488 14.7996L7.00322 13.7981C6.74197 13.6457 6.41541 13.7328 6.26302 13.9941C6.11062 14.2553 6.19771 14.5819 6.45895 14.7343L7.65634 15.4092L6.45895 16.0841C6.19771 16.2365 6.11062 16.563 6.26302 16.8243C6.37187 16.9984 6.54604 17.1073 6.74197 17.1073C6.82906 17.1073 6.93791 17.0855 7.00322 17.042L8.17884 16.3671V17.6951C8.17884 17.9999 8.41832 18.2394 8.72311 18.2394C9.0279 18.2394 9.26737 17.9999 9.26737 17.6951V15.7575L12.2282 14.0594V17.4121L10.4865 18.4135C10.2253 18.5659 10.1382 18.8925 10.2906 19.1537C10.3994 19.3279 10.5736 19.4367 10.7695 19.4367C10.8566 19.4367 10.9655 19.415 11.0308 19.3714L12.2282 18.6965V20.0681C12.2282 20.3729 12.4677 20.6124 12.7725 20.6124C13.0772 20.6124 13.3167 20.3729 13.3167 20.0681V18.7183L14.4706 19.3714C14.5576 19.415 14.6447 19.4367 14.7318 19.4367C14.9277 19.4367 15.1019 19.3497 15.2108 19.1537C15.3632 18.8925 15.2761 18.5659 15.0148 18.4135L13.3167 17.4338V14.0376L16.2122 15.714V17.7169C16.2122 18.0217 16.4517 18.2611 16.7565 18.2611C17.0613 18.2611 17.3008 18.0217 17.3008 17.7169V16.3453L18.4981 17.0202C18.5852 17.0637 18.6723 17.0855 18.7594 17.0855C18.9553 17.0855 19.1295 16.9984 19.2383 16.8025C19.3907 16.5412 19.3037 16.2147 19.0424 16.0623L17.8668 15.3874L19.0206 14.7343C19.2819 14.5819 19.369 14.2553 19.2166 13.9941C19.0642 13.7328 18.7376 13.6457 18.4764 13.7981L16.7783 14.7778L13.8174 13.0797L16.7347 11.4034L18.4764 12.4048C18.5635 12.4484 18.6505 12.4701 18.7376 12.4701C18.9336 12.4701 19.1077 12.383 19.2166 12.1871C19.369 11.9259 19.2819 11.5993 19.0206 11.4469L17.8233 10.772L19.0206 10.0971C19.2819 9.94473 19.369 9.61817 19.2166 9.35692C19.0642 9.09567 18.7376 9.00859 18.4764 9.16099L17.3008 9.83588V8.50787C17.3008 8.20308 17.0613 7.9636 16.7565 7.9636C16.4517 7.9636 16.2122 8.20308 16.2122 8.50787V10.4455L13.2514 12.1436V8.79089L14.9931 7.78943C15.2543 7.63704 15.3414 7.31048 15.189 7.04923C15.0366 6.78798 14.71 6.7009 14.4488 6.85329L13.2514 7.52819V6.15663C13.2514 5.85184 13.0119 5.61237 12.7071 5.61237C12.4024 5.61237 12.1629 5.85184 12.1629 6.15663V7.50641L11.009 6.85329C10.7478 6.7009 10.4212 6.78798 10.2688 7.04923C10.1164 7.31048 10.2035 7.63704 10.4648 7.78943L12.1629 8.76911V12.1871L9.2456 10.489V8.4861C9.2456 8.20308 9.00612 7.94183 8.70133 7.94183Z" fill="#B9293D" stroke="#B9293D" stroke-width="0.5"/>
</svg>
