<svg width="1440" height="239" viewBox="0 0 1440 239" fill="none" xmlns="http://www.w3.org/2000/svg">
<path opacity="0.199" d="M309.016 21.9589C309.016 33.783 299.652 43.9179 287.534 43.9179C275.967 43.9179 266.052 34.346 266.052 21.9589C266.052 10.1349 275.416 0 287.534 0C299.652 0.56305 309.016 10.1349 309.016 21.9589Z" fill="white"/>
<path opacity="0.3546" d="M310.668 233.666C324.662 233.666 336.006 222.07 336.006 207.766C336.006 193.461 324.662 181.865 310.668 181.865C296.675 181.865 285.331 193.461 285.331 207.766C285.331 222.07 296.675 233.666 310.668 233.666Z" fill="white"/>
<path opacity="0.3546" d="M562.388 161.032C562.388 166.662 557.981 170.604 553.024 170.604C547.516 170.604 543.66 166.099 543.66 161.032C543.66 155.401 548.067 151.46 553.024 151.46C557.981 151.46 562.388 155.964 562.388 161.032Z" fill="white"/>
<path opacity="0.5" d="M1082.85 152.959C1082.85 164.783 1073.49 174.918 1061.37 174.918C1049.81 174.918 1039.89 165.346 1039.89 152.959C1039.89 141.135 1049.25 131 1061.37 131C1072.94 131 1082.85 141.135 1082.85 152.959Z" fill="white"/>
<path opacity="0.5" d="M624.629 100.223C624.629 117.115 610.859 131.191 594.335 131.191C577.81 131.191 564.04 117.115 564.04 100.223C564.04 83.3316 577.81 69.2554 594.335 69.2554C610.859 69.2554 624.629 83.3316 624.629 100.223Z" fill="white"/>
<path opacity="0.5" d="M952.729 106.801C966.722 106.801 978.066 95.2047 978.066 80.9003C978.066 66.596 966.722 55 952.729 55C938.735 55 927.391 66.596 927.391 80.9003C927.391 95.2047 938.735 106.801 952.729 106.801Z" fill="white"/>
<path d="M1286.7 60.8094C1286.7 66.4399 1282.3 70.3812 1277.34 70.3812C1271.83 70.3812 1267.98 65.8768 1267.98 60.8094C1267.98 55.7419 1272.38 51.2376 1277.34 51.2376C1282.3 50.6745 1286.7 55.1789 1286.7 60.8094Z" fill="white"/>
<path d="M826.227 116.551C826.227 122.182 821.82 126.123 816.863 126.123C811.355 126.123 807.499 121.619 807.499 116.551C807.499 111.484 811.906 106.979 816.863 106.979C822.371 106.979 826.227 111.484 826.227 116.551Z" fill="white"/>
<path opacity="0.5" d="M1428.26 116.552C1428.26 128.376 1418.9 138.511 1406.78 138.511C1395.21 138.511 1385.3 128.939 1385.3 116.552C1385.3 104.165 1394.66 94.5928 1406.78 94.5928C1418.9 95.1558 1428.26 104.728 1428.26 116.552Z" fill="white"/>
<path opacity="0.206" d="M1440 161C1440 184.455 1421.1 204 1398.42 204C1375.75 204 1356.85 184.455 1356.85 161C1356.85 137.545 1375.75 118 1398.42 118C1421.86 118 1440 136.764 1440 161Z" fill="#F3DC9B"/>
<path opacity="0.206" d="M1269.78 182C1269.78 205.455 1250.88 225 1228.21 225C1205.53 225 1186.63 205.455 1186.63 182C1186.63 158.545 1205.53 139 1228.21 139C1251.64 139 1269.78 157.764 1269.78 182Z" fill="#F3DC9B"/>
<path opacity="0.206" d="M1082.93 196C1082.93 219.455 1064.04 239 1041.36 239C1018.68 239 999.783 219.455 999.783 196C999.783 172.545 1018.68 153 1041.36 153C1064.79 153 1082.93 171.764 1082.93 196Z" fill="#F3DC9B"/>
<path opacity="0.206" d="M890.217 153C890.217 176.455 871.319 196 848.641 196C825.963 196 807.065 176.455 807.065 153C807.065 129.545 825.963 110 848.641 110C872.075 110 890.217 128.764 890.217 153Z" fill="#F3DC9B"/>
<path opacity="0.206" d="M665.217 153C665.217 176.455 646.319 196 623.641 196C600.963 196 582.065 176.455 582.065 153C582.065 129.545 600.963 110 623.641 110C647.075 110 665.217 128.764 665.217 153Z" fill="#F3DC9B"/>
<path opacity="0.206" d="M464.674 124C464.674 147.455 445.776 167 423.098 167C400.42 167 381.522 147.455 381.522 124C381.522 100.545 400.42 81 423.098 81C446.532 81 464.674 99.7636 464.674 124Z" fill="#F3DC9B"/>
<path opacity="0.206" d="M292.5 93C292.5 116.455 273.602 136 250.924 136C228.246 136 209.348 116.455 209.348 93C209.348 69.5455 228.246 50 250.924 50C274.358 50 292.5 68.7636 292.5 93Z" fill="#F3DC9B"/>
<path opacity="0.206" d="M83.1522 136C83.1522 159.455 64.254 179 41.5761 179C18.8982 179 0 159.455 0 136C0 112.545 18.8982 93 41.5761 93C65.0099 93 83.1522 111.764 83.1522 136Z" fill="#F3DC9B"/>
<path opacity="0.2177" d="M397.696 91.2138C397.696 95.7182 393.84 99.6596 389.434 99.6596C385.027 99.6596 381.171 95.7182 381.171 91.2138C381.171 86.7094 385.027 82.7681 389.434 82.7681C394.391 83.3311 397.696 86.7094 397.696 91.2138Z" fill="white"/>
<path d="M226.394 62.4975C226.394 67.0019 222.539 70.9433 218.132 70.9433C213.726 70.9433 209.87 67.0019 209.87 62.4975C209.87 57.9931 213.726 54.0518 218.132 54.0518C223.09 54.0518 226.394 57.4301 226.394 62.4975Z" fill="white"/>
<path d="M774.45 54.0522C774.45 58.5566 770.595 62.4979 766.188 62.4979C761.782 62.4979 757.926 58.5566 757.926 54.0522C757.926 49.5478 761.782 45.6064 766.188 45.6064C770.595 45.6064 774.45 49.5478 774.45 54.0522Z" fill="white"/>
<path opacity="0.616" d="M209.32 75.4497C212.625 78.828 212.625 83.8955 209.32 87.2738C206.015 90.6521 201.058 90.6521 197.753 87.2738C194.448 83.8955 194.448 78.828 197.753 75.4497C201.058 72.0714 206.015 72.0714 209.32 75.4497Z" fill="white"/>
<path opacity="0.2976" d="M33.6107 103.602C36.9156 106.98 36.9156 112.048 33.6107 115.426C30.3058 118.804 25.3487 118.804 22.0438 115.426C18.739 112.048 18.739 106.98 22.0438 103.602C25.3487 100.224 30.8567 100.224 33.6107 103.602Z" fill="white"/>
<path opacity="0.2976" d="M448.923 95.7188C452.227 99.0971 452.227 104.165 448.923 107.543C445.618 110.921 440.66 110.921 437.355 107.543C434.05 104.165 434.05 99.0971 437.355 95.7188C440.66 92.3405 445.618 92.3405 448.923 95.7188Z" fill="white"/>
<path opacity="0.047794" d="M1031.13 175.673C1034.43 179.051 1034.43 184.118 1031.13 187.497C1027.82 190.875 1022.86 190.875 1019.56 187.497C1016.25 184.118 1016.25 179.051 1019.56 175.673C1022.86 172.857 1027.82 172.857 1031.13 175.673Z" fill="white"/>
<path opacity="0.2608" d="M1184.25 188.622C1187.56 192 1187.56 197.068 1184.25 200.446C1180.95 203.824 1175.99 203.824 1172.68 200.446C1169.38 197.068 1169.38 192 1172.68 188.622C1175.99 185.244 1180.95 185.244 1184.25 188.622Z" fill="white"/>
<path opacity="0.5" d="M1189.14 106.026C1189.14 93.6274 1198.96 83.0001 1211.67 83.0002C1223.8 83.0002 1234.19 93.037 1234.19 106.026C1234.19 118.424 1224.37 129.052 1211.67 129.052C1199.54 128.461 1189.14 118.424 1189.14 106.026Z" fill="white"/>
<path opacity="0.2589" d="M705.139 100.711C690.466 100.711 678.571 112.871 678.571 127.87C678.571 142.87 690.466 155.029 705.139 155.029C719.812 155.029 731.707 142.87 731.707 127.87C731.707 112.871 719.812 100.711 705.139 100.711Z" fill="white"/>
<path opacity="0.2589" d="M440.611 176.285C440.611 170.38 445.232 166.248 450.43 166.248C456.206 166.248 460.249 170.971 460.249 176.285C460.249 182.189 455.628 186.321 450.43 186.321C445.232 186.912 440.611 182.189 440.611 176.285Z" fill="white"/>
<path opacity="0.2589" d="M922.883 117.834C922.883 111.93 927.504 107.797 932.702 107.797C938.478 107.797 942.521 112.521 942.521 117.834C942.521 123.738 937.9 127.871 932.702 127.871C927.504 127.871 922.883 123.148 922.883 117.834Z" fill="white"/>
<path opacity="0.2589" d="M292.175 117.834C292.175 105.436 301.994 94.8083 314.701 94.8083C326.83 94.8083 337.226 104.845 337.226 117.834C337.226 130.233 327.407 140.86 314.701 140.86C301.994 140.269 292.175 130.233 292.175 117.834Z" fill="white"/>
<path opacity="0.1711" d="M137.964 116.063C137.964 98.3506 152.403 83.5904 169.73 83.5904C187.058 83.5904 201.497 98.3506 201.497 116.063C201.497 133.775 187.058 148.535 169.73 148.535C152.403 148.535 137.964 133.775 137.964 116.063Z" fill="white"/>
<path opacity="0.2353" d="M578.073 169.789C578.073 165.066 582.116 160.933 586.736 160.933C591.357 160.933 595.4 165.066 595.4 169.789C595.4 174.512 591.357 178.645 586.736 178.645C582.116 178.055 578.073 174.512 578.073 169.789Z" fill="white"/>
<path opacity="0.1623" d="M611.572 137.317C611.572 132.594 615.615 128.461 620.236 128.461C624.856 128.461 628.899 132.594 628.899 137.317C628.899 142.04 624.856 146.173 620.236 146.173C615.037 146.173 611.572 142.04 611.572 137.317Z" fill="white"/>
<path opacity="0.1524" d="M868.013 146.764C868.013 142.041 872.056 137.908 876.677 137.908C881.297 137.908 885.34 142.041 885.34 146.764C885.34 151.487 881.297 155.62 876.677 155.62C871.479 155.62 868.013 151.487 868.013 146.764Z" fill="white"/>
<path opacity="0.1524" d="M293.33 155.62C293.33 150.897 297.373 146.764 301.994 146.764C306.614 146.764 310.657 150.897 310.657 155.62C310.657 160.343 306.614 164.476 301.994 164.476C297.373 164.476 293.33 160.343 293.33 155.62Z" fill="white"/>
<path opacity="0.709" d="M173.771 127.28C173.771 122.557 177.814 118.424 182.435 118.424C187.056 118.424 191.099 122.557 191.099 127.28C191.099 132.003 187.056 136.136 182.435 136.136C177.814 136.136 173.771 132.003 173.771 127.28Z" fill="white"/>
<path d="M1383.21 163.885C1379.74 160.342 1379.74 155.029 1383.21 151.486C1386.67 147.944 1391.87 147.944 1395.34 151.486C1398.8 155.029 1398.8 160.342 1395.34 163.885C1391.87 167.427 1386.67 167.427 1383.21 163.885Z" fill="white"/>
<path opacity="0.439" d="M814.877 160.342C811.412 156.799 811.412 151.486 814.877 147.943C818.343 144.401 823.541 144.401 827.006 147.943C830.472 151.486 830.472 156.799 827.006 160.342C823.541 163.884 818.343 163.884 814.877 160.342Z" fill="white"/>
<path opacity="0.439" d="M427.326 135.545C423.861 132.002 423.861 126.689 427.326 123.146C430.792 119.604 435.99 119.604 439.455 123.146C442.921 126.689 442.921 132.002 439.455 135.545C435.99 139.087 430.792 139.087 427.326 135.545Z" fill="white"/>
<path opacity="0.439" d="M71.0773 99.0555C67.6119 95.5131 67.6119 90.1994 71.0773 86.6569C74.5427 83.1145 79.7409 83.1145 83.2064 86.6569C86.6718 90.1994 86.6718 95.5131 83.2063 99.0555C79.7409 102.008 74.5427 102.008 71.0773 99.0555Z" fill="white"/>
</svg>
