<svg width="1440" height="245" viewBox="0 0 1440 245" fill="none" xmlns="http://www.w3.org/2000/svg">
<path opacity="0.1817" d="M1382.7 15.3616C1382.7 7.41358 1389.28 0.601046 1397.8 0.601045C1405.93 0.601044 1412.9 7.0351 1412.9 15.3616C1412.9 23.3095 1406.32 30.1221 1397.8 30.1221C1389.67 30.1221 1382.7 23.688 1382.7 15.3616Z" fill="white"/>
<path opacity="0.4" d="M134.999 72.9431C112.908 72.9431 94.9998 90.4506 94.9998 112.047C94.9998 133.643 112.908 151.151 134.999 151.151C157.091 151.151 175 133.643 175 112.047C175 90.4506 157.091 72.9431 134.999 72.9431Z" fill="white"/>
<path d="M422.766 159.938C422.766 156.154 425.864 153.504 429.348 153.504C432.832 153.504 435.929 156.532 435.929 159.938C435.929 163.345 432.832 166.373 429.348 166.373C425.864 166.373 422.766 163.345 422.766 159.938Z" fill="white"/>
<path d="M895.281 115.658C895.281 111.873 898.379 109.224 901.863 109.224C905.734 109.224 908.445 112.252 908.445 115.658C908.445 119.064 905.347 122.092 901.863 122.092C897.992 122.092 895.281 119.443 895.281 115.658Z" fill="white"/>
<path opacity="0.4" d="M668 196.609C668 181.607 680.641 168.748 697 168.748C712.615 168.748 726 180.892 726 196.609C726 211.612 713.359 224.471 697 224.471C680.641 224.471 668 212.326 668 196.609Z" fill="white"/>
<path d="M-0.000287393 159.938C-0.000288088 151.99 6.5811 145.178 15.0984 145.178C23.2285 145.178 30.1973 151.612 30.1973 159.938C30.1973 168.265 23.6156 174.699 15.0984 174.699C6.5811 174.32 -0.000286698 167.886 -0.000287393 159.938Z" fill="white"/>
<path d="M979.293 197.786C979.293 186.432 988.972 176.97 1000.59 176.97C1012.2 176.97 1021.88 186.432 1021.88 197.786C1021.88 209.141 1012.2 218.603 1000.59 218.603C988.972 218.603 979.293 209.141 979.293 197.786Z" fill="white" fill-opacity="0.3"/>
<path opacity="0.206" d="M980 195.143C980 218.072 960.682 237.179 937.5 237.179C914.318 237.179 895 218.072 895 195.143C895 172.214 914.318 153.106 937.5 153.106C961.455 153.106 980 171.449 980 195.143Z" fill="#F3DC9B"/>
<path opacity="0.8688" d="M516.457 116.792C506.621 116.792 498.648 124.587 498.648 134.202C498.648 143.817 506.621 151.612 516.457 151.612C526.292 151.612 534.266 143.817 534.266 134.202C534.266 124.587 526.292 116.792 516.457 116.792Z" fill="white"/>
<path opacity="0.8688" d="M339.143 165.237C339.143 161.453 342.24 158.803 345.724 158.803C349.209 158.803 352.306 161.831 352.306 165.237C352.306 168.644 349.209 171.671 345.724 171.671C342.24 171.671 339.143 169.022 339.143 165.237Z" fill="white"/>
<path opacity="0.8688" d="M662.799 127.39C662.799 123.605 665.896 120.956 669.38 120.956C673.252 120.956 675.962 123.984 675.962 127.39C675.962 130.796 672.864 133.824 669.38 133.824C665.509 134.202 662.799 131.175 662.799 127.39Z" fill="white"/>
<path opacity="0.8688" d="M1134.93 83.4869C1134.93 79.7021 1138.02 77.0528 1141.51 77.0528C1145.38 77.0528 1148.09 80.0806 1148.09 83.4869C1148.09 86.8932 1144.99 89.9209 1141.51 89.9209C1138.02 89.9209 1134.93 86.8932 1134.93 83.4869Z" fill="white"/>
<path opacity="0.8688" d="M908.058 150.856C908.058 142.908 914.64 136.095 923.157 136.095C931.287 136.095 938.256 142.529 938.256 150.856C938.256 158.804 931.674 165.616 923.157 165.616C914.64 165.616 908.058 158.804 908.058 150.856Z" fill="white" fill-opacity="0.3"/>
<path d="M79.7872 77.5427C75.2064 72.2925 76.2962 65.0346 81.1297 61.0043C86.5002 56.5261 93.9244 57.5916 98.0471 62.3168C102.17 67.0421 101.538 74.8248 96.7045 78.8551C91.334 83.3333 84.368 82.793 79.7872 77.5427Z" fill="white"/>
<path opacity="0.8688" d="M141.527 112.15C131.743 100.936 132.477 83.7193 144.279 73.8779C155.545 64.4837 173.123 65.5095 183.373 77.2575C193.157 88.4715 192.423 105.688 180.621 115.53C168.818 125.371 151.311 123.364 141.527 112.15Z" fill="white" fill-opacity="0.3"/>
<path opacity="0.8688" d="M239.645 127.389C239.645 119.441 246.227 112.629 254.744 112.629C262.874 112.629 269.843 119.063 269.843 127.389C269.843 135.716 263.262 142.15 254.744 142.15C246.227 142.15 239.645 135.716 239.645 127.389Z" fill="white"/>
<path opacity="0.4682" d="M676.736 91.0565C676.736 81.5947 684.866 73.6467 694.544 73.6467C704.223 73.6467 712.353 81.5947 712.353 91.0565C712.353 100.518 704.223 108.466 694.544 108.466C684.866 108.466 676.736 100.518 676.736 91.0565Z" fill="white"/>
<path opacity="0.4682" d="M517.618 122.47C517.618 118.685 520.715 116.036 524.199 116.036C528.071 116.036 530.781 119.064 530.781 122.47C530.781 126.255 527.684 128.904 524.199 128.904C520.715 128.904 517.618 125.876 517.618 122.47Z" fill="white"/>
<path opacity="0.4682" d="M840.887 84.6225C840.887 80.8378 843.984 78.1884 847.468 78.1884C851.34 78.1884 854.05 81.2162 854.05 84.6225C854.05 88.4073 850.953 91.0566 847.468 91.0566C843.984 91.0566 840.887 88.0288 840.887 84.6225Z" fill="white"/>
<path opacity="0.4682" d="M1313.4 40.3406C1313.4 36.5559 1316.5 33.9065 1319.98 33.9065C1323.86 33.9065 1326.57 36.9343 1326.57 40.3406C1326.57 44.1254 1323.47 46.7746 1319.98 46.7746C1316.5 47.1531 1313.4 44.1254 1313.4 40.3406Z" fill="white"/>
<path opacity="0.4682" d="M1086.15 107.71C1086.15 99.7617 1092.73 92.9492 1101.24 92.9492C1109.37 92.9492 1116.34 99.3832 1116.34 107.71C1116.34 115.658 1109.76 122.47 1101.24 122.47C1093.11 122.47 1086.15 116.036 1086.15 107.71Z" fill="white"/>
<path opacity="0.4682" d="M418.121 84.6223C418.121 76.6743 424.702 69.8618 433.219 69.8618C441.349 69.8618 448.318 76.2958 448.318 84.6223C448.318 92.5703 441.736 99.3828 433.219 99.3828C424.702 99.3828 418.121 92.5703 418.121 84.6223Z" fill="white"/>
<path opacity="0.4682" d="M1397.41 122.47C1397.41 111.116 1407.09 101.654 1418.71 101.654C1430.32 101.654 1440 111.116 1440 122.47C1440 133.825 1430.32 143.287 1418.71 143.287C1407.09 143.287 1397.41 133.825 1397.41 122.47Z" fill="white"/>
<path opacity="0.206" d="M1359 129.644C1359 152.573 1339.68 171.68 1316.5 171.68C1293.32 171.68 1274 152.573 1274 129.644C1274 106.715 1293.32 87.6069 1316.5 87.6069C1340.45 87.6069 1359 105.95 1359 129.644Z" fill="#F3DC9B"/>
<path opacity="0.206" d="M1171 162.882C1171 185.811 1151.68 204.919 1128.5 204.919C1105.32 204.919 1086 185.811 1086 162.882C1086 139.953 1105.32 120.845 1128.5 120.845C1152.45 120.845 1171 139.188 1171 162.882Z" fill="#F3DC9B"/>
<path opacity="0.206" d="M782 202.963C782 225.893 762.682 245 739.5 245C716.318 245 697 225.893 697 202.963C697 180.034 716.318 160.927 739.5 160.927C763.455 160.927 782 179.27 782 202.963Z" fill="#F3DC9B"/>
<path opacity="0.206" d="M556 192.21C556 215.139 536.682 234.247 513.5 234.247C490.318 234.247 471 215.139 471 192.21C471 169.281 490.318 150.173 513.5 150.173C537.455 150.173 556 168.517 556 192.21Z" fill="#F3DC9B"/>
<path opacity="0.206" d="M352 176.568C352 199.497 332.682 218.605 309.5 218.605C286.318 218.605 267 199.497 267 176.568C267 153.639 286.318 134.532 309.5 134.532C333.454 134.532 352 152.875 352 176.568Z" fill="#F3DC9B"/>
<path opacity="0.206" d="M162 85.6519C162 108.581 142.682 127.689 119.5 127.689C96.3182 127.689 77 108.581 77 85.6519C77 62.7228 96.3182 43.6152 119.5 43.6152C143.455 43.6152 162 61.9585 162 85.6519Z" fill="#F3DC9B"/>
<path d="M835.467 94.0841C835.467 91.0563 838.177 88.407 841.274 88.407C844.371 88.407 847.081 91.0563 847.081 94.0841C847.081 97.1119 844.371 99.7612 841.274 99.7612C837.79 99.7612 835.467 97.1119 835.467 94.0841Z" fill="white"/>
<path opacity="0.9685" d="M1273.14 150.098C1273.14 147.07 1275.85 144.421 1278.95 144.421C1282.04 144.421 1284.75 147.07 1284.75 150.098C1284.75 153.126 1282.04 155.775 1278.95 155.775C1275.85 155.397 1273.14 153.126 1273.14 150.098Z" fill="white"/>
<path opacity="0.1878" d="M749.907 173.942C749.907 170.914 752.617 168.264 755.714 168.264C758.811 168.264 761.521 170.914 761.521 173.942C761.521 176.969 758.811 179.619 755.714 179.619C752.617 179.24 749.907 176.969 749.907 173.942Z" fill="white"/>
<path opacity="0.1878" d="M1163.96 24.066C1163.96 21.0382 1166.67 18.3889 1169.77 18.3889C1172.87 18.3889 1175.58 21.0382 1175.58 24.066C1175.58 27.0938 1172.87 29.7432 1169.77 29.7432C1166.29 29.3647 1163.96 27.0938 1163.96 24.066Z" fill="white"/>
<path opacity="0.1878" d="M464.966 117.549C464.966 114.521 467.676 111.872 470.773 111.872C473.87 111.872 476.58 114.521 476.58 117.549C476.58 120.577 473.87 123.226 470.773 123.226C467.289 123.226 464.966 120.577 464.966 117.549Z" fill="white"/>
<path opacity="0.2608" d="M437.479 186.81C435.156 184.539 435.156 181.133 437.479 178.862C439.802 176.591 443.286 176.591 445.609 178.862C447.932 181.133 447.932 184.539 445.609 186.81C443.286 188.702 439.802 188.702 437.479 186.81Z" fill="white"/>
<path opacity="0.2608" d="M876.505 97.8682C874.182 95.5973 874.182 92.191 876.505 89.9201C878.828 87.6493 882.312 87.6493 884.635 89.9201C886.958 92.191 886.958 95.5973 884.635 97.8682C882.312 100.139 878.828 100.139 876.505 97.8682Z" fill="white"/>
<path opacity="0.9772" d="M464.966 113.007C462.643 110.736 462.643 107.33 464.966 105.059C467.289 102.788 470.773 102.788 473.096 105.059C475.419 107.33 475.419 110.736 473.096 113.007C470.773 115.278 467.289 115.278 464.966 113.007Z" fill="white"/>
<path opacity="0.9772" d="M1267.33 40.3403C1265.01 38.0695 1265.01 34.6632 1267.33 32.3923C1269.66 30.1215 1273.14 30.1215 1275.46 32.3923C1277.79 34.6632 1277.79 38.0695 1275.46 40.3403C1273.14 42.6112 1269.27 42.6112 1267.33 40.3403Z" fill="white"/>
<path opacity="0.9772" d="M705.385 73.2677C703.062 70.9969 703.062 67.5906 705.385 65.3197C707.708 63.0489 711.193 63.0489 713.516 65.3197C715.839 67.5906 715.839 70.9969 713.516 73.2677C711.193 75.1601 707.708 75.1601 705.385 73.2677Z" fill="white"/>
<path opacity="0.9772" d="M1007.17 24.4443C1004.84 22.1735 1004.84 18.7672 1007.17 16.4963C1009.49 14.2255 1012.97 14.2255 1015.3 16.4963C1017.62 18.7672 1017.62 22.1735 1015.3 24.4443C1012.97 26.7152 1009.49 26.7152 1007.17 24.4443Z" fill="white"/>
<path opacity="0.9772" d="M1037.75 184.54C1035.43 182.269 1035.43 178.863 1037.75 176.592C1040.08 174.321 1043.56 174.321 1045.88 176.592C1048.21 178.863 1048.21 182.269 1045.88 184.54C1043.56 186.811 1040.08 186.811 1037.75 184.54Z" fill="white"/>
<path opacity="0.9772" d="M715.646 30.1217C713.323 27.8509 713.323 24.4446 715.646 22.1737C717.969 19.9029 721.453 19.9029 723.776 22.1737C726.099 24.4446 726.099 27.8509 723.776 30.1217C721.453 32.0141 717.969 32.0141 715.646 30.1217Z" fill="white"/>
<path opacity="0.9772" d="M265.584 159.938C263.261 157.667 263.261 154.261 265.584 151.99C267.907 149.719 271.391 149.719 273.714 151.99C276.037 154.261 276.037 157.667 273.714 159.938C271.391 161.831 267.52 161.831 265.584 159.938Z" fill="white" fill-opacity="0.3"/>
</svg>
