<svg width="1440" height="238" viewBox="0 0 1440 238" fill="none" xmlns="http://www.w3.org/2000/svg">
<path opacity="0.6521" d="M995.394 70.516C995.394 74.9203 991.711 78.0033 987.567 78.0033C983.422 78.0033 979.739 74.4798 979.739 70.516C979.739 66.1118 983.422 63.0288 987.567 63.0288C991.711 63.0288 995.394 66.1118 995.394 70.516Z" fill="white"/>
<path opacity="0.2791" d="M828.633 109.314C840.662 109.314 850.414 100.324 850.414 89.2343C850.414 78.1448 840.662 69.1548 828.633 69.1548C816.604 69.1548 806.852 78.1448 806.852 89.2343C806.852 100.324 816.604 109.314 828.633 109.314Z" fill="white"/>
<path opacity="0.2791" d="M1034.19 51.1176C1034.19 55.722 1030.35 58.9452 1026.02 58.9452C1021.22 58.9452 1017.86 55.2616 1017.86 51.1176C1017.86 46.5132 1021.7 43.29 1026.02 43.29C1030.35 43.29 1034.19 46.5132 1034.19 51.1176Z" fill="white"/>
<path opacity="0.2791" d="M657.788 98.783C657.788 103.376 654.265 106.591 650.301 106.591C645.897 106.591 642.813 102.917 642.813 98.783C642.813 94.19 646.337 90.9749 650.301 90.9749C654.265 90.5156 657.788 94.19 657.788 98.783Z" fill="white"/>
<path opacity="0.2791" d="M1150.58 98.4232C1150.58 107.952 1143.02 116.12 1133.23 116.12C1123.88 116.12 1115.87 108.406 1115.87 98.4232C1115.87 88.894 1123.44 80.7261 1133.23 80.7261C1143.02 80.7261 1150.58 88.4403 1150.58 98.4232Z" fill="white"/>
<path opacity="0.7517" d="M819.785 79.705C819.785 84.3094 815.781 87.5326 811.276 87.5326C806.271 87.5326 802.768 83.849 802.768 79.705C802.768 75.561 806.772 71.8774 811.276 71.8774C815.781 71.8774 819.785 75.561 819.785 79.705Z" fill="white"/>
<path opacity="0.5568" d="M76.506 78.3437C76.506 83.3485 72.8223 86.8519 68.6783 86.8519C64.0739 86.8519 60.8508 82.848 60.8508 78.3437C60.8508 73.3389 64.5343 69.8354 68.6783 69.8354C72.8223 69.8354 76.506 73.3389 76.506 78.3437Z" fill="white"/>
<path opacity="0.206" d="M853.137 185.887C853.137 195.233 845.571 203.244 835.78 203.244C826.434 203.244 818.423 195.678 818.423 185.887C818.423 176.541 825.989 168.531 835.78 168.531C845.571 168.531 853.137 176.096 853.137 185.887Z" fill="white"/>
<path opacity="0.206" d="M493.749 168.191C493.749 182.113 482.302 193.715 468.565 193.715C454.828 193.715 443.381 182.113 443.381 168.191C443.381 154.268 454.828 142.666 468.565 142.666C482.76 142.666 493.749 153.804 493.749 168.191Z" fill="white"/>
<path opacity="0.206" d="M476.097 104.39C476.097 127.273 457.25 146.341 434.634 146.341C412.018 146.341 393.171 127.273 393.171 104.39C393.171 81.5077 412.018 62.439 434.634 62.439C458.004 62.439 476.097 80.745 476.097 104.39Z" fill="#F3DC9B"/>
<path opacity="0.206" d="M294.634 84.878C294.634 107.76 275.787 126.829 253.171 126.829C230.554 126.829 211.707 107.76 211.707 84.878C211.707 61.9955 230.554 42.9268 253.171 42.9268C276.541 42.9268 294.634 61.2327 294.634 84.878Z" fill="#F3DC9B"/>
<path opacity="0.206" d="M82.9268 126.829C82.9268 149.712 64.0798 168.78 41.4634 168.78C18.847 168.78 0 149.712 0 126.829C0 103.947 18.847 84.8779 41.4634 84.8779C64.8337 84.8779 82.9268 103.184 82.9268 126.829Z" fill="#F3DC9B"/>
<path opacity="0.206" d="M656.585 126.829C656.585 149.712 637.738 168.78 615.122 168.78C592.505 168.78 573.658 149.712 573.658 126.829C573.658 103.947 592.505 84.8779 615.122 84.8779C638.492 84.8779 656.585 103.184 656.585 126.829Z" fill="#F3DC9B"/>
<path opacity="0.206" d="M895.61 146.341C895.61 169.224 876.763 188.293 854.146 188.293C831.53 188.293 812.683 169.224 812.683 146.341C812.683 123.459 831.53 104.39 854.146 104.39C877.517 104.39 895.61 122.696 895.61 146.341Z" fill="#F3DC9B"/>
<path opacity="0.206" d="M1275.12 172.683C1275.12 195.566 1256.28 214.634 1233.66 214.634C1211.04 214.634 1192.2 195.566 1192.2 172.683C1192.2 149.801 1211.04 130.732 1233.66 130.732C1257.03 130.732 1275.12 149.038 1275.12 172.683Z" fill="#F3DC9B"/>
<path opacity="0.206" d="M1089.76 195.122C1089.76 218.005 1070.91 237.073 1048.29 237.073C1025.68 237.073 1006.83 218.005 1006.83 195.122C1006.83 172.24 1025.68 153.171 1048.29 153.171C1071.66 153.171 1089.76 171.477 1089.76 195.122Z" fill="#F3DC9B"/>
<path opacity="0.206" d="M1440 159.024C1440 181.907 1421.15 200.976 1398.54 200.976C1375.92 200.976 1357.07 181.907 1357.07 159.024C1357.07 136.142 1375.92 117.073 1398.54 117.073C1421.91 117.073 1440 135.379 1440 159.024Z" fill="#F3DC9B"/>
<path opacity="0.618" d="M783.71 214.135C783.71 218.939 780.026 222.303 775.882 222.303C771.278 222.303 768.054 218.459 768.054 214.135C768.054 209.33 771.738 205.967 775.882 205.967C780.026 205.967 783.71 209.33 783.71 214.135Z" fill="white"/>
<path opacity="0.618" d="M393.012 87.8924C393.012 92.4854 389.168 95.7005 384.844 95.7005C380.039 95.7005 376.676 92.0261 376.676 87.8924C376.676 83.2994 380.52 80.0843 384.844 80.0843C389.168 79.625 393.012 83.2994 393.012 87.8924Z" fill="white"/>
<path opacity="0.4913" d="M1108.04 168.531C1119.51 168.531 1128.8 159.236 1128.8 147.771C1128.8 136.305 1119.51 127.011 1108.04 127.011C1096.58 127.011 1087.28 136.305 1087.28 147.771C1087.28 159.236 1096.58 168.531 1108.04 168.531Z" fill="white"/>
<path opacity="0.4913" d="M1311.22 111.355C1311.22 114.959 1307.54 117.481 1303.39 117.481C1299.25 117.481 1295.56 114.599 1295.56 111.355C1295.56 107.752 1299.25 105.229 1303.39 105.229C1307.54 105.229 1311.22 108.112 1311.22 111.355Z" fill="white"/>
<path opacity="0.4913" d="M936.177 156.96C936.177 161.764 932.173 165.128 927.669 165.128C922.664 165.128 919.161 161.284 919.161 156.96C919.161 152.155 923.165 148.792 927.669 148.792C932.173 148.792 936.177 152.636 936.177 156.96Z" fill="white"/>
<path opacity="0.4913" d="M1428.29 157.3C1428.29 166.646 1420.73 174.657 1410.94 174.657C1401.59 174.657 1393.58 167.091 1393.58 157.3C1393.58 147.954 1401.14 139.943 1410.94 139.943C1420.73 139.943 1428.29 147.954 1428.29 157.3Z" fill="white"/>
<path d="M1390.18 198.14C1390.18 202.744 1387.29 205.967 1384.05 205.967C1380.45 205.967 1377.92 202.284 1377.92 198.14C1377.92 193.535 1380.81 190.312 1384.05 190.312C1387.29 190.312 1390.18 193.535 1390.18 198.14Z" fill="white"/>
<path opacity="0.5" d="M674.804 172.955C674.804 182.301 667.238 190.312 657.447 190.312C648.101 190.312 640.091 182.746 640.091 172.955C640.091 163.609 647.656 155.598 657.447 155.598C667.238 155.598 674.804 163.609 674.804 172.955Z" fill="white"/>
<path opacity="0.3" d="M1292.84 99.1038C1292.84 112.841 1282.01 124.288 1269.02 124.288C1256.02 124.288 1245.2 112.841 1245.2 99.1038C1245.2 85.3669 1256.02 73.9194 1269.02 73.9194C1282.45 73.9194 1292.84 85.3669 1292.84 99.1038Z" fill="white"/>
<path opacity="0.3" d="M1047.8 32.1951C1047.8 49.7561 1034.06 64.3902 1017.56 64.3902C1001.06 64.3902 987.317 49.7561 987.317 32.1951C987.317 14.6341 1001.06 0 1017.56 0C1034.61 0 1047.8 14.6341 1047.8 32.1951Z" fill="url(#paint0_radial)"/>
<path opacity="0.3" d="M1057.56 62.4389C1057.56 71.4854 1050.47 79.0242 1041.95 79.0242C1033.44 79.0242 1026.34 71.4854 1026.34 62.4389C1026.34 53.3923 1033.44 45.8535 1041.95 45.8535C1050.75 45.8535 1057.56 53.3923 1057.56 62.4389Z" fill="url(#paint1_radial)"/>
<path opacity="0.6347" d="M171.798 168.191C171.798 173.195 168.114 176.699 163.97 176.699C159.366 176.699 156.143 172.695 156.143 168.191C156.143 163.186 159.826 159.682 163.97 159.682C168.114 159.682 171.798 163.186 171.798 168.191Z" fill="white"/>
<path opacity="0.6347" d="M434.532 86.1711C434.532 95.3338 426.818 103.188 416.835 103.188C407.306 103.188 399.138 95.7701 399.138 86.1711C399.138 77.0084 406.852 69.1548 416.835 69.1548C426.818 69.1548 434.532 77.0084 434.532 86.1711Z" fill="white"/>
<path opacity="0.6347" d="M73.7832 68.4744C73.7832 82.2113 62.3358 93.6587 48.5989 93.6587C34.862 93.6587 23.4146 82.2113 23.4146 68.4744C23.4146 54.7375 34.862 43.29 48.5989 43.29C62.7937 43.29 73.7832 54.7375 73.7832 68.4744Z" fill="white"/>
<path opacity="0.5396" d="M263.687 12.3358C263.687 16.13 259.843 18.786 255.519 18.786C250.714 18.786 247.351 15.7506 247.351 12.3358C247.351 8.5416 251.195 5.8856 255.519 5.8856C259.843 5.50618 263.687 8.5416 263.687 12.3358Z" fill="white"/>
<path opacity="0.8787" d="M1421.49 54.1801C1421.49 57.8103 1418.47 60.9867 1415.02 60.9867C1411.57 60.9867 1408.55 57.8103 1408.55 54.1801C1408.55 50.5499 1411.57 47.3735 1415.02 47.3735C1418.47 47.3735 1421.49 50.5499 1421.49 54.1801Z" fill="white"/>
<path opacity="0.1227" d="M521.656 178.06C521.656 181.69 518.639 184.867 515.19 184.867C511.741 184.867 508.724 181.69 508.724 178.06C508.724 174.43 511.741 171.253 515.19 171.253C518.639 171.253 521.656 174.43 521.656 178.06Z" fill="white"/>
<path opacity="0.5387" d="M147.975 146.75C147.975 150.38 144.799 153.557 141.168 153.557C137.538 153.557 134.362 150.38 134.362 146.75C134.362 143.12 137.538 139.943 141.168 139.943C144.799 139.943 147.975 143.12 147.975 146.75Z" fill="white"/>
<path opacity="0.5387" d="M1181.89 199.501C1181.89 202.95 1178.88 205.967 1175.43 205.967C1171.98 205.967 1168.96 202.95 1168.96 199.501C1168.96 196.052 1171.98 193.035 1175.43 193.035C1179.31 193.466 1181.89 196.052 1181.89 199.501Z" fill="white"/>
<path opacity="0.5387" d="M590.403 54.1801C590.403 57.8103 587.226 60.9867 583.596 60.9867C579.966 60.9867 576.79 57.8103 576.79 54.1801C576.79 50.5499 579.966 47.3735 583.596 47.3735C587.226 47.3735 590.403 50.0962 590.403 54.1801Z" fill="white"/>
<path opacity="0.4416" d="M1341.17 117.481C1341.17 121.112 1337.99 124.288 1334.36 124.288C1330.73 124.288 1327.56 121.112 1327.56 117.481C1327.56 113.851 1330.73 110.675 1334.36 110.675C1338.45 111.129 1341.17 113.851 1341.17 117.481Z" fill="white"/>
<path opacity="0.2582" d="M307.93 71.1967C307.93 74.8269 304.753 78.0033 301.123 78.0033C297.493 78.0033 294.316 74.8269 294.316 71.1967C294.316 67.5665 297.493 64.3901 301.123 64.3901C304.753 64.3901 307.93 67.5665 307.93 71.1967Z" fill="white"/>
<path opacity="0.2582" d="M1128.8 214.476C1128.8 218.287 1125.47 221.622 1121.66 221.622C1117.84 221.622 1114.51 218.287 1114.51 214.476C1114.51 210.664 1117.84 207.329 1121.66 207.329C1125.47 207.329 1128.8 210.664 1128.8 214.476Z" fill="white"/>
<path opacity="0.4033" d="M1220.01 136.243C1222.73 139.036 1222.73 143.224 1220.01 146.017C1217.29 148.809 1213.21 148.809 1210.48 146.017C1207.76 143.224 1207.76 139.036 1210.48 136.243C1213.21 133.916 1217.74 133.916 1220.01 136.243Z" fill="white"/>
<path opacity="0.5544" d="M97.6063 7.89551C100.329 10.6182 100.329 14.702 97.6063 17.4247C94.8837 20.1473 90.7998 20.1473 88.0771 17.4247C85.3545 14.702 85.3545 10.6182 88.0771 7.89551C90.7998 5.17285 94.8837 5.17285 97.6063 7.89551Z" fill="white"/>
<path opacity="0.3229" d="M616.846 126.33C619.705 129.053 619.705 133.137 616.846 135.859C613.987 138.582 609.699 138.582 606.841 135.859C603.982 133.137 603.982 129.053 606.841 126.33C609.699 123.607 614.464 123.607 616.846 126.33Z" fill="white"/>
<defs>
<radialGradient id="paint0_radial" cx="0" cy="0" r="1" gradientUnits="userSpaceOnUse" gradientTransform="translate(1017.56 32.1951) rotate(90) scale(32.1951 30.2439)">
<stop stop-color="white"/>
<stop offset="1" stop-color="white" stop-opacity="0"/>
</radialGradient>
<radialGradient id="paint1_radial" cx="0" cy="0" r="1" gradientUnits="userSpaceOnUse" gradientTransform="translate(1041.95 62.4389) rotate(90) scale(16.5854 15.6098)">
<stop stop-color="white"/>
<stop offset="1" stop-color="white" stop-opacity="0"/>
</radialGradient>
</defs>
</svg>
