<svg width="1440" height="153" viewBox="0 0 1440 153" fill="none" xmlns="http://www.w3.org/2000/svg">
<path opacity="0.6024" d="M682.25 15.9814C682.25 21.4923 677.841 25.3499 672.881 25.3499C667.921 25.3499 663.513 20.9412 663.513 15.9814C663.513 10.4705 667.921 6.61279 672.881 6.61279C677.841 6.61279 682.25 11.0216 682.25 15.9814Z" fill="white"/>
<path opacity="0.3969" d="M227.05 120.69C241.05 120.69 252.4 109.34 252.4 95.3397C252.4 81.3392 241.05 69.9895 227.05 69.9895C213.049 69.9895 201.7 81.3392 201.7 95.3397C201.7 109.34 213.049 120.69 227.05 120.69Z" fill="white"/>
<path opacity="0.3969" d="M478.898 50.15C478.898 55.6609 474.489 59.5185 469.529 59.5185C464.569 59.5185 460.161 55.1098 460.161 50.15C460.161 44.6391 464.569 40.7815 469.529 40.7815C474.489 40.7815 478.898 44.6391 478.898 50.15Z" fill="white"/>
<path opacity="0.3969" d="M18.7371 105.259C18.7371 110.77 14.3284 114.628 9.36861 114.628C4.40879 114.628 0 110.219 0 105.259C0 99.7482 4.40879 95.8906 9.36861 95.8906C14.3284 95.8906 18.7371 99.7482 18.7371 105.259Z" fill="white"/>
<path opacity="0.3969" d="M621.079 105.259C621.079 116.832 611.71 126.752 599.586 126.752C588.013 126.752 578.094 117.383 578.094 105.259C578.094 93.6865 587.462 83.7668 599.586 83.7668C611.159 83.7668 621.079 93.1354 621.079 105.259Z" fill="white"/>
<path opacity="0.7338" d="M1045.97 80.4601C1059.97 80.4601 1071.32 69.1104 1071.32 55.1099C1071.32 41.1094 1059.97 29.7598 1045.97 29.7598C1031.97 29.7598 1020.62 41.1094 1020.62 55.1099C1020.62 69.1104 1031.97 80.4601 1045.97 80.4601Z" fill="white"/>
<path opacity="0.7338" d="M1298.37 9.36852C1298.37 14.8794 1293.96 18.7371 1289 18.7371C1283.49 18.7371 1279.63 14.3283 1279.63 9.36852C1279.63 3.85762 1284.04 0 1289 0C1293.96 0 1298.37 4.40871 1298.37 9.36852Z" fill="white"/>
<path opacity="0.7338" d="M837.658 64.4777C837.658 69.9886 833.25 73.8463 828.29 73.8463C822.779 73.8463 818.921 69.4375 818.921 64.4777C818.921 58.9667 823.33 55.1091 828.29 55.1091C833.801 55.1091 837.658 58.9667 837.658 64.4777Z" fill="white"/>
<path opacity="0.7338" d="M1440 64.4779C1440 76.0508 1430.63 85.9704 1418.51 85.9704C1406.93 85.9704 1397.01 76.6018 1397.01 64.4779C1397.01 52.905 1406.38 42.9854 1418.51 42.9854C1430.63 42.9854 1440 52.3539 1440 64.4779Z" fill="white"/>
<path opacity="0.731" d="M130.608 108.566C130.608 112.975 126.751 116.832 122.342 116.832C117.933 116.832 114.075 112.975 114.075 108.566C114.075 104.157 117.933 100.3 122.342 100.3C127.302 100.851 130.608 104.157 130.608 108.566Z" fill="white"/>
<path opacity="0.6823" d="M276.649 31.9636C276.649 36.3724 272.791 40.23 268.382 40.23C263.974 40.23 260.116 36.3724 260.116 31.9636C260.116 27.5549 263.974 23.6973 268.382 23.6973C273.342 23.6973 276.649 27.5549 276.649 31.9636Z" fill="white"/>
<path opacity="0.083316" d="M1260.9 54.0085C1260.9 58.4173 1257.04 62.2749 1252.63 62.2749C1248.22 62.2749 1244.36 58.4173 1244.36 54.0085C1244.36 49.5998 1248.22 45.7422 1252.63 45.7422C1257.04 45.7422 1260.9 49.0487 1260.9 54.0085Z" fill="white"/>
<path opacity="0.1623" d="M557.704 127.853C557.704 132.262 553.846 136.119 549.437 136.119C545.029 136.119 541.171 132.262 541.171 127.853C541.171 123.444 545.029 119.586 549.437 119.586C553.846 119.586 557.704 123.444 557.704 127.853Z" fill="white"/>
<path opacity="0.1623" d="M1105.49 119.586C1105.49 123.995 1101.63 127.853 1097.22 127.853C1092.81 127.853 1088.96 123.995 1088.96 119.586C1088.96 115.178 1092.81 111.32 1097.22 111.32C1101.63 111.32 1105.49 115.178 1105.49 119.586Z" fill="white"/>
<path opacity="0.1623" d="M150.448 48.4963C150.448 52.9051 146.59 56.7627 142.182 56.7627C137.773 56.7627 133.915 52.9051 133.915 48.4963C133.915 44.0876 137.773 40.23 142.182 40.23C146.59 40.23 150.448 44.0876 150.448 48.4963Z" fill="white"/>
<path opacity="0.6364" d="M1037.7 99.1978C1037.7 103.606 1033.85 107.464 1029.44 107.464C1025.03 107.464 1021.17 103.606 1021.17 99.1978C1021.17 94.789 1025.03 90.9314 1029.44 90.9314C1033.85 90.9314 1037.7 94.789 1037.7 99.1978Z" fill="white"/>
<path opacity="0.1838" d="M206.109 90.3796C209.415 93.6861 209.415 98.6459 206.109 101.952C202.802 105.259 197.842 105.259 194.536 101.952C191.229 98.6459 191.229 93.6861 194.536 90.3796C197.842 87.6241 202.802 87.6241 206.109 90.3796Z" fill="white"/>
<path opacity="0.1838" d="M489.92 22.5956C493.226 25.9022 493.226 30.8619 489.92 34.1685C486.613 37.475 481.654 37.475 478.347 34.1685C475.041 30.8619 475.041 25.9022 478.347 22.5956C481.654 19.2891 487.164 19.2891 489.92 22.5956Z" fill="white"/>
<path opacity="0.1723" d="M236.969 115.73C240.275 119.037 240.275 123.997 236.969 127.303C233.662 130.61 228.702 130.61 225.396 127.303C222.089 123.997 222.089 119.037 225.396 115.73C228.702 112.975 233.662 112.975 236.969 115.73Z" fill="white"/>
<path opacity="0.439" d="M1027.23 133.917C1030.54 137.223 1030.54 142.183 1027.23 145.49C1023.93 148.796 1018.97 148.796 1015.66 145.49C1012.35 142.183 1012.35 137.223 1015.66 133.917C1018.97 131.161 1023.93 131.161 1027.23 133.917Z" fill="white"/>
<path opacity="0.2927" d="M673.432 138.876C676.739 142.182 676.739 147.142 673.432 150.449C670.126 153.755 665.166 153.755 661.859 150.449C658.553 147.142 658.553 142.182 661.859 138.876C665.166 136.12 670.126 136.12 673.432 138.876Z" fill="white"/>
<path opacity="0.2927" d="M374.741 58.4164C378.048 61.723 378.048 66.6827 374.741 69.9893C371.435 73.2958 366.475 73.2958 363.168 69.9893C359.862 66.6827 359.862 61.723 363.168 58.4164C366.475 55.1099 371.986 55.1099 374.741 58.4164Z" fill="white"/>
<path opacity="0.5439" d="M1158.39 114.077C1161.7 117.384 1161.7 122.343 1158.39 125.65C1155.09 128.957 1150.13 128.957 1146.82 125.65C1143.51 122.343 1143.51 117.384 1146.82 114.077C1150.13 110.771 1155.09 110.771 1158.39 114.077Z" fill="white"/>
<path opacity="0.5439" d="M859.701 33.0668C863.008 36.3734 863.008 41.3332 859.701 44.6398C856.395 47.9463 851.435 47.9463 848.128 44.6398C844.822 41.3332 844.822 36.3734 848.128 33.0668C851.435 30.3114 856.395 30.3114 859.701 33.0668Z" fill="white"/>
<path opacity="0.2976" d="M1322.07 90.3798C1325.37 93.6864 1325.37 98.6461 1322.07 101.953C1318.76 105.259 1313.8 105.259 1310.49 101.953C1307.19 98.6461 1307.19 93.6864 1310.49 90.3798C1313.8 87.0733 1318.76 87.0733 1322.07 90.3798Z" fill="white"/>
</svg>
