<svg width="13" height="14" viewBox="0 0 13 14" fill="none" xmlns="http://www.w3.org/2000/svg">
<path d="M3.18097 2.86357C2.91875 2.86357 2.71273 3.05515 2.71273 3.29898V4.39623L1.70132 3.85631C1.47657 3.7344 1.19562 3.80406 1.06451 4.01306C0.933405 4.22206 1.00832 4.48331 1.23308 4.60522L2.24448 5.14514L1.27054 5.66763C1.04578 5.78955 0.970865 6.0508 1.10197 6.2598C1.19562 6.39913 1.34546 6.48621 1.51403 6.48621C1.58895 6.48621 1.68259 6.4688 1.73878 6.43396L3.18097 5.65022L5.72821 7.00871L3.21843 8.34978L1.72005 7.54862C1.4953 7.4267 1.21435 7.49637 1.08324 7.70537C0.952135 7.91437 1.02705 8.17562 1.25181 8.29753L2.28194 8.83745L1.25181 9.37736C1.02705 9.49927 0.952135 9.76052 1.08324 9.96952C1.17689 10.1089 1.32673 10.1959 1.4953 10.1959C1.57022 10.1959 1.66386 10.1785 1.72005 10.1437L2.73146 9.60377V10.6662C2.73146 10.91 2.93748 11.1016 3.1997 11.1016C3.46192 11.1016 3.66794 10.91 3.66794 10.6662V9.11611L6.21518 7.75762V10.4398L4.7168 11.2409C4.49205 11.3628 4.41713 11.6241 4.54824 11.8331C4.64189 11.9724 4.79172 12.0595 4.96029 12.0595C5.03521 12.0595 5.12886 12.0421 5.18505 12.0073L6.21518 11.4673V12.5646C6.21518 12.8084 6.42121 13 6.68342 13C6.94564 13 7.15167 12.8084 7.15167 12.5646V11.4848L8.14434 12.0073C8.21926 12.0421 8.29418 12.0595 8.3691 12.0595C8.53766 12.0595 8.6875 11.9898 8.78115 11.8331C8.91226 11.6241 8.83734 11.3628 8.61258 11.2409L7.15167 10.4572V7.7402L9.64272 9.08128V10.6836C9.64272 10.9274 9.84874 11.119 10.111 11.119C10.3732 11.119 10.5792 10.9274 10.5792 10.6836V9.58636L11.6093 10.1263C11.6843 10.1611 11.7592 10.1785 11.8341 10.1785C12.0027 10.1785 12.1525 10.1089 12.2461 9.9521C12.3773 9.74311 12.3023 9.48186 12.0776 9.35994L11.0662 8.82003L12.0588 8.29753C12.2836 8.17562 12.3585 7.91437 12.2274 7.70537C12.0963 7.49637 11.8154 7.4267 11.5906 7.54862L10.1297 8.33237L7.58245 6.97388L10.0922 5.6328L11.5906 6.43396C11.6655 6.4688 11.7404 6.48621 11.8154 6.48621C11.9839 6.48621 12.1338 6.41655 12.2274 6.2598C12.3585 6.0508 12.2836 5.78955 12.0588 5.66763L11.0287 5.12772L12.0588 4.58781C12.2836 4.46589 12.3585 4.20464 12.2274 3.99565C12.0963 3.78665 11.8154 3.71698 11.5906 3.8389L10.5792 4.37881V3.3164C10.5792 3.07257 10.3732 2.88099 10.111 2.88099C9.84874 2.88099 9.64272 3.07257 9.64272 3.3164V4.86647L7.09548 6.22496V3.54282L8.59385 2.74165C8.81861 2.61974 8.89353 2.35849 8.76242 2.14949C8.63131 1.94049 8.35037 1.87083 8.12561 1.99274L7.09548 2.53266V1.43541C7.09548 1.19158 6.88945 1 6.62723 1C6.36502 1 6.15899 1.19158 6.15899 1.43541V2.51524L5.16632 1.99274C4.94156 1.87083 4.66062 1.94049 4.52951 2.14949C4.3984 2.35849 4.47332 2.61974 4.69808 2.74165L6.15899 3.5254V6.2598L3.64921 4.90131V3.29898C3.64921 3.07257 3.44319 2.86357 3.18097 2.86357Z" fill="#B9293D" stroke="#B9293D" stroke-width="0.5"/>
</svg>
