<svg width="112" height="190" viewBox="0 0 112 190" fill="none" xmlns="http://www.w3.org/2000/svg">
<style>path { fill: #fff; }</style>
<path d="M59.9999 39.5768C59.9999 22.1884 59.7949 4.87147 59.385 -12.517C59.385 -13.161 56.5159 -13.161 56.5159 -12.517C56.9258 4.87147 57.1307 22.1884 57.1307 39.5768C57.1307 40.2208 59.9999 40.2208 59.9999 39.5768Z" />
<path d="M56.8608 79.0501C56.4509 76.1809 54.8114 72.9018 53.5818 70.2376C53.1719 71.0573 52.762 71.6722 52.3521 72.4919C56.4509 72.6969 60.3449 72.9018 64.4437 72.287C63.8289 71.8771 63.214 71.2623 62.5992 70.8524C62.8041 73.7216 62.1894 76.5908 61.7795 79.255C61.5745 81.0995 64.2387 81.9193 64.6486 80.0748C65.0585 77.0007 65.8783 73.9265 65.4684 70.8524C65.4684 69.8277 64.6486 69.2129 63.6239 69.4178C59.9349 70.0326 56.041 69.8277 52.3521 69.6227C51.1224 69.6227 50.7126 70.8524 51.1225 71.8771C52.3521 74.3364 53.7867 77.2056 54.1966 79.8699C54.4015 81.5094 57.2707 80.8946 56.8608 79.0501Z" fill="white"/>
<path d="M59.1161 69.6228C53.9925 65.7289 51.7381 60.1955 51.1233 53.8422C50.9184 49.9483 53.5827 37.8568 60.1408 40.521C65.8792 42.9803 66.084 51.3829 65.0593 56.5065C64.0346 61.4251 61.3704 66.3437 57.2716 69.4178C55.837 70.6475 57.2716 73.1068 58.7062 71.8771C64.4446 67.5734 67.3138 60.8103 68.3385 53.8422C68.9533 48.5138 66.6989 38.2666 59.9358 37.2419C53.5826 36.2172 50.3035 42.5704 48.664 47.8989C45.9997 56.3015 50.0986 66.5487 56.8617 71.6722C58.5012 72.9019 60.5507 70.8524 59.1161 69.6228Z" />
<path d="M56.6567 78.4352C25.9153 78.0254 3.98651 104.463 0.912381 133.565C-2.57163 166.97 32.6785 193.408 64.2395 189.104C95.5957 184.8 113.835 156.928 110.761 126.597C107.687 97.6998 84.7337 78.6402 56.6567 78.4352C54.8122 78.4352 54.8122 81.3044 56.6567 81.3044C82.2744 81.5094 101.744 97.085 107.072 122.293C112.811 148.73 98.4649 175.373 73.052 184.185C41.286 195.047 3.37174 169.634 3.78162 136.024C4.19151 107.537 27.7598 81.0995 56.6567 81.3044C58.5011 81.3044 58.5011 78.4352 56.6567 78.4352Z" />
</svg>
