<svg width="146" height="217" viewBox="0 0 146 217" fill="none" xmlns="http://www.w3.org/2000/svg">
<path d="M79.0966 71.1775C39.1658 67.9399 4.09151 101.935 0.314281 141.056C-4.27236 188.002 42.1336 222.267 86.651 216.331C124.423 211.205 146.547 174.782 145.468 139.168C144.389 100.856 116.059 74.1453 79.0966 71.1775C76.6683 70.9077 76.6683 74.9547 79.0966 74.9547C113.631 77.6527 137.913 101.395 141.421 135.93C144.928 170.465 123.884 202.571 90.1585 211.475C48.6089 222.537 1.66329 187.193 3.82171 144.294C5.71033 105.982 40.245 71.9869 79.0966 74.9547C81.5248 75.2245 81.5248 71.4473 79.0966 71.1775Z" fill="white"/>
<path d="M65.3367 71.717C64.7971 67.9398 62.6386 63.6229 61.0198 60.1155C60.4802 61.1947 59.9406 62.0041 59.401 63.0833C64.7971 63.3532 69.9233 63.6229 75.3193 62.8135C74.5099 62.2739 73.7005 61.4645 72.8911 60.9249C73.1609 64.7022 72.3515 68.4794 71.8119 71.9868C71.5421 74.4151 75.0495 75.4942 75.5892 73.066C76.1288 69.019 77.208 64.972 76.6683 60.9249C76.6683 59.5759 75.5892 58.7665 74.2401 59.0363C69.3837 59.8457 64.2575 59.5759 59.401 59.3061C57.7822 59.3061 57.2426 60.9249 57.7822 62.2739C59.401 65.5116 61.2896 69.2888 61.8292 72.7962C62.099 75.2245 65.8763 74.1452 65.3367 71.717Z" fill="white"/>
<path d="M68.3044 59.3062C61.5594 54.18 58.5915 46.8953 57.7821 38.5314C57.5123 33.4052 61.0197 17.4868 69.6534 20.9943C77.2079 24.2319 77.4777 35.2938 76.1287 42.0388C74.7797 48.5141 71.2722 54.9893 65.8762 59.0364C63.9876 60.6552 65.8762 63.8928 67.7648 62.274C75.3193 56.6082 79.0965 47.7047 80.4455 38.5314C81.2549 31.5166 78.2871 18.0264 69.3836 16.6774C61.0198 15.3284 56.7029 23.6923 54.5445 30.7071C51.0371 41.769 56.4331 55.2592 65.3366 62.0042C67.495 63.623 70.193 60.925 68.3044 59.3062Z" fill="white"/>
<path d="M69.4562 19.6471C70.8556 0.444372 70.8483 -18.0166 70.6368 -37.387C70.6697 -37.8383 66.9024 -38.1128 66.8696 -37.6616C66.8156 -18.3608 67.092 0.119701 65.689 19.3725C65.387 19.8042 69.4233 20.0983 69.4562 19.6471Z" fill="white"/>
<path fill-rule="evenodd" clip-rule="evenodd" d="M112.403 143.857H110.579C110.443 143.857 110.323 143.972 110.323 144.104V145.82C110.323 145.952 110.443 146.067 110.579 146.067H112.403C112.54 146.067 112.659 145.952 112.659 145.82V144.104C112.659 143.972 112.54 143.857 112.403 143.857Z" fill="#043E44"/>
<path fill-rule="evenodd" clip-rule="evenodd" d="M22.9614 137.771C22.808 137.754 22.6716 137.738 22.5352 137.738C21.6656 137.787 20.8984 138.051 20.3187 138.398V138.134C20.3187 138.035 20.3699 137.853 20.1141 137.853H18.7161C18.3239 137.886 18 138.167 18 138.513V147.024C18 148.261 18.9036 149.019 20.0118 149.019H20.1141C20.2335 149.019 20.3528 148.97 20.3528 148.772V145.704C20.8302 145.985 21.444 146.215 22.2453 146.215C22.5352 146.215 22.808 146.199 23.0637 146.149C24.53 145.935 25.8598 144.665 25.8598 141.894C25.8598 139.585 24.8368 137.903 22.9614 137.771ZM21.7679 144.583C20.8814 144.583 20.3358 143.906 20.3358 142.768V141.02C20.3358 140.047 20.8984 139.338 21.7679 139.338C22.7057 139.338 23.2853 140.08 23.2853 141.927C23.2853 143.296 22.9784 144.583 21.7679 144.583Z" fill="#043E44"/>
<path fill-rule="evenodd" clip-rule="evenodd" d="M98.5077 138.942C97.5365 138.018 96.4281 137.837 95.6098 137.837C94.7909 137.837 93.6659 138.018 92.7113 138.942C92.3187 139.321 91.4666 140.327 91.4666 142.026C91.4666 143.329 91.9947 144.484 92.7791 145.209C93.3592 145.737 94.2966 146.248 95.6264 146.248C96.9563 146.248 97.8944 145.737 98.4738 145.209C99.2581 144.484 99.7863 143.313 99.7863 142.026C99.7524 140.327 98.9002 139.338 98.5077 138.942ZM96.8199 143.989C96.5133 144.517 96.0529 144.665 95.6098 144.665C95.1661 144.665 94.7057 144.5 94.399 143.989C94.1941 143.659 94.0238 143.131 94.0238 142.043C94.0238 141.449 94.0577 140.657 94.4503 140.08C94.723 139.651 95.0982 139.453 95.6098 139.453C96.138 139.453 96.4959 139.651 96.7687 140.08C97.1612 140.674 97.1951 141.449 97.1951 142.043C97.1951 143.131 97.0075 143.642 96.8199 143.989Z" fill="#043E44"/>
<path fill-rule="evenodd" clip-rule="evenodd" d="M34.2655 139.206C33.7029 138.546 32.714 137.853 31.1114 137.853C30.3782 137.853 29.3212 137.969 28.3494 138.76C27.6844 139.305 26.866 140.294 26.866 142.075C26.866 143.593 27.4968 144.582 28.0595 145.143C28.6903 145.754 29.6963 146.265 31.0773 146.265C32.1855 146.265 33.0891 145.984 33.7541 145.539C34.2143 145.226 34.7599 144.698 35.0669 143.84C35.0839 143.774 35.118 143.626 34.9304 143.626H32.9698C32.8504 143.626 32.7311 143.758 32.6969 143.824C32.6288 143.989 32.5265 144.121 32.4242 144.22C32.2025 144.434 31.7933 144.681 31.1966 144.681C30.4124 144.681 29.952 144.286 29.6963 143.824C29.4916 143.477 29.4064 142.983 29.4234 142.537H34.9134C35.1351 142.504 35.2033 142.389 35.2203 142.092C35.2203 142.092 35.2203 142.059 35.2203 142.026C35.2203 140.723 34.777 139.783 34.2655 139.206ZM32.7311 141.185H29.4576C29.4576 140.69 29.6281 140.228 29.9179 139.948C30.2248 139.651 30.6511 139.437 31.1625 139.437C31.8104 139.437 32.1855 139.733 32.4072 140.047C32.6288 140.36 32.7481 140.805 32.7311 141.185Z" fill="#043E44"/>
<path fill-rule="evenodd" clip-rule="evenodd" d="M74.059 139.206C73.4963 138.546 72.5074 137.853 70.9048 137.853C70.1717 137.853 69.1146 137.969 68.1428 138.761C67.4779 139.305 66.6595 140.294 66.6595 142.076C66.6595 143.593 67.2904 144.583 67.853 145.143C68.4838 145.754 69.4897 146.265 70.8707 146.265C71.979 146.265 72.8825 145.985 73.5474 145.539C74.0078 145.226 74.5534 144.698 74.8603 143.84C74.8773 143.775 74.9114 143.626 74.7239 143.626H72.7632C72.6438 143.626 72.5245 143.758 72.4904 143.824C72.4222 143.989 72.3199 144.121 72.2176 144.22C71.996 144.434 71.5868 144.682 70.99 144.682C70.2057 144.682 69.7455 144.286 69.4897 143.824C69.2851 143.478 69.1999 142.983 69.2169 142.538H74.7068C74.9285 142.504 74.9967 142.389 75.0137 142.092C75.0137 142.092 75.0137 142.059 75.0137 142.026C74.9967 140.723 74.5534 139.783 74.059 139.206ZM72.5074 141.185H69.2339C69.2339 140.69 69.4044 140.228 69.6943 139.948C70.0012 139.651 70.4274 139.437 70.9389 139.437C71.5868 139.437 71.9618 139.734 72.1835 140.047C72.4051 140.36 72.5245 140.806 72.5074 141.185Z" fill="#043E44"/>
<path fill-rule="evenodd" clip-rule="evenodd" d="M58.5778 143.379C58.0493 142.323 57.589 141.696 57.1457 141.63C57.1457 141.63 57.7425 141.597 58.1516 140.542C58.288 140.162 58.6801 139.305 58.9359 138.777C59.0382 138.579 59.1916 138.365 59.3621 138.167C59.3792 138.134 59.3962 138.101 59.3962 138.068C59.3962 137.969 59.328 137.903 59.2257 137.886H57.5208C57.0434 137.903 56.8217 138.249 56.6683 138.596C56.4126 139.173 56.3103 139.519 55.9522 140.294C55.7817 140.674 55.4578 141.07 54.7587 141.07H54.2643V135.297C54.2643 135.198 54.3155 135 54.0597 135H52.5082C52.0991 135.033 51.7921 135.313 51.7751 135.66V144.748C51.7751 144.929 51.7922 145.16 51.8774 145.391C52.0479 145.754 52.3889 146.051 52.8151 146.051H53.8892C54.1621 146.051 54.2473 145.919 54.2473 145.704V142.439H54.6735C55.6112 142.439 56.0204 143.478 56.4296 144.203C56.8047 144.88 57.4356 146.084 58.5778 146.018H59.9248C60.01 146.018 60.0952 145.935 60.0952 145.853C60.0952 145.82 60.0782 145.787 60.0782 145.77C59.7372 145.292 59.0212 144.17 58.5778 143.379Z" fill="#043E44"/>
<path fill-rule="evenodd" clip-rule="evenodd" d="M107.595 143.379C107.066 142.323 106.606 141.696 106.162 141.631C106.162 141.631 106.759 141.598 107.169 140.542C107.305 140.163 107.697 139.305 107.952 138.777C108.055 138.579 108.209 138.365 108.379 138.167C108.396 138.134 108.413 138.101 108.413 138.068C108.413 137.969 108.345 137.903 108.243 137.887H106.537C106.06 137.903 105.839 138.249 105.685 138.596C105.429 139.173 105.327 139.519 104.969 140.295C104.798 140.674 104.474 141.07 103.776 141.07H103.281V135.297C103.281 135.198 103.332 135 103.077 135H101.559C101.15 135.033 100.843 135.314 100.826 135.66V144.748C100.826 144.929 100.843 145.16 100.929 145.391C101.099 145.754 101.423 146.051 101.866 146.051H102.94C103.213 146.051 103.298 145.919 103.298 145.704V142.439H103.725C104.662 142.439 105.071 143.478 105.48 144.204C105.856 144.88 106.486 146.084 107.629 146.018H108.976C109.061 146.018 109.146 145.935 109.146 145.853C109.146 145.82 109.129 145.787 109.129 145.77C108.754 145.292 108.038 144.17 107.595 143.379Z" fill="#043E44"/>
<path fill-rule="evenodd" clip-rule="evenodd" d="M80.657 141.036L79.276 140.855C78.8327 140.789 78.219 140.657 78.219 140.113C78.219 139.915 78.3213 139.634 78.6622 139.47C78.8157 139.387 79.0714 139.305 79.5659 139.305C79.9409 139.305 80.3501 139.338 80.7082 139.618C80.8957 139.75 81.0662 139.964 81.1856 140.195C81.2197 140.261 81.2878 140.294 81.3731 140.278L82.9928 139.948C83.0951 139.931 83.1633 139.816 83.1121 139.733C82.8734 139.189 82.5154 138.793 82.2085 138.562C81.3731 137.936 80.4354 137.853 79.6511 137.853C78.8669 137.853 77.878 137.952 77.1108 138.43C76.4117 138.892 75.9855 139.634 75.9855 140.41C75.9855 141.185 76.3435 141.746 76.7698 142.125C77.3495 142.62 78.1848 142.801 78.9009 142.917L80.0944 143.098C80.5889 143.181 81.2538 143.279 81.2538 143.906C81.2538 144.071 81.2196 144.335 80.9128 144.517C80.6059 144.698 79.9921 144.764 79.6682 144.764C79.1396 144.764 78.577 144.615 78.219 144.352C78.0485 144.22 77.8439 144.005 77.7246 143.692C77.6904 143.626 77.6222 143.576 77.537 143.576L75.815 143.824C75.7127 143.84 75.6445 143.956 75.6786 144.055C75.8321 144.418 76.156 144.995 76.8039 145.473C77.7246 146.1 78.8498 146.215 79.6341 146.215C80.6229 146.215 81.697 146.034 82.4472 145.539C82.9587 145.193 83.5384 144.566 83.5384 143.527C83.5384 142.768 83.2315 142.24 82.8905 141.911C82.2768 141.333 81.339 141.135 80.657 141.036Z" fill="#043E44"/>
<path fill-rule="evenodd" clip-rule="evenodd" d="M127.696 137.853H125.667C125.547 137.853 125.446 137.952 125.446 138.068V142.521C125.446 142.933 125.394 143.444 125.07 143.857C124.78 144.22 124.354 144.401 123.945 144.401C123.587 144.401 123.28 144.269 123.093 144.038C122.803 143.675 122.803 143.098 122.803 142.801V138.068C122.803 137.952 122.701 137.853 122.581 137.853H121.848C120.996 137.853 120.314 138.513 120.314 139.338V143.197C120.314 144.055 120.433 144.995 121.268 145.671C121.694 146.034 122.274 146.248 123.041 146.248C124.286 146.248 125.156 145.589 125.599 144.616H125.633C125.633 145.424 126.315 146.083 127.15 146.083H127.713C127.833 146.083 127.934 145.984 127.934 145.869V138.068C127.918 137.952 127.815 137.853 127.696 137.853Z" fill="#043E44"/>
<path fill-rule="evenodd" clip-rule="evenodd" d="M41.3745 137.986C41.3745 137.986 41.3745 137.804 41.1699 137.771C41.0676 137.755 41.0165 137.755 40.9142 137.755C40.863 137.755 40.8119 137.755 40.7607 137.755C39.9764 137.804 39.4991 138.167 39.2263 138.447C39.0046 138.678 38.6977 139.107 38.6125 139.734H38.5784V138.002C38.5784 137.903 38.4932 137.821 38.3908 137.821H37.2315C36.7712 137.821 36.4131 138.184 36.4131 138.612V145.342C36.4131 145.787 36.7712 146.133 37.2315 146.133H38.7148C38.8171 146.133 38.9024 146.051 38.9024 145.952V142.356C38.9024 141.482 39.0217 140.707 39.8401 140.212C40.164 140.014 40.5562 139.932 40.9824 139.932C41.0335 139.932 41.0847 139.932 41.1188 139.932C41.4086 139.981 41.3745 139.684 41.3745 139.684V137.986Z" fill="#043E44"/>
<path fill-rule="evenodd" clip-rule="evenodd" d="M66.0965 137.985C66.0965 137.985 66.0965 137.804 65.892 137.771C65.7897 137.755 65.7385 137.755 65.6363 137.755C65.5851 137.755 65.5339 137.755 65.4828 137.755C64.6985 137.804 64.2211 138.167 63.9483 138.447C63.7267 138.678 63.4198 139.107 63.3346 139.734H63.3004V138.002C63.3004 137.903 63.2152 137.821 63.1129 137.821H61.9535C61.4932 137.821 61.1351 138.183 61.1351 138.612V145.342C61.1351 145.787 61.4932 146.133 61.9535 146.133H63.4368C63.5391 146.133 63.6244 146.051 63.6244 145.952V142.356C63.6244 141.482 63.7437 140.707 64.5621 140.212C64.886 140.014 65.2782 139.932 65.7044 139.932C65.7556 139.932 65.8068 139.932 65.8408 139.932C66.1307 139.981 66.0965 139.684 66.0965 139.684V137.985Z" fill="#043E44"/>
<path fill-rule="evenodd" clip-rule="evenodd" d="M118.967 137.985C118.967 137.985 118.967 137.804 118.763 137.771C118.661 137.754 118.609 137.754 118.507 137.754C118.456 137.754 118.405 137.754 118.353 137.754C117.57 137.804 117.092 138.167 116.819 138.447C116.598 138.678 116.29 139.107 116.205 139.734H116.171V138.084C116.171 137.985 116.086 137.903 115.984 137.903H114.177C114.074 137.903 113.989 137.985 113.989 138.084V145.985C113.989 146.084 114.074 146.166 114.177 146.166H116.29C116.393 146.166 116.478 146.084 116.478 145.985V142.389C116.478 141.515 116.598 140.74 117.416 140.245C117.74 140.047 118.132 139.965 118.541 139.965C118.592 139.965 118.643 139.965 118.677 139.965C118.967 140.014 118.967 139.717 118.967 139.717V137.985Z" fill="#043E44"/>
<path fill-rule="evenodd" clip-rule="evenodd" d="M91.2789 137.919H88.551V135.297C88.551 135.198 88.6021 135 88.3464 135H86.829C86.4198 135.033 86.1129 135.314 86.1129 135.66V137.919H83.419C83.2486 137.919 83.2486 138.018 83.2656 138.101C83.5043 138.876 84.1011 139.618 84.9535 139.651H85.806C85.9424 139.668 86.0617 139.767 86.1129 139.899V143.758C86.1129 143.758 86.1129 144.467 86.2493 144.913C86.3175 145.144 86.4709 145.374 86.6755 145.572C87.2211 146.133 88.0565 146.265 88.6874 146.265C89.1648 146.265 89.8126 146.216 90.3582 146.15C90.4607 146.133 90.5285 146.051 90.5285 145.968V144.566C90.5285 144.451 90.4268 144.368 90.307 144.385C90.0684 144.418 89.7956 144.434 89.6081 144.434C89.3352 144.434 89.0625 144.401 88.8408 144.187C88.5681 143.907 88.5681 143.56 88.5681 143.263V141.565H88.5851V139.998C88.5851 139.816 88.7385 139.668 88.9261 139.651H89.7786C90.631 139.618 91.2104 138.876 91.4666 138.101C91.4666 138.018 91.4492 137.919 91.2789 137.919Z" fill="#043E44"/>
<path d="M50.3158 146.11C50.3158 144.639 48.8241 144.119 47.7203 144.148H42.4995C42.4995 145.591 43.9911 146.11 45.095 146.11H50.3158Z" fill="#043E44"/>
<path d="M47.7203 137.887C48.8242 137.887 50.3158 138.377 50.3158 139.849H45.095C43.9912 139.849 42.4995 139.358 42.4995 137.887H47.7203Z" fill="#043E44"/>
<path d="M47.7203 141.003C48.8242 141.003 50.3158 141.522 50.3158 142.965H45.095C43.9912 142.965 42.4995 142.475 42.4995 141.003H47.7203Z" fill="#043E44"/>
<path d="M68.4836 153.935C67.4991 153.935 66.8428 153.155 66.8428 152.232C66.8428 151.337 67.5289 150.53 68.4836 150.53C69.4383 150.53 70.1244 151.337 70.1244 152.232C70.1244 153.155 69.4681 153.935 68.4836 153.935ZM68.4836 151.337C67.9764 151.337 67.7676 151.828 67.7676 152.232C67.7676 152.665 68.0062 153.127 68.4836 153.127C68.961 153.127 69.1996 152.665 69.1996 152.232C69.1996 151.799 68.9908 151.337 68.4836 151.337Z" fill="#043E44"/>
<path d="M73.0478 153.934C72.7793 153.934 72.6003 153.732 72.6003 153.444V152.549H71.407V153.444C71.407 153.732 71.228 153.934 70.9595 153.934C70.691 153.934 70.512 153.732 70.512 153.444V151.02C70.512 150.731 70.691 150.529 70.9595 150.529C71.228 150.529 71.407 150.731 71.407 151.02V151.77H72.6003V151.02C72.6003 150.731 72.7793 150.529 73.0478 150.529C73.3163 150.529 73.4952 150.731 73.4952 151.02V153.444C73.4952 153.732 73.3163 153.934 73.0478 153.934Z" fill="#043E44"/>
<path d="M76.5683 153.935C76.2998 153.935 76.1208 153.733 76.1208 153.444V151.367H75.3451V152.319C75.3451 153.387 74.8678 153.935 74.1816 153.935C73.9131 153.935 73.7938 153.733 73.7938 153.531C73.7938 153.358 73.8833 153.214 74.0623 153.156C74.2413 153.098 74.4501 152.925 74.4501 152.406V151.078C74.4501 150.79 74.6291 150.588 74.8976 150.588H76.5981C76.8666 150.588 77.0456 150.79 77.0456 151.078V153.444C77.0456 153.733 76.8368 153.935 76.5683 153.935Z" fill="#043E44"/>
<path d="M79.9982 153.935C79.7894 153.935 79.6402 153.848 79.5806 153.56C79.4314 153.82 79.0436 153.935 78.7155 153.935C77.9697 153.935 77.4625 153.56 77.4625 152.867C77.4625 151.857 78.6856 151.713 79.5508 151.713V151.482C79.5508 151.309 79.4016 151.251 79.1629 151.251C78.6259 151.251 78.5365 151.54 78.2978 151.54C77.9995 151.54 77.91 151.338 77.91 151.165C77.91 150.79 78.6558 150.501 79.1927 150.501C80.028 150.501 80.5054 150.847 80.5054 151.482V153.444C80.4159 153.733 80.2667 153.935 79.9982 153.935ZM79.5508 152.377C79.0138 152.377 78.2978 152.319 78.2978 152.867C78.2978 153.127 78.5663 153.185 78.8348 153.185C79.3121 153.185 79.5209 152.954 79.5209 152.521V152.377H79.5508Z" fill="#043E44"/>
<path d="M83.4598 153.935C83.1913 153.935 83.0123 153.733 83.0123 153.444V152.117L81.7593 153.733C81.6698 153.848 81.5505 153.935 81.3715 153.935C81.103 153.935 80.924 153.733 80.924 153.444V151.021C80.924 150.732 81.103 150.53 81.3715 150.53C81.64 150.53 81.819 150.732 81.819 151.021V152.319L82.9825 150.79C83.1018 150.617 83.2808 150.53 83.43 150.53C83.6984 150.53 83.8774 150.732 83.8774 151.021V153.444C83.9371 153.733 83.7283 153.935 83.4598 153.935ZM81.4311 149.722C81.4311 149.549 81.5505 149.434 81.7295 149.434C82.1173 149.434 81.998 149.837 82.4157 149.837C82.7736 149.837 82.714 149.434 83.1018 149.434C83.2808 149.434 83.4001 149.578 83.4001 149.722C83.4001 150.155 82.9228 150.415 82.4157 150.415C81.9085 150.415 81.4311 150.155 81.4311 149.722Z" fill="#043E44"/>
<path d="M86.9799 153.934C86.7114 153.934 86.5324 153.732 86.5324 153.444V152.549H85.3391V153.444C85.3391 153.732 85.1601 153.934 84.8916 153.934C84.6231 153.934 84.4441 153.732 84.4441 153.444V151.02C84.4441 150.731 84.6231 150.529 84.8916 150.529C85.1601 150.529 85.3391 150.731 85.3391 151.02V151.77H86.5324V151.02C86.5324 150.731 86.7114 150.529 86.9799 150.529C87.2484 150.529 87.4274 150.731 87.4274 151.02V153.444C87.4573 153.732 87.2782 153.934 86.9799 153.934Z" fill="#043E44"/>
<path d="M89.6055 152.463H88.2631C88.0244 152.463 87.905 152.29 87.905 152.088C87.905 151.857 88.0244 151.684 88.2631 151.684H89.6055C89.8442 151.684 89.9635 151.857 89.9635 152.088C89.9635 152.29 89.8442 152.463 89.6055 152.463Z" fill="#043E44"/>
<path d="M91.9321 153.934C90.9478 153.934 90.2912 153.155 90.2912 152.232C90.2912 151.337 90.9774 150.529 91.9321 150.529C92.29 150.529 93.0361 150.674 93.0361 151.078C93.0361 151.251 92.917 151.511 92.6782 151.511C92.4393 151.511 92.2308 151.337 91.9624 151.337C91.4551 151.337 91.1867 151.77 91.1867 152.232C91.1867 152.665 91.4551 153.126 91.9624 153.126C92.2005 153.126 92.5288 152.953 92.6479 152.953C92.8571 152.953 93.0361 153.126 93.0361 153.328C93.0657 153.79 92.2604 153.934 91.9321 153.934Z" fill="#043E44"/>
<path d="M96.1396 151.136L94.6185 154.858C94.529 155.06 94.4092 155.204 94.2007 155.204C93.902 155.204 93.723 155.002 93.723 154.829C93.723 154.742 93.7533 154.656 93.7829 154.569L94.1704 153.617L93.1566 151.136C93.1263 151.078 93.1263 150.991 93.1263 150.905C93.1263 150.674 93.3651 150.53 93.5441 150.53C93.7533 150.53 93.9323 150.645 93.9915 150.847L94.6185 152.549L95.3047 150.847C95.3942 150.645 95.5428 150.53 95.7521 150.53C95.931 150.53 96.1699 150.703 96.1699 150.905C96.1699 150.991 96.1699 151.049 96.1396 151.136Z" fill="#043E44"/>
<path d="M98.9739 153.935C98.7055 153.935 98.5265 153.733 98.5265 153.444V151.367H97.333V153.444C97.333 153.733 97.1541 153.935 96.8857 153.935C96.6172 153.935 96.4376 153.733 96.4376 153.444V151.078C96.4376 150.79 96.6172 150.588 96.8857 150.588H98.9739C99.2423 150.588 99.4213 150.79 99.4213 151.078V153.444C99.4213 153.733 99.2423 153.935 98.9739 153.935Z" fill="#043E44"/>
<path d="M102.613 152.521H100.673C100.733 152.953 101.091 153.155 101.538 153.155C102.016 153.155 102.344 152.809 102.583 152.809C102.792 152.809 102.971 153.011 102.971 153.184C102.971 153.559 102.165 153.934 101.479 153.934C100.465 153.934 99.7785 153.213 99.7785 152.232C99.7785 151.337 100.465 150.529 101.419 150.529C102.404 150.529 103.06 151.395 103.06 152.145C103.03 152.376 102.911 152.521 102.613 152.521ZM101.389 151.251C100.972 151.251 100.703 151.539 100.673 151.915H102.135C102.046 151.539 101.807 151.251 101.389 151.251Z" fill="#043E44"/>
<path d="M105.088 153.935C104.79 153.935 104.492 153.819 104.254 153.617V154.685C104.254 154.974 104.075 155.176 103.806 155.176C103.537 155.176 103.358 154.974 103.358 154.685V150.992C103.358 150.703 103.537 150.501 103.806 150.501C104.044 150.501 104.194 150.674 104.254 150.905C104.433 150.645 104.761 150.501 105.119 150.501C106.103 150.501 106.581 151.396 106.581 152.261C106.61 153.098 106.014 153.935 105.088 153.935ZM104.969 151.338C104.492 151.338 104.254 151.8 104.254 152.203C104.254 152.636 104.462 153.127 104.969 153.127C105.446 153.127 105.685 152.665 105.685 152.232C105.685 151.799 105.446 151.338 104.969 151.338Z" fill="#043E44"/>
<path d="M110.728 153.935C110.43 153.935 110.28 153.761 110.25 153.531L110.012 151.886L109.505 153.617C109.474 153.733 109.355 153.935 109.027 153.935C108.699 153.935 108.58 153.761 108.55 153.617L108.043 151.886L107.804 153.531C107.774 153.733 107.625 153.935 107.327 153.935C107.088 153.935 106.909 153.761 106.909 153.502C106.909 153.473 106.909 153.444 106.909 153.415L107.356 150.905C107.386 150.732 107.625 150.53 107.924 150.53C108.222 150.53 108.43 150.732 108.49 150.905L109.027 152.55L109.534 150.905C109.594 150.732 109.803 150.53 110.101 150.53C110.429 150.53 110.638 150.732 110.668 150.905L111.115 153.415C111.115 153.444 111.115 153.473 111.115 153.502C111.145 153.733 110.966 153.935 110.728 153.935Z" fill="#043E44"/>
<path d="M114.009 153.935C113.8 153.935 113.651 153.848 113.592 153.56C113.442 153.819 113.055 153.935 112.726 153.935C111.98 153.935 111.473 153.56 111.473 152.867C111.473 151.857 112.696 151.713 113.561 151.713V151.482C113.561 151.309 113.413 151.251 113.174 151.251C112.637 151.251 112.547 151.54 112.309 151.54C112.011 151.54 111.92 151.338 111.92 151.165C111.92 150.79 112.667 150.501 113.203 150.501C114.039 150.501 114.516 150.847 114.516 151.482V153.444C114.426 153.733 114.278 153.935 114.009 153.935ZM113.561 152.377C113.024 152.377 112.309 152.319 112.309 152.867C112.309 153.127 112.577 153.185 112.845 153.185C113.323 153.185 113.532 152.954 113.532 152.521V152.377H113.561Z" fill="#043E44"/>
<path d="M116.664 153.935C116.366 153.935 116.067 153.819 115.828 153.617V154.685C115.828 154.974 115.65 155.176 115.381 155.176C115.113 155.176 114.934 154.974 114.934 154.685V150.992C114.934 150.703 115.113 150.501 115.381 150.501C115.62 150.501 115.769 150.674 115.828 150.905C116.007 150.645 116.336 150.501 116.694 150.501C117.679 150.501 118.156 151.396 118.156 152.261C118.186 153.098 117.589 153.935 116.664 153.935ZM116.545 151.338C116.067 151.338 115.828 151.8 115.828 152.204C115.828 152.636 116.038 153.127 116.545 153.127C117.022 153.127 117.261 152.665 117.261 152.232C117.261 151.8 117.022 151.338 116.545 151.338Z" fill="#043E44"/>
<path d="M121.079 153.935C120.9 153.935 120.781 153.819 120.632 153.675L119.498 152.492V153.444C119.498 153.733 119.319 153.935 119.05 153.935C118.782 153.935 118.603 153.733 118.603 153.444V151.02C118.603 150.732 118.782 150.53 119.05 150.53C119.319 150.53 119.498 150.732 119.498 151.02V151.857L120.542 150.703C120.662 150.588 120.841 150.501 120.96 150.501C121.198 150.501 121.348 150.703 121.348 150.905C121.348 151.02 121.288 151.136 121.169 151.251L120.273 152.117L121.407 153.184C121.496 153.271 121.527 153.387 121.527 153.473C121.497 153.762 121.318 153.935 121.079 153.935Z" fill="#043E44"/>
<path d="M124.451 152.52H122.512C122.571 152.953 122.93 153.155 123.377 153.155C123.854 153.155 124.182 152.809 124.421 152.809C124.63 152.809 124.809 153.011 124.809 153.184C124.809 153.559 124.003 153.934 123.317 153.934C122.302 153.934 121.616 153.213 121.616 152.232C121.616 151.337 122.302 150.529 123.257 150.529C124.242 150.529 124.898 151.395 124.898 152.145C124.839 152.376 124.719 152.52 124.451 152.52ZM123.198 151.251C122.78 151.251 122.512 151.539 122.481 151.914H123.943C123.884 151.539 123.645 151.251 123.198 151.251Z" fill="#043E44"/>
<path d="M127.493 151.367H126.866V153.444C126.866 153.733 126.687 153.935 126.419 153.935C126.151 153.935 125.972 153.733 125.972 153.444V151.367H125.345C125.106 151.367 124.957 151.223 124.957 150.992C124.957 150.761 125.136 150.617 125.345 150.617H127.553C127.791 150.617 128 150.703 128 150.992C127.941 151.251 127.732 151.367 127.493 151.367Z" fill="#043E44"/>
</svg>
