<svg width="133" height="331" viewBox="0 0 133 331" fill="none" xmlns="http://www.w3.org/2000/svg">
<path d="M72.2805 197.643C35.8884 194.692 3.92239 225.674 0.4799 261.329C-3.70027 304.114 38.5932 335.342 79.1655 329.933C113.59 325.261 133.754 292.065 132.77 259.608C131.786 224.691 105.968 200.347 72.2805 197.643C70.0674 197.397 70.0674 201.085 72.2805 201.085C103.755 203.544 125.885 225.183 129.082 256.657C132.278 288.131 113.099 317.392 82.3621 325.507C44.4946 335.588 1.70936 303.376 3.6765 264.28C5.39775 229.363 36.872 198.38 72.2805 201.085C74.4935 201.331 74.4935 197.889 72.2805 197.643Z" fill="white"/>
<path d="M59.7398 198.134C59.248 194.692 57.2809 190.758 55.8055 187.561C55.3138 188.545 54.822 189.282 54.3302 190.266C59.248 190.512 63.92 190.758 68.8378 190.02C68.1002 189.528 67.3625 188.79 66.6248 188.299C66.8707 191.741 66.133 195.184 65.6412 198.38C65.3954 200.593 68.592 201.577 69.0837 199.364C69.5755 195.675 70.5591 191.987 70.0673 188.299C70.0673 187.069 69.0837 186.331 67.8543 186.577C63.4282 187.315 58.7563 187.069 54.3302 186.823C52.8548 186.823 52.363 188.299 52.8548 189.528C54.3302 192.479 56.0514 195.921 56.5432 199.118C56.7891 201.331 60.2316 200.347 59.7398 198.134Z" fill="white"/>
<path d="M62.4448 186.823C56.2975 182.151 53.5927 175.512 52.855 167.89C52.6091 163.218 55.8057 148.71 63.6743 151.907C70.5593 154.857 70.8052 164.939 69.5757 171.086C68.3463 176.988 65.1496 182.889 60.2318 186.577C58.5105 188.053 60.2318 191.003 61.9531 189.528C68.838 184.364 72.2805 176.25 73.51 167.89C74.2477 161.496 71.5429 149.202 63.4284 147.972C55.8057 146.743 51.8715 154.365 49.9043 160.759C46.7077 170.84 51.6256 183.135 59.74 189.282C61.7072 190.758 64.1661 188.299 62.4448 186.823Z" fill="white"/>
<path d="M63.2845 149.66C63.2845 95.0118 62.0551 42.7538 60.5797 -12.0369C60.5797 -13.321 57.1372 -13.321 57.1372 -12.0369C58.3667 42.6111 59.842 94.8691 59.842 149.66C59.5961 150.944 63.2845 150.944 63.2845 149.66Z" fill="white"/>
</svg>
