<svg width="171" height="393" viewBox="0 0 171 393" fill="none" xmlns="http://www.w3.org/2000/svg">
<path d="M80.4778 392.832C115.28 392.832 152.23 385.957 154.807 375.216C162.541 347.289 157.815 260.929 157.815 257.062L152.659 257.492C152.659 258.351 157.385 346.859 150.081 374.357C147.933 382.52 99.8121 391.543 56.4174 386.817C37.9424 384.668 7.00757 378.653 6.14827 358.889C4.85931 330.962 37.9424 325.806 62.0028 321.51C77.4703 318.932 88.6412 317.213 89.0709 309.909C89.9302 293.153 90.3598 257.492 90.3598 257.492H85.204C85.204 257.921 84.7744 293.153 83.9151 309.909C83.9151 312.917 71.4552 315.065 61.1436 316.783C36.6535 320.65 -0.726135 327.095 0.992477 359.319C1.85178 376.505 21.186 388.105 55.5581 391.972C63.7215 392.402 71.8848 392.832 80.4778 392.832Z" fill="white"/>
<path d="M120.865 262.647C144.925 262.647 162.111 258.351 163.4 258.351C165.119 257.921 167.267 256.632 168.986 253.195C174.141 242.024 168.126 211.949 165.119 206.363C164.689 205.504 163.4 204.645 162.111 205.074C161.681 205.074 115.279 217.104 74.0327 205.074C73.1734 205.074 72.7438 205.074 71.8845 205.504C71.4548 205.934 71.0251 206.363 70.5955 207.222C69.7362 211.949 62.0025 254.484 79.1885 258.351C94.2263 261.358 108.405 262.647 120.865 262.647ZM161.252 210.23C163.83 217.964 168.126 242.454 164.259 251.047C163.4 252.765 162.541 253.195 162.111 253.195C161.681 253.195 122.583 262.647 80.4775 253.195C71.4548 251.047 72.3141 226.986 75.3217 210.66C112.701 220.542 151.799 212.378 161.252 210.23Z" fill="white"/>
<path d="M119.401 -25H122.647V210.241H119.401V-25Z" fill="white"/>
</svg>
