<svg width="113" height="217" viewBox="0 0 113 217" fill="none" xmlns="http://www.w3.org/2000/svg">
<path d="M61.3603 105.332C30.791 102.853 3.93952 128.878 1.04782 158.828C-2.46352 194.768 33.063 221 67.1437 216.456C96.0606 212.531 112.998 184.647 112.172 157.382C111.345 128.052 89.6576 107.604 61.3603 105.332C59.5014 105.125 59.5014 108.224 61.3603 108.224C87.7987 110.289 106.388 128.465 109.073 154.904C111.758 181.342 95.6475 205.922 69.8288 212.738C38.0202 221.206 2.08057 194.148 3.73297 161.307C5.17881 131.977 31.6172 105.951 61.3603 108.224C63.2193 108.43 63.2193 105.538 61.3603 105.332Z" fill="white"/>
<path d="M50.826 105.745C50.4129 102.853 48.7605 99.5484 47.5212 96.8633C47.1081 97.6895 46.695 98.3091 46.2819 99.1353C50.4129 99.3419 54.3373 99.5484 58.4683 98.9288C57.8487 98.5157 57.229 97.896 56.6094 97.4829C56.8159 100.375 56.1963 103.266 55.7832 105.951C55.5766 107.81 58.2618 108.637 58.6749 106.778C59.088 103.679 59.9142 100.581 59.5011 97.4829C59.5011 96.4502 58.6749 95.8305 57.6421 96.0371C53.9243 96.6567 49.9998 96.4502 46.2819 96.2436C45.0426 96.2436 44.6295 97.4829 45.0426 98.5157C46.2819 100.994 47.7278 103.886 48.1409 106.571C48.3474 108.43 51.2391 107.604 50.826 105.745Z" fill="white"/>
<path d="M53.098 96.2436C47.9343 92.3192 45.6622 86.7423 45.0426 80.3393C44.836 76.4148 47.5212 64.2284 54.1307 66.9136C59.9141 69.3922 60.1207 77.8607 59.0879 83.0244C58.0552 87.9816 55.37 92.9388 51.239 96.0371C49.7932 97.2764 51.2391 99.7549 52.6849 98.5156C58.4683 94.1781 61.36 87.362 62.3927 80.3393C63.0124 74.969 60.7403 64.6415 53.9242 63.6088C47.5212 62.576 44.2164 68.9791 42.564 74.3493C39.8788 82.8179 44.0098 93.1454 50.826 98.3091C52.4783 99.5484 54.5438 97.4829 53.098 96.2436Z" fill="white"/>
<path d="M52.9973 65.6467C55.0424 37.5827 55.9681 10.6709 56.7826 -17.5565C56.8306 -18.2159 53.9466 -18.4261 53.8985 -17.7666C52.8834 10.3725 52.1637 37.2992 50.1132 65.4365C49.8592 66.081 52.9492 66.3062 52.9973 65.6467Z" fill="white"/>
<path fill-rule="evenodd" clip-rule="evenodd" d="M86.9478 161.844H85.5383C85.4329 161.844 85.3403 161.933 85.3403 162.035V163.361C85.3403 163.463 85.4329 163.552 85.5383 163.552H86.9478C87.0532 163.552 87.1458 163.463 87.1458 163.361V162.035C87.1458 161.933 87.0532 161.844 86.9478 161.844Z" fill="#043E44"/>
<path fill-rule="evenodd" clip-rule="evenodd" d="M17.8338 157.141C17.7152 157.128 17.6098 157.116 17.5044 157.116C16.8325 157.154 16.2397 157.358 15.7917 157.625V157.421C15.7917 157.345 15.8313 157.205 15.6336 157.205H14.5533C14.2503 157.23 14 157.447 14 157.715V164.291C14 165.247 14.6983 165.833 15.5546 165.833H15.6336C15.7259 165.833 15.8181 165.795 15.8181 165.642V163.271C16.187 163.488 16.6613 163.666 17.2805 163.666C17.5044 163.666 17.7152 163.654 17.9129 163.615C19.0459 163.45 20.0735 162.468 20.0735 160.327C20.0735 158.543 19.283 157.243 17.8338 157.141ZM16.9116 162.405C16.2265 162.405 15.8049 161.882 15.8049 161.003V159.652C15.8049 158.9 16.2397 158.352 16.9116 158.352C17.6362 158.352 18.0841 158.925 18.0841 160.353C18.0841 161.411 17.847 162.405 16.9116 162.405Z" fill="#043E44"/>
<path fill-rule="evenodd" clip-rule="evenodd" d="M76.2104 158.046C75.4599 157.332 74.6035 157.192 73.9712 157.192C73.3383 157.192 72.469 157.332 71.7314 158.046C71.428 158.339 70.7695 159.117 70.7695 160.429C70.7695 161.436 71.1777 162.328 71.7838 162.889C72.2321 163.297 72.9564 163.692 73.984 163.692C75.0116 163.692 75.7365 163.297 76.1842 162.889C76.7903 162.328 77.1984 161.423 77.1984 160.429C77.1722 159.117 76.5137 158.352 76.2104 158.046ZM74.9062 161.946C74.6693 162.354 74.3135 162.468 73.9712 162.468C73.6283 162.468 73.2725 162.341 73.0355 161.946C72.8772 161.691 72.7456 161.283 72.7456 160.442C72.7456 159.983 72.7718 159.371 73.0751 158.925C73.2859 158.594 73.5758 158.441 73.9712 158.441C74.3793 158.441 74.6559 158.594 74.8666 158.925C75.17 159.384 75.1962 159.983 75.1962 160.442C75.1962 161.283 75.0512 161.678 74.9062 161.946Z" fill="#043E44"/>
<path fill-rule="evenodd" clip-rule="evenodd" d="M26.5689 158.25C26.1341 157.74 25.37 157.205 24.1316 157.205C23.565 157.205 22.7482 157.294 21.9973 157.906C21.4835 158.326 20.8511 159.091 20.8511 160.467C20.8511 161.64 21.3385 162.405 21.7733 162.838C22.2608 163.31 23.0381 163.705 24.1052 163.705C24.9616 163.705 25.6598 163.488 26.1736 163.144C26.5293 162.902 26.9509 162.494 27.1881 161.831C27.2013 161.78 27.2276 161.665 27.0827 161.665H25.5676C25.4754 161.665 25.3832 161.767 25.3568 161.818C25.3041 161.946 25.2251 162.048 25.146 162.124C24.9747 162.29 24.6585 162.481 24.1975 162.481C23.5914 162.481 23.2357 162.175 23.0381 161.818C22.8799 161.551 22.8141 161.168 22.8273 160.824H27.0695C27.2408 160.799 27.2935 160.71 27.3066 160.48C27.3066 160.48 27.3066 160.455 27.3066 160.429C27.3066 159.422 26.9641 158.696 26.5689 158.25ZM25.3832 159.779H22.8536C22.8536 159.397 22.9854 159.04 23.2093 158.823C23.4465 158.594 23.7759 158.428 24.1711 158.428C24.6717 158.428 24.9616 158.658 25.1329 158.9C25.3041 159.142 25.3963 159.486 25.3832 159.779Z" fill="#043E44"/>
<path fill-rule="evenodd" clip-rule="evenodd" d="M57.3184 158.25C56.8836 157.74 56.1195 157.205 54.8811 157.205C54.3146 157.205 53.4977 157.294 52.7468 157.906C52.233 158.326 51.6006 159.091 51.6006 160.468C51.6006 161.64 52.0881 162.405 52.5228 162.838C53.0103 163.31 53.7876 163.705 54.8547 163.705C55.7111 163.705 56.4093 163.488 56.9231 163.144C57.2788 162.902 57.7004 162.494 57.9376 161.831C57.9507 161.78 57.9771 161.666 57.8322 161.666H56.3171C56.2248 161.666 56.1326 161.768 56.1063 161.819C56.0536 161.946 55.9745 162.048 55.8955 162.124C55.7242 162.29 55.408 162.481 54.9469 162.481C54.3409 162.481 53.9852 162.175 53.7876 161.819C53.6295 161.551 53.5636 161.169 53.5768 160.824H57.819C57.9903 160.799 58.0429 160.71 58.0561 160.48C58.0561 160.48 58.0561 160.455 58.0561 160.429C58.0429 159.423 57.7004 158.696 57.3184 158.25ZM56.1195 159.779H53.5899C53.5899 159.397 53.7217 159.04 53.9457 158.823C54.1828 158.594 54.5122 158.428 54.9074 158.428C55.408 158.428 55.6979 158.658 55.8692 158.9C56.0404 159.142 56.1326 159.486 56.1195 159.779Z" fill="#043E44"/>
<path fill-rule="evenodd" clip-rule="evenodd" d="M45.3555 161.474C44.9472 160.659 44.5914 160.174 44.2489 160.123C44.2489 160.123 44.71 160.098 45.0262 159.282C45.1316 158.989 45.4346 158.326 45.6322 157.919C45.7113 157.766 45.8298 157.6 45.9616 157.447C45.9748 157.422 45.9879 157.396 45.9879 157.371C45.9879 157.294 45.9353 157.243 45.8562 157.23H44.5387C44.1698 157.243 43.9985 157.511 43.88 157.778C43.6824 158.224 43.6033 158.492 43.3267 159.091C43.1949 159.384 42.9446 159.69 42.4044 159.69H42.0224V155.229C42.0224 155.153 42.0619 155 41.8643 155H40.6654C40.3492 155.025 40.112 155.242 40.0989 155.51V162.532C40.0989 162.672 40.1121 162.851 40.1779 163.029C40.3097 163.31 40.5732 163.539 40.9025 163.539H41.7325C41.9434 163.539 42.0092 163.437 42.0092 163.271V160.748H42.3386C43.0631 160.748 43.3794 161.551 43.6956 162.112C43.9854 162.634 44.4729 163.565 45.3555 163.514H46.3964C46.4622 163.514 46.5281 163.45 46.5281 163.386C46.5281 163.361 46.5149 163.335 46.5149 163.322C46.2514 162.953 45.6981 162.086 45.3555 161.474Z" fill="#043E44"/>
<path fill-rule="evenodd" clip-rule="evenodd" d="M83.2323 161.475C82.8242 160.659 82.4684 160.175 82.1255 160.124C82.1255 160.124 82.5866 160.098 82.9033 159.282C83.0087 158.989 83.3115 158.327 83.5089 157.919C83.5881 157.766 83.7068 157.6 83.8384 157.447C83.8518 157.422 83.8646 157.396 83.8646 157.371C83.8646 157.294 83.8122 157.243 83.733 157.23H82.4155C82.0469 157.243 81.8757 157.511 81.7569 157.779C81.559 158.225 81.4804 158.492 81.2038 159.091C81.0717 159.384 80.8213 159.69 80.2816 159.69H79.8991V155.23C79.8991 155.153 79.9387 155 79.7413 155H78.5687C78.2526 155.026 78.0156 155.242 78.0022 155.51V162.532C78.0022 162.673 78.0156 162.851 78.0814 163.029C78.213 163.31 78.4633 163.539 78.8057 163.539H79.6359C79.8467 163.539 79.9125 163.437 79.9125 163.272V160.748H80.242C80.9663 160.748 81.2824 161.551 81.5986 162.112C81.8885 162.634 82.3759 163.565 83.2591 163.514H84.2995C84.3653 163.514 84.4311 163.45 84.4311 163.386C84.4311 163.361 84.4183 163.335 84.4183 163.323C84.1283 162.953 83.5752 162.086 83.2323 161.475Z" fill="#043E44"/>
<path fill-rule="evenodd" clip-rule="evenodd" d="M62.4168 159.664L61.3497 159.524C61.0071 159.473 60.5329 159.371 60.5329 158.951C60.5329 158.798 60.6119 158.581 60.8754 158.454C60.994 158.39 61.1916 158.326 61.5736 158.326C61.8635 158.326 62.1797 158.352 62.4563 158.568C62.6013 158.67 62.733 158.836 62.8252 159.014C62.8516 159.065 62.9042 159.091 62.9702 159.078L64.2217 158.823C64.3008 158.811 64.3535 158.721 64.3139 158.658C64.1295 158.237 63.8528 157.931 63.6157 157.753C62.9702 157.268 62.2455 157.205 61.6395 157.205C61.0335 157.205 60.2693 157.281 59.6765 157.651C59.1363 158.008 58.807 158.581 58.807 159.18C58.807 159.779 59.0836 160.213 59.413 160.506C59.861 160.888 60.5065 161.028 61.0598 161.117L61.9821 161.258C62.3641 161.321 62.8779 161.398 62.8779 161.882C62.8779 162.01 62.8516 162.213 62.6144 162.354C62.3773 162.494 61.903 162.545 61.6527 162.545C61.2443 162.545 60.8095 162.43 60.5329 162.226C60.4011 162.124 60.243 161.959 60.1508 161.716C60.1244 161.665 60.0717 161.627 60.0059 161.627L58.6753 161.818C58.5962 161.831 58.5435 161.92 58.5698 161.997C58.6884 162.277 58.9387 162.723 59.4394 163.093C60.1508 163.577 61.0203 163.666 61.6263 163.666C62.3904 163.666 63.2205 163.526 63.8001 163.144C64.1954 162.876 64.6433 162.392 64.6433 161.589C64.6433 161.003 64.4062 160.595 64.1427 160.34C63.6684 159.894 62.9438 159.741 62.4168 159.664Z" fill="#043E44"/>
<path fill-rule="evenodd" clip-rule="evenodd" d="M98.7652 157.205H97.1972C97.1047 157.205 97.0261 157.281 97.0261 157.37V160.812C97.0261 161.13 96.9865 161.525 96.7361 161.844C96.512 162.124 96.1824 162.265 95.8663 162.265C95.5897 162.265 95.3528 162.163 95.2078 161.984C94.9836 161.704 94.9836 161.258 94.9836 161.028V157.37C94.9836 157.281 94.905 157.205 94.8125 157.205H94.246C93.5875 157.205 93.0605 157.715 93.0605 158.352V161.334C93.0605 161.997 93.1525 162.723 93.7982 163.246C94.1272 163.526 94.5755 163.692 95.1682 163.692C96.13 163.692 96.8019 163.182 97.1443 162.43H97.171C97.171 163.055 97.698 163.564 98.3431 163.564H98.778C98.8705 163.564 98.9492 163.488 98.9492 163.399V157.37C98.9363 157.281 98.8572 157.205 98.7652 157.205Z" fill="#043E44"/>
<path fill-rule="evenodd" clip-rule="evenodd" d="M32.062 157.307C32.062 157.307 32.062 157.167 31.904 157.141C31.8249 157.129 31.7854 157.129 31.7064 157.129C31.6668 157.129 31.6273 157.129 31.5878 157.129C30.9817 157.167 30.6129 157.447 30.4021 157.664C30.2308 157.842 29.9936 158.174 29.9278 158.658H29.9014V157.32C29.9014 157.243 29.8356 157.18 29.7565 157.18H28.8606C28.5049 157.18 28.2283 157.46 28.2283 157.791V162.991C28.2283 163.335 28.5049 163.603 28.8606 163.603H30.0068C30.0859 163.603 30.1518 163.539 30.1518 163.463V160.684C30.1518 160.009 30.244 159.41 30.8763 159.028C31.1266 158.875 31.4297 158.811 31.759 158.811C31.7986 158.811 31.8381 158.811 31.8644 158.811C32.0884 158.849 32.062 158.62 32.062 158.62V157.307Z" fill="#043E44"/>
<path fill-rule="evenodd" clip-rule="evenodd" d="M51.1656 157.307C51.1656 157.307 51.1656 157.167 51.0075 157.141C50.9285 157.129 50.8889 157.129 50.8099 157.129C50.7704 157.129 50.7309 157.129 50.6913 157.129C50.0853 157.167 49.7164 157.447 49.5056 157.664C49.3343 157.842 49.0972 158.174 49.0314 158.658H49.005V157.32C49.005 157.243 48.9391 157.179 48.8601 157.179H47.9642C47.6085 157.179 47.3318 157.46 47.3318 157.791V162.991C47.3318 163.335 47.6085 163.603 47.9642 163.603H49.1104C49.1894 163.603 49.2553 163.539 49.2553 163.463V160.684C49.2553 160.009 49.3475 159.41 49.9799 159.027C50.2302 158.875 50.5333 158.811 50.8626 158.811C50.9021 158.811 50.9417 158.811 50.968 158.811C51.192 158.849 51.1656 158.62 51.1656 158.62V157.307Z" fill="#043E44"/>
<path fill-rule="evenodd" clip-rule="evenodd" d="M92.0201 157.307C92.0201 157.307 92.0201 157.167 91.8623 157.141C91.7831 157.129 91.7435 157.129 91.6644 157.129C91.6248 157.129 91.5852 157.129 91.5456 157.129C90.9401 157.167 90.5709 157.447 90.3602 157.664C90.189 157.842 89.9515 158.174 89.8857 158.658H89.8595V157.383C89.8595 157.307 89.7937 157.243 89.7145 157.243H88.3183C88.2391 157.243 88.1733 157.307 88.1733 157.383V163.488C88.1733 163.565 88.2391 163.628 88.3183 163.628H89.9515C90.0307 163.628 90.0964 163.565 90.0964 163.488V160.71C90.0964 160.034 90.189 159.435 90.8213 159.053C91.0717 158.9 91.3744 158.836 91.6906 158.836C91.7302 158.836 91.7697 158.836 91.796 158.836C92.0201 158.875 92.0201 158.645 92.0201 158.645V157.307Z" fill="#043E44"/>
<path fill-rule="evenodd" clip-rule="evenodd" d="M70.6247 157.256H68.5167V155.23C68.5167 155.153 68.5562 155 68.3586 155H67.1861C66.8699 155.026 66.6327 155.242 66.6327 155.51V157.256H64.5511C64.4194 157.256 64.4194 157.332 64.4326 157.396C64.617 157.995 65.0781 158.569 65.7369 158.594H66.3956C66.501 158.607 66.5932 158.683 66.6327 158.785V161.768C66.6327 161.768 66.6327 162.316 66.7381 162.66C66.7908 162.838 66.9094 163.017 67.0675 163.17C67.4891 163.603 68.1346 163.705 68.6221 163.705C68.991 163.705 69.4916 163.667 69.9132 163.616C69.9924 163.603 70.0448 163.539 70.0448 163.475V162.392C70.0448 162.303 69.9662 162.239 69.8736 162.252C69.6892 162.277 69.4785 162.29 69.3335 162.29C69.1227 162.29 68.912 162.265 68.7407 162.099C68.5299 161.882 68.5299 161.615 68.5299 161.385V160.073H68.5431V158.862C68.5431 158.722 68.6616 158.607 68.8066 158.594H69.4653C70.124 158.569 70.5717 157.995 70.7697 157.396C70.7697 157.332 70.7563 157.256 70.6247 157.256Z" fill="#043E44"/>
<path d="M38.9713 163.585C38.9713 162.448 37.8187 162.047 36.9657 162.069H32.9314C32.9314 163.184 34.084 163.585 34.937 163.585H38.9713Z" fill="#043E44"/>
<path d="M36.9657 157.231C37.8187 157.231 38.9713 157.61 38.9713 158.747H34.937C34.084 158.747 32.9314 158.368 32.9314 157.231H36.9657Z" fill="#043E44"/>
<path d="M36.9657 159.639C37.8187 159.639 38.9713 160.04 38.9713 161.155H34.937C34.084 161.155 32.9314 160.776 32.9314 159.639H36.9657Z" fill="#043E44"/>
<path d="M53.0101 169.631C52.2494 169.631 51.7422 169.029 51.7422 168.316C51.7422 167.624 52.2724 167 53.0101 167C53.7478 167 54.278 167.624 54.278 168.316C54.278 169.029 53.7708 169.631 53.0101 169.631ZM53.0101 167.624C52.6182 167.624 52.4568 168.003 52.4568 168.316C52.4568 168.65 52.6412 169.007 53.0101 169.007C53.379 169.007 53.5634 168.65 53.5634 168.316C53.5634 167.981 53.402 167.624 53.0101 167.624Z" fill="#043E44"/>
<path d="M56.5368 169.631C56.3294 169.631 56.191 169.475 56.191 169.252V168.561H55.269V169.252C55.269 169.475 55.1306 169.631 54.9231 169.631C54.7157 169.631 54.5774 169.475 54.5774 169.252V167.379C54.5774 167.156 54.7157 167 54.9231 167C55.1306 167 55.269 167.156 55.269 167.379V167.959H56.191V167.379C56.191 167.156 56.3294 167 56.5368 167C56.7443 167 56.8826 167.156 56.8826 167.379V169.252C56.8826 169.475 56.7443 169.631 56.5368 169.631Z" fill="#043E44"/>
<path d="M59.2572 169.632C59.0498 169.632 58.9114 169.475 58.9114 169.252V167.647H58.312V168.383C58.312 169.208 57.9432 169.632 57.413 169.632C57.2055 169.632 57.1133 169.475 57.1133 169.319C57.1133 169.186 57.1825 169.074 57.3208 169.03C57.4591 168.985 57.6205 168.851 57.6205 168.45V167.424C57.6205 167.201 57.7588 167.045 57.9663 167.045H59.2803C59.4877 167.045 59.6261 167.201 59.6261 167.424V169.252C59.6261 169.475 59.4647 169.632 59.2572 169.632Z" fill="#043E44"/>
<path d="M61.9077 169.632C61.7463 169.632 61.6311 169.565 61.585 169.342C61.4697 169.542 61.17 169.632 60.9165 169.632C60.3402 169.632 59.9482 169.342 59.9482 168.807C59.9482 168.026 60.8934 167.915 61.5619 167.915V167.736C61.5619 167.603 61.4466 167.558 61.2622 167.558C60.8473 167.558 60.7781 167.781 60.5937 167.781C60.3632 167.781 60.2941 167.625 60.2941 167.491C60.2941 167.201 60.8704 166.978 61.2853 166.978C61.9307 166.978 62.2996 167.246 62.2996 167.736V169.253C62.2304 169.476 62.1152 169.632 61.9077 169.632ZM61.5619 168.428C61.147 168.428 60.5937 168.383 60.5937 168.807C60.5937 169.007 60.8012 169.052 61.0086 169.052C61.3775 169.052 61.5389 168.873 61.5389 168.539V168.428H61.5619Z" fill="#043E44"/>
<path d="M64.5825 169.632C64.375 169.632 64.2367 169.475 64.2367 169.253V168.227L63.2685 169.475C63.1994 169.565 63.1071 169.632 62.9688 169.632C62.7613 169.632 62.623 169.475 62.623 169.253V167.38C62.623 167.157 62.7613 167 62.9688 167C63.1763 167 63.3146 167.157 63.3146 167.38V168.383L64.2137 167.201C64.3059 167.067 64.4442 167 64.5595 167C64.7669 167 64.9052 167.157 64.9052 167.38V169.253C64.9513 169.475 64.79 169.632 64.5825 169.632ZM63.0149 166.376C63.0149 166.242 63.1071 166.153 63.2455 166.153C63.5451 166.153 63.453 166.465 63.7757 166.465C64.0523 166.465 64.0062 166.153 64.3059 166.153C64.4442 166.153 64.5364 166.265 64.5364 166.376C64.5364 166.711 64.1675 166.911 63.7757 166.911C63.3838 166.911 63.0149 166.711 63.0149 166.376Z" fill="#043E44"/>
<path d="M67.3028 169.631C67.0953 169.631 66.957 169.475 66.957 169.252V168.561H66.0348V169.252C66.0348 169.475 65.8966 169.631 65.6891 169.631C65.4816 169.631 65.3433 169.475 65.3433 169.252V167.379C65.3433 167.156 65.4816 167 65.6891 167C65.8966 167 66.0348 167.156 66.0348 167.379V167.959H66.957V167.379C66.957 167.156 67.0953 167 67.3028 167C67.5102 167 67.6485 167.156 67.6485 167.379V169.252C67.6716 169.475 67.5333 169.631 67.3028 169.631Z" fill="#043E44"/>
<path d="M69.3316 168.494H68.2943C68.1098 168.494 68.0176 168.361 68.0176 168.204C68.0176 168.026 68.1098 167.892 68.2943 167.892H69.3316C69.516 167.892 69.6082 168.026 69.6082 168.204C69.6082 168.361 69.516 168.494 69.3316 168.494Z" fill="#043E44"/>
<path d="M71.1293 169.631C70.3687 169.631 69.8613 169.029 69.8613 168.316C69.8613 167.624 70.3916 167 71.1293 167C71.4058 167 71.9824 167.112 71.9824 167.424C71.9824 167.557 71.8904 167.758 71.7058 167.758C71.5212 167.758 71.3601 167.624 71.1527 167.624C70.7607 167.624 70.5533 167.959 70.5533 168.316C70.5533 168.65 70.7607 169.007 71.1527 169.007C71.3367 169.007 71.5904 168.873 71.6824 168.873C71.8441 168.873 71.9824 169.007 71.9824 169.163C72.0052 169.52 71.383 169.631 71.1293 169.631Z" fill="#043E44"/>
<path d="M74.3805 167.468L73.2051 170.345C73.1359 170.501 73.0434 170.612 72.8822 170.612C72.6514 170.612 72.5131 170.456 72.5131 170.322C72.5131 170.256 72.5365 170.189 72.5594 170.122L72.8588 169.386L72.0754 167.468C72.052 167.424 72.052 167.357 72.052 167.29C72.052 167.112 72.2366 167 72.3748 167C72.5365 167 72.6748 167.089 72.7205 167.245L73.2051 168.561L73.7353 167.245C73.8045 167.089 73.9193 167 74.081 167C74.2193 167 74.4039 167.134 74.4039 167.29C74.4039 167.357 74.4039 167.401 74.3805 167.468Z" fill="#043E44"/>
<path d="M76.5707 169.632C76.3633 169.632 76.225 169.475 76.225 169.252V167.647H75.3028V169.252C75.3028 169.475 75.1645 169.632 74.9571 169.632C74.7497 169.632 74.6108 169.475 74.6108 169.252V167.424C74.6108 167.201 74.7497 167.045 74.9571 167.045H76.5707C76.7782 167.045 76.9164 167.201 76.9164 167.424V169.252C76.9164 169.475 76.7782 169.632 76.5707 169.632Z" fill="#043E44"/>
<path d="M79.3828 168.539H77.884C77.9303 168.873 78.2069 169.029 78.5526 169.029C78.9217 169.029 79.1748 168.762 79.3594 168.762C79.5211 168.762 79.6594 168.918 79.6594 169.051C79.6594 169.341 79.0366 169.631 78.5063 169.631C77.7229 169.631 77.1926 169.074 77.1926 168.316C77.1926 167.624 77.7229 167 78.4606 167C79.2211 167 79.7285 167.669 79.7285 168.249C79.7051 168.427 79.6131 168.539 79.3828 168.539ZM78.4372 167.558C78.1149 167.558 77.9069 167.781 77.884 168.07H79.0137C78.9445 167.781 78.76 167.558 78.4372 167.558Z" fill="#043E44"/>
<path d="M81.2956 169.631C81.0653 169.631 80.8345 169.542 80.6505 169.386V170.211C80.6505 170.434 80.5122 170.59 80.3042 170.59C80.0968 170.59 79.9585 170.434 79.9585 170.211V167.357C79.9585 167.134 80.0968 166.978 80.3042 166.978C80.4888 166.978 80.6042 167.112 80.6505 167.29C80.7887 167.09 81.0424 166.978 81.319 166.978C82.0795 166.978 82.4487 167.669 82.4487 168.338C82.4715 168.985 82.0104 169.631 81.2956 169.631ZM81.2036 167.625C80.8345 167.625 80.6505 167.982 80.6505 168.294C80.6505 168.628 80.8116 169.007 81.2036 169.007C81.5721 169.007 81.7567 168.65 81.7567 168.316C81.7567 167.981 81.5721 167.625 81.2036 167.625Z" fill="#043E44"/>
<path d="M85.6531 169.631C85.4228 169.631 85.3074 169.497 85.284 169.319L85.1 168.048L84.708 169.386C84.6846 169.475 84.5926 169.631 84.3389 169.631C84.0858 169.631 83.9932 169.497 83.9703 169.386L83.5784 168.048L83.3938 169.319C83.3709 169.475 83.2555 169.631 83.0252 169.631C82.8407 169.631 82.7024 169.497 82.7024 169.297C82.7024 169.274 82.7024 169.252 82.7024 169.23L83.0481 167.29C83.071 167.156 83.2555 167 83.4864 167C83.7166 167 83.8778 167.156 83.9241 167.29L84.3389 168.561L84.7309 167.29C84.7772 167.156 84.9383 167 85.1691 167C85.4223 167 85.584 167.156 85.6068 167.29L85.9525 169.23C85.9525 169.252 85.9525 169.274 85.9525 169.297C85.976 169.475 85.8377 169.631 85.6531 169.631Z" fill="#043E44"/>
<path d="M88.1889 169.631C88.0272 169.631 87.9118 169.565 87.8661 169.342C87.7506 169.542 87.4512 169.631 87.1975 169.631C86.621 169.631 86.229 169.342 86.229 168.806C86.229 168.026 87.1741 167.915 87.8427 167.915V167.736C87.8427 167.602 87.7278 167.558 87.5432 167.558C87.1284 167.558 87.0592 167.781 86.8747 167.781C86.6444 167.781 86.5747 167.625 86.5747 167.491C86.5747 167.201 87.1513 166.978 87.5661 166.978C88.2118 166.978 88.5803 167.246 88.5803 167.736V169.252C88.5112 169.475 88.3963 169.631 88.1889 169.631ZM87.8427 168.427C87.4278 168.427 86.8747 168.383 86.8747 168.806C86.8747 169.007 87.0821 169.052 87.2895 169.052C87.6586 169.052 87.8198 168.873 87.8198 168.539V168.427H87.8427Z" fill="#043E44"/>
<path d="M90.2404 169.631C90.0101 169.631 89.7793 169.542 89.5947 169.386V170.211C89.5947 170.434 89.4564 170.59 89.249 170.59C89.0416 170.59 88.9033 170.434 88.9033 170.211V167.357C88.9033 167.134 89.0416 166.978 89.249 166.978C89.4336 166.978 89.549 167.112 89.5947 167.29C89.733 167.09 89.9867 166.978 90.2633 166.978C91.0244 166.978 91.3929 167.669 91.3929 168.338C91.4163 168.985 90.9552 169.631 90.2404 169.631ZM90.1484 167.625C89.7793 167.625 89.5947 167.982 89.5947 168.294C89.5947 168.628 89.7564 169.007 90.1484 169.007C90.517 169.007 90.7015 168.65 90.7015 168.316C90.7015 167.981 90.517 167.625 90.1484 167.625Z" fill="#043E44"/>
<path d="M93.6521 169.631C93.5139 169.631 93.4213 169.542 93.3064 169.431L92.4299 168.517V169.252C92.4299 169.475 92.2916 169.631 92.0842 169.631C91.8768 169.631 91.7385 169.475 91.7385 169.252V167.379C91.7385 167.156 91.8768 167 92.0842 167C92.2916 167 92.4299 167.156 92.4299 167.379V168.026L93.2367 167.134C93.3293 167.045 93.4676 166.978 93.5596 166.978C93.7441 166.978 93.8596 167.134 93.8596 167.29C93.8596 167.379 93.8133 167.469 93.7213 167.558L93.0293 168.227L93.9053 169.052C93.9744 169.119 93.9978 169.208 93.9978 169.275C93.975 169.498 93.8361 169.631 93.6521 169.631Z" fill="#043E44"/>
<path d="M96.2571 168.538H94.7589C94.8046 168.873 95.0817 169.029 95.4274 169.029C95.796 169.029 96.0497 168.761 96.2342 168.761C96.3954 168.761 96.5336 168.918 96.5336 169.051C96.5336 169.341 95.9114 169.631 95.3811 169.631C94.5972 169.631 94.0669 169.074 94.0669 168.315C94.0669 167.624 94.5972 167 95.3348 167C96.0959 167 96.6028 167.669 96.6028 168.249C96.5571 168.427 96.4645 168.538 96.2571 168.538ZM95.2891 167.557C94.9663 167.557 94.7589 167.78 94.7354 168.07H95.8651C95.8194 167.78 95.6348 167.557 95.2891 167.557Z" fill="#043E44"/>
<path d="M98.6083 167.647H98.1238V169.252C98.1238 169.475 97.9855 169.632 97.7781 169.632C97.5707 169.632 97.4324 169.475 97.4324 169.252V167.647H96.9484C96.7639 167.647 96.6484 167.536 96.6484 167.357C96.6484 167.179 96.7867 167.067 96.9484 167.067H98.6541C98.8386 167.067 98.9998 167.134 98.9998 167.357C98.954 167.558 98.7923 167.647 98.6083 167.647Z" fill="#043E44"/>
</svg>
