<svg width="164" height="416" viewBox="0 0 164 416" fill="none" xmlns="http://www.w3.org/2000/svg">
<path d="M87.2942 415.213C53.7337 415.213 18.1016 408.584 15.6156 398.226C8.15775 371.295 12.7153 288.015 12.7153 284.286L17.6873 284.7C17.6873 285.529 13.1297 370.88 20.1732 397.397C22.2449 405.269 68.6494 413.97 110.496 409.413C128.312 407.341 158.144 401.54 158.973 382.481C160.216 355.55 128.313 350.578 105.11 346.435C90.1945 343.949 79.4219 342.292 79.0076 335.248C78.179 319.089 77.7646 284.7 77.7646 284.7H82.7366C82.7366 285.115 83.1509 319.089 83.9795 335.248C83.9795 338.149 95.995 340.22 105.939 341.877C129.555 345.606 165.602 351.821 163.945 382.896C163.116 399.469 144.471 410.656 111.325 414.385C103.453 414.799 95.5807 415.213 87.2942 415.213Z" fill="white"/>
<path d="M48.3475 289.672C25.1452 289.672 8.57211 285.529 7.32913 285.529C5.67182 285.115 3.60019 283.872 1.94288 280.557C-3.02904 269.785 2.77153 240.782 5.67182 235.396C6.08614 234.567 7.32913 233.738 8.57211 234.153C8.98643 234.153 53.7337 245.754 93.5091 234.153C94.3378 234.153 94.7521 234.153 95.5807 234.567C95.9951 234.981 96.4094 235.396 96.8237 236.224C97.6524 240.782 105.11 281.8 88.5372 285.529C74.0358 288.429 60.363 289.672 48.3475 289.672ZM9.40076 239.124C6.9148 246.582 2.77153 270.199 6.50047 278.486C7.32913 280.143 8.15778 280.557 8.57211 280.557C8.98643 280.557 46.6902 289.672 87.2942 280.557C95.9951 278.486 95.1664 255.283 92.2661 239.539C56.2197 249.068 18.516 241.196 9.40076 239.124Z" fill="white"/>
<path d="M51.6618 -42H47.5186V240.782H51.6618V-42Z" fill="white"/>
</svg>
