<svg width="163" height="515" viewBox="0 0 163 515" fill="none" xmlns="http://www.w3.org/2000/svg">
<style>
path { fill: #fff; }
</style>
<path d="M33.2911 390.288C10.3359 403.375 -8.4462 425.204 6.14215 455.238C19.4433 482.913 55.0561 493.64 76.9386 513.163C78.4404 514.45 80.5857 512.305 79.084 511.017C59.9904 494.069 35.9625 483.986 17.5125 465.965C-12.0932 436.788 8.19061 408.095 34.7929 393.077C36.5092 392.004 35.0074 389.215 33.2911 390.288Z" stroke="white"/>
<path d="M130.046 394.579C155.79 412.814 174.123 444.726 143.23 471.972C123.922 488.921 97.963 496 77.1532 511.018C75.6514 512.09 77.1532 514.879 78.6549 513.592C101.396 497.073 135.507 489.993 152.669 466.394C174.123 437.003 154.932 408.524 131.333 392.005C129.832 390.717 128.33 393.292 130.046 394.579Z" stroke="white"/>
<path d="M33.8167 370.712C33.6022 378.006 32.744 385.3 32.3149 392.594C32.3149 393.667 33.3877 394.311 34.2458 394.096C49.4778 389.376 65.7823 389.805 81.6579 389.591C99.2497 389.376 115.125 390.449 131.645 396.671C132.503 396.885 133.361 396.456 133.575 395.598C135.292 387.446 133.361 379.293 133.361 370.926C133.361 370.283 132.932 369.639 132.288 369.425C117.485 363.418 97.5334 363.418 81.6579 362.774C66.6405 362.131 47.547 360.2 34.6749 369.425C33.1732 370.497 34.6749 373.286 36.1767 371.999C51.8377 360.629 80.1562 364.919 98.6062 367.065C108.475 368.137 118.987 368.781 128.641 371.141C131.43 371.785 131.215 382.726 131.43 384.871C132.288 393.882 126.925 391.522 121.132 389.805C104.828 385.086 87.4504 386.373 70.7167 386.587C62.9934 386.802 55.0556 386.802 47.3324 388.089C45.4016 388.304 35.7475 391.736 35.9621 388.304C36.3911 382.511 37.0348 376.719 37.2493 370.712C36.8203 368.567 33.8167 368.567 33.8167 370.712Z" stroke="white"/>
<path d="M78.0109 361.701C78.0109 358.912 77.5817 356.124 76.7236 353.335C76.2945 353.978 76.08 354.622 75.6509 355.265C81.6579 354.193 87.6649 355.694 93.6719 355.694C93.2428 355.051 92.5992 354.407 92.1701 353.764C91.5265 356.982 89.8102 359.985 87.8794 362.774C86.5922 364.276 88.7376 366.421 90.0248 364.919C92.3847 361.916 94.3155 358.483 95.1737 354.622C95.3882 353.549 94.7446 352.691 93.6719 352.691C87.4504 352.476 81.0144 351.189 74.7929 352.262C73.9347 352.476 73.5057 353.335 73.7202 354.193C74.5783 356.553 74.7928 359.127 75.0074 361.701C75.0074 363.632 78.0109 363.632 78.0109 361.701Z" stroke="white"/>
<path d="M84.0179 350.546C78.2255 343.466 73.2911 336.386 71.3603 327.161C70.2876 322.013 70.9312 317.293 74.1492 313.217C79.5126 306.566 86.8068 313.002 88.5231 317.722C92.1702 327.59 86.8068 341.106 83.1597 350.331C82.5161 352.262 85.3051 352.905 86.1633 351.189C90.2394 341.106 100.108 313.86 84.0179 308.497C75.222 305.493 69.2149 311.929 67.7132 320.296C65.5679 332.096 74.7928 344.324 81.658 352.691C83.1597 354.193 85.3051 352.047 84.0179 350.546Z" stroke="white"/>
<path d="M42.8275 368.781C42.8275 372.643 42.613 376.29 42.613 380.151C42.613 383.155 42.3984 387.017 43.9002 389.591C44.9728 391.307 47.5473 389.806 46.4746 388.089C45.1874 385.729 45.6164 381.868 45.6164 379.079C45.6164 375.646 45.831 372.214 45.831 368.781C45.831 366.85 42.8275 366.85 42.8275 368.781Z" stroke="white"/>
<path d="M56.9876 364.49C58.0603 371.999 57.8458 379.722 57.8458 387.446C57.8458 389.376 60.8494 389.376 60.8494 387.446C60.8494 379.508 61.0639 371.57 59.9912 363.632C59.7766 361.701 56.7731 362.56 56.9876 364.49Z" stroke="white"/>
<path d="M72.8619 364.276C71.7892 371.999 72.0037 380.151 72.0037 388.089C72.0037 390.02 75.0072 390.02 75.0072 388.089C75.0072 380.58 74.7928 372.643 75.8654 365.134C76.08 362.989 73.0764 362.131 72.8619 364.276Z" stroke="white"/>
<path d="M86.5925 365.778C87.6652 372.428 86.1635 379.079 86.5925 385.729C86.5925 387.66 89.8105 387.66 89.5959 385.729C89.3814 378.65 90.6686 371.785 89.5959 364.919C89.3814 362.989 86.378 363.847 86.5925 365.778Z" stroke="white"/>
<path d="M99.8935 366.207C98.6063 372.857 98.6063 379.722 98.6063 386.587C98.6063 388.518 101.61 388.518 101.61 386.587C101.61 379.937 101.61 373.501 102.897 367.065C103.326 365.134 100.323 364.276 99.8935 366.207Z" stroke="white"/>
<path d="M110.621 368.781C112.551 375.002 111.908 381.439 111.908 387.875C111.908 389.805 114.911 389.805 114.911 387.875C114.911 381.224 115.555 374.359 113.624 367.923C112.981 365.992 109.977 366.85 110.621 368.781Z" stroke="white"/>
<path d="M122.634 370.068C123.278 376.933 123.063 384.013 123.063 390.878C123.063 392.809 126.067 392.809 126.067 390.878C126.067 384.013 126.281 376.933 125.638 370.068C125.423 368.137 122.42 368.137 122.634 370.068Z" stroke="white"/>
<path d="M81.6582 312.022C81.6582 208.83 79.942 105.639 78.2257 2.44811C78.2257 0.517297 75.0076 0.517297 75.2222 2.44811C76.9385 105.639 78.6548 208.83 78.6548 312.022C78.6548 313.952 81.6582 313.952 81.6582 312.022Z" stroke="white"/>
</svg>