<svg width="58" height="107" viewBox="0 0 58 107" fill="none" xmlns="http://www.w3.org/2000/svg">
<path d="M31.1056 49.4821C15.4024 48.2089 1.60908 61.5778 0.123642 76.9627C-1.6801 95.4246 16.5696 108.9 34.0765 106.565C48.9309 104.549 57.6313 90.2255 57.2069 76.22C56.7825 61.1534 45.6417 50.6492 31.1056 49.4821C30.1507 49.376 30.1507 50.9675 31.1056 50.9675C44.6868 52.0286 54.236 61.3656 55.6153 74.9468C56.9947 88.5279 48.7187 101.154 35.4558 104.656C19.116 109.006 0.654155 95.1063 1.50298 78.2359C2.24569 63.1694 15.8268 49.8004 31.1056 50.9675C32.0605 51.0736 32.0605 49.5882 31.1056 49.4821Z" fill="white"/>
<path d="M25.6946 49.6943C25.4824 48.2089 24.6336 46.5113 23.997 45.1319C23.7848 45.5563 23.5726 45.8747 23.3604 46.2991C25.4824 46.4052 27.4984 46.5113 29.6204 46.193C29.3021 45.9807 28.9838 45.6624 28.6655 45.4502C28.7716 46.9357 28.4533 48.4211 28.2411 49.8005C28.135 50.7554 29.5143 51.1798 29.7265 50.2249C29.9387 48.6333 30.3631 47.0418 30.1509 45.4502C30.1509 44.9197 29.7265 44.6014 29.196 44.7075C27.2862 45.0258 25.2702 44.9197 23.3604 44.8136C22.7237 44.8136 22.5115 45.4502 22.7237 45.9808C23.3604 47.254 24.1031 48.7394 24.3153 50.1188C24.4214 51.0737 25.9068 50.6493 25.6946 49.6943Z" fill="white"/>
<path d="M26.8614 44.8136C24.2088 42.7976 23.0417 39.9329 22.7234 36.6437C22.6173 34.6277 23.9966 28.3677 27.3919 29.747C30.3628 31.0202 30.4689 35.3704 29.9384 38.023C29.4079 40.5695 28.0285 43.1159 25.9065 44.7075C25.1638 45.3441 25.9065 46.6173 26.6492 45.9807C29.6201 43.7526 31.1055 40.2512 31.636 36.6437C31.9543 33.885 30.7872 28.5799 27.2858 28.0494C23.9966 27.5189 22.299 30.808 21.4502 33.5667C20.0708 37.9169 22.1929 43.2221 25.6943 45.8746C26.5431 46.5112 27.6041 45.4502 26.8614 44.8136Z" fill="white"/>
<path d="M26.5479 27.9411C26.5479 18.8899 26.2383 10.2344 25.8668 1.15952C25.8668 0.946827 25 0.946827 25 1.15952C25.3096 10.2108 25.6811 18.8662 25.6811 27.9411C25.6191 28.1538 26.5479 28.1538 26.5479 27.9411Z" fill="white" stroke="white"/>
<path fill-rule="evenodd" clip-rule="evenodd" d="M46.2405 77.7754H45.4629C45.4048 77.7754 45.3538 77.8246 45.3538 77.8809V78.612C45.3538 78.6683 45.4048 78.7175 45.4629 78.7175H46.2405C46.2986 78.7175 46.3497 78.6683 46.3497 78.612V77.8809C46.3497 77.8246 46.2986 77.7754 46.2405 77.7754Z" fill="#043E44"/>
<path fill-rule="evenodd" clip-rule="evenodd" d="M8.11486 75.1811C8.04945 75.174 7.99131 75.167 7.93317 75.167C7.56253 75.1881 7.23549 75.3006 6.98839 75.4482V75.3357C6.98839 75.2935 7.01019 75.2162 6.90118 75.2162H6.30524C6.13808 75.2303 6 75.3498 6 75.4974V79.1252C6 79.6525 6.38518 79.9759 6.85757 79.9759H6.90118C6.95205 79.9759 7.00292 79.9548 7.00292 79.8704V78.5627C7.20641 78.6823 7.46805 78.7807 7.80962 78.7807C7.93317 78.7807 8.04945 78.7736 8.15846 78.7525C8.78348 78.6612 9.35036 78.1198 9.35036 76.9387C9.35036 75.9544 8.91429 75.2373 8.11486 75.1811ZM7.60613 78.0847C7.22822 78.0847 6.99566 77.7964 6.99566 77.3113V76.5661C6.99566 76.1513 7.23549 75.849 7.60613 75.849C8.00585 75.849 8.25294 76.1653 8.25294 76.9527C8.25294 77.5363 8.12213 78.0847 7.60613 78.0847Z" fill="#043E44"/>
<path fill-rule="evenodd" clip-rule="evenodd" d="M40.3174 75.6802C39.9034 75.2865 39.431 75.2092 39.0822 75.2092C38.7331 75.2092 38.2535 75.2865 37.8466 75.6802C37.6793 75.8419 37.316 76.2708 37.316 76.995C37.316 77.5504 37.5412 78.0425 37.8755 78.3519C38.1228 78.5768 38.5224 78.7948 39.0892 78.7948C39.6561 78.7948 40.056 78.5768 40.303 78.3519C40.6373 78.0425 40.8625 77.5433 40.8625 76.995C40.848 76.2708 40.4847 75.849 40.3174 75.6802ZM39.598 77.8316C39.4673 78.0565 39.271 78.1198 39.0822 78.1198C38.893 78.1198 38.6968 78.0495 38.566 77.8316C38.4787 77.691 38.4061 77.466 38.4061 77.002C38.4061 76.7489 38.4206 76.4114 38.5879 76.1654C38.7042 75.9826 38.8641 75.8982 39.0822 75.8982C39.3073 75.8982 39.4599 75.9826 39.5761 76.1654C39.7435 76.4184 39.7579 76.7489 39.7579 77.002C39.7579 77.466 39.678 77.6839 39.598 77.8316Z" fill="#043E44"/>
<path fill-rule="evenodd" clip-rule="evenodd" d="M12.9333 75.7927C12.6935 75.5115 12.272 75.2162 11.5888 75.2162C11.2763 75.2162 10.8257 75.2654 10.4115 75.6029C10.128 75.8349 9.77917 76.2567 9.77917 77.016C9.77917 77.6628 10.0481 78.0846 10.2879 78.3237C10.5568 78.5838 10.9856 78.8017 11.5743 78.8017C12.0467 78.8017 12.4318 78.6822 12.7153 78.4924C12.9115 78.3588 13.1441 78.1339 13.2749 77.7683C13.2822 77.7402 13.2967 77.6769 13.2167 77.6769H12.381C12.3301 77.6769 12.2792 77.7331 12.2647 77.7612C12.2356 77.8315 12.192 77.8878 12.1484 77.93C12.0539 78.0214 11.8795 78.1268 11.6252 78.1268C11.2908 78.1268 11.0946 77.9581 10.9856 77.7612C10.8984 77.6136 10.862 77.4027 10.8693 77.2129H13.2095C13.304 77.1988 13.333 77.1496 13.3403 77.023C13.3403 77.023 13.3403 77.009 13.3403 76.9949C13.3403 76.4395 13.1513 76.0388 12.9333 75.7927ZM12.2792 76.6364H10.8839C10.8839 76.4254 10.9565 76.2286 11.0801 76.1091C11.2109 75.9825 11.3926 75.8911 11.6106 75.8911C11.8868 75.8911 12.0467 76.0177 12.1412 76.1512C12.2356 76.2848 12.2865 76.4746 12.2792 76.6364Z" fill="#043E44"/>
<path fill-rule="evenodd" clip-rule="evenodd" d="M29.8958 75.7928C29.656 75.5116 29.2345 75.2163 28.5513 75.2163C28.2388 75.2163 27.7882 75.2655 27.374 75.603C27.0906 75.835 26.7417 76.2568 26.7417 77.0161C26.7417 77.6629 27.0106 78.0848 27.2504 78.3238C27.5193 78.5839 27.9481 78.8019 28.5368 78.8019C29.0092 78.8019 29.3943 78.6824 29.6778 78.4925C29.874 78.3589 30.1066 78.134 30.2374 77.7684C30.2447 77.7403 30.2592 77.677 30.1793 77.677H29.3435C29.2926 77.677 29.2417 77.7332 29.2272 77.7613C29.1981 77.8317 29.1545 77.8879 29.1109 77.9301C29.0164 78.0215 28.842 78.1269 28.5876 78.1269C28.2533 78.1269 28.0571 77.9582 27.9481 77.7613C27.8609 77.6137 27.8246 77.4028 27.8318 77.213H30.172C30.2665 77.1989 30.2955 77.1497 30.3028 77.0232C30.3028 77.0232 30.3028 77.0091 30.3028 76.995C30.2955 76.4396 30.1066 76.0389 29.8958 75.7928ZM29.2345 76.6365H27.8391C27.8391 76.4256 27.9118 76.2287 28.0353 76.1092C28.1661 75.9826 28.3478 75.8912 28.5658 75.8912C28.842 75.8912 29.0019 76.0178 29.0964 76.1514C29.1908 76.2849 29.2417 76.4748 29.2345 76.6365Z" fill="#043E44"/>
<path fill-rule="evenodd" clip-rule="evenodd" d="M23.2968 77.5715C23.0716 77.1216 22.8753 76.8544 22.6864 76.8263C22.6864 76.8263 22.9408 76.8122 23.1152 76.3623C23.1733 76.2006 23.3405 75.835 23.4495 75.61C23.4931 75.5256 23.5585 75.4342 23.6312 75.3499C23.6384 75.3358 23.6457 75.3217 23.6457 75.3077C23.6457 75.2655 23.6166 75.2374 23.573 75.2303H22.8463C22.6428 75.2374 22.5483 75.385 22.4829 75.5327C22.3739 75.7787 22.3303 75.9264 22.1777 76.2568C22.105 76.4185 21.9669 76.5872 21.6689 76.5872H21.4582V74.1266C21.4582 74.0844 21.48 74 21.371 74H20.7096C20.5352 74.0141 20.4044 74.1336 20.3971 74.2812V78.155C20.3971 78.2324 20.4044 78.3308 20.4407 78.4292C20.5134 78.5839 20.6587 78.7105 20.8404 78.7105H21.2983C21.4146 78.7105 21.4509 78.6542 21.4509 78.5628V77.1708H21.6326C22.0323 77.1708 22.2067 77.6137 22.3811 77.923C22.541 78.2113 22.8099 78.7245 23.2968 78.6964H23.871C23.9073 78.6964 23.9437 78.6612 23.9437 78.6261C23.9437 78.612 23.9364 78.598 23.9364 78.5909C23.791 78.387 23.4858 77.909 23.2968 77.5715Z" fill="#043E44"/>
<path fill-rule="evenodd" clip-rule="evenodd" d="M44.1909 77.5716C43.9657 77.1216 43.7695 76.8545 43.5803 76.8263C43.5803 76.8263 43.8347 76.8123 44.0094 76.3623C44.0676 76.2006 44.2346 75.835 44.3435 75.61C44.3871 75.5257 44.4526 75.4343 44.5252 75.3499C44.5326 75.3359 44.5397 75.3218 44.5397 75.3077C44.5397 75.2656 44.5108 75.2374 44.4671 75.2304H43.7403C43.537 75.2374 43.4426 75.3851 43.377 75.5327C43.2678 75.7788 43.2245 75.9264 43.0719 76.2569C42.999 76.4186 42.8609 76.5873 42.5632 76.5873H42.3522V74.1266C42.3522 74.0844 42.374 74.0001 42.2651 74.0001H41.6183C41.4439 74.0141 41.3132 74.1336 41.3058 74.2813V78.1551C41.3058 78.2324 41.3132 78.3309 41.3495 78.4293C41.4221 78.5839 41.5602 78.7105 41.749 78.7105H42.207C42.3233 78.7105 42.3596 78.6543 42.3596 78.5629V77.1708H42.5413C42.9409 77.1708 43.1153 77.6137 43.2897 77.9231C43.4496 78.2113 43.7185 78.7246 44.2057 78.6965H44.7796C44.8159 78.6965 44.8522 78.6613 44.8522 78.6261C44.8522 78.6121 44.8451 78.598 44.8451 78.591C44.6852 78.3871 44.3801 77.909 44.1909 77.5716Z" fill="#043E44"/>
<path fill-rule="evenodd" clip-rule="evenodd" d="M32.7084 76.5731L32.1197 76.4957C31.9308 76.4676 31.6692 76.4114 31.6692 76.1794C31.6692 76.095 31.7128 75.9755 31.8581 75.9052C31.9235 75.87 32.0325 75.8349 32.2433 75.8349C32.4032 75.8349 32.5776 75.8489 32.7302 75.9685C32.8102 76.0247 32.8829 76.1161 32.9337 76.2145C32.9482 76.2426 32.9773 76.2567 33.0137 76.2497L33.7041 76.1091C33.7477 76.102 33.7767 76.0528 33.7549 76.0177C33.6532 75.7857 33.5006 75.6169 33.3697 75.5185C33.0137 75.2513 32.6139 75.2162 32.2796 75.2162C31.9453 75.2162 31.5238 75.2584 31.1968 75.4623C30.8988 75.6591 30.7171 75.9755 30.7171 76.3059C30.7171 76.6364 30.8697 76.8754 31.0514 77.0371C31.2985 77.248 31.6546 77.3253 31.9599 77.3746L32.4686 77.4519C32.6794 77.487 32.9628 77.5292 32.9628 77.7964C32.9628 77.8667 32.9482 77.9792 32.8174 78.0565C32.6866 78.1339 32.425 78.162 32.2869 78.162C32.0616 78.162 31.8218 78.0987 31.6692 77.9862C31.5965 77.93 31.5093 77.8386 31.4584 77.705C31.4439 77.6769 31.4148 77.6558 31.3785 77.6558L30.6445 77.7612C30.6008 77.7683 30.5718 77.8175 30.5863 77.8596C30.6517 78.0143 30.7898 78.2604 31.066 78.4643C31.4584 78.7315 31.9381 78.7807 32.2724 78.7807C32.6939 78.7807 33.1517 78.7033 33.4715 78.4924C33.6895 78.3448 33.9366 78.0776 33.9366 77.6347C33.9366 77.3113 33.8058 77.0863 33.6605 76.9457C33.3988 76.6996 32.9991 76.6153 32.7084 76.5731Z" fill="#043E44"/>
<path fill-rule="evenodd" clip-rule="evenodd" d="M52.7594 75.2162H51.8945C51.8434 75.2162 51.8001 75.2584 51.8001 75.3076V77.2059C51.8001 77.3816 51.7782 77.5996 51.6401 77.7753C51.5165 77.93 51.3347 78.0073 51.1603 78.0073C51.0077 78.0073 50.877 77.9511 50.797 77.8527C50.6734 77.698 50.6734 77.4519 50.6734 77.3254V75.3076C50.6734 75.2584 50.63 75.2162 50.579 75.2162H50.2665C49.9032 75.2162 49.6125 75.4974 49.6125 75.849V77.4941C49.6125 77.8597 49.6633 78.2604 50.0195 78.5487C50.201 78.7033 50.4482 78.7948 50.7752 78.7948C51.3058 78.7948 51.6764 78.5135 51.8653 78.0987H51.88C51.88 78.4432 52.1707 78.7244 52.5266 78.7244H52.7665C52.8175 78.7244 52.8609 78.6823 52.8609 78.6331V75.3076C52.8538 75.2584 52.8102 75.2162 52.7594 75.2162Z" fill="#043E44"/>
<path fill-rule="evenodd" clip-rule="evenodd" d="M15.9636 75.2727C15.9636 75.2727 15.9636 75.1953 15.8764 75.1813C15.8328 75.1742 15.811 75.1742 15.7674 75.1742C15.7456 75.1742 15.7238 75.1742 15.702 75.1742C15.3677 75.1953 15.1642 75.35 15.0479 75.4695C14.9534 75.5679 14.8226 75.7507 14.7863 76.0179H14.7717V75.2797C14.7717 75.2375 14.7354 75.2023 14.6918 75.2023H14.1976C14.0014 75.2023 13.8488 75.357 13.8488 75.5398V78.4083C13.8488 78.5981 14.0014 78.7457 14.1976 78.7457H14.8299C14.8735 78.7457 14.9098 78.7106 14.9098 78.6684V77.1357C14.9098 76.7631 14.9607 76.4327 15.3095 76.2218C15.4476 76.1374 15.6148 76.1023 15.7965 76.1023C15.8183 76.1023 15.8401 76.1023 15.8546 76.1023C15.9781 76.1233 15.9636 75.9968 15.9636 75.9968V75.2727Z" fill="#043E44"/>
<path fill-rule="evenodd" clip-rule="evenodd" d="M26.5018 75.2726C26.5018 75.2726 26.5018 75.1953 26.4146 75.1812C26.371 75.1742 26.3492 75.1742 26.3056 75.1742C26.2838 75.1742 26.262 75.1742 26.2402 75.1742C25.9059 75.1953 25.7024 75.3499 25.5861 75.4694C25.4916 75.5679 25.3608 75.7507 25.3245 76.0178H25.31V75.2796C25.31 75.2374 25.2736 75.2023 25.23 75.2023H24.7358C24.5396 75.2023 24.387 75.357 24.387 75.5398V78.4082C24.387 78.598 24.5396 78.7457 24.7358 78.7457H25.3681C25.4117 78.7457 25.448 78.7105 25.448 78.6683V77.1357C25.448 76.7631 25.4989 76.4326 25.8478 76.2217C25.9858 76.1373 26.153 76.1022 26.3347 76.1022C26.3565 76.1022 26.3783 76.1022 26.3928 76.1022C26.5164 76.1233 26.5018 75.9967 26.5018 75.9967V75.2726Z" fill="#043E44"/>
<path fill-rule="evenodd" clip-rule="evenodd" d="M49.0386 75.2726C49.0386 75.2726 49.0386 75.1953 48.9516 75.1812C48.9079 75.1742 48.8861 75.1742 48.8424 75.1742C48.8206 75.1742 48.7987 75.1742 48.7769 75.1742C48.4428 75.1953 48.2392 75.3499 48.123 75.4694C48.0285 75.5679 47.8975 75.7507 47.8612 76.0178H47.8468V75.3148C47.8468 75.2726 47.8105 75.2374 47.7668 75.2374H46.9966C46.9529 75.2374 46.9166 75.2726 46.9166 75.3148V78.6824C46.9166 78.7246 46.9529 78.7597 46.9966 78.7597H47.8975C47.9412 78.7597 47.9775 78.7246 47.9775 78.6824V77.1497C47.9775 76.7771 48.0285 76.4467 48.3773 76.2358C48.5154 76.1514 48.6825 76.1163 48.8569 76.1163C48.8787 76.1163 48.9005 76.1163 48.915 76.1163C49.0386 76.1373 49.0386 76.0108 49.0386 76.0108V75.2726Z" fill="#043E44"/>
<path fill-rule="evenodd" clip-rule="evenodd" d="M37.2361 75.2445H36.0733V74.1266C36.0733 74.0844 36.0951 74.0001 35.9861 74.0001H35.3393C35.1648 74.0141 35.034 74.1336 35.034 74.2813V75.2445H33.8857C33.8131 75.2445 33.8131 75.2866 33.8203 75.3218C33.9221 75.6522 34.1764 75.9686 34.5398 75.9827H34.9032C34.9613 75.9897 35.0122 76.0319 35.034 76.0881V77.7333C35.034 77.7333 35.034 78.0356 35.0921 78.2254C35.1212 78.3238 35.1866 78.4223 35.2738 78.5066C35.5064 78.7457 35.8625 78.8019 36.1314 78.8019C36.3349 78.8019 36.6111 78.7808 36.8436 78.7527C36.8873 78.7457 36.9162 78.7105 36.9162 78.6754V78.0778C36.9162 78.0285 36.8729 77.9934 36.8218 78.0004C36.7201 78.0145 36.6038 78.0215 36.5239 78.0215C36.4076 78.0215 36.2913 78.0074 36.1968 77.9161C36.0806 77.7965 36.0806 77.6489 36.0806 77.5224V76.7982H36.0878V76.1303C36.0878 76.053 36.1532 75.9897 36.2332 75.9827H36.5966C36.9599 75.9686 37.2069 75.6522 37.3161 75.3218C37.3161 75.2866 37.3087 75.2445 37.2361 75.2445Z" fill="#043E44"/>
<path d="M19.7751 78.736C19.7751 78.1087 19.1392 77.8873 18.6687 77.8996H16.4432C16.4432 78.5145 17.0791 78.736 17.5496 78.736H19.7751Z" fill="#043E44"/>
<path d="M18.6687 75.2305C19.1392 75.2305 19.7751 75.4396 19.7751 76.0669H17.5496C17.0791 76.0669 16.4432 75.8578 16.4432 75.2305H18.6687Z" fill="#043E44"/>
<path d="M18.6687 76.5589C19.1392 76.5589 19.7751 76.7803 19.7751 77.3953H17.5496C17.0791 77.3953 16.4432 77.1862 16.4432 76.5589H18.6687Z" fill="#043E44"/>
<path d="M27.5193 82.0711C27.0996 82.0711 26.8198 81.739 26.8198 81.3454C26.8198 80.9641 27.1123 80.6197 27.5193 80.6197C27.9262 80.6197 28.2187 80.9641 28.2187 81.3454C28.2187 81.739 27.9389 82.0711 27.5193 82.0711ZM27.5193 80.9641C27.3031 80.9641 27.214 81.1732 27.214 81.3454C27.214 81.5299 27.3158 81.7267 27.5193 81.7267C27.7227 81.7267 27.8244 81.5299 27.8244 81.3454C27.8244 81.1609 27.7354 80.9641 27.5193 80.9641Z" fill="#043E44"/>
<path d="M29.4648 82.071C29.3504 82.071 29.2741 81.9849 29.2741 81.8619V81.4806H28.7654V81.8619C28.7654 81.9849 28.6891 82.071 28.5746 82.071C28.4602 82.071 28.3839 81.9849 28.3839 81.8619V80.8287C28.3839 80.7057 28.4602 80.6196 28.5746 80.6196C28.6891 80.6196 28.7654 80.7057 28.7654 80.8287V81.1485H29.2741V80.8287C29.2741 80.7057 29.3504 80.6196 29.4648 80.6196C29.5793 80.6196 29.6555 80.7057 29.6555 80.8287V81.8619C29.6555 81.9849 29.5793 82.071 29.4648 82.071Z" fill="#043E44"/>
<path d="M30.9654 82.0712C30.8509 82.0712 30.7746 81.9852 30.7746 81.8622V80.9766H30.444V81.3825C30.444 81.8376 30.2405 82.0712 29.948 82.0712C29.8336 82.0712 29.7827 81.9852 29.7827 81.8991C29.7827 81.8253 29.8209 81.7638 29.8972 81.7392C29.9735 81.7145 30.0625 81.6408 30.0625 81.4194V80.8536C30.0625 80.7306 30.1388 80.6445 30.2533 80.6445H30.9781C31.0925 80.6445 31.1689 80.7306 31.1689 80.8536V81.8622C31.1689 81.9852 31.0798 82.0712 30.9654 82.0712Z" fill="#043E44"/>
<path d="M32.4276 82.0713C32.3386 82.0713 32.275 82.0344 32.2496 81.9114C32.186 82.0221 32.0207 82.0713 31.8808 82.0713C31.5629 82.0713 31.3467 81.9114 31.3467 81.6162C31.3467 81.1857 31.8681 81.1242 32.2368 81.1242V81.0258C32.2368 80.952 32.1732 80.9274 32.0715 80.9274C31.8426 80.9274 31.8045 81.0504 31.7027 81.0504C31.5756 81.0504 31.5374 80.9643 31.5374 80.8905C31.5374 80.7306 31.8554 80.6076 32.0842 80.6076C32.4403 80.6076 32.6438 80.7552 32.6438 81.0258V81.8622C32.6056 81.9852 32.542 82.0713 32.4276 82.0713ZM32.2368 81.4071C32.0079 81.4071 31.7027 81.3825 31.7027 81.6162C31.7027 81.7269 31.8172 81.7515 31.9316 81.7515C32.1351 81.7515 32.2241 81.6531 32.2241 81.4686V81.4071H32.2368Z" fill="#043E44"/>
<path d="M33.9032 82.0713C33.7887 82.0713 33.7124 81.9852 33.7124 81.8622V81.2964L33.1783 81.9852C33.1402 82.0344 33.0893 82.0713 33.013 82.0713C32.8985 82.0713 32.8223 81.9852 32.8223 81.8622V80.829C32.8223 80.706 32.8985 80.6199 33.013 80.6199C33.1274 80.6199 33.2038 80.706 33.2038 80.829V81.3825L33.6997 80.7306C33.7506 80.6568 33.8269 80.6199 33.8905 80.6199C34.0049 80.6199 34.0812 80.706 34.0812 80.829V81.8622C34.1066 81.9852 34.0176 82.0713 33.9032 82.0713ZM33.0384 80.2755C33.0384 80.2017 33.0893 80.1525 33.1656 80.1525C33.3309 80.1525 33.2801 80.3247 33.4581 80.3247C33.6107 80.3247 33.5853 80.1525 33.7506 80.1525C33.8269 80.1525 33.8777 80.214 33.8777 80.2755C33.8777 80.46 33.6743 80.5707 33.4581 80.5707C33.2419 80.5707 33.0384 80.46 33.0384 80.2755Z" fill="#043E44"/>
<path d="M35.4036 82.071C35.2891 82.071 35.2128 81.9849 35.2128 81.8619V81.4806H34.7041V81.8619C34.7041 81.9849 34.6278 82.071 34.5134 82.071C34.3989 82.071 34.3226 81.9849 34.3226 81.8619V80.8287C34.3226 80.7057 34.3989 80.6196 34.5134 80.6196C34.6278 80.6196 34.7041 80.7057 34.7041 80.8287V81.1485H35.2128V80.8287C35.2128 80.7057 35.2891 80.6196 35.4036 80.6196C35.518 80.6196 35.5943 80.7057 35.5943 80.8287V81.8619C35.607 81.9849 35.5307 82.071 35.4036 82.071Z" fill="#043E44"/>
<path d="M36.5228 81.4439H35.9506C35.8488 81.4439 35.798 81.3701 35.798 81.284C35.798 81.1856 35.8488 81.1118 35.9506 81.1118H36.5228C36.6246 81.1118 36.6754 81.1856 36.6754 81.284C36.6754 81.3701 36.6246 81.4439 36.5228 81.4439Z" fill="#043E44"/>
<path d="M37.5145 82.071C37.095 82.071 36.8151 81.7389 36.8151 81.3453C36.8151 80.964 37.1076 80.6196 37.5145 80.6196C37.6671 80.6196 37.9851 80.6811 37.9851 80.8533C37.9851 80.9271 37.9344 81.0378 37.8325 81.0378C37.7307 81.0378 37.6418 80.964 37.5274 80.964C37.3112 80.964 37.1968 81.1485 37.1968 81.3453C37.1968 81.5298 37.3112 81.7266 37.5274 81.7266C37.6289 81.7266 37.7689 81.6528 37.8196 81.6528C37.9088 81.6528 37.9851 81.7266 37.9851 81.8127C37.9977 82.0095 37.6545 82.071 37.5145 82.071Z" fill="#043E44"/>
<path d="M39.3079 80.878L38.6595 82.4647C38.6214 82.5507 38.5703 82.6123 38.4814 82.6123C38.3541 82.6123 38.2778 82.5262 38.2778 82.4524C38.2778 82.4155 38.2907 82.3786 38.3033 82.3417L38.4685 81.9358L38.0364 80.878C38.0234 80.8534 38.0234 80.8165 38.0234 80.7796C38.0234 80.6812 38.1252 80.6197 38.2015 80.6197C38.2907 80.6197 38.367 80.6689 38.3922 80.755L38.6595 81.4807L38.952 80.755C38.9902 80.6689 39.0535 80.6197 39.1427 80.6197C39.219 80.6197 39.3208 80.6935 39.3208 80.7796C39.3208 80.8165 39.3208 80.8411 39.3079 80.878Z" fill="#043E44"/>
<path d="M40.5161 82.0712C40.4017 82.0712 40.3254 81.9852 40.3254 81.8622V80.9766H39.8166V81.8622C39.8166 81.9852 39.7404 82.0712 39.6259 82.0712C39.5115 82.0712 39.4349 81.9852 39.4349 81.8622V80.8536C39.4349 80.7306 39.5115 80.6445 39.6259 80.6445H40.5161C40.6305 80.6445 40.7068 80.7306 40.7068 80.8536V81.8622C40.7068 81.9852 40.6305 82.0712 40.5161 82.0712Z" fill="#043E44"/>
<path d="M42.0673 81.4684H41.2405C41.2661 81.6529 41.4186 81.739 41.6093 81.739C41.8129 81.739 41.9526 81.5914 42.0544 81.5914C42.1436 81.5914 42.2199 81.6775 42.2199 81.7513C42.2199 81.9112 41.8763 82.0711 41.5838 82.0711C41.1516 82.0711 40.8591 81.7636 40.8591 81.3454C40.8591 80.9641 41.1516 80.6197 41.5586 80.6197C41.9781 80.6197 42.258 80.9887 42.258 81.3085C42.2451 81.4069 42.1943 81.4684 42.0673 81.4684ZM41.5457 80.9272C41.3679 80.9272 41.2531 81.0502 41.2405 81.2101H41.8637C41.8256 81.0502 41.7237 80.9272 41.5457 80.9272Z" fill="#043E44"/>
<path d="M43.1226 82.0712C42.9956 82.0712 42.8682 82.022 42.7667 81.9359V82.391C42.7667 82.514 42.6904 82.6001 42.5757 82.6001C42.4613 82.6001 42.385 82.514 42.385 82.391V80.8166C42.385 80.6936 42.4613 80.6075 42.5757 80.6075C42.6775 80.6075 42.7412 80.6813 42.7667 80.7797C42.843 80.669 42.9829 80.6075 43.1355 80.6075C43.555 80.6075 43.7587 80.9888 43.7587 81.3578C43.7713 81.7145 43.5169 82.0712 43.1226 82.0712ZM43.0718 80.9642C42.8682 80.9642 42.7667 81.161 42.7667 81.3332C42.7667 81.5177 42.8556 81.7268 43.0718 81.7268C43.2752 81.7268 43.377 81.53 43.377 81.3455C43.377 81.161 43.2752 80.9642 43.0718 80.9642Z" fill="#043E44"/>
<path d="M45.5263 82.0711C45.3993 82.0711 45.3356 81.9973 45.3227 81.8989L45.2212 81.1978L45.0049 81.9358C44.992 81.985 44.9413 82.0711 44.8013 82.0711C44.6617 82.0711 44.6106 81.9973 44.598 81.9358L44.3818 81.1978L44.28 81.8989C44.2674 81.985 44.2037 82.0711 44.0766 82.0711C43.9748 82.0711 43.8986 81.9973 43.8986 81.8866C43.8986 81.8743 43.8986 81.862 43.8986 81.8497L44.0893 80.7796C44.1019 80.7058 44.2037 80.6197 44.331 80.6197C44.4581 80.6197 44.5469 80.7058 44.5725 80.7796L44.8013 81.4807L45.0175 80.7796C45.0431 80.7058 45.132 80.6197 45.2593 80.6197C45.3989 80.6197 45.4881 80.7058 45.5008 80.7796L45.6915 81.8497C45.6915 81.862 45.6915 81.8743 45.6915 81.8866C45.7044 81.985 45.6281 82.0711 45.5263 82.0711Z" fill="#043E44"/>
<path d="M46.9251 82.0712C46.8359 82.0712 46.7723 82.0343 46.7471 81.9113C46.6834 82.022 46.5182 82.0712 46.3783 82.0712C46.0602 82.0712 45.844 81.9113 45.844 81.6161C45.844 81.1856 46.3653 81.1241 46.7341 81.1241V81.0257C46.7341 80.9519 46.6708 80.9273 46.569 80.9273C46.3401 80.9273 46.302 81.0503 46.2002 81.0503C46.0731 81.0503 46.0347 80.9642 46.0347 80.8904C46.0347 80.7305 46.3527 80.6075 46.5816 80.6075C46.9378 80.6075 47.1411 80.7551 47.1411 81.0257V81.8621C47.1029 81.9851 47.0396 82.0712 46.9251 82.0712ZM46.7341 81.407C46.5053 81.407 46.2002 81.3824 46.2002 81.6161C46.2002 81.7268 46.3146 81.7514 46.429 81.7514C46.6326 81.7514 46.7215 81.653 46.7215 81.4685V81.407H46.7341Z" fill="#043E44"/>
<path d="M48.0569 82.0712C47.9299 82.0712 47.8025 82.022 47.7007 81.9359V82.391C47.7007 82.514 47.6245 82.6001 47.51 82.6001C47.3956 82.6001 47.3193 82.514 47.3193 82.391V80.8166C47.3193 80.6936 47.3956 80.6075 47.51 80.6075C47.6118 80.6075 47.6755 80.6813 47.7007 80.7797C47.777 80.669 47.917 80.6075 48.0695 80.6075C48.4894 80.6075 48.6927 80.9888 48.6927 81.3578C48.7056 81.7145 48.4512 82.0712 48.0569 82.0712ZM48.0062 80.9642C47.8025 80.9642 47.7007 81.161 47.7007 81.3332C47.7007 81.5177 47.7899 81.7268 48.0062 81.7268C48.2095 81.7268 48.3113 81.53 48.3113 81.3455C48.3113 81.161 48.2095 80.9642 48.0062 80.9642Z" fill="#043E44"/>
<path d="M49.9389 82.0712C49.8626 82.0712 49.8116 82.022 49.7482 81.9605L49.2647 81.4562V81.8621C49.2647 81.9851 49.1884 82.0712 49.074 82.0712C48.9596 82.0712 48.8833 81.9851 48.8833 81.8621V80.8289C48.8833 80.7059 48.9596 80.6198 49.074 80.6198C49.1884 80.6198 49.2647 80.7059 49.2647 80.8289V81.1856L49.7098 80.6936C49.7608 80.6444 49.8371 80.6075 49.8879 80.6075C49.9897 80.6075 50.0533 80.6936 50.0533 80.7797C50.0533 80.8289 50.0278 80.8781 49.9771 80.9273L49.5953 81.2963L50.0786 81.7514C50.1167 81.7883 50.1296 81.8375 50.1296 81.8744C50.117 81.9974 50.0404 82.0712 49.9389 82.0712Z" fill="#043E44"/>
<path d="M51.3759 81.4683H50.5494C50.5747 81.6528 50.7275 81.7389 50.9182 81.7389C51.1215 81.7389 51.2615 81.5913 51.3633 81.5913C51.4522 81.5913 51.5285 81.6774 51.5285 81.7512C51.5285 81.9111 51.1852 82.071 50.8927 82.071C50.4602 82.071 50.1677 81.7635 50.1677 81.3453C50.1677 80.964 50.4602 80.6196 50.8672 80.6196C51.287 80.6196 51.5666 80.9886 51.5666 81.3084C51.5414 81.4068 51.4903 81.4683 51.3759 81.4683ZM50.8419 80.9271C50.6639 80.9271 50.5494 81.0501 50.5365 81.21H51.1597C51.1345 81.0501 51.0326 80.9271 50.8419 80.9271Z" fill="#043E44"/>
<path d="M52.6729 80.9766H52.4057V81.8621C52.4057 81.9852 52.3294 82.0712 52.215 82.0712C52.1005 82.0712 52.0243 81.9852 52.0243 81.8621V80.9766H51.7573C51.6555 80.9766 51.5918 80.915 51.5918 80.8166C51.5918 80.7183 51.6681 80.6568 51.7573 80.6568H52.6982C52.8 80.6568 52.8889 80.6936 52.8889 80.8166C52.8636 80.9273 52.7744 80.9766 52.6729 80.9766Z" fill="#043E44"/>
</svg>
