<svg width="143" height="394" viewBox="0 0 143 394" fill="none" xmlns="http://www.w3.org/2000/svg">
<style>path { fill: #fff; }</style>
<path d="M75.8901 394C46.714 394 15.7369 388.237 13.5757 379.232C7.09209 355.819 11.0543 283.419 11.0543 280.177L15.3767 280.537C15.3767 281.258 11.4145 355.459 17.5378 378.511C19.3388 385.355 59.6811 392.919 96.0612 388.957C111.55 387.156 137.484 382.113 138.204 365.544C139.285 342.131 111.55 337.809 91.3786 334.207C78.4115 332.046 69.0463 330.605 68.6861 324.482C67.9657 310.434 67.6055 280.537 67.6055 280.537H71.9279C71.9279 280.898 72.2881 310.434 73.0085 324.482C73.0085 327.003 83.4542 328.804 92.099 330.245C112.63 333.487 143.968 338.89 142.527 365.904C141.806 380.312 125.598 390.038 96.7816 393.28C89.9378 393.64 83.094 394 75.8901 394Z" />
<path d="M42.0313 284.86C21.8602 284.86 7.45224 281.258 6.37165 281.258C4.93085 280.898 3.12986 279.817 1.68906 276.935C-2.63332 267.57 2.40945 242.356 4.93085 237.674C5.29104 236.953 6.37164 236.233 7.45224 236.593C7.81244 236.593 46.7139 246.679 81.293 236.593C82.0134 236.593 82.3736 236.593 83.094 236.953C83.4542 237.314 83.8144 237.674 84.1746 238.394C84.895 242.356 91.3786 278.016 76.9706 281.258C64.3637 283.779 52.4771 284.86 42.0313 284.86ZM8.17264 240.915C6.01145 247.399 2.40946 267.93 5.65125 275.134C6.37164 276.575 7.09204 276.935 7.45224 276.935C7.81244 276.935 40.5905 284.86 75.89 276.935C83.4542 275.134 82.7338 254.963 80.2124 241.276C48.8751 249.56 16.097 242.716 8.17264 240.915Z" />
<path d="M44.9128 -3.48267H41.3108V242.356H44.9128V-3.48267Z" />
</svg>
