<svg width="211" height="355" viewBox="0 0 211 355" fill="none" xmlns="http://www.w3.org/2000/svg">
<path d="M107.481 67.0558C108.885 43.288 109.104 19.3775 108.724 -4.49573C108.763 -5.14789 104.302 -5.41146 104.561 -4.74172C104.643 19.1139 104.721 43.042 103.317 66.8098C103.279 67.4619 107.442 67.7079 107.481 67.0558Z" fill="white"/>
<path d="M47.6157 197.207C44.6366 186.185 40.7639 175.162 37.7848 164.14C36.8911 160.565 35.9973 156.99 35.1036 153.713C34.5078 151.33 30.635 153.415 36.5931 154.607C45.2324 156.394 53.5738 158.48 61.9152 161.161C66.3838 162.65 77.1084 168.311 81.8749 165.629C91.11 160.267 95.5786 137.328 98.2597 127.795C101.537 115.879 104.516 103.963 107.495 92.0466C106.005 92.0466 104.814 92.0466 103.324 92.0466C107.197 108.134 111.07 124.518 115.836 140.307C118.22 148.351 122.092 159.075 128.05 165.034C132.519 169.502 149.797 160.267 155.16 158.778C160.224 157.288 165.289 156.096 170.651 154.905C172.438 154.607 174.524 154.011 176.311 153.713C179.29 153.117 176.013 149.542 175.417 153.117C172.438 165.927 168.268 178.439 164.395 190.951C161.416 201.378 164.991 200.484 174.822 205.549C185.546 211.209 196.271 216.869 206.698 223.125C207.591 219.848 206.996 219.253 205.208 221.04C203.719 221.934 201.931 223.125 200.441 224.019C194.781 227.296 189.121 230.573 183.461 233.552C179.29 235.637 163.203 240.106 163.203 246.064C163.203 257.682 171.247 272.28 174.226 283.898C174.822 285.983 175.12 288.367 175.715 290.452C176.609 294.027 179.886 290.452 176.609 289.856C170.949 288.665 165.289 287.175 159.628 285.983C151.883 284.196 136.69 275.259 129.54 278.238C123.582 280.621 119.411 294.623 117.028 300.879C111.368 317.264 107.495 334.244 103.324 351.225C104.814 351.225 106.005 351.225 107.495 351.225C103.026 333.053 99.7493 313.391 92.3016 296.41C87.2372 284.792 86.0456 276.45 73.8314 279.43C64.8942 281.515 56.2551 284.792 47.3179 287.175C43.743 288.069 40.168 288.963 36.5931 289.558C30.0392 291.048 35.4016 289.26 34.8058 292.537C38.0827 277.046 43.445 262.151 47.6157 246.958C49.4031 240.702 25.2728 232.956 20.5063 230.275C15.4419 227.594 10.3775 224.317 5.61103 221.338C2.92987 219.55 2.92987 224.317 5.61103 222.529C8.29218 220.742 10.9732 219.252 13.6543 217.763C21.6978 212.996 44.3387 206.145 47.9135 198.101C49.1052 195.42 44.9346 194.526 43.743 196.91C41.6576 201.676 23.7833 207.038 18.4209 210.017C12.7607 213.294 7.10048 216.571 1.44027 220.146C-0.0492625 221.04 -0.0492625 222.827 1.44027 223.721C13.6544 231.467 26.4643 237.723 38.9764 244.575C46.424 248.447 32.4225 284.196 30.635 292.239C30.3371 294.027 31.5288 295.219 33.3163 294.921C42.2534 293.133 51.1906 291.048 60.1278 288.367C65.1922 286.877 78.0021 279.727 82.1727 286.877C85.7476 292.537 88.4289 298.496 90.5143 305.049C95.5787 320.541 99.4514 336.628 103.324 352.714C103.92 354.8 106.899 354.8 107.495 352.714C111.368 336.628 115.538 320.838 120.305 305.049C121.794 300.581 123.582 296.41 125.667 291.942C131.625 280.025 140.86 285.09 150.691 288.367C159.33 291.346 168.565 293.133 177.503 294.921C178.992 295.219 180.482 294.027 180.184 292.239C178.396 284.196 164.097 249.043 171.843 244.575C184.355 237.425 197.165 231.467 209.379 223.721C210.868 222.827 210.868 221.04 209.379 220.146C197.165 212.401 184.355 206.145 171.843 199.293C164.395 195.42 178.396 159.671 180.184 151.628C180.482 149.84 179.29 148.649 177.503 148.947C168.565 150.734 159.33 152.819 150.691 155.501C145.627 156.99 132.817 164.14 128.646 156.99C125.071 151.032 122.39 145.372 120.305 138.818C115.24 123.029 111.666 106.644 107.793 90.557C107.197 88.4717 104.218 88.4717 103.622 90.557C99.7492 106.644 95.5786 123.029 90.8121 138.818C89.3226 143.584 87.5352 147.457 85.4498 151.926C79.4917 163.842 70.2565 158.778 60.4256 155.501C51.7864 152.522 42.5513 150.734 33.6141 148.947C32.1246 148.649 30.6351 149.84 30.933 151.628C34.5079 167.417 39.8701 182.312 44.0408 197.803C44.0408 201.08 48.2115 199.889 47.6157 197.207Z" fill="white"/>
<path d="M106.602 89.6635C101.537 86.9823 94.6854 71.7891 103.027 68.8101C108.389 67.0226 113.156 72.3849 112.56 77.4493C111.964 82.2158 108.389 86.9823 104.516 89.6635C102.133 91.153 104.516 95.0258 106.602 93.2384C112.262 89.3656 116.433 83.1096 117.028 75.9598C117.624 68.8101 110.177 63.4477 103.325 64.3415C97.3667 64.9373 95.2812 71.1933 95.5791 76.5556C95.5791 83.1096 98.8562 89.9614 104.814 93.2384C106.9 94.7279 108.985 91.153 106.602 89.6635Z" fill="white"/>
</svg>
