<svg width="198" height="519" viewBox="0 0 198 519" fill="none" xmlns="http://www.w3.org/2000/svg">
<path d="M105.992 248.955C105.992 165.257 105.626 81.9041 104.894 -1.79359C104.894 -4.89351 99.7749 -4.89351 99.7749 -1.79359C100.506 81.9041 100.872 165.257 100.872 248.955C100.872 252.055 105.992 252.055 105.992 248.955Z" fill="white"/>
<path d="M100.391 321.639C99.6592 316.519 96.7337 310.668 94.5395 305.914C93.8082 307.377 93.0766 308.474 92.3452 309.937C99.6591 310.302 106.607 310.668 113.921 309.571C112.824 308.839 111.727 307.742 110.63 307.011C110.996 312.131 109.899 317.25 109.167 322.004C108.802 325.296 113.555 326.758 114.287 323.467C115.018 317.982 116.481 312.496 115.75 307.011C115.75 305.183 114.287 304.085 112.458 304.451C105.876 305.548 98.9277 305.183 92.3452 304.817C90.1511 304.817 89.4198 307.011 90.1512 308.839C92.3453 313.228 94.9052 318.348 95.6366 323.102C96.0023 326.027 101.122 324.93 100.391 321.639Z" fill="white"/>
<path d="M104.414 304.817C95.2721 297.869 91.2494 287.995 90.1523 276.659C89.7866 269.71 94.5407 248.135 106.243 252.889C116.482 257.277 116.848 272.27 115.019 281.413C113.191 290.189 108.437 298.966 101.123 304.451C98.5632 306.645 101.123 311.034 103.683 308.84C113.922 301.16 119.042 289.092 120.871 276.659C121.968 267.151 117.945 248.866 105.877 247.037C94.5406 245.209 88.6895 256.545 85.7639 266.054C81.0099 281.047 88.3238 299.332 100.392 308.474C103.317 310.668 106.974 307.011 104.414 304.817Z" fill="white"/>
<path d="M100.026 320.542C45.172 319.81 6.04279 366.985 0.557398 418.913C-5.65938 478.521 57.2399 525.695 113.557 518.016C169.508 510.336 202.054 460.602 196.569 406.479C191.083 354.917 150.126 320.907 100.026 320.542C96.7347 320.542 96.7347 325.661 100.026 325.661C145.738 326.027 180.478 353.82 189.986 398.8C200.226 445.974 174.627 493.514 129.281 509.239C72.599 528.621 4.9458 483.275 5.67719 423.301C6.40858 372.47 48.4632 325.296 100.026 325.661C103.317 325.661 103.317 320.542 100.026 320.542Z" fill="white"/>
</svg>
