<svg width="231" height="232" viewBox="0 0 231 232" fill="none" xmlns="http://www.w3.org/2000/svg">
<path d="M140.817 116.409C151.226 140.931 161.711 165.422 172.152 190.023C172.561 191.047 171.046 191.648 170.637 190.624C160.228 166.102 149.743 141.611 139.302 117.01C138.893 115.986 140.408 115.385 140.817 116.409Z" fill="white" stroke="white"/>
<path d="M171.759 191.126C144.75 199.958 118.988 212.369 92.5351 222.592C91.5123 222.998 90.8595 221.362 91.8823 220.956C118.414 210.702 144.098 198.321 171.106 189.49C172.161 189.165 172.814 190.801 171.759 191.126Z" fill="white" stroke="white"/>
<path d="M91.6451 221.261C81.3132 197.612 70.9369 174.073 60.605 150.424C60.1956 149.4 61.6356 148.829 62.1208 149.823C72.4527 173.472 82.829 197.011 93.1609 220.66C93.6461 221.654 92.1303 222.255 91.6451 221.261Z" fill="white" stroke="white"/>
<path d="M140.437 117.573C113.321 126.996 87.872 140.588 61.5865 151.86C60.5642 152.266 59.9106 150.631 60.9329 150.226C87.297 138.922 112.7 125.443 139.783 115.938C140.76 115.646 141.413 117.281 140.437 117.573Z" fill="white" stroke="white"/>
<path d="M60.2574 151.386C60.2048 151.037 57.7857 149.487 57.2825 149.129C55.4886 147.797 53.65 146.574 51.8114 145.352C48.0245 142.857 44.2377 140.363 40.3615 138.088C39.4198 137.531 40.0457 135.996 40.9873 136.552C45.444 139.155 49.8112 141.978 54.1338 144.91C56.1144 146.261 58.0951 147.613 60.031 149.075C60.6764 149.562 61.76 150.247 61.8531 151.134C62.0759 152.339 60.4478 152.511 60.2574 151.386Z" fill="white" stroke="white"/>
<path d="M107.486 109.639C95.8983 113.479 84.6167 118.997 73.3884 123.736C61.8455 128.6 50.3679 133.628 38.727 138.247C37.7045 138.652 37.0513 137.017 38.0738 136.611C49.7147 131.992 61.1923 126.965 72.7352 122.101C83.9635 117.361 95.2451 111.843 106.833 108.003C107.888 107.679 108.541 109.315 107.486 109.639Z" fill="white" stroke="white"/>
<path d="M91.7904 222.896C83.2266 219.084 74.4462 216.283 65.7556 213.262C64.7188 212.923 65.3479 211.38 66.3847 211.719C75.1855 214.79 83.966 217.591 92.4196 221.353C93.489 221.772 92.7823 223.345 91.7904 222.896Z" fill="white" stroke="white"/>
<path d="M38.7407 137.994C48.509 162.676 57.4125 187.61 66.8777 212.412C67.2866 213.436 65.7715 214.037 65.3626 213.013C55.8974 188.211 46.9939 163.277 37.2256 138.596C36.8168 137.572 38.3319 136.97 38.7407 137.994Z" fill="white" stroke="white"/>
<path d="M98.2179 134.902C108.085 158.92 119.088 182.487 129.713 206.204C130.198 207.198 128.682 207.799 128.197 206.805C117.68 183.136 106.569 159.521 96.702 135.503C96.2924 134.479 97.8084 133.878 98.2179 134.902Z" fill="white" stroke="white"/>
<path d="M97.0334 136.177C89.364 130.556 80.7005 126.893 72.0696 123.311C71.0803 122.863 71.7078 121.324 72.6971 121.772C81.4379 125.404 90.2439 129.196 98.0232 134.867C98.9229 135.535 97.9331 136.845 97.0334 136.177Z" fill="white" stroke="white"/>
<path d="M123.178 113.855C112.477 118.757 101.777 123.659 90.9652 128.511C77.7028 134.522 64.3874 141.313 50.5692 145.935C49.5144 146.259 48.8606 144.624 49.9155 144.301C63.7336 139.678 77.049 132.888 90.3114 126.876C101.044 122.056 111.745 117.154 122.524 112.22C123.513 111.734 124.167 113.368 123.178 113.855Z" fill="white" stroke="white"/>
<path d="M50.892 144.841C59.5028 169.062 69.6596 192.76 79.5135 216.578C79.922 217.602 78.4074 218.203 77.9989 217.179C68.145 193.361 58.0196 169.742 49.3773 145.443C49.0446 144.389 50.5593 143.788 50.892 144.841Z" fill="white" stroke="white"/>
<path d="M86.9398 125.115C88.9238 119.607 90.0701 113.59 91.0488 107.823C92.1747 101.534 94.1352 92.8785 91.5542 86.5456C90.4107 83.7399 87.2511 84.597 85.5135 86.2942C82.7947 89.1159 83.267 94.6899 83.4089 98.3494C83.9294 106.691 86.4322 114.818 87.2183 123.149C87.2794 123.961 86.2248 124.464 85.7427 123.723C82.4418 119.156 81.6754 112.861 80.3161 107.539C79.4752 104.151 78.524 100.713 76.9515 97.5171C76.3184 96.1845 75.3747 94.9727 74.2183 94.1223C73.7116 93.7621 71.3742 92.4422 70.7282 93.0648C69.8369 93.9686 71.6178 97.4551 72.0549 98.3067C73.3087 101.162 74.7955 103.927 76.2497 106.612C79.301 112.112 82.663 117.491 85.7143 122.991C85.1707 123.203 84.7047 123.384 84.161 123.595C78.9121 114.028 73.0158 96.9115 60.1251 96.6305C60.3704 96.3494 60.5831 95.9881 60.8284 95.707C61.1288 102.184 67.0901 107.759 71.4333 112.014C75.8869 116.319 80.7862 120.171 85.0394 124.647C85.7095 125.408 84.5852 126.402 83.9028 125.832C75.7021 119.176 66.8213 104.892 54.8448 108.62C54.9798 108.289 55.1598 107.848 55.2947 107.517C60.572 117.816 74.5408 120.742 83.8825 125.561C84.9082 126.091 84.2456 127.556 83.2525 127.106C75.913 124.109 65.5554 113.928 57.9758 120.497C57.9678 120.036 57.9597 119.575 57.9517 119.113C61.7599 122.276 66.5494 124.314 71.1755 125.951C75.9119 127.639 82.0093 129.354 85.4358 124.957C90.604 118.211 90.7387 106.179 101.222 105.631C103.237 105.498 105.902 105.855 106.428 108.25C106.955 110.646 104.359 113.327 103.055 114.763C100.679 117.544 97.7968 119.965 94.8943 122.115C93.7373 123.029 92.6254 123.833 91.3704 124.507C89.3265 125.673 86.2611 125.657 84.6012 127.324C83.8326 128.088 82.5005 127.027 83.2692 126.264C85.4974 124.004 89.2494 123.938 91.9393 122.149C94.7518 120.22 97.356 118 99.8172 115.65C100.987 114.545 105.929 110.116 104.626 108.023C103.772 106.59 99.9384 107.338 98.7858 107.6C96.4805 108.125 94.9512 110.113 93.655 112.01C89.9217 117.641 88.9537 128.511 80.869 129.426C76.6387 129.863 71.98 128.146 68.0282 126.618C64.1868 125.14 60.1493 123.181 56.9908 120.509C56.5618 120.118 56.5661 119.467 56.9667 119.125C65.27 111.903 75.8809 122.264 83.9601 125.531C83.7351 126.082 83.5552 126.524 83.3302 127.076C73.4043 121.927 59.4354 119.001 53.8967 108.06C53.7334 107.66 53.9583 107.108 54.3467 106.957C67.2878 102.946 76.1686 117.231 85.0517 124.456C84.6838 124.878 84.2831 125.219 83.9151 125.641C78.8038 120.385 73.0016 115.862 67.8902 110.606C64.021 106.631 59.6494 101.645 59.267 95.8497C59.259 95.3885 59.5167 94.9169 59.9703 94.9262C73.989 95.3258 80.106 112.542 85.8246 123.041C86.327 124.053 84.8514 124.627 84.2713 123.645C80.5746 117.003 76.5223 110.592 72.9809 103.89C71.8657 101.816 66.7513 93.6825 69.9522 91.6021C71.2194 90.7379 73.6918 91.7267 74.8932 92.4668C77.537 94.3177 78.9338 97.3035 80.0323 100.22C82.6744 107.364 82.6919 116.459 87.2103 122.688C86.7443 122.869 86.2006 123.081 85.7346 123.262C84.8794 113.658 81.6986 104.308 81.8283 94.6921C81.8745 91.0524 82.2886 86.991 85.1381 84.49C86.8633 82.9833 89.6673 82.3574 91.694 83.7981C93.8638 85.369 94.1283 88.8879 94.3115 91.3241C94.637 95.6551 94.0553 99.9674 93.4409 104.2C92.4413 111.46 91.0411 119.063 88.5948 125.864C88.0795 126.808 86.5348 126.108 86.9398 125.115Z" fill="white" stroke="white"/>
<path d="M140.066 117.946C129.078 115.064 118.089 112.183 107.1 109.302C106.094 109.042 106.283 107.296 107.322 107.636C118.311 110.517 129.299 113.398 140.288 116.28C141.294 116.539 141.072 118.205 140.066 117.946Z" fill="white" stroke="white"/>
<path d="M119.992 112.831C115.252 100.749 110.512 88.6672 105.773 76.5853C105.363 75.5613 106.879 74.9602 107.288 75.9842C112.028 88.0661 116.768 100.148 121.507 112.23C121.917 113.254 120.401 113.855 119.992 112.831Z" fill="white" stroke="white"/>
<path d="M105.63 74.3072C128.034 66.7408 149.72 57.3751 171.373 47.9277C172.395 47.5218 173.015 49.0757 172.026 49.5634C150.373 59.0108 128.687 68.3764 106.283 75.9428C105.228 76.267 104.575 74.6313 105.63 74.3072Z" fill="white" stroke="white"/>
<path d="M173.871 48.2411C187.192 79.1787 200.481 110.038 213.878 140.945C217.439 149.204 221.001 157.462 224.562 165.721C224.971 166.745 223.456 167.346 223.047 166.322C209.726 135.384 196.437 104.525 183.04 73.6179C179.478 65.3594 175.917 57.1009 172.355 48.8423C171.947 47.8184 173.462 47.2172 173.871 48.2411Z" fill="white" stroke="white"/>
<path d="M224.091 166.864C213.076 170.755 201.847 173.88 190.93 178.016C183.821 180.738 176.823 183.511 169.779 186.396C168.757 186.801 168.103 185.167 169.125 184.762C176.169 181.876 183.2 179.185 190.277 176.381C201.16 172.163 212.39 169.039 223.437 165.23C224.459 164.825 225.113 166.459 224.091 166.864Z" fill="white" stroke="white"/>
<path d="M172.828 49.5923C166.383 46.5446 159.905 43.4171 153.46 40.3695C152.47 39.9214 153.099 38.3814 154.088 38.8295C160.533 41.8772 167.011 45.0047 173.456 48.0523C174.446 48.5004 173.85 50.1203 172.828 49.5923Z" fill="white" stroke="white"/>
<path d="M154.154 40.6508C141.169 47.6017 126.633 52.0416 112.817 57.1432C105.201 59.9748 97.5528 62.7246 89.9043 65.4744C88.8819 65.88 88.2286 64.2447 89.251 63.8392C96.8995 61.0894 104.548 58.3396 112.164 55.508C125.98 50.4064 140.437 45.9977 153.501 39.0156C154.458 38.4465 155.033 40.1129 154.154 40.6508Z" fill="white" stroke="white"/>
<path d="M105.628 76.1215C100.147 72.9901 94.2928 69.8196 89.357 65.8299C88.5364 65.1334 89.5246 63.8257 90.3452 64.5222C95.2484 68.4321 100.884 71.5034 106.255 74.5851C107.197 75.1418 106.571 76.6782 105.628 76.1215Z" fill="white" stroke="white"/>
<path d="M90.2858 64.423C95.9405 79.2416 101.671 94.0301 107.976 108.499C108.385 109.523 106.946 110.094 106.461 109.101C100.124 94.5526 94.3938 79.7641 88.7705 65.0243C88.3616 64.0004 89.8768 63.3991 90.2858 64.423Z" fill="white" stroke="white"/>
<path d="M140.575 45.7157C143.532 49.5738 147.692 52.0435 151.655 54.682C152.966 55.5352 154.289 56.2007 155.087 57.5305C155.872 59.0479 156.702 60.4565 157.487 61.974C160.596 67.9649 163.63 73.9859 166.479 79.9879C172.9 93.3518 179.125 106.884 185.123 120.507C192.538 137.225 199.834 154.081 206.901 171.027C207.313 172.053 205.793 172.652 205.382 171.627C198.612 155.203 191.538 138.899 184.312 122.654C178.315 109.032 172.09 95.499 165.669 82.1351C162.756 75.9753 159.691 69.8755 156.582 63.8846C155.892 62.6037 155.201 61.3229 154.48 59.9631C153.46 58.0813 152.377 57.1381 150.573 55.9317C146.749 53.4209 142.849 50.9401 139.79 47.4874C139.588 47.2019 139.385 46.9164 139.214 46.7098C138.606 45.8533 139.891 44.8892 140.575 45.7157Z" fill="white" stroke="white"/>
<path d="M132.394 48.0539C135.326 50.0949 138.182 52.1659 140.949 54.4546C143.545 56.5367 146.68 58.8632 148.327 61.8684C152.748 69.8094 156.668 78.0393 160.709 86.1303C174.707 114.415 187.553 143.337 198.847 172.78C199.259 173.805 197.74 174.405 197.328 173.38C186.35 144.726 173.929 116.641 160.431 89.1641C156.168 80.5209 151.906 71.8778 147.371 63.4335C145.661 60.2706 142.71 57.963 139.974 55.7531C137.207 53.4644 134.351 51.3934 131.419 49.3524C130.494 48.8035 131.469 47.505 132.394 48.0539Z" fill="white" stroke="white"/>
<path d="M141.875 48.1417C144.984 41.6387 150.627 36.9365 154.608 31.0236C156.911 27.6205 158.588 23.3459 157.388 19.0761C155.94 13.9745 151.003 10.6936 146.007 11.2433C137.545 12.1197 135.792 21.0672 136.618 28.1754C137.457 35.0931 140.111 42.0478 143.501 48.1591C142.958 48.3705 142.492 48.5518 141.948 48.7633C139.085 43.2829 138.18 36.205 138.641 30.2679C138.945 26.156 141.756 21.3482 146.578 23.4661C150.298 25.0844 148.68 31.9359 148.086 34.6744C147.013 39.5496 145.343 44.2854 143.497 48.8109C143.227 49.4731 142.508 49.4743 142.046 49.0038C135.676 41.5438 128.152 9.82889 114.142 20.9426C100.133 32.0563 135.421 44.8934 142.451 48.0104C142.193 48.4821 141.935 48.9538 141.6 49.4558C140.358 48.1743 138.527 47.2147 137.039 46.2144C134.064 44.2138 131.089 42.2132 128.159 40.1022C125.483 38.1713 122.773 36.1602 120.387 33.8378C119.035 32.5063 117.253 30.7845 117.266 28.8291C117.222 27.1747 118.71 26.4101 120.096 26.0568C122.933 25.5107 125.5 27.3916 127.58 29.1831C133.864 34.4472 138.121 41.8004 143.436 47.9987C144.139 48.8399 142.826 49.8147 142.123 48.9736C137.972 44.087 134.422 38.688 130.149 33.942C128.028 31.609 125.303 28.6755 122.254 27.8181C120.1 27.1699 118.321 28.326 119.702 30.3894C122.594 34.8369 128.14 38.0666 132.414 41.0478C135.675 43.3086 139.901 45.2871 142.782 48.1603C143.419 48.8411 142.892 49.9751 141.931 49.6057C133.941 46.1192 99.1016 33.9432 112.119 20.615C127.488 4.8864 136.715 40.1181 143.514 47.9685C142.905 48.0197 142.373 48.0406 141.875 48.1417C143.135 45.0511 144.33 41.8002 145.259 38.5598C146.324 34.9882 148.096 29.8411 146.671 26.1232C145.965 24.169 143.238 24.7651 141.97 25.6296C139.914 26.9867 140.063 31.1078 140.115 33.2235C140.138 38.137 141.063 43.7209 143.391 48.1091C143.893 49.1211 142.417 49.6951 141.837 48.7134C135.715 37.4424 127.534 12.9485 145.632 9.43901C154.299 7.74005 161.138 17.8967 158.816 25.6719C156.098 34.9018 147.384 40.2409 143.354 48.6808C142.982 49.7543 141.437 49.0549 141.875 48.1417Z" fill="white"/>
<path d="M141.875 48.1417C144.984 41.6387 150.627 36.9365 154.608 31.0236C156.911 27.6205 158.588 23.3459 157.388 19.0761C155.94 13.9745 151.003 10.6936 146.007 11.2433C137.545 12.1197 135.792 21.0672 136.618 28.1754C137.457 35.0931 140.111 42.0478 143.501 48.1591C142.958 48.3705 142.492 48.5518 141.948 48.7633C139.085 43.2829 138.18 36.2049 138.641 30.2679C138.945 26.156 141.756 21.3482 146.578 23.4661C150.298 25.0844 148.68 31.9359 148.086 34.6744C147.013 39.5496 145.343 44.2854 143.497 48.8109C143.227 49.4731 142.508 49.4743 142.046 49.0038C135.676 41.5438 128.152 9.82889 114.142 20.9426C100.133 32.0563 135.421 44.8934 142.451 48.0104C142.193 48.4821 141.935 48.9538 141.6 49.4558C140.358 48.1743 138.527 47.2147 137.039 46.2144C134.064 44.2138 131.089 42.2132 128.159 40.1022C125.483 38.1713 122.773 36.1602 120.387 33.8378C119.035 32.5063 117.253 30.7845 117.266 28.8291C117.222 27.1747 118.71 26.4101 120.096 26.0568C122.933 25.5107 125.5 27.3916 127.58 29.1831C133.864 34.4472 138.121 41.8004 143.436 47.9987C144.139 48.8399 142.826 49.8147 142.123 48.9736C137.972 44.087 134.422 38.688 130.149 33.942C128.028 31.609 125.303 28.6755 122.254 27.8181C120.1 27.1699 118.321 28.326 119.702 30.3894C122.594 34.8369 128.14 38.0666 132.414 41.0478C135.675 43.3086 139.901 45.2871 142.782 48.1603C143.419 48.8411 142.892 49.9751 141.931 49.6057C133.941 46.1192 99.1016 33.9432 112.119 20.615C127.488 4.8864 136.715 40.1181 143.514 47.9685C142.905 48.0197 142.373 48.0406 141.875 48.1417ZM141.875 48.1417C143.135 45.0511 144.33 41.8002 145.259 38.5598C146.324 34.9882 148.096 29.8411 146.671 26.1232C145.965 24.169 143.238 24.7651 141.97 25.6296C139.914 26.9867 140.063 31.1078 140.115 33.2235C140.138 38.137 141.063 43.7209 143.391 48.1091C143.893 49.1211 142.417 49.6951 141.837 48.7134C135.715 37.4424 127.534 12.9485 145.632 9.43901C154.299 7.74005 161.138 17.8967 158.816 25.6719C156.098 34.9018 147.384 40.2409 143.354 48.6808C142.982 49.7543 141.437 49.0549 141.875 48.1417Z" stroke="white"/>
</svg>
