<svg width="462" height="439" viewBox="0 0 462 439" fill="none" xmlns="http://www.w3.org/2000/svg">
<path d="M262.798 411.598C267.579 408.177 260.774 402.447 258.372 399.891C254.908 396.014 248.583 392.686 243.713 396.013C239.499 398.902 238.249 407.028 243.118 409.941C248.165 413.043 256.887 412.872 262.52 411.681C263.442 411.528 263.119 410.049 262.286 410.297C258.775 411.099 254.93 410.789 251.447 410.674C248.608 410.489 245.496 410.203 243.167 408.291C240.032 405.71 241.445 401.352 243.182 398.473C246.55 393.17 253.314 397.155 256.622 400.108C258.679 401.919 265.201 407.915 261.73 410.462C261.069 411.083 262.048 412.124 262.798 411.598Z" fill="white" stroke="white"/>
<path d="M252.254 399.233C249.457 397.58 246.861 398.413 244.689 400.453C244.028 401.074 245.007 402.116 245.669 401.495C247.368 399.898 249.408 399.231 251.577 400.404C252.205 400.884 253.066 399.719 252.254 399.233Z" fill="white" stroke="white"/>
<path d="M242.565 397.827C241.292 397.418 240.235 395.914 239.097 397.162C237.864 398.498 237.149 400.953 237.094 402.788C237.083 403.154 237.35 403.439 237.806 403.545C238.812 403.67 239.819 403.795 240.83 403.737C241.753 403.584 241.424 402.288 240.596 402.352C239.951 402.423 238.672 402.197 237.939 402.173C238.206 402.457 238.384 402.646 238.651 402.931C238.699 401.28 239.293 399.831 240.159 398.482C240.254 398.393 239.714 398.008 240.165 398.299C240.343 398.488 240.615 398.589 240.704 398.684C241.154 398.974 241.699 399.175 242.244 399.377C242.972 399.584 243.472 398.224 242.565 397.827Z" fill="white" stroke="white"/>
<path d="M260.9 340.044C263.703 335.272 256.154 332.912 252.974 331.797C248.25 330.173 239.312 328.227 236.921 334.573C234.631 340.647 237.726 347.725 244.806 347.316C247.745 347.229 250.823 345.587 253.428 344.387C255.94 343.277 258.639 341.989 260.8 340.316C261.55 339.79 260.571 338.748 259.821 339.274C254.273 343.773 238.54 351.24 237.614 339.094C237.019 331.272 245.199 330.899 250.658 332.547C253.115 333.271 261.853 335.761 259.816 339.458C259.155 340.078 260.417 340.854 260.9 340.044Z" fill="white" stroke="white"/>
<path d="M246.046 333.503C242.837 333.305 240.853 335.169 239.76 337.981C239.46 338.797 240.734 339.207 241.128 338.301C242.022 336.034 243.439 334.703 246.008 334.788C246.831 334.907 246.869 333.622 246.046 333.503Z" fill="white" stroke="white"/>
<path d="M236.77 336.516C235.481 336.657 233.947 335.78 233.348 337.413C232.743 339.229 233.223 341.631 234.091 343.312C234.175 343.59 234.536 343.785 234.908 343.614C235.836 343.277 236.853 343.035 237.603 342.509C238.352 341.983 237.657 340.675 236.907 341.202C236.252 341.639 235.235 341.881 234.49 342.223C234.763 342.324 235.035 342.425 235.307 342.526C234.706 341.129 234.394 339.283 234.715 337.733C234.715 337.733 234.076 337.62 234.531 337.727C234.804 337.828 235.082 337.745 235.448 337.757C235.999 337.776 236.549 337.794 237.01 337.717C237.927 337.747 237.598 336.451 236.77 336.516Z" fill="white" stroke="white"/>
<path d="M253.766 280.528C257.196 276.235 249.687 272.592 246.885 271.123C241.915 268.481 235.001 266.418 230.993 271.609C227.268 276.534 229.985 283.966 235.726 285.348C238.827 286.001 242.627 284.75 245.588 283.929C248.272 283.192 251.144 282.277 253.571 280.888C254.41 280.457 253.715 279.149 252.876 279.58C246.527 283.226 228.749 288.514 231.068 275.283C232.285 268.256 239.96 269.427 244.668 271.601C246.93 272.685 255.263 276.447 252.593 279.846C252.115 280.473 253.288 281.154 253.766 280.528Z" fill="white" stroke="white"/>
<path d="M240.075 272.005C236.972 271.352 234.632 272.836 233.177 275.452C232.694 276.263 233.956 277.039 234.44 276.228C235.6 274.246 237.295 272.832 239.759 273.373C240.582 273.492 240.987 272.219 240.075 272.005Z" fill="white" stroke="white"/>
<path d="M230.566 273.634C229.282 273.592 227.753 272.532 227.065 274.07C226.188 275.785 226.301 278.175 226.797 280.027C226.97 280.4 227.237 280.684 227.609 280.513C228.531 280.36 229.637 280.213 230.476 279.781C231.315 279.35 230.708 278.137 229.78 278.473C229.78 278.473 229.041 278.633 228.764 278.715C228.302 278.792 227.747 278.957 227.286 279.034C227.558 279.134 227.825 279.419 228.097 279.519C227.685 277.945 227.734 276.295 228.238 274.751C228.333 274.662 228.338 274.479 228.338 274.479C227.788 274.461 227.693 274.549 227.877 274.555C228.149 274.656 228.422 274.757 228.788 274.769C229.333 274.97 229.883 274.989 230.434 275.007C231.44 275.132 231.483 273.664 230.566 273.634Z" fill="white" stroke="white"/>
<path d="M279.402 226.894C286.955 222.83 271.064 204.781 263.333 208.656C257.835 211.502 255.596 218.953 260.699 223.25C264.73 226.594 273.975 227.358 278.941 226.971C279.769 226.906 279.901 225.534 278.984 225.504C271.168 226.072 252.088 222.783 261.691 211.446C265.587 206.895 271.34 210.938 274.365 214.157C275.966 215.862 282.439 223.507 278.618 225.492C277.868 226.018 278.564 227.325 279.402 226.894Z" fill="white" stroke="white"/>
<path d="M270.546 213.3C268.122 211.476 265.355 211.936 262.922 213.508C262.172 214.034 262.778 215.247 263.617 214.816C265.678 213.415 267.712 212.931 269.775 214.56C270.492 215.134 271.264 213.874 270.546 213.3Z" fill="white" stroke="white"/>
<path d="M261.26 210.805C260.265 210.313 259.213 208.626 257.991 209.596C256.485 210.831 255.409 213.091 255.077 215.008C254.977 215.28 255.333 215.659 255.605 215.76C256.517 215.974 257.607 216.377 258.524 216.407C259.441 216.437 259.485 214.97 258.567 214.94C257.739 215.004 256.833 214.607 255.921 214.393C256.099 214.583 256.183 214.861 256.45 215.145C256.571 214.139 257.06 213.146 257.637 212.247C257.926 211.797 258.414 210.803 258.875 210.727C258.603 210.626 258.42 210.62 258.147 210.519C258.865 211.093 259.582 211.668 260.394 212.154C261.395 212.462 262.072 211.291 261.26 210.805Z" fill="white" stroke="white"/>
<path d="M312.064 156.696C316.139 152.333 308.557 148.046 305.682 145.932C301.913 143.055 294.01 140.316 290.474 145.064C286.844 149.9 287.46 156.987 293.635 159.209C296.542 160.223 300.053 159.42 303.003 158.967C305.953 158.513 309.181 157.977 311.875 156.873C312.714 156.442 312.013 155.318 311.179 155.565C304.675 158.288 287.508 161.577 289.788 149.63C291.105 142.332 298.507 143.401 303.382 146.131C305.728 147.493 314.022 152.539 311.085 155.654C310.424 156.275 311.403 157.316 312.064 156.696Z" fill="white" stroke="white"/>
<path d="M299.53 146.376C296.532 145.267 294.103 146.656 292.287 149.076C291.715 149.792 292.978 150.568 293.55 149.852C294.983 147.971 296.85 146.93 299.214 147.743C299.937 148.134 300.347 146.678 299.53 146.376Z" fill="white" stroke="white"/>
<path d="M289.777 146.987C288.499 146.761 287.248 145.619 286.287 147.056C285.232 148.581 285.067 151.055 285.38 152.901C285.464 153.179 285.731 153.463 286.097 153.475C287.109 153.417 288.209 153.453 289.043 153.205C289.876 152.957 289.642 151.572 288.808 151.82C287.975 152.068 287.058 152.038 286.23 152.103C286.408 152.292 286.68 152.393 286.947 152.677C286.718 151.109 286.956 149.281 287.733 147.838C287.733 147.838 287.188 147.636 287.644 147.743C287.916 147.844 288.1 147.85 288.278 148.039C288.822 148.241 289.367 148.442 289.917 148.46C290.651 148.485 290.695 147.017 289.777 146.987Z" fill="white" stroke="white"/>
<path d="M290.984 70.4039C292.696 62.1975 267.349 62.4644 266.689 72.358C266.327 78.4054 270.472 84.1423 276.941 82.7028C279.898 82.0657 282.642 79.31 284.719 77.3587C286.891 75.3186 289.341 73.1959 290.979 70.5874C291.462 69.777 290.288 69.0957 289.716 69.8113C285.968 75.4718 274.61 87.0328 269.1 77.7623C264.636 70.3624 272.643 66.5866 278.713 66.2356C281.103 66.1307 290.569 65.7998 289.711 69.9948C289.5 70.9059 290.774 71.3151 290.984 70.4039Z" fill="white" stroke="white"/>
<path d="M274.965 68.8733C271.818 69.6881 270.552 72.1264 270.281 75.0567C270.254 75.9743 271.722 76.0227 271.75 75.105C271.909 72.814 272.792 70.9143 275.199 70.2588C276.128 69.9219 275.799 68.6252 274.965 68.8733Z" fill="white" stroke="white"/>
<path d="M267.166 74.5951C266.328 75.0263 264.222 74.8652 264.273 76.2434C264.213 78.2604 265.432 80.503 266.677 81.8288C266.944 82.1129 267.405 82.0363 267.594 81.859C268.344 81.3331 269.282 80.6298 269.854 79.9145C270.426 79.1992 269.164 78.4235 268.592 79.1388C268.781 78.9615 268.403 79.3161 268.403 79.3161C268.215 79.4934 268.026 79.6707 267.743 79.9367C267.365 80.2914 266.988 80.646 266.521 80.9059C266.888 80.918 267.254 80.9301 267.438 80.9361C266.37 79.7997 265.685 78.1253 265.362 76.6464C265.368 76.463 264.629 76.6222 265.184 76.457C265.462 76.3744 265.74 76.2917 266.017 76.2091C266.573 76.0439 267.034 75.9673 267.501 75.7074C268.517 75.4655 267.911 74.2525 267.166 74.5951Z" fill="white" stroke="white"/>
<path d="M237.687 10.2619C234.429 2.44238 214.745 16.1167 217.903 24.2083C220.208 30.0684 227.376 32.967 232.192 28.4432C236.064 24.8064 237.619 15.6765 237.676 10.6287C237.703 9.71151 236.236 9.66318 236.209 10.5804C236.106 14.0659 234.985 17.7932 233.971 21.065C233.361 23.0648 232.662 24.9698 231.601 26.6793C228.798 31.453 223.176 29.0644 220.328 26.0326C216.055 21.4849 221.271 15.8725 225.11 13.3364C227.265 11.8466 234.666 6.85712 236.292 10.8586C236.815 11.7939 238.121 11.1025 237.687 10.2619Z" fill="white" stroke="white"/>
<path d="M223.332 17.5112C221.155 19.7342 221.257 22.4912 222.737 25.2018C223.171 26.0422 224.477 25.3509 224.043 24.5105C223.002 22.4569 222.606 20.3327 224.405 18.4644C224.971 17.9323 223.993 16.8904 223.332 17.5112Z" fill="white" stroke="white"/>
<path d="M219.746 26.5757C218.98 27.6516 217.398 28.4252 218.276 29.7388C219.239 31.3303 221.495 32.5974 223.223 33.1131C223.679 33.2199 223.962 32.9539 224.062 32.6819C224.455 31.7774 224.76 30.7781 224.971 29.8675C224.998 28.9508 223.714 28.9086 223.504 29.8192C223.488 30.3692 222.994 31.5457 222.695 32.3617C222.972 32.2791 223.256 32.0131 223.533 31.9305C222.077 31.5155 220.638 30.5506 219.57 29.4144C219.482 29.3197 219.393 29.225 219.304 29.1303C219.015 29.5796 218.921 29.6682 219.109 29.4909C219.298 29.3136 219.487 29.1363 219.77 28.8704C220.148 28.5158 220.531 27.9779 220.819 27.5286C221.491 26.5414 220.318 25.8605 219.746 26.5757Z" fill="white" stroke="white"/>
<path d="M219.589 70.1547C220.517 76.0613 228.608 72.5634 231.942 71.5715C237.128 70.0896 242.662 66.1403 241.918 60.2397C241.18 54.1556 234.117 50.8013 229.072 53.7568C224.493 56.4523 220.847 64.8709 219.6 69.7878C219.39 70.699 220.758 71.0195 220.968 70.1083C222.731 63.2803 230.346 47.9227 238.541 56.4558C243.531 61.5782 238.971 66.7532 234.125 69.1644C231.797 70.2813 221.672 74.2631 220.979 69.7414C220.817 69.0016 219.522 69.3262 219.589 70.1547Z" fill="white" stroke="white"/>
<path d="M235.308 66.44C237.931 64.6901 238.468 62.0452 237.638 59.0798C237.387 58.2452 236.003 58.4751 236.254 59.3097C236.828 61.6239 236.674 63.7306 234.524 65.037C233.862 65.6579 234.469 66.8715 235.308 66.44Z" fill="white" stroke="white"/>
<path d="M240.789 58.4427C241.733 57.5563 243.577 57.2501 242.981 55.6707C242.391 53.908 240.607 52.1977 238.89 51.3154C238.528 51.12 238.067 51.1966 237.873 51.5572C237.391 52.3671 236.63 53.2595 236.331 54.0754C236.032 54.8913 237.393 55.3949 237.698 54.3957C237.698 54.3957 238.086 53.6744 238.275 53.4972C238.563 53.0479 238.852 52.5987 239.14 52.1494C238.863 52.232 238.496 52.22 238.124 52.3912C239.569 53.1728 240.725 54.4036 241.509 55.8057C241.598 55.9004 241.593 56.0837 241.593 56.0837C241.97 55.7291 242.065 55.6405 241.787 55.7231C241.598 55.9004 241.321 55.983 241.038 56.2489C240.571 56.5088 240.01 56.8573 239.722 57.3066C239.15 58.0217 240.129 59.0632 240.789 58.4427Z" fill="white" stroke="white"/>
<path d="M251.384 118.594C249.393 123.853 257.531 124.947 260.821 125.423C266.575 126.438 274.384 126.236 276.057 119.315C277.221 114.12 272.925 107.277 267.012 108.551C261.654 109.66 255.188 114.129 251.578 118.233C251.006 118.949 251.985 119.991 252.557 119.275C256.734 114.639 268.477 105.57 273.585 112.899C275.783 116.184 275.086 121.119 271.719 123.211C269.475 124.606 266.446 124.598 263.878 124.513C261.404 124.34 251.16 123.085 252.752 118.914C253.14 118.193 251.684 117.778 251.384 118.594Z" fill="white" stroke="white"/>
<path d="M267.234 122.597C270.365 122.333 271.993 120.09 272.625 117.355C272.836 116.443 271.467 116.123 271.257 117.034C270.725 119.497 269.575 121.113 266.905 121.3C265.987 121.27 266.311 122.751 267.234 122.597Z" fill="white" stroke="white"/>
<path d="M275.639 118.088C276.75 117.757 278.39 118.179 278.795 116.907C279.094 116.091 278.755 115.162 278.687 114.334C278.447 113.133 278.024 111.926 277.412 110.896C277.145 110.612 276.784 110.416 276.412 110.588C275.573 111.019 274.551 111.444 273.796 112.153C273.135 112.774 274.114 113.816 274.774 113.195C274.586 113.373 274.869 113.107 274.869 113.107C275.058 112.929 275.335 112.847 275.619 112.581C276.085 112.321 276.552 112.061 277.018 111.801C276.746 111.7 276.379 111.688 276.018 111.492C276.635 112.339 276.886 113.173 277.131 114.191C277.298 114.747 277.627 116.043 277.244 116.581C277.433 116.403 277.711 116.321 277.805 116.232C276.977 116.296 275.966 116.355 275.133 116.603C274.477 117.04 274.712 118.425 275.639 118.088Z" fill="white" stroke="white"/>
<path d="M251.253 166.602C243.533 170.109 258.197 189.311 266.1 185.809C271.771 183.335 274.465 175.991 269.645 171.428C265.809 167.723 256.669 166.505 251.62 166.614C250.703 166.584 250.659 168.05 251.576 168.08C258.554 167.943 275.434 171.16 269.536 181.334C265.957 187.548 259.627 184.403 255.985 180.338C254.206 178.444 247.944 169.888 252.037 168.004C252.787 167.478 252.091 166.171 251.253 166.602Z" fill="white" stroke="white"/>
<path d="M259.175 180.715C261.5 182.811 264.35 182.63 266.967 181.064C267.805 180.633 267.11 179.325 266.271 179.756C264.216 180.973 262.093 181.362 260.214 179.74C259.497 179.166 258.464 179.958 259.175 180.715Z" fill="white" stroke="white"/>
<path d="M268.349 183.85C269.434 184.436 270.302 186.117 271.614 185.242C273.114 184.19 274.374 181.936 274.7 180.203C274.711 179.836 274.633 179.374 274.266 179.362C273.354 179.148 272.359 178.657 271.353 178.532C270.436 178.501 270.392 179.969 271.309 179.999C271.86 180.017 273.039 180.515 273.767 180.723C273.683 180.445 273.416 180.16 273.333 179.882C273.122 180.793 272.728 181.699 272.151 182.598C271.862 183.047 271.185 184.218 270.54 184.289C270.812 184.39 270.996 184.396 271.268 184.497C270.645 183.833 269.928 183.259 269.116 182.773C268.309 182.104 267.538 183.364 268.349 183.85Z" fill="white" stroke="white"/>
<path d="M212.758 223.59C205.039 227.098 219.703 246.299 227.606 242.797C233.276 240.323 235.97 232.979 231.151 228.416C227.314 224.712 218.175 223.493 213.125 223.602C212.208 223.572 212.165 225.038 213.082 225.069C220.059 224.931 236.939 228.148 231.041 238.323C227.463 244.536 221.133 241.391 217.491 237.326C215.712 235.432 209.45 226.876 213.454 224.897C214.109 224.46 213.502 223.247 212.758 223.59Z" fill="white" stroke="white"/>
<path d="M220.592 237.609C222.917 239.705 225.767 239.523 228.383 237.957C229.222 237.526 228.527 236.218 227.688 236.65C225.633 237.867 223.51 238.256 221.725 236.545C220.913 236.059 219.875 237.035 220.592 237.609Z" fill="white" stroke="white"/>
<path d="M229.766 240.743C230.851 241.33 231.719 243.011 233.03 242.136C234.53 241.084 235.79 238.83 236.117 237.096C236.128 236.729 236.05 236.268 235.683 236.256C234.771 236.042 233.776 235.55 232.769 235.425C231.852 235.395 231.809 236.863 232.726 236.893C233.276 236.911 234.455 237.409 235.184 237.616C235.1 237.338 234.833 237.054 234.749 236.776C234.539 237.687 234.145 238.592 233.567 239.491C233.184 240.029 232.601 241.112 231.957 241.183C232.229 241.283 232.413 241.289 232.685 241.39C232.062 240.727 231.344 240.152 230.532 239.667C229.721 239.181 229.043 240.352 229.766 240.743Z" fill="white" stroke="white"/>
<path d="M196.211 303.926C193.231 308.509 200.49 311.318 203.665 312.615C208.923 314.808 216.121 316.605 219.685 310.94C222.571 306.446 220.237 298.476 214.473 297.827C208.894 297.184 200.994 300.504 196.495 303.66C195.745 304.186 196.44 305.494 197.19 304.968C202.628 301.108 217.139 294.61 219.413 304.598C221.276 313.012 212.702 314.29 206.882 312.446C204.425 311.723 195.164 308.297 197.474 304.702C197.867 303.797 196.694 303.116 196.211 303.926Z" fill="white" stroke="white"/>
<path d="M210.581 311.277C213.601 311.652 215.763 309.978 217.035 307.357C217.429 306.451 216.255 305.769 215.772 306.58C214.695 308.841 213.183 310.261 210.53 309.898C209.802 309.69 209.758 311.158 210.581 311.277Z" fill="white" stroke="white"/>
<path d="M219.841 308.814C221.035 308.762 222.753 309.645 223.252 308.284C224.04 306.474 223.749 303.895 222.975 302.125C222.892 301.847 222.436 301.74 222.158 301.823C221.325 302.071 220.125 302.307 219.286 302.738C218.536 303.264 219.143 304.477 219.981 304.046C220.637 303.609 221.743 303.462 222.393 303.208C222.12 303.107 221.848 303.006 221.576 302.905C222.004 303.929 222.066 304.941 222.034 306.041C222.017 306.591 222.079 307.603 221.607 308.046C221.885 307.964 222.068 307.97 222.346 307.887C221.435 307.674 220.612 307.555 219.601 307.613C219.056 307.412 218.924 308.784 219.841 308.814Z" fill="white" stroke="white"/>
<path d="M209.98 371.45C206.905 376.122 214.259 378.842 217.433 380.14C222.692 382.332 229.89 384.13 233.453 378.465C236.34 373.97 234.005 366 228.242 365.351C222.662 364.708 214.762 368.028 210.263 371.184C209.513 371.71 210.209 373.018 210.959 372.492C216.396 368.632 230.907 362.135 233.182 372.122C235.044 380.536 226.47 381.814 220.651 379.97C218.194 379.247 208.933 375.821 211.242 372.226C211.725 371.416 210.463 370.64 209.98 371.45Z" fill="white" stroke="white"/>
<path d="M224.444 378.713C227.464 379.088 229.626 377.414 230.898 374.792C231.197 373.975 230.118 373.205 229.635 374.016C228.558 376.276 227.046 377.696 224.393 377.333C223.57 377.214 223.527 378.683 224.444 378.713Z" fill="white" stroke="white"/>
<path d="M233.704 376.25C234.898 376.197 236.616 377.08 237.115 375.72C237.903 373.91 237.612 371.33 236.838 369.561C236.755 369.283 236.299 369.176 236.021 369.259C235.188 369.507 233.988 369.742 233.149 370.174C232.31 370.605 233.006 371.913 233.845 371.482C234.5 371.044 235.606 370.897 236.256 370.643C235.983 370.542 235.711 370.442 235.439 370.341C235.867 371.365 235.929 372.376 235.897 373.477C235.88 374.027 235.942 375.039 235.47 375.482C235.748 375.399 235.931 375.405 236.209 375.323C235.298 375.109 234.475 374.99 233.464 375.049C232.825 374.936 232.781 376.403 233.704 376.25Z" fill="white" stroke="white"/>
<path d="M210.905 414.159C254.257 419.258 239.806 361.697 233.642 337.357C228.793 318.199 224.185 300.243 225.787 280.197C227.818 254.934 240.933 233.523 255.382 213.533C267.627 196.682 280.468 181.411 284.754 160.627C288.303 143.031 285.633 124.68 279.519 107.959C266.535 72.1975 238.073 41.5246 205.408 22.6442C203.874 21.7677 202.336 24.1032 203.96 25.0745C241.767 46.9693 275.041 85.6016 282.369 129.528C286.109 152.045 280.674 174.443 267.374 192.819C253.025 212.537 237.231 231.473 228.746 254.597C222.164 272.368 221.689 291.534 224.259 310.157C225.918 322.326 230.155 334.213 233.015 346.147C236.265 360.387 239.488 375.545 237.949 390.362C237.309 396.49 235.38 402.759 230.754 407.103C225.468 412.069 217.572 412.176 210.898 411.313C209.158 411.164 209.166 414.01 210.905 414.159Z" fill="white" stroke="white"/>
</svg>
