<svg width="90" height="87" viewBox="0 0 90 87" fill="none" xmlns="http://www.w3.org/2000/svg">
<path d="M89.2786 36.6193C88.8834 40.7286 88.1722 44.8379 88.8044 48.9472C89.3576 52.8984 89.4366 56.8497 88.5673 60.9589C87.9351 64.0409 86.8288 67.1229 84.9322 69.6517C78.5312 78.0283 67.2306 79.8459 57.5106 81.9796C54.1915 82.6908 50.8725 83.402 47.5534 84.1132C37.5963 86.2469 27.244 88.3806 17.445 85.8518C7.64588 83.323 7.0927 74.8673 5.67026 66.3326C5.19611 63.1716 4.24782 60.1687 3.06245 57.2448C1.24487 52.9774 -0.651728 48.7891 0.217546 44.0476C1.00779 39.6222 4.32684 35.75 6.69758 32.1149C9.85858 27.3734 12.7035 22.3948 15.1532 17.1792C16.0225 15.3616 16.8128 13.465 18.1562 11.9635C20.1318 9.59278 23.5299 8.64448 26.5328 8.09131C27.244 7.93326 27.9553 7.85423 28.7455 7.69619C29.6938 7.53814 30.6421 7.38009 31.5904 7.14301C33.7241 6.66886 35.8578 6.03666 37.9124 5.24641C38.8607 4.85129 39.809 4.37714 40.6783 3.82397C41.6266 3.27079 42.4168 2.63859 43.3651 2.0064C49.1339 -1.86582 57.7476 0.504923 63.4374 3.74494C65.8082 5.08837 67.8628 6.82691 69.9175 8.64448C74.2638 12.4377 78.6102 16.1518 82.9566 19.945C84.458 21.2094 85.8805 22.4738 86.9868 24.1334C88.1722 25.8719 88.8834 27.9265 89.1205 30.0602C89.5947 32.1149 89.5156 34.4066 89.2786 36.6193ZM85.2483 34.0905C85.0902 29.7441 84.7741 25.0026 81.6131 21.9997C79.0844 19.6289 75.3702 19.0758 72.6833 16.9421C70.8658 15.5196 69.6014 13.465 68.1789 11.5684C63.3584 5.48349 54.8237 1.76932 47.4744 4.45617C42.7329 6.19471 39.0187 9.51376 33.9612 10.6201C29.6938 11.6474 24.3201 11.8845 21.3172 15.5987C20.606 16.547 20.0528 17.5743 19.4996 18.6806C18.3933 20.9724 17.2869 23.3431 16.1806 25.6348C12.5454 33.3002 2.03512 40.8866 4.24782 50.5277C4.64294 52.1872 5.51221 53.6887 6.30246 55.2691C7.88295 58.3511 9.06833 61.6702 9.70053 65.0682C10.3327 68.7824 10.2537 72.7336 11.6762 76.2898C15.2323 85.0615 27.3231 83.7971 34.7514 82.7698C48.0276 80.8732 60.7506 78.2654 73.3155 73.3658C76.0024 72.3385 78.7682 71.0741 80.5858 68.8614C82.1663 66.8858 82.7985 64.357 83.2727 61.9072C84.7741 54.1628 85.5644 46.4974 85.3273 38.6739C85.3273 37.1725 85.2483 35.592 85.2483 34.0905Z" fill="white"/>
<path d="M41.2315 27.0573C40.8364 26.267 40.2042 25.6348 39.493 25.2397C38.4657 24.6865 37.2013 24.6075 36.0159 24.6075C32.1437 24.6865 28.5085 30.0602 31.7486 33.2212C34.9886 36.3032 41.0735 33.7744 41.6267 29.6651C41.7847 28.7168 41.6267 27.8475 41.2315 27.0573Z" fill="white"/>
<path d="M31.5904 53.6096C31.5114 53.4516 31.4324 53.2935 31.3533 53.1355C27.6392 46.3393 17.445 51.476 18.7884 58.5882C19.7367 63.8038 26.1377 63.3297 29.6938 61.3541C30.4841 60.8799 31.2743 60.2477 31.7484 59.4575C32.3806 58.3511 32.3806 56.9287 32.1436 55.6643C32.0645 54.874 31.8275 54.2418 31.5904 53.6096Z" fill="white"/>
<path d="M67.5466 50.6857C64.5437 46.6554 54.6656 47.9198 56.3251 55.1901C56.8783 57.5609 59.0119 59.5365 61.4617 59.7735C63.9115 60.0106 66.4403 58.6672 67.5466 56.4545C68.811 54.0047 68.5739 52.0291 67.5466 50.6857Z" fill="white"/>
<path d="M56.9574 26.7412C60.9876 31.7197 70.7077 24.8446 65.8081 18.6806C62.094 13.9391 54.3495 18.1275 55.6139 23.8173C55.851 25.0817 56.3252 26.03 56.9574 26.7412Z" fill="white"/>
<path d="M52.3738 35.5129C49.3709 33.6954 44.7874 38.832 48.2645 41.5979C51.0304 43.8106 55.2187 40.0174 53.7172 37.0144C53.3221 36.3032 52.927 35.829 52.3738 35.5129Z" fill="white"/>
</svg>
