<svg width="159" height="158" viewBox="0 0 159 158" fill="none" xmlns="http://www.w3.org/2000/svg">
<path d="M72.2504 30.8701C72.2504 30.8701 72.3024 30.8195 72.2517 30.7675C72.2517 30.7675 72.2517 30.7675 72.3024 30.8195L72.353 30.8714C72.6101 30.8232 72.8153 30.8257 73.0712 30.8801C73.5896 30.4759 74.2106 30.073 74.7797 29.7208C75.3487 29.3686 75.9178 29.0163 76.4868 28.6641C76.9013 28.3613 77.2638 28.1092 77.6782 27.8064C78.1967 27.4022 78.7151 26.9981 79.2855 26.5433C79.9079 26.0378 80.5303 25.5323 81.1021 24.9749C82.2456 23.86 83.3892 22.7452 84.5341 21.5277C85.679 20.3103 86.7719 19.1436 87.9169 17.9261C89.1124 16.7606 90.3079 15.5951 91.5035 14.4296C93.4267 12.5546 95.298 10.7303 97.2718 8.9073C97.7916 8.40055 98.3115 7.89379 98.8299 7.48965C99.7642 6.6801 100.75 5.8199 101.886 5.32062C102.969 4.87202 104.254 4.73369 105.27 5.4643C105.676 5.77707 106.083 6.08984 106.489 6.40261C106.895 6.71537 107.352 7.08005 107.706 7.44349C109.735 9.2125 111.816 10.9308 113.846 12.5973C114.861 13.4305 115.824 14.3143 116.787 15.1982C117.7 16.0302 118.612 16.8622 119.577 17.6435C120.288 18.1652 120.999 18.6868 121.709 19.3111C122.37 19.7809 123.031 20.2507 123.69 20.823C124.147 21.1877 124.501 21.5511 124.958 21.9158C126.936 23.6329 128.757 25.6046 130.579 27.4737L135.894 32.9253C137.716 34.7944 139.538 36.6636 141.411 38.5846C143.335 40.5575 145.258 42.5305 147.079 44.5022C147.433 44.8656 147.736 45.2798 148.14 45.6951C148.696 46.3688 149.251 47.0425 149.755 47.7669C149.956 48.0772 150.106 48.3356 150.205 48.6446C150.455 49.1094 150.551 49.6236 150.595 50.1885C150.685 51.1131 150.314 51.9808 149.689 52.6915C148.752 53.7062 147.817 54.6183 146.829 55.5811C144.956 57.508 143.237 59.4881 141.364 61.4149C139.544 63.2911 137.824 65.2712 136.054 67.1993C134.388 69.0261 132.875 70.906 131.362 72.7859C130.527 73.9045 129.691 75.0231 128.956 76.2455C128.326 77.3666 127.798 78.4889 127.27 79.6112C127.163 79.9177 127.004 80.275 126.898 80.5815C127.405 80.9981 127.911 81.5173 128.419 81.9339C128.927 82.3505 129.122 83.0711 129.114 83.6867C129.106 84.3023 128.84 84.966 128.373 85.4221C127.905 85.8782 127.235 86.1266 126.619 86.1191C126.106 86.1129 125.646 85.9534 125.24 85.6406C125.042 85.1251 124.793 84.5578 124.391 83.9372C123.89 83.0076 123.286 82.0768 122.578 81.3499C121.592 82.2102 121.06 83.6402 120.378 84.7094C118.491 87.7648 115.639 90.0389 112.94 92.3662C107.958 96.6154 103.232 100.919 97.3444 103.823C92.0246 106.478 85.8976 108.097 79.958 107.204C74.1209 106.312 68.2414 104.753 63.2045 101.562C62.0349 100.778 60.8201 99.532 59.5438 99.0547C59.1252 99.6653 59.5712 100.851 59.5617 101.569C59.6001 102.544 59.4852 103.466 59.2677 104.387C58.8848 106.178 57.837 107.807 56.3857 108.918C53.2244 111.291 48.6049 111.44 44.9771 110.319C43.6488 109.892 42.2699 109.414 41.1002 108.63C39.88 107.794 38.7637 106.857 37.7514 105.819C37.7008 105.767 37.5995 105.663 37.5489 105.611C37.5489 105.611 37.5489 105.611 37.4983 105.559C34.7734 105.988 31.9992 106.262 29.2756 106.588C27.0144 106.869 24.7519 107.252 22.4907 107.532C20.8464 107.717 19.2035 107.8 17.5634 107.678C16.64 107.666 15.7686 107.604 14.8452 107.593C13.4609 107.525 12.0779 107.354 10.7961 107.288C9.15596 107.165 7.56639 107.094 5.97957 106.819C5.62116 106.763 5.21351 106.553 4.90981 106.241C4.75796 106.086 4.5555 105.878 4.45563 105.671C4.15466 105.155 4.06161 104.435 4.27499 103.822C4.43774 103.157 4.85495 102.649 5.47461 102.349C5.88772 102.149 6.29947 102.051 6.70985 102.056C6.91504 102.059 7.17085 102.113 7.32406 102.166C7.27345 102.114 7.22146 102.165 7.11887 102.164C9.16805 102.394 11.2706 102.471 13.3718 102.65C16.3949 102.943 19.5234 103.033 22.5028 102.761C24.6614 102.479 26.7694 102.146 28.928 101.864C30.4177 101.728 31.9593 101.542 33.3984 101.354C33.7582 101.307 34.0153 101.259 34.3751 101.212C33.8102 101.256 33.2409 97.7606 33.245 97.4529C33.1109 95.9634 33.1833 94.3738 33.3064 92.8361C33.3665 92.1699 33.4787 91.453 33.744 90.7892C34.3855 88.8474 35.8997 86.8649 37.6082 85.7056C38.1267 85.3014 38.6957 84.9492 39.2634 84.6996C39.8311 84.4499 40.4508 84.1496 41.1703 84.0557C41.8898 83.9619 42.6613 83.8173 43.3289 83.7741C44.7146 83.7396 46.0976 83.9103 47.4273 84.2343C47.0333 82.9982 46.7418 81.7633 46.501 80.5804C46.2616 79.2948 46.0208 78.1119 45.8319 76.8783C45.6951 75.594 45.6102 74.259 45.6786 72.9772C45.7469 71.6954 45.8152 70.4136 45.9862 69.133C46.2652 67.4433 46.6974 65.8068 47.3334 64.2753C47.7041 63.4076 48.1267 62.4893 48.6 61.6228C49.3359 60.2978 50.2236 59.1286 51.214 57.9606C51.9964 56.9953 52.8308 55.9793 53.6638 55.0659C54.5488 54.1018 55.3819 53.1885 56.3175 52.2763C57.2012 51.4149 58.0342 50.5015 58.9698 49.5893C59.9055 48.6772 60.7891 47.8157 61.6742 46.8516C65.0597 43.0448 68.8993 39.8079 72.6391 36.3645C73.003 36.0098 73.7827 35.2497 73.4817 34.733C73.2806 34.4227 72.1548 34.2038 71.8005 33.8404C71.1425 33.1654 71.2628 31.8329 71.7306 31.3769C71.9919 31.0209 72.0958 30.9196 72.2504 30.8701ZM53.7981 91.2892C52.2783 89.8342 50.4985 88.6325 48.6121 87.7374C45.7585 86.2663 42.6656 87.3574 40.28 89.2781C37.1161 91.8563 37.3078 96.7326 39.6266 99.8391C41.442 102.221 44.1848 104.307 47.0438 105.367C48.5759 105.899 51.186 106.393 52.7892 105.437C54.8506 104.744 56.1638 102.451 56.704 100.406C57.6724 97.0311 56.1784 93.6268 53.7981 91.2892ZM93.0284 100.436C93.0804 100.385 93.0298 100.333 93.0817 100.283C93.2472 99.4125 93.4127 98.5424 93.5262 97.7229C93.585 97.1592 93.5412 96.5943 93.4974 96.0294C93.351 95.4633 93.2552 94.9491 93.1088 94.3829C92.7094 93.5572 92.2565 92.8847 91.7531 92.1603C91.2483 91.5386 90.7435 90.9168 90.0841 90.3444C88.407 89.144 86.5753 87.993 84.8448 86.9459C83.9788 86.4737 83.1129 86.0014 82.195 85.5798C81.7873 85.3697 81.3277 85.2102 80.9707 85.0519C79.5945 84.3682 78.2716 83.5313 77.1047 82.5423C76.3947 81.918 75.6328 81.3444 74.9242 80.6176C74.5192 80.2022 74.1143 79.7868 73.7094 79.3715C73.2538 78.9042 72.7996 78.3343 72.448 77.7657C72.0965 77.1971 71.8461 76.7323 71.5971 76.1649C71.448 75.804 71.2989 75.443 71.2524 75.0833C71.2564 74.7755 71.1579 74.4665 71.162 74.1587C71.1716 73.4405 71.2331 72.6717 71.4984 72.008C71.7638 71.3442 71.9772 70.7311 72.3957 70.1206C72.553 69.8659 72.7103 69.6113 72.9196 69.306C73.4435 68.4915 74.018 67.7289 74.6431 67.0182C75.0603 66.5102 75.4789 65.8996 75.7442 65.2359C75.8509 64.9294 75.9056 64.6735 76.0123 64.3669C76.0178 63.9566 76.0738 63.5981 76.0273 63.2384C75.8344 62.3126 75.5389 61.3855 75.1914 60.5091C74.8425 59.7353 74.4937 58.9614 74.0928 58.2383C73.7919 57.7216 73.3883 57.2036 72.9847 56.6857C72.3787 55.9601 71.7221 55.1825 71.116 54.4568C70.458 53.7819 69.9026 53.1082 69.1926 52.4839C68.8369 52.2231 68.4293 52.0129 68.0216 51.8027C67.4608 51.5394 66.8985 51.3786 66.2843 51.2686C65.7207 51.2104 65.3117 51.1029 64.9054 50.7901C63.294 52.361 61.6827 53.9319 60.1739 55.5041C59.2902 56.3655 58.5092 57.2282 57.7268 58.1935C56.8924 59.2095 56.0593 60.1229 55.2755 61.1908C54.3864 62.4627 53.6505 63.7877 52.9639 65.2672C52.4332 66.5947 52.0557 67.9753 51.8314 69.4092C51.6003 71.356 51.5224 73.3559 51.7017 75.3077C51.8892 76.6439 52.2299 78.0333 52.4173 79.3695C52.6581 80.5525 52.9509 81.6848 53.3463 82.8183C53.7444 83.7466 54.2465 84.5736 54.8005 85.3499C55.7089 86.4897 56.7212 87.5281 57.7336 88.5665C58.4928 89.3453 59.3027 90.176 60.0619 90.9548C61.9347 92.8758 63.8075 94.7968 65.8896 96.4126C66.8554 97.0913 67.8212 97.77 68.8923 98.2447C69.3 98.4549 69.7596 98.6144 70.2179 98.8765C71.0345 99.1942 71.9018 99.5639 72.7691 99.9336C73.2794 100.145 73.7896 100.356 74.2999 100.568C74.9127 100.78 75.5242 101.096 76.1371 101.308C76.6993 101.469 77.2615 101.63 77.8757 101.74C79.7197 101.968 81.5665 101.99 83.4132 102.012C84.9521 102.031 86.5937 102.051 88.1859 101.916C89.7823 101.474 91.4813 101.033 93.0284 100.436ZM141.54 48.1803C140.029 49.9576 138.416 51.6311 137.363 53.6706C136.31 55.71 134.797 57.5899 133.54 59.5243C132.073 61.7639 130.506 63.8997 128.938 66.0355C127.893 67.4594 126.797 68.8313 125.549 70.1501C125.029 70.6568 124.612 71.1649 124.092 71.6716C123.676 72.077 123.312 72.4317 122.846 72.7852C122.997 72.9409 123.099 73.0448 123.251 73.2005C123.807 73.7717 124.054 74.5442 124.3 75.3168C124.669 74.5517 124.986 73.8373 125.406 73.1241C126.298 71.6471 127.291 70.2739 128.387 68.9019C129.169 67.9366 129.953 66.8687 130.786 65.9553C132.611 63.7713 134.537 61.6912 136.412 59.5591C137.193 58.6964 137.922 57.8844 138.754 57.0736C139.691 56.0589 140.628 55.0441 141.565 54.0294C142.45 53.0653 143.335 52.1013 144.271 51.1891C144.895 50.581 145.466 50.0236 146.09 49.4155L146.039 49.3636C145.384 48.4835 144.379 46.9321 143.515 46.2546C142.5 45.4214 142.009 47.6216 141.54 48.1803ZM129.035 51.0555C126.273 54.2542 123.766 57.6099 120.801 60.601C119.762 61.6145 118.721 62.7305 117.631 63.6921C116.904 64.299 116.126 64.9565 115.349 65.5114C115.245 65.6127 115.09 65.6622 114.934 65.8142C115.085 66.0726 115.234 66.4335 115.333 66.7425C115.728 67.8761 115.713 69.0046 116.058 70.0862C116.107 70.2407 116.208 70.3446 116.258 70.4991C116.359 70.6029 116.409 70.6548 116.511 70.7587C116.765 70.9157 117.07 71.1246 117.377 71.2309C117.482 71.027 117.639 70.7724 117.846 70.6723C118.364 70.2681 118.935 69.8133 119.402 69.3572C119.766 69.0025 120.233 68.649 120.648 68.2436C125.071 63.6285 129.441 59.0641 133.356 54.0323C135.288 51.5418 137.168 48.9994 138.847 46.2493C139.529 45.0775 140.829 43.8107 140.232 42.3669C139.636 40.9231 138.351 41.0614 137.313 41.9723C137.053 42.2257 136.741 42.5297 136.431 42.7312C133.782 45.1104 131.431 48.3141 129.035 51.0555ZM131.114 33.5343C131.113 33.6369 131.009 33.7382 131.008 33.8408C130.376 35.0645 129.693 36.2362 128.91 37.3041C128.178 38.3213 127.394 39.3892 126.509 40.3533C125.78 41.1653 124.948 41.9761 124.168 42.7362C122.297 44.5605 120.426 46.3848 118.605 48.261C116.578 50.2373 114.601 52.2655 112.677 54.2431C111.793 55.1046 110.962 55.9154 110.027 56.7249C109.092 57.637 108.053 58.5479 107.118 59.4601C107.167 59.6146 107.267 59.821 107.316 59.9755C107.513 60.5936 107.658 61.2623 107.855 61.8804C108.468 62.093 109.134 62.1524 109.748 62.2625C110.107 62.3181 110.568 62.375 110.874 62.4814L110.926 62.4307C111.702 61.9784 112.375 61.5248 113.1 61.0205C114.759 59.7067 116.268 58.1346 117.775 56.665C118.607 55.8542 119.439 55.0434 120.218 54.2833C121.623 52.8125 123.027 51.4443 124.431 49.9735C127.242 46.9293 129.951 43.8839 132.61 40.6839C133.444 39.6679 134.176 38.6507 134.807 37.5296C134.859 37.4789 134.808 37.427 134.86 37.3763C134.05 36.5456 133.24 35.7149 132.481 34.9361L131.114 33.5343ZM124.28 26.6277C124.176 26.7291 124.123 26.8823 123.967 27.0343C123.027 28.2542 122.037 29.4223 120.996 30.5384C120.215 31.4011 119.432 32.3664 118.651 33.2291C117.662 34.2945 116.673 35.3599 115.634 36.3734C114.594 37.3869 113.606 38.3497 112.567 39.3632C110.644 41.2381 108.72 43.1131 106.745 45.0387C105.757 46.0015 104.822 46.9137 103.834 47.8765C103.106 48.5859 102.327 49.346 101.599 50.0555C100.767 50.8663 99.8851 51.6251 98.9522 52.3321C99.0028 52.384 99.0015 52.4866 99.0521 52.5385C99.2504 53.054 99.3462 53.5682 99.4926 54.1343C99.4926 54.1343 99.4926 54.1343 99.5433 54.1863C100.87 54.7154 102.25 55.0913 103.472 55.8244C105.238 54.2041 106.953 52.5318 108.667 50.9622C110.071 49.594 111.424 48.1738 112.775 46.8563C114.438 45.2347 116.051 43.5612 117.714 41.9396C118.442 41.2302 119.222 40.4701 119.95 39.7606C120.417 39.3045 120.833 38.8992 121.301 38.4431C122.237 37.5309 123.122 36.5669 123.906 35.499C124.376 34.8377 124.897 34.2284 125.265 33.5659C125.736 32.9046 126.105 32.1395 126.422 31.4251C126.686 30.864 127.101 30.5612 127.667 30.4141L126.554 29.2719C126.002 28.2904 125.192 27.4597 124.28 26.6277ZM116.315 19.81C115.482 20.7234 114.548 21.5329 113.665 22.3944C109.87 26.0936 106.024 29.8435 102.229 33.5428C100.15 35.5698 98.1732 37.598 96.2473 39.6781C94.4772 41.6062 92.6073 43.3279 90.736 45.1522C91.0356 45.7715 91.2833 46.4415 91.6348 47.0101L91.7361 47.114C92.0918 47.3748 92.4994 47.585 92.9071 47.7952C93.3667 47.9546 93.8783 48.0635 94.3886 48.2749C94.747 48.3305 95.104 48.4888 95.4611 48.647C95.5637 48.6483 95.6649 48.7521 95.7675 48.7534C96.8044 47.9451 97.8426 47.0342 98.8302 46.0714C99.4539 45.4633 100.078 44.8552 100.701 44.2471C101.637 43.3349 102.521 42.4735 103.456 41.5613C105.328 39.737 107.251 37.8621 109.122 36.0378C111.149 34.0615 113.125 32.1359 115.051 30.0557C116.717 28.229 118.332 26.3503 119.948 24.4716C120.261 24.0649 120.574 23.6583 120.887 23.2517C120.38 22.835 119.82 22.4691 119.313 22.0525C118.45 21.3751 117.484 20.6964 116.673 19.9683C116.417 19.9138 116.366 19.8619 116.315 19.81ZM109.164 13.6178C109.058 13.8218 108.954 13.9231 108.798 14.0751L106.251 16.5582C102.509 20.2068 98.7663 23.8553 95.0238 27.5039C93.1005 29.3788 91.1253 31.3045 89.2527 33.2313C87.484 35.0569 85.7153 36.8824 83.9466 38.7079L83.9973 38.7598C84.2996 39.174 84.6539 39.5374 84.9043 40.0022C85.1054 40.3124 85.3065 40.6227 85.5582 40.9849C85.6594 41.0888 85.71 41.1407 85.8113 41.2445C86.2175 41.5573 86.6252 41.7675 87.0835 42.0296L90.4622 38.7357C91.3978 37.8236 92.2308 36.9102 93.1159 35.9461C94.1048 34.8807 95.0938 33.8153 96.1334 32.8018C98.006 30.8749 99.9813 28.9493 101.956 27.0237C103.776 25.2501 105.595 23.4765 107.362 21.7536L110.377 18.8144C111.105 18.105 111.885 17.3449 112.612 16.6354C112.41 16.4277 112.105 16.2188 111.902 16.0111C111.042 15.1285 110.128 14.3991 109.164 13.6178ZM79.0043 39.9819C78.4037 38.8459 77.8045 37.6073 77.1 36.5726C77.0918 37.1882 76.8264 37.8519 76.3586 38.308C76.1507 38.5107 75.8908 38.7641 75.6829 38.9668C73.9676 40.639 72.2003 42.3619 70.5848 44.2406C69.7518 45.154 69.0213 46.0686 68.1883 46.982C68.7505 47.1428 69.2608 47.3542 69.8217 47.6175C70.3319 47.8289 70.8422 48.0403 71.2991 48.405C71.9598 48.8748 72.5179 49.3433 73.0747 49.9144C74.492 51.3682 75.7546 52.8714 76.964 54.5279C77.518 55.3042 78.0721 56.0804 78.5236 56.8555C79.0243 57.7851 79.421 58.816 79.8177 59.847C80.2651 60.9298 80.5579 62.0621 80.6455 63.1918C80.7345 64.219 80.6675 65.3983 80.2954 66.3685C80.1341 66.9309 79.9207 67.544 79.6061 68.0532C79.3435 68.5118 79.0302 68.9184 78.717 69.3251C78.4557 69.6811 78.1945 70.037 77.8812 70.4437C77.2014 71.4102 76.5229 72.2742 75.9963 73.2939C75.9416 73.5498 75.8349 73.8563 75.7802 74.1122C75.8281 74.3693 75.8774 74.5238 75.9772 74.7302C76.1277 74.9886 76.2782 75.2469 76.4287 75.5053C77.1359 76.3348 77.8446 77.0616 78.6558 77.7898C79.2645 78.3102 79.8213 78.8813 80.5327 79.403C81.3959 80.0804 82.363 80.6566 83.4342 81.1313C83.7912 81.2896 84.1482 81.4478 84.5053 81.6061C85.27 81.9745 86.0347 82.3429 86.85 82.7632C88.2754 83.6014 89.6489 84.4903 91.0729 85.4311C92.4464 86.3199 93.7679 87.2595 94.8281 88.555C95.6352 89.5909 96.4943 90.5761 97.0429 91.7628C97.6435 92.8988 98.0389 94.0323 98.2277 95.266C98.37 96.1399 98.4111 96.91 98.3482 97.7814C99.6409 97.0275 100.884 96.1191 102.178 95.2626C102.801 94.7571 103.371 94.3023 104.044 93.8487C104.719 93.2925 105.393 92.7364 106.119 92.1295C107.261 91.1173 108.404 90.105 109.598 89.0421C110.792 87.9792 111.986 86.9163 113.18 85.8533C113.804 85.2452 114.478 84.6891 115.102 84.081C116.038 83.1689 116.972 82.3593 117.857 81.3953C118.118 81.0393 118.328 80.734 118.538 80.3261C118.593 80.0702 118.698 79.8663 118.753 79.6104C118.757 79.3026 118.812 79.0468 118.816 78.739C118.876 78.0728 119.037 77.5104 119.557 77.0036C119.661 76.9023 119.765 76.8009 119.868 76.8022C119.715 76.749 119.56 76.7984 119.407 76.7453C118.643 76.2743 117.828 75.8539 117.115 75.4348C116.555 75.1715 116.046 74.8575 115.485 74.5941C114.721 74.1231 113.957 73.7547 113.141 73.3343C112.642 72.3022 112.039 71.3714 111.281 70.49C111.137 69.7186 111.044 68.9992 110.849 68.2786C110.799 68.1241 110.698 68.0202 110.649 67.8657C110.598 67.8138 110.548 67.7619 110.497 67.71C110.344 67.6568 110.192 67.501 110.039 67.4479C108.914 67.1264 107.684 67.0089 106.56 66.6874C106.306 66.5304 105.948 66.3721 105.642 66.2658C105.389 66.0062 105.187 65.7985 104.933 65.5389C104.478 65.0716 104.021 64.7069 103.513 64.2903C103.364 63.9294 103.266 63.6204 103.117 63.2594C102.97 62.6933 102.824 62.1271 102.678 61.561C102.578 61.3546 102.528 61.2 102.377 61.0443C102.123 60.7847 101.87 60.5251 101.617 60.2655C101.262 60.0046 100.854 59.7945 100.446 59.5843C99.3739 59.2121 98.2494 58.8907 97.2809 58.4171C96.8732 58.207 96.4149 57.9449 96.1632 57.5827C95.9607 57.375 95.8103 57.1167 95.6078 56.909C95.4573 56.6506 95.3588 56.3416 95.2603 56.0326C95.0127 55.3626 94.9183 54.7458 94.7212 54.1277C94.6706 54.0758 94.672 53.9732 94.6214 53.9213C94.5707 53.8694 94.5707 53.8694 94.5201 53.8175C94.2657 53.6605 94.0619 53.5554 93.8074 53.3984C92.4285 52.9199 90.8937 52.5934 89.6734 51.7577C89.1645 51.4437 88.6557 51.1297 88.3027 50.6637C87.8978 50.2483 87.5448 49.7823 87.2945 49.3175C86.9949 48.6982 86.7472 48.0282 86.397 47.357C86.3464 47.3051 86.2452 47.2012 86.1945 47.1493C85.029 46.0577 83.3437 45.4729 82.1275 44.3294C81.2151 43.4975 80.5625 42.4121 79.9606 41.3787C79.7595 41.0684 79.609 40.8101 79.4599 40.4492C79.4092 40.3972 79.4092 40.3972 79.3586 40.3453C79.1548 40.2402 79.0536 40.1364 79.0043 39.9819ZM77.9124 33.3502C78.5212 33.8706 79.0273 34.3898 79.5321 35.0116C79.7346 35.2193 79.8851 35.4777 80.0875 35.6854C80.9726 34.7213 81.9602 33.7585 82.8452 32.7944C86.5398 28.8888 90.4369 25.1908 94.3354 21.3902C98.026 17.7923 101.769 14.1437 105.459 10.5458L105.511 10.4952C105.054 10.1305 104.649 9.71511 104.142 9.29852C102.171 10.9164 100.351 12.69 98.532 14.4636C96.5568 16.3892 94.5815 18.3148 92.6063 20.2405C90.7337 22.1673 88.9117 24.1461 87.039 26.073C86.1034 26.9851 85.2197 27.8466 84.2335 28.7069C83.1952 29.6178 82.0544 30.5274 80.915 31.3345C80.3965 31.7386 79.7755 32.1415 79.2065 32.4937C78.792 32.7965 78.3269 33.0474 77.9124 33.3502Z" fill="white"/>
</svg>
