<svg width="236" height="194" viewBox="0 0 236 194" fill="none" xmlns="http://www.w3.org/2000/svg">
<path d="M47.7791 4.56385C60.0256 11.1145 72.2396 17.8509 85.3363 22.8284C98.2473 27.7734 120.246 35.4612 130.223 21.1368C130.975 20.1207 132.089 20.3161 132.734 21.0034C133.171 20.6972 133.728 20.795 134.252 21.0784C165.191 37.7988 193.83 58.8998 225.837 73.8939C227.146 72.9755 229.397 74.3273 228.667 76.3044C222.058 95.4299 208.38 111.21 199.979 129.639C191.262 148.777 179.77 166.28 169.48 184.569C168.978 185.246 168.324 185.705 167.581 185.575C166.926 186.034 166.118 186.275 165.255 185.741C139.75 164.233 109.283 150.275 81.2368 132.34C80.8981 132.089 80.5594 131.838 80.4389 131.434C80.1002 131.183 79.9471 130.965 79.8266 130.561C69.2551 105.741 40.0033 94.6754 15.2558 89.567C14.5132 89.4367 14.0214 88.9676 13.9335 88.3781C13.4091 88.0947 13.1355 87.4726 13.2984 86.5443C14.1129 81.9029 15.2987 77.3267 17.3803 73.0991C16.6475 71.8222 17.9667 69.7572 19.7581 70.4544C34.2097 76.4351 64.3247 88.0353 77.0966 73.053C96.5656 50.4429 60.4223 26.3026 42.3227 19.2989L42.1696 19.0806C40.8049 19.2239 39.4826 18.035 40.3327 16.4618C42.0657 13.1298 43.3948 9.91839 44.6033 6.30303C44.7011 5.74607 45.1375 5.4399 45.5414 5.31941C45.6717 4.57679 46.7629 3.8114 47.7791 4.56385ZM19.3832 78.0435L19.7545 78.1086C32.5776 82.464 46.3647 90.0506 60.3183 89.0545C73.2785 88.2669 88.0663 80.3365 90.1711 66.1615C94.5011 38.2155 67.5491 22.7689 45.212 14.8302C44.9286 15.3546 44.8634 15.7259 44.5801 16.2503C62.2757 23.3745 98.9108 47.9839 83.155 71.2456C69.4708 91.4262 39.828 82.5882 20.5266 74.7994C20.1454 75.8808 19.7643 76.9621 19.3832 78.0435ZM47.6193 8.74603C47.2708 9.64172 46.9222 10.5374 46.5737 11.4331C69.4351 19.6552 104.67 41.3396 92.4801 71.5424C87.7958 82.9682 75.9134 91.7913 63.3245 92.6441C47.2635 93.653 33.0074 86.5583 18.1746 81.6588C17.7283 83.1115 17.4677 84.5967 17.207 86.082C43.0033 91.7571 72.343 103.413 83.3411 129.073C111.049 146.757 141.297 160.868 166.682 181.973C177.474 163.007 188.911 144.728 197.944 124.88C205.429 108.396 217.634 94.4623 224.257 77.4441C192.282 62.2644 163.797 41.3816 132.672 24.6286L132.519 24.4104C123.086 36.7251 105.328 33.2261 92.4398 29.242C76.6462 24.3653 62.149 16.4629 47.6193 8.74603Z" fill="white"/>
<path d="M110.779 69.7778C133.683 76.6677 152.762 92.2638 172.483 105.293C173.966 102.3 175.48 99.1211 176.067 95.7793C176.295 94.4798 177.321 94.0857 178.249 94.2486C178.653 94.1281 178.839 94.1607 179.363 94.4441C182.848 96.3953 185.581 99.3627 189.066 101.314C190.115 101.881 190.443 103.278 189.691 104.294C182.417 114.117 180.967 127.833 172.492 136.871C168.27 141.297 163.408 137.382 159.506 133.444C158.861 132.757 158.805 131.982 159.121 131.272C158.477 130.584 158.333 129.22 159.424 128.454C162.327 126.093 164.988 122.924 166.35 119.527C165.311 117.813 163.803 116.592 162.011 115.895C157.204 112.755 152.429 109.429 147.622 106.289C139.209 100.794 130.731 95.6697 122.002 90.8845C124.324 98.3728 126.646 105.861 128.596 113.284C128.925 114.682 127.955 115.851 126.437 115.776C121.698 115.518 117.069 116.811 112.33 116.554C111.369 116.576 110.91 115.922 110.855 115.146C110.516 114.896 110.396 114.492 110.275 114.088C108.758 103.105 105.625 92.6036 101.313 82.2782L101.345 82.0926C100.854 81.6235 100.613 80.8157 100.929 80.1057C102.388 76.1516 104.743 72.5461 107.404 69.377C108.561 68.2403 110.199 68.7192 110.779 69.7778ZM109.385 73.3605C107.629 75.7317 106.059 78.1354 104.98 81.0081L105.134 81.2263C109.292 91.3334 112.393 102.02 114.096 113.036C117.535 113.065 121.072 112.538 124.545 112.382C122.353 104.151 119.943 96.0731 117.162 87.9301C116.647 86.5002 118.273 84.8717 119.693 85.5037C137.434 94.5496 153.605 105.999 170.06 116.924C170.737 117.426 170.76 118.387 170.629 119.13C168.822 123.979 166.063 127.705 162.408 131.083C164.375 132.959 168.626 136.001 169.661 134.461C172.606 130.767 174.688 126.54 176.616 122.094C179.274 115.671 181.714 109.401 185.607 103.577C183.389 102.04 181.421 100.164 179.171 98.8119C178.213 102.089 176.731 105.082 175.249 108.075C175.206 109.407 173.493 110.446 172.105 109.629C152.198 96.5664 132.692 80.13 109.385 73.3605Z" fill="white"/>
</svg>
