<svg width="79" height="81" viewBox="0 0 79 81" fill="none" xmlns="http://www.w3.org/2000/svg">
<path d="M78.7213 46.1972C75.8844 66.8289 56.0259 83.6749 34.8435 80.6464C12.7154 77.6179 -2.79311 59.4469 0.422076 36.5438C5.33942 1.33747 41.2739 -0.176791 42.2195 0.0124904C62.2671 1.33746 81.5582 26.3226 78.7213 46.1972ZM74.9387 44.4937C65.8606 45.2508 58.2954 43.1687 50.1629 39.0045C46.0021 36.7331 27.8457 25.9441 28.4131 37.301C29.3587 53.9577 51.8651 57.7434 51.1085 74.7787C62.2671 70.9931 71.7236 62.0968 74.1822 49.7935C74.7496 48.09 74.9387 46.1972 74.9387 44.4937ZM74.7496 39.7616C64.7258 40.1402 59.6193 32.5689 51.1085 27.4583C42.976 22.7263 26.5218 16.6693 20.6588 28.0262C10.2568 48.09 42.976 56.6077 44.1108 75.9144V76.293C45.2456 76.1037 46.3803 75.9144 47.5151 75.7251C48.6499 63.0433 35.4109 57.9326 28.6022 49.415C25.3871 45.2508 22.1719 34.8403 26.711 30.4868C31.25 26.1333 38.0587 28.7833 42.976 31.0547C53.9455 35.976 62.2671 41.6544 74.7496 40.708C74.7496 40.3295 74.7496 40.1402 74.7496 39.7616ZM73.9931 36.1653C70.7779 21.212 58.8628 6.44805 44.2999 3.98739L43.9217 4.17668C23.874 4.55524 8.93286 14.0193 4.77203 32.7582C0.422074 52.4435 9.87851 71.9395 30.6827 76.293C33.8978 77.0501 37.113 77.2394 40.3282 77.0501C40.1391 76.8608 40.1391 76.4822 40.1391 76.293C39.0043 55.6613 2.31336 48.4686 18.3893 24.8084C23.1175 17.8049 32.9522 17.0478 40.3282 19.1299C45.2456 20.4549 50.1629 22.537 54.3237 25.3762C60.7541 29.7297 66.0497 36.1653 73.9931 36.1653Z" fill="white"/>
</svg>
