<?xml version="1.0" encoding="utf-8"?>
<svg
  x="0px" y="0px"
	viewBox="0 0 700 526"
	style="enable-background:new 0 0 700 526;"
	xmlns="http://www.w3.org/2000/svg"
	preserveAspectRatio="none">
<style>path { fill: #FAF7F1 }</style>
<path d="M352.18 11.7675C348.272 11.7675 309.191 11.7675 305.283 11.7675C258.386 7.84497 238.846 11.7675 168.5 7.84503C98.1544 7.84503 8.26836 3.92255 8.26836 3.92255C8.26836 3.92255 8.26836 82.3721 4.36027 141.209C4.36027 200.047 4.36027 239.271 4.36027 239.271C4.36027 239.271 4.36027 251.039 8.26836 262.806C8.26836 274.574 4.36027 286.341 4.36027 298.109C-7.364 431.473 8.26835 525.612 8.26835 525.612C47.3492 521.69 109.879 517.767 172.408 517.767C234.938 517.767 266.202 517.767 297.467 521.69C313.099 521.69 352.18 525.612 352.18 525.612C352.18 525.612 363.904 525.612 379.537 521.69C434.25 517.767 559.309 513.845 692.184 521.69C692.184 506 692.184 466.775 696.092 423.628C696.092 380.481 700 329.488 700 290.264C700 278.496 700 270.651 700 258.884C700 251.039 700 239.271 700 231.426C700 149.054 692.184 7.81978e-06 692.184 7.81978e-06C571.033 3.92249 430.342 7.84498 375.629 11.7675C359.996 11.7675 352.18 11.7675 352.18 11.7675Z"/>
</svg>
