<svg width="122" height="155" viewBox="0 0 122 155" fill="none" xmlns="http://www.w3.org/2000/svg">
<path d="M104.954 87.9399C104.954 87.9399 104.981 88.0032 105.044 87.9767C105.044 87.9767 105.044 87.9767 104.981 88.0032L104.918 88.0296C104.871 88.2723 104.797 88.4517 104.66 88.6576C104.835 89.2536 104.973 89.9394 105.085 90.5619C105.196 91.1843 105.308 91.8068 105.42 92.4293C105.542 92.8988 105.637 93.3049 105.759 93.7744C105.934 94.3705 106.109 94.9665 106.31 95.6259C106.538 96.3485 106.765 97.0711 107.056 97.7673C107.638 99.1598 108.22 100.552 108.892 101.982C109.563 103.411 110.209 104.777 110.88 106.206C111.489 107.662 112.097 109.118 112.705 110.573C113.684 112.915 114.636 115.194 115.552 117.562C115.816 118.195 116.081 118.828 116.256 119.424C116.642 120.526 117.055 121.692 117.099 122.863C117.116 123.971 116.791 125.148 115.796 125.787C115.38 126.035 114.964 126.283 114.547 126.532C114.131 126.78 113.652 127.054 113.21 127.239C110.95 128.407 108.716 129.638 106.546 130.842C105.461 131.444 104.35 131.983 103.238 132.522C102.19 133.034 101.142 133.547 100.12 134.122C99.4141 134.566 98.7084 135.01 97.9129 135.416C97.2704 135.834 96.6279 136.251 95.8957 136.631C95.4164 136.906 94.9739 137.091 94.4946 137.365C92.298 138.506 89.9324 139.421 87.6565 140.372L81.0184 143.146C78.7425 144.097 76.4666 145.048 74.1275 146.026C71.7251 147.03 69.3228 148.034 66.9572 148.948C66.5146 149.133 66.0456 149.255 65.5399 149.466C64.7548 149.72 63.9697 149.973 63.1582 150.164C62.8156 150.233 62.5363 150.275 62.2305 150.254C61.7351 150.313 61.25 150.218 60.7384 150.06C59.8946 149.818 59.2611 149.19 58.854 148.394C58.2882 147.218 57.8121 146.079 57.3095 144.876C56.2676 142.561 55.1257 140.361 54.0838 138.046C53.0684 135.794 51.9265 133.595 50.8478 131.369C49.822 129.27 48.6963 127.287 47.5705 125.304C46.8783 124.181 46.1861 123.057 45.3674 121.987C44.6016 121.043 43.7991 120.189 42.9966 119.335C42.7643 119.134 42.5056 118.871 42.2734 118.67C41.7309 118.971 41.0987 119.236 40.5561 119.537C40.0136 119.838 39.3124 119.759 38.7744 119.538C38.2363 119.317 37.7454 118.853 37.5073 118.283C37.2693 117.713 37.2841 117.038 37.5047 116.5C37.6886 116.051 37.9885 115.703 38.4046 115.455C38.9265 115.46 39.5116 115.438 40.1967 115.3C41.1876 115.184 42.2152 114.977 43.1003 114.607C42.6874 113.442 41.6159 112.477 40.9133 111.507C38.8851 108.786 37.8786 105.489 36.7722 102.308C34.7709 96.4535 32.6329 90.8044 32.1283 84.6215C31.6456 79.0242 32.3538 73.0778 35.2038 68.1695C38.017 63.3508 41.4314 58.7269 45.9864 55.4107C47.0818 54.6556 48.5991 54.0215 49.4622 53.066C49.0713 52.4859 47.8746 52.4656 47.2469 52.2075C46.3766 51.9021 45.6064 51.4805 44.8729 50.9692C43.4323 50.01 42.3653 48.5229 41.8937 46.8613C40.9079 43.2586 42.3831 39.1477 44.63 36.3501C45.4666 35.3313 46.3665 34.2861 47.4619 33.5309C48.6205 32.7494 49.832 32.0944 51.0964 31.566C51.1596 31.5395 51.2861 31.4867 51.3493 31.4603C51.3493 31.4603 51.3493 31.4603 51.4125 31.4339C51.9834 28.8905 52.7071 26.3577 53.3676 23.8512C53.9075 21.7669 54.3578 19.6457 54.8977 17.5614C55.3066 16.0523 55.8053 14.58 56.4832 13.1815C56.8142 12.374 57.1715 11.6299 57.5025 10.8225C58.0437 9.6298 58.6746 8.47399 59.179 7.37101C59.857 5.97248 60.4717 4.60035 61.2658 3.30198C61.4394 3.00642 61.7658 2.72131 62.1451 2.56279C62.3348 2.48352 62.5876 2.37785 62.8037 2.36188C63.3624 2.2771 64.0269 2.4455 64.4914 2.84615C65.0191 3.22039 65.3203 3.76361 65.3687 4.41251C65.401 4.8451 65.3436 5.24083 65.1965 5.59968C65.123 5.7791 64.9862 5.98495 64.8862 6.10109C64.9495 6.07467 64.923 6.01136 64.9598 5.92165C64.0451 7.64217 63.2465 9.46286 62.3582 11.2467C61.0493 13.801 59.883 16.5188 59.0858 19.2311C58.5826 21.2257 58.1427 23.1939 57.6396 25.1885C57.2409 26.5446 56.8687 27.9641 56.5333 29.2938C56.4494 29.6262 56.4024 29.869 56.3185 30.2014C56.4759 29.6895 59.7453 30.4049 60.0143 30.5155C61.3697 30.9156 62.7412 31.532 64.0495 32.1748C64.614 32.4593 65.2049 32.8071 65.6958 33.2711C67.179 34.5099 68.3944 36.5297 68.8189 38.434C68.9938 39.0301 69.1054 39.6526 69.1273 40.2382C69.1493 40.8238 69.1977 41.4727 69.03 42.1375C68.8623 42.8024 68.721 43.5305 68.5268 44.1321C68.0753 45.3617 67.4444 46.5175 66.6974 47.5732C67.9205 47.6568 69.1069 47.8301 70.23 48.0299C71.4428 48.2665 72.5659 48.4662 73.7155 48.7293C74.8916 49.0556 76.0941 49.4452 77.1966 49.951C78.2991 50.4567 79.4016 50.9625 80.4673 51.558C81.8549 52.3906 83.1426 53.3394 84.267 54.4308C84.9005 55.0582 85.5605 55.7489 86.1572 56.466C87.0656 57.5734 87.7843 58.76 88.4662 60.0363C89.0423 61.0594 89.6448 62.1458 90.1577 63.1954C90.697 64.3082 91.2099 65.3578 91.686 66.497C92.1357 67.573 92.6486 68.6226 93.1247 69.7618C93.6008 70.9011 94.0505 71.9771 94.5898 73.0899C96.7575 77.3883 98.2665 81.8876 99.9916 86.3709C100.177 86.814 100.574 87.7634 101.132 87.6786C101.475 87.6098 102.059 86.6967 102.501 86.5117C103.323 86.1683 104.452 86.7373 104.69 87.307C104.912 87.6603 104.965 87.7869 104.954 87.9399ZM58.2833 50.7178C60.0903 49.8883 61.7649 48.7424 63.2074 47.3961C65.4923 45.4003 65.609 42.3033 64.7509 39.5394C63.5858 35.8629 59.2345 34.3357 55.6987 35.293C52.9744 36.0597 50.1882 37.7445 48.262 39.8878C47.2621 41.0491 45.921 43.1709 46.2029 44.9117C46.0952 46.9641 47.6532 48.9151 49.2628 50.1011C51.891 52.1253 55.4017 51.9964 58.2833 50.7178ZM36.6053 82.007C36.6317 82.0703 36.6949 82.0439 36.7214 82.1072C37.4284 82.5552 38.1355 83.0032 38.8161 83.3879C39.2909 83.6355 39.8025 83.7935 40.314 83.9514C40.8624 84.0196 41.3475 84.1143 41.8958 84.1825C42.7603 84.1186 43.5086 83.9546 44.3201 83.7641C45.042 83.5368 45.7639 83.3095 46.4961 82.9291C48.134 81.8729 49.7822 80.6637 51.304 79.5073C52.02 78.9106 52.7361 78.314 53.4257 77.654C53.7521 77.3689 54.0521 77.0205 54.3153 76.7619C55.3945 75.7904 56.5899 74.9191 57.8646 74.2377C58.66 73.8309 59.4289 73.3609 60.314 72.991C60.8198 72.7796 61.3255 72.5683 61.8313 72.3569C62.4003 72.1191 63.0589 71.9182 63.6808 71.807C64.3027 71.6958 64.7981 71.6374 65.3832 71.616C65.7522 71.6104 66.1212 71.6049 66.4535 71.6891C66.7225 71.7997 67.0283 71.8206 67.2973 71.9313C67.925 72.1894 68.5791 72.5108 69.07 72.9747C69.561 73.4387 70.0255 73.8393 70.4164 74.4194C70.5854 74.6462 70.7545 74.8729 70.9499 75.1629C71.4835 75.9065 71.9538 76.6765 72.3608 77.4728C72.6621 78.016 73.0531 78.5961 73.544 79.0601C73.7762 79.2604 73.982 79.3975 74.2143 79.5978C74.573 79.7453 74.8684 79.9192 75.2007 80.0034C76.0812 80.1558 76.9986 80.2185 77.8895 80.2179C78.6907 80.1805 79.4919 80.143 80.2667 80.0423C80.8253 79.9575 81.4208 79.783 82.0162 79.6085C82.8645 79.3283 83.776 79.0218 84.6244 78.7416C85.4462 78.3981 86.2313 78.1444 87.0267 77.7376C87.3796 77.5158 87.706 77.2307 88.0324 76.9456C88.4588 76.5443 88.7955 76.1062 89.1058 75.6048C89.3529 75.1298 89.5896 74.8078 90.0057 74.5596C89.1857 72.5975 88.3658 70.6355 87.509 68.7631C87.0594 67.6871 86.5729 66.7009 85.9968 65.6777C85.3943 64.5913 84.8814 63.5417 84.2156 62.4817C83.4073 61.2583 82.4989 60.151 81.4377 59.0332C80.4558 58.1053 79.374 57.2935 78.1921 56.5979C76.5619 55.7179 74.8317 54.954 73.0544 54.4329C71.8152 54.1329 70.4759 53.9492 69.2367 53.6493C68.1135 53.4495 67.0169 53.3131 65.8834 53.2663C64.9293 53.2933 64.0281 53.4469 63.1533 53.6638C61.836 54.0656 60.5716 54.594 59.3072 55.1224C58.3589 55.5187 57.3474 55.9415 56.3991 56.3378C54.06 57.3153 51.7208 58.2929 49.5772 59.5605C48.645 60.1731 47.7129 60.7857 46.9233 61.5618C46.5968 61.8469 46.2969 62.1953 45.9072 62.5068C45.3441 63.1139 44.7177 63.7474 44.0913 64.3809C43.7281 64.7557 43.3649 65.1305 43.0018 65.5054C42.6018 65.9699 42.1122 66.3975 41.7122 66.8621C41.3755 67.3002 41.0387 67.7383 40.7285 68.2397C39.8873 69.7808 39.2254 71.3956 38.5636 73.0105C38.0121 74.3562 37.4238 75.7916 36.9883 77.2374C36.8219 78.7939 36.6188 80.4401 36.6053 82.007ZM65.6513 142.803C64.6153 140.856 63.7056 138.857 62.2799 137.223C60.8542 135.588 59.7284 133.605 58.4659 131.828C57.0079 129.761 55.6763 127.641 54.3448 125.521C53.4571 124.108 52.6326 122.668 51.9081 121.112C51.6436 120.479 51.3423 119.936 51.0778 119.303C50.8662 118.797 50.6811 118.354 50.5327 117.821C50.343 117.9 50.2166 117.953 50.0269 118.032C49.3315 118.323 48.567 118.271 47.8026 118.218C48.3464 118.809 48.8638 119.336 49.3444 119.953C50.3321 121.25 51.1934 122.6 52.0179 124.04C52.594 125.063 53.2597 126.123 53.7726 127.173C55.0571 129.535 56.2151 131.951 57.4364 134.34C57.9228 135.326 58.3828 136.249 58.806 137.262C59.3718 138.438 59.9375 139.614 60.5033 140.79C61.0427 141.903 61.582 143.016 62.0581 144.155C62.3755 144.915 62.6665 145.611 62.9839 146.371L63.0471 146.344C64.0483 146.075 65.7611 145.731 66.6565 145.208C67.7415 144.605 65.9791 143.409 65.6513 142.803ZM67.4735 130.815C65.6232 127.276 63.5466 123.906 61.9492 120.261C61.4202 118.995 60.8015 117.693 60.3357 116.4C60.055 115.551 59.748 114.639 59.5305 113.763C59.4776 113.637 59.4879 113.483 59.4086 113.294C59.1293 113.336 58.7603 113.342 58.4545 113.321C57.321 113.274 56.3346 112.868 55.2644 112.795C55.1115 112.785 54.9851 112.838 54.8322 112.827C54.7057 112.88 54.6425 112.906 54.5161 112.959C54.2897 113.128 54 113.324 53.8 113.556C53.9426 113.719 54.1116 113.946 54.1278 114.162C54.3026 114.758 54.5039 115.418 54.742 115.987C54.9271 116.43 55.0755 116.963 55.2871 117.469C57.8044 122.96 60.2953 128.387 63.3552 133.577C64.8719 136.14 66.4518 138.676 68.2846 141.107C69.0768 142.114 69.7381 143.697 71.2141 143.675C72.6901 143.653 73.0152 142.476 72.5759 141.247C72.4436 140.93 72.2849 140.551 72.2159 140.208C71.0462 137.054 69.0489 133.874 67.4735 130.815ZM82.1453 138.735C82.0557 138.698 82.0028 138.571 81.9131 138.534C81.0576 137.554 80.2654 136.546 79.5997 135.486C78.9603 134.49 78.2946 133.43 77.7552 132.317C77.2952 131.394 76.872 130.381 76.4753 129.432C75.523 127.153 74.5708 124.875 73.5554 122.623C72.5238 120.154 71.429 117.712 70.3606 115.333C69.9109 114.257 69.4877 113.245 69.1013 112.142C68.6252 111.003 68.1858 109.774 67.7097 108.635C67.5568 108.624 67.3407 108.64 67.1878 108.63C66.5763 108.588 65.9382 108.483 65.3267 108.441C64.9267 108.906 64.6429 109.47 64.3326 109.972C64.1591 110.267 63.9488 110.653 63.7488 110.885L63.7753 110.948C63.903 111.787 64.0675 112.536 64.2585 113.348C64.8359 115.263 65.6927 117.136 66.4597 118.971C66.8829 119.984 67.3062 120.996 67.7029 121.946C68.5068 123.692 69.2209 125.4 70.0248 127.146C71.7221 130.675 73.4563 134.113 75.3433 137.563C75.9458 138.649 76.5852 139.646 77.3509 140.59C77.3774 140.653 77.4406 140.626 77.4671 140.69C78.4786 140.267 79.4901 139.844 80.4384 139.448L82.1453 138.735ZM90.5903 135.131C90.5374 135.004 90.4213 134.904 90.342 134.714C89.5968 133.464 88.9149 132.188 88.2962 130.885C87.8098 129.899 87.2337 128.876 86.7473 127.89C86.155 126.65 85.5628 125.411 85.0338 124.145C84.5048 122.879 84.0022 121.677 83.4732 120.411C82.4945 118.069 81.5158 115.727 80.5107 113.322C80.0081 112.119 79.532 110.98 79.0294 109.778C78.6591 108.892 78.2624 107.942 77.892 107.056C77.4688 106.043 77.1088 105.004 76.8121 103.939C76.7488 103.965 76.6592 103.928 76.5959 103.955C76.0741 103.95 75.5889 103.855 75.0406 103.787C75.0406 103.787 75.0406 103.787 74.9774 103.813C74.051 104.795 73.2408 105.877 72.1719 106.696C72.9815 108.811 73.8544 110.899 74.6376 112.951C75.3518 114.66 76.1292 116.343 76.8169 117.988C77.6633 120.014 78.573 122.013 79.4194 124.038C79.7897 124.924 80.1865 125.873 80.5568 126.76C80.7949 127.329 81.0065 127.835 81.2445 128.405C81.7206 129.544 82.26 130.657 82.9257 131.717C83.3431 132.361 83.6973 133.03 84.1515 133.584C84.5689 134.227 85.1127 134.818 85.6301 135.345C86.0314 135.772 86.1533 136.242 86.0856 136.791L87.4764 136.209C88.5305 136.066 89.542 135.643 90.5903 135.131ZM99.3501 130.504C98.8372 129.454 98.4508 128.352 98.0011 127.276C96.0702 122.655 94.1129 117.972 92.1819 113.351C91.1239 110.82 90.0291 108.378 88.8711 105.962C87.7924 103.736 86.9299 101.495 85.9776 99.2162C85.3293 99.2641 84.6545 99.2487 84.0326 99.3599L83.9062 99.4127C83.5533 99.6345 83.2269 99.9196 82.9005 100.205C82.6005 100.553 82.327 100.965 81.9638 101.34C81.7903 101.635 81.5271 101.894 81.2639 102.153C81.2271 102.242 81.1007 102.295 81.0639 102.385C81.4136 103.577 81.8529 104.806 82.3555 106.009C82.6729 106.768 82.9903 107.528 83.3077 108.287C83.7839 109.426 84.2335 110.502 84.7096 111.642C85.6619 113.92 86.6405 116.262 87.5928 118.54C88.6244 121.009 89.6295 123.414 90.7875 125.83C91.8133 127.929 92.9023 130.001 93.9913 132.074C94.2397 132.491 94.488 132.907 94.7364 133.324C95.2789 133.023 95.795 132.658 96.3375 132.357C97.2329 131.834 98.1651 131.222 99.0869 130.762C99.2237 130.556 99.2869 130.53 99.3501 130.504ZM107.278 126.373C107.135 126.209 107.082 126.083 107.003 125.893L105.707 122.791C103.802 118.234 101.898 113.677 99.9934 109.12C99.0148 106.778 98.0096 104.373 96.9677 102.058C95.9787 99.8691 94.9897 97.6803 94.0007 95.4915L93.9375 95.5179C93.4685 95.6395 93.026 95.8245 92.5305 95.8829C92.188 95.9517 91.8454 96.0204 91.4397 96.1157C91.3132 96.1685 91.25 96.1949 91.1236 96.2478C90.7075 96.496 90.3811 96.7811 89.9914 97.0926L91.7107 101.207C92.1868 102.346 92.6997 103.396 93.2391 104.508C93.8313 105.748 94.4235 106.987 94.9526 108.253C95.9945 110.568 96.9996 112.974 98.0047 115.379C98.9305 117.594 99.8563 119.809 100.756 121.961L102.29 125.632C102.66 126.518 103.057 127.468 103.427 128.354C103.68 128.248 103.97 128.053 104.223 127.947C105.297 127.498 106.256 126.948 107.278 126.373ZM94.5999 90.7059C95.8069 90.5732 97.1036 90.4774 98.2577 90.2181C97.7196 89.9969 97.2287 89.5329 96.9906 88.9633C96.8848 88.7101 96.7526 88.3937 96.6468 88.1405C95.7739 86.0518 94.8746 83.8999 93.7856 81.8272C93.2727 80.7777 92.723 79.8178 92.2102 78.7683C91.8734 79.2064 91.5102 79.5812 91.0838 79.9825C90.7206 80.3573 90.3575 80.7321 89.8782 81.0068C89.2356 81.424 88.6299 81.7515 87.9345 82.0421C86.1643 82.7819 84.4045 83.3686 82.5285 83.8552C81.6538 84.0721 80.779 84.289 79.941 84.4162C78.9501 84.5329 77.9063 84.523 76.8626 84.5131C75.7556 84.5297 74.6589 84.3932 73.6357 84.0774C72.7023 83.7983 71.6894 83.3294 70.9662 82.6652C70.5282 82.3278 70.0637 81.9271 69.7257 81.4736C69.4141 81.0834 69.1657 80.6668 68.9173 80.2502C68.6954 79.8968 68.4735 79.5435 68.2251 79.1269C67.6122 78.1935 67.089 77.2969 66.3762 76.4796C66.1704 76.3426 65.9381 76.1423 65.7323 76.0052C65.4898 75.9579 65.3369 75.9474 65.1208 75.9634C64.8414 76.0058 64.5621 76.0482 64.2828 76.0906C63.308 76.4236 62.423 76.7935 61.5011 77.2531C60.8321 77.607 60.1367 77.8976 59.431 78.3413C58.5356 78.8642 57.6931 79.5136 56.9035 80.2897C56.6403 80.5484 56.3771 80.8071 56.1139 81.0657C55.5243 81.6095 54.9347 82.1533 54.2819 82.7236C53.0497 83.6846 51.7911 84.5823 50.4693 85.5064C49.2107 86.4041 47.9257 87.2385 46.4188 87.7196C45.2279 88.0686 44.0635 88.4809 42.8301 88.5503C41.6231 88.683 40.4896 88.6362 39.34 88.3732C38.5227 88.1943 37.8318 87.9626 37.0879 87.6044C37.3009 89.0023 37.6667 90.4107 37.9692 91.8456C38.197 92.5682 38.3983 93.2275 38.5628 93.9766C38.817 94.7625 39.0712 95.5485 39.3518 96.3977C39.8441 97.7533 40.3363 99.1088 40.855 100.528C41.3737 101.947 41.8924 103.365 42.4111 104.784C42.7285 105.544 42.9827 106.33 43.3001 107.089C43.7762 108.228 44.1627 109.331 44.702 110.444C44.9239 110.797 45.1194 111.087 45.4046 111.414C45.6104 111.551 45.7529 111.715 45.9587 111.852C46.2277 111.962 46.4335 112.099 46.7025 112.21C47.267 112.494 47.705 112.832 47.9696 113.465C48.0225 113.591 48.0754 113.718 48.0386 113.808C48.1386 113.691 48.1489 113.538 48.2489 113.422C48.9282 112.915 49.581 112.345 50.1971 111.865C50.6235 111.463 51.0763 111.125 51.5027 110.724C52.182 110.217 52.7716 109.673 53.4245 109.103C54.505 109.023 55.5327 108.817 56.5706 108.458C57.2983 108.599 57.9628 108.768 58.664 108.847C58.8169 108.857 58.9434 108.804 59.0962 108.815C59.1595 108.788 59.2227 108.762 59.2859 108.735C59.3859 108.619 59.5756 108.54 59.6755 108.424C60.349 107.548 60.8799 106.508 61.5534 105.632C61.7798 105.463 62.043 105.204 62.243 104.972C62.5591 104.84 62.812 104.734 63.1281 104.602C63.697 104.364 64.1764 104.089 64.7189 103.788C65.0879 103.783 65.3937 103.804 65.7627 103.798C66.311 103.866 66.8594 103.935 67.4077 104.003C67.6238 103.987 67.7767 103.997 67.9664 103.918C68.2825 103.786 68.5986 103.654 68.9147 103.522C69.2675 103.3 69.5939 103.015 69.9204 102.73C70.6203 101.917 71.2937 101.041 72.0466 100.354C72.373 100.069 72.7626 99.7576 73.1684 99.6624C73.4213 99.5567 73.7006 99.5144 73.9535 99.4087C74.2328 99.3663 74.5386 99.3872 74.8444 99.4081C75.5192 99.4235 76.094 99.555 76.7055 99.5968C76.7687 99.5704 76.8584 99.6072 76.9216 99.5808C76.9848 99.5544 76.9848 99.5544 77.0481 99.528C77.2745 99.359 77.4377 99.2165 77.6641 99.0475C78.564 98.0023 79.3846 96.7672 80.5432 95.9856C80.996 95.6477 81.4489 95.3097 81.9811 95.1617C82.4868 94.9503 83.0191 94.8022 83.5145 94.7439C84.1628 94.696 84.8376 94.7113 85.5492 94.637C85.6124 94.6106 85.7388 94.5578 85.802 94.5313C87.1664 93.8868 88.2663 92.6093 89.6939 91.9384C90.7422 91.4259 91.9227 91.23 93.0401 91.0604C93.3826 90.9916 93.6619 90.9492 94.0309 90.9437C94.0941 90.9172 94.0942 90.9172 94.1574 90.8908C94.3206 90.7483 94.447 90.6954 94.5999 90.7059ZM100.807 92.0525C100.138 92.4064 99.5054 92.6706 98.7835 92.8979C98.5306 93.0036 98.2513 93.046 97.9984 93.1517C98.5377 94.2645 99.0403 95.4671 99.5796 96.5799C101.727 101.184 103.621 105.894 105.605 110.641C107.483 115.135 109.387 119.692 111.265 124.186L111.292 124.249C111.771 123.975 112.277 123.763 112.819 123.462C112.083 121.168 111.157 118.952 110.231 116.737C109.226 114.332 108.221 111.927 107.216 109.522C106.174 107.206 105.069 104.917 104.027 102.602C103.551 101.463 103.101 100.387 102.688 99.2211C102.249 97.9921 101.847 96.6734 101.534 95.3916C101.359 94.7955 101.221 94.1098 101.109 93.4873C100.987 93.0178 100.928 92.5219 100.807 92.0525Z" fill="white"/>
</svg>
