<svg width="183" height="179" viewBox="0 0 183 179" fill="none" xmlns="http://www.w3.org/2000/svg">
<path fill-rule="evenodd" clip-rule="evenodd" d="M167.568 81.2645C166.064 79.9286 164.769 78.4341 163.24 77.2825C160.047 74.5851 156.015 72.5221 152.904 70.5872C146.391 66.1135 139.744 61.2457 134.725 55.4776C129.522 49.6839 124.58 43.3632 120.114 37.672C112.767 28.3879 107.211 19.7285 96.7989 13.5858C94.3736 12.1218 89.7889 9.98196 87.2611 9.25484C78.5725 6.91974 73.5156 12.2254 74.5428 19.6917C71.2208 24.6752 67.4229 29.0293 63.6251 33.3834C59.8017 37.9217 56.5053 42.721 52.6818 47.2593C49.7746 50.6106 46.3404 53.7008 43.0391 57.185C36.6464 63.9949 30.5452 71.4086 24.4953 78.4539C21.3526 82.148 18.3685 86.0519 15.3027 89.1933C12.9176 91.4905 8.74163 93.1631 8.25484 96.6632C7.63994 101.084 13.1505 104.667 15.7393 107.656C19.1723 111.326 22.5748 113.865 25.7418 116.747C32.7103 123.349 38.0721 129.353 44.6721 135.904C53.4107 144.631 61.6626 156.857 74.2088 163.86C77.6881 165.846 86.3816 169.496 89.5036 167.302C90.7626 166.35 91.3055 163.797 92.0375 162.584C94.1566 159.499 97.9849 156.276 101 153.503C108.994 145.977 116.753 138.793 124.195 131.191C125.741 129.528 126.969 127.445 128.648 126.176C130.537 124.749 133.059 124.161 134.948 122.734C140.562 118.82 144.596 114.123 148.916 108.715C151.961 107.073 153.476 104.279 156.941 102.32C161.823 99.619 169.924 99.4312 172.217 93.7412C174.746 87.7085 171.104 84.1974 167.568 81.2645ZM99.8692 40.1142C99.7667 40.8511 99.1885 40.9584 98.5846 41.25C97.1108 41.045 96.4203 39.259 97.3366 38.0719C99.2043 38.1439 99.6545 38.9577 99.8692 40.1142ZM106.312 124.76C114.433 123.073 122.974 121.068 129.873 116.019C138.4 110.069 146.722 98.8333 141.807 85.5684C140.692 82.7844 135.99 77.436 133.248 75.5523C128.106 72.0205 120.236 70.5504 113.967 68.3641C118.797 72.7914 126.453 73.105 131.779 76.6625C134.02 78.1009 138.983 82.9223 140.124 85.5221C141.822 89.5138 141.846 96.0895 140.858 99.1443C139.04 105.464 133.825 110.56 129.234 113.864C121.915 119.231 109.567 122.959 98.8613 122.973C95.4685 123.064 92.0709 121.84 88.9136 121.589C85.2036 121.261 81.8109 121.352 78.5511 121.838C74.3446 122.38 70.3528 124.078 64.7751 123.678C58.6765 117.572 53.2635 111.936 52.6157 100.392C52.3303 94.3431 53.4881 87.3685 53.3308 80.3988C53.2247 73.0606 52.7709 64.1719 55.0645 58.4819C57.6192 52.2649 67.6401 45.0208 74.738 43.9424C76.8412 43.6715 78.8676 43.9534 80.5512 43.9997C73.9145 41.7623 67.9012 44.4937 63.0493 48.3257C57.1739 52.7663 52.4501 55.6772 51.2252 65.8347C50.3077 73.7816 51.2629 83.1157 50.6419 92.9816C49.6975 107.873 51.7067 117.729 61.8789 122.899C54.1723 122.954 51.9629 115.887 50.1525 110.001C48.5568 105.273 47.7236 100.462 46.7879 96.389C45.8522 92.3155 44.492 87.244 44.4725 81.9835C44.453 76.7229 44.6129 70.1729 46.0415 65.3015C49.4929 52.637 62.5236 41.3047 76.0129 40.1763C89.5022 39.0479 99.4278 48.6907 103.638 56.2241C104.221 57.4318 104.226 58.747 104.968 60.1646C106.052 61.8177 108.825 64.8322 110.616 65.4569C112.591 66.1071 115.012 66.256 116.854 66.5122C128.7 69.0986 137.281 70.8555 142.545 78.911C145.825 83.686 149.455 98.0867 145.565 105.808C144.234 108.627 140.85 111.349 138.256 113.805C130.261 121.331 120.757 126.206 106.312 124.76ZM90.3695 53.0642C95.2762 56.9389 98.7189 63.2389 105.197 65.2665C99.7376 61.315 95.7983 55.8848 90.1548 51.9077C89.6838 52.5933 90.2365 52.6702 90.3695 53.0642ZM88.2245 84.6884C86.4738 87.825 85.8077 92.6146 85.8174 95.2449C86.0211 100.531 90.4362 106.591 93.7875 109.498C99.0114 113.792 107.091 115.104 113.13 112.188C115.756 110.863 117.849 107.962 120.183 106.033C122.568 103.736 125.321 101.49 126.125 98.4098C127.344 93.697 125.007 87.5508 122.495 84.0092C119.19 79.4184 112.835 75.1545 105.497 75.2606C97.0536 75.213 90.5742 79.9452 88.2245 84.6884ZM82.8113 107.408C84.5864 110.847 92.6297 116.473 96.7641 117.799C110.247 122.115 118.662 114.272 124.108 107.518C117.971 112.486 111.476 120.033 99.4713 117.236C94.5743 115.992 86.3724 110.157 84.4644 106.323C79.7737 96.8455 84.7342 86.8319 90.4974 80.4978C90.523 80.3136 90.5742 79.9452 90.39 79.9196C82.4113 84.6311 78.4122 98.5339 82.8113 107.408ZM105.25 108.088C112.982 107.849 123.229 97.6313 117.806 89.3659C120.302 95.722 115.885 103.182 110.711 105.279C108.715 106.128 104.825 107.09 102.825 106.624C100.456 106.106 96.2344 102.703 95.2268 100.497C93.7689 97.4774 93.7189 91.0859 95.6795 87.7908C99.1296 81.8861 107.752 80.6443 115.868 84.4018C108.398 77.354 94.1301 81.3786 92.5624 91.3007C91.4558 97.9068 93.609 104.027 99.2221 106.874C96.4076 106.858 92.4733 102.743 91.3582 99.9588C89.926 96.7551 90.4079 91.9399 90.9252 89.5707C92.6613 82.4888 100.722 78.5397 107.824 78.7765C113.059 78.9412 117.572 82.9489 119.874 86.6491C120.933 88.4864 123.184 92.555 122.462 96.3979C121.791 99.8724 115.423 106.498 111.959 108.457C109.753 109.465 107.517 109.342 105.25 108.088ZM169.102 90.4912C167.919 90.8902 167.388 89.314 166.886 88.8687C158.096 80.5105 147.73 72.6843 138.152 64.5922C134.801 61.6849 130.82 59.2535 127.52 55.9778C121.606 49.8974 116.265 42.3945 110.873 35.2601C107.225 30.4338 102.364 24.8756 97.5602 20.264C93.8918 16.9371 87.7932 10.8311 80.8332 13.6187C82.8754 11.086 90.9858 13.5285 94.6238 15.7245C102.033 20.5105 108.029 27.3534 113.314 33.9096C118.44 40.2559 122.543 47.211 128.697 54.2638C134.034 60.4515 140.736 66.266 148.278 71.4461C153.42 74.9779 159.248 78.9807 164.288 83.2494C167.639 86.1567 169.322 86.203 169.102 90.4912ZM152.72 98.9163C152.643 99.4689 153.615 99.2286 153.984 99.2798C153.328 99.9398 152.198 99.9703 151.358 100.605C152.139 84.1887 145.193 69.3269 129.161 65.7828C120.605 63.8417 110.662 63.7733 107.01 57.632C105.818 55.4006 105.179 53.2461 103.987 51.0148C99.0911 43.0105 88.8836 35.3941 75.6041 36.3639C73.1325 36.5835 71.111 37.6168 68.4551 37.8107C72.514 32.9296 76.8901 28.4682 79.0714 20.8848C75.2529 26.7383 70.9378 33.4615 65.7992 38.0047C65.3795 38.3219 64.4633 39.5089 64.3559 38.9306C69.5921 32.3355 75.5957 26.9737 78.7189 18.0191C80.572 14.1457 86.9123 14.4642 91.3944 17.3409C92.7657 18.2827 94.5359 20.4067 96.3829 21.9781C107.68 32.5627 114.99 46.1606 126.159 57.6662C135.03 66.7869 147.054 74.8437 157.425 83.985C159.114 85.3465 160.459 86.4726 162.624 88.4636C163.626 89.3542 167.003 92.0772 167.008 93.3923C167.053 98.4686 154.921 96.5935 152.72 98.9163ZM87.0524 31.0083C87.2367 31.0339 87.6051 31.0851 87.5795 31.2693C89.5546 31.9196 90.8088 29.6529 89.8828 28.2097C87.7235 27.5338 86.5462 29.2478 87.0524 31.0083ZM93.5561 32.8517C93.8733 33.2714 94.3747 33.7167 95.3214 33.6606C97.8395 31.7574 93.3317 29.0649 93.5561 32.8517ZM89.0166 35.7881C89.7327 37.39 92.4911 36.4592 91.8262 34.4889C90.6135 33.7569 89.2215 34.3144 89.0166 35.7881ZM98.1444 43.0666C102.197 43.6302 102.905 35.8419 97.9614 36.2811C94.1234 36.874 95.0127 42.631 98.1444 43.0666ZM113.101 47.5879C113.388 46.8767 113.439 46.5083 113.357 45.7458C110.799 43.8877 109.893 47.705 113.101 47.5879ZM121.868 127.675C122.108 128.647 120.742 129.02 120.297 129.522C109.211 140.373 97.2854 151.859 86.358 162.921C74.0411 161.02 67.1495 153.865 60.0737 146.684C49.2221 135.598 40.1614 125.137 28.3887 113.922C26.0658 111.722 22.7963 109.577 19.4963 106.301C17.3577 104.126 12.3436 99.673 12.4412 97.621C12.4827 94.6223 18.3069 90.5501 20.4565 88.5957C28.8964 80.5683 36.5945 71.1233 44.3487 62.625C43.3349 65.864 40.346 68.4528 38.0939 71.1441C33.3542 76.8694 29.055 80.7782 23.7627 86.4266C21.1165 89.2509 16.3415 92.5301 16.5709 97.6321C16.6318 99.8939 19.3536 103.277 20.8066 104.981C23.288 107.392 26.1891 109.485 28.7473 111.343C41.7534 121.79 52.7637 133.086 65.1964 144.955C67.1764 146.921 69.8932 148.989 72.5333 151.609C76.4933 155.54 78.6111 159.214 84.4451 157.773C85.8114 157.399 87.2291 156.657 88.4625 155.89C93.8157 152.503 98.714 146.988 103.694 142.235C108.674 137.482 114.181 132.99 118.741 128.554C107.114 135.199 100.572 144.43 90.0802 152.359C87.5621 154.263 84.8086 156.509 81.1755 155.628C78.4635 154.875 75.7674 151.308 72.759 148.636C64.6547 140.749 57.5277 133.936 49.3722 126.418C41.7181 119.344 33.7212 112.035 24.9618 104.808C22.2449 102.74 18.4179 99.2034 18.3825 96.7573C18.424 93.7586 22.2267 90.7197 24.0079 88.7141C30.6361 81.5614 36.686 74.5161 42.8433 68.049C39.3967 82.0287 42.0965 93.671 44.5302 104.525C45.921 110.727 47.9461 117.769 50.9594 121.756C53.9727 125.743 64.6365 128.728 72.3431 128.674C78.3405 128.757 84.804 126.839 91.3028 127.367C102.458 128.167 113.276 130.047 121.868 127.675ZM34.3765 83.0205C34.0642 83.916 34.3558 84.5199 35.2512 84.8322C35.8295 84.7248 36.2492 84.4076 36.2187 83.2767C35.9015 82.857 34.7962 82.7033 34.3765 83.0205ZM31.0752 86.5047C29.837 85.957 29.3404 86.8268 28.8951 87.3282C28.9464 86.9598 29.0232 86.4071 28.445 86.5145C22.3853 90.9295 35.2756 91.4079 31.0752 86.5047ZM35.3109 93.8539C35.7562 93.3525 36.2015 92.8511 36.1454 91.9044C34.7693 89.6474 31.9182 93.9454 35.3109 93.8539ZM25.0143 97.6797C25.5206 99.4401 28.9646 98.9802 28.9292 96.5342C27.7934 95.2495 25.0863 95.8119 25.0143 97.6797ZM39.9358 99.755C40.2225 99.0437 39.8797 98.8083 39.9822 98.0714C36.6614 96.2951 37.0494 101.607 39.9358 99.755ZM35.6097 110.608C36.715 110.762 37.6873 110.521 37.8154 109.6C37.519 107.681 34.868 109.19 35.6097 110.608ZM86.5826 138.353C86.6338 137.984 86.7107 137.432 86.762 137.063C83.9633 134.233 83.1435 140.128 86.5826 138.353ZM70.7241 138.964C72.5663 139.22 72.5004 135.643 70.9498 135.991C69.1894 136.497 69.2504 138.759 70.7241 138.964ZM76.3531 138.996C76.7215 139.047 76.6703 139.415 76.8289 139.625C78.6198 140.25 79.7202 139.089 79.1883 137.512C78.0013 136.596 76.2409 137.102 76.3531 138.996ZM73.5532 142.925C73.2165 137.245 68.6147 144.68 73.5532 142.925V142.925ZM90.2754 148.255C90.4291 147.15 89.5593 146.654 88.587 146.894C85.1173 147.538 89.9728 151.781 90.2754 148.255Z" fill="white"/>
</svg>
