<svg width="391" height="234" viewBox="0 0 391 234" fill="none" xmlns="http://www.w3.org/2000/svg">
<path d="M257.819 36.3454C258.044 36.7919 258.27 37.2385 258.496 37.685C271.045 36.3618 283.729 35.9193 296.691 36.1131C296.904 35.7462 297.142 35.4741 297.38 35.202C298.094 34.3857 299.274 35.276 298.998 36.1719C305.917 36.3484 312.791 36.7421 319.717 37.3253C319.736 37.0134 319.755 36.7015 319.774 36.3896C319.851 35.1419 321.816 35.0936 321.739 36.3412C321.746 36.748 321.727 37.0599 321.734 37.4666C329.22 38.1969 336.759 39.1167 344.156 40.2811C344.271 39.9417 344.387 39.6023 344.503 39.2629C344.895 38.0275 346.795 38.5083 346.404 39.7436C346.288 40.083 346.243 40.3002 346.127 40.6396C352.21 41.5651 358.37 42.775 364.459 44.1072C366.701 51.949 368.847 59.8182 371.063 67.5651C373.112 75.4618 375.258 83.3311 377.281 91.133C328.836 137.203 274.282 166.214 215.28 177.385C214.288 177.565 213.392 177.717 212.909 177.855L212.62 177.937C202.507 179.793 192.265 181.176 182.042 182.246C181.829 182.613 181.688 182.857 181.476 183.224C180.813 184.23 179.247 183.45 179.716 182.499C165.712 183.828 151.526 184.493 137.301 184.25C137.327 184.345 137.327 184.345 137.353 184.439C137.593 185.699 135.66 186.249 135.421 184.989C135.343 184.705 135.388 184.488 135.311 184.203C131.233 184.138 127.251 184.045 123.121 183.79C123.064 184.725 121.493 185.07 121.208 184.028C121.182 183.933 121.157 183.838 121.105 183.648C106.847 182.904 92.4089 181.495 78.0534 179.246C77.8411 179.613 77.603 179.885 77.3907 180.252C76.7539 181.353 74.9428 180.438 75.6763 179.31C75.747 179.187 75.8178 179.065 75.9852 178.915C71.752 178.281 67.5896 177.524 63.3047 176.7C62.9958 177.095 62.6162 177.611 62.3073 178.006C62.0692 178.278 61.876 178.333 61.6827 178.388C112.785 188.263 163.513 188.744 212.917 179.794L213.207 179.711C213.813 179.641 214.586 179.421 215.674 179.214C275.211 168.095 330.197 138.757 379.311 92.0878L379.717 91.6659L379.562 91.097C377.461 83.0107 375.289 75.0466 373.189 66.9603C370.895 58.9289 368.723 50.9649 366.429 42.9335L366.274 42.3646L365.713 42.2177C359.089 40.8333 352.395 39.5712 345.752 38.4988C337.575 37.1475 329.283 36.1357 321.069 35.4083C299.292 33.4319 277.987 33.5689 257.155 35.8191C257.374 35.859 257.715 35.9661 257.819 36.3454Z" fill="white" stroke="white" stroke-width="2"/>
<path d="M61.2734 175.885C61.3443 175.762 61.5118 175.612 61.5827 175.489C53.5626 173.981 45.5615 172.159 37.5087 170.148C36.8833 170.531 36.2839 171.01 35.5618 171.421C35.2975 171.598 35.0782 171.558 34.8588 171.518C43.8151 173.785 52.6936 175.767 61.6171 177.53C61.1265 177.26 60.6999 176.458 61.2734 175.885Z" fill="white" stroke="white" stroke-width="2"/>
<path d="M33.9552 169.568C34.0517 169.54 34.219 169.391 34.3155 169.364C30.0796 168.328 25.8179 167.197 21.5305 165.972C38.0869 148.139 55.494 131.898 73.8034 117.436C74.3175 116.272 74.761 115.23 75.1787 114.093C75.6929 112.929 77.5919 113.408 77.0778 114.572C77.007 114.694 77.0328 114.788 76.9621 114.91C81.0088 111.827 85.0554 108.744 89.1279 105.755C89.5006 104.835 89.8475 103.82 90.1238 102.927C90.5414 101.791 92.537 102.242 92.0228 103.406C91.9521 103.528 91.9779 103.622 91.9072 103.744C115.345 87.1129 140.11 73.0564 165.94 61.7513C165.766 61.4953 165.592 61.2393 165.444 61.0779C164.651 60.0815 166.453 59.0609 167.149 60.0847C167.348 60.4351 167.619 60.6636 167.819 61.0141C169.575 60.2098 171.165 59.5548 172.658 58.9273C172.535 58.8602 172.439 58.8877 172.316 58.8206C171.074 58.461 171.601 56.5811 172.843 56.9407C173.744 57.1937 174.646 57.4466 175.547 57.6996C176.847 57.1269 178.076 56.676 179.305 56.2252L181.93 55.1742C187.207 53.1667 192.51 51.2536 197.864 49.5295C197.857 49.1243 197.824 48.6246 197.818 48.2193C197.772 46.9092 199.761 46.955 199.781 48.1707C199.736 48.3871 199.813 48.6704 199.768 48.8867C213.276 44.6434 226.971 41.4665 241.021 39.2068C240.943 38.9234 240.866 38.6401 240.692 38.3841C240.26 37.1836 242.19 36.6353 242.622 37.8358C242.726 38.2136 242.925 38.564 243.029 38.9419C247.308 38.2353 251.64 37.7176 255.971 37.2C255.92 37.0111 255.772 36.8496 255.72 36.6607C255.346 36.0543 255.796 35.4175 256.376 35.253C230.406 38.0482 205.243 44.1767 181.125 53.3673L180.282 53.7085C179.535 54.0223 178.859 54.2142 178.499 54.4183C176.427 55.2104 174.284 56.1243 172.045 57.0656C170.166 57.8028 168.12 58.6893 165.713 59.7799C111.404 83.3466 61.8775 119.092 18.7177 165.956L17.933 166.892L19.3943 167.291C24.2419 168.662 29.186 170.006 34.1043 171.256C33.5184 171.015 33.138 170.004 33.9552 169.568Z" fill="white" stroke="white" stroke-width="2"/>
<path d="M273.31 56.254C273.433 56.3218 273.653 56.3619 273.776 56.4297C273.653 56.3619 273.53 56.2941 273.31 56.254Z" fill="white" stroke="white" stroke-width="2"/>
<path d="M268.484 73.4302C264.447 77.3405 259.58 75.1471 254.786 75.8982C251.301 76.4816 248.648 78.9752 248.966 82.0546C242.204 79.787 235.558 77.1797 231.667 70.9248C231.138 71.2796 230.488 71.5671 229.837 71.8546C234.207 79.0984 242.168 81.945 250.051 84.5069C250.954 84.7613 251.52 83.782 251.216 83.0503C247.95 76.413 262.689 78.1479 264.647 77.6926C267.186 77.0722 269.272 75.5578 270.817 73.5841C274.338 69.3093 274.997 63.7019 274.399 58.4522C273.742 58.3326 273.058 58.1181 272.375 57.9035C273.121 63.3155 272.495 69.4249 268.484 73.4302Z" fill="white" stroke="white" stroke-width="2"/>
<path d="M229.897 69.5882C229.8 69.6151 229.8 69.6151 229.704 69.6419C229.8 69.6151 229.897 69.5882 229.897 69.5882Z" fill="white" stroke="white" stroke-width="2"/>
<path d="M255.995 35.6387C255.414 35.8044 254.963 36.4469 255.338 37.0591C255.39 37.2497 255.539 37.4128 255.59 37.6035C259.46 44.9246 263.346 54.6043 271.621 57.792C271.744 57.8598 271.963 57.8999 272.086 57.9676C272.771 58.1833 273.456 58.399 274.114 58.5193C283.266 60.3268 291.956 53.533 298.646 47.8235C299.414 47.1935 298.715 46.1599 297.985 46.1625C290.946 45.6017 296.943 37.7269 298.207 36.2362C298.277 36.1132 298.348 35.9903 298.419 35.8673C298.696 34.9665 297.513 34.0709 296.797 34.8915C296.559 35.1651 296.32 35.4386 296.107 35.8075C293.348 39.4713 291.244 45.9278 295.895 47.6834C289.779 52.8183 281.534 58.5607 273.737 56.3665C273.615 56.2987 273.395 56.2586 273.272 56.1909C272.122 55.7997 270.947 55.3131 269.79 54.5129C264.084 50.7978 260.918 43.3787 257.798 37.2819C257.572 36.8328 257.345 36.3837 257.119 35.9346C256.944 35.6762 256.699 35.5408 256.479 35.5006C256.285 35.5559 256.189 35.5835 255.995 35.6387Z" fill="white" stroke="white" stroke-width="2"/>
<path d="M200.891 63.697C201.099 64.4597 202.319 64.728 202.719 63.8949C206.171 56.6432 212.202 68.0733 213.838 69.8669C215.474 71.6606 217.464 72.8395 219.879 73.2806C223.27 73.8546 226.71 73.0787 229.847 71.5678C230.499 71.2791 231.028 70.9227 231.68 70.6341C232.041 70.4283 232.402 70.2225 232.835 69.8937C243.248 62.9168 246.998 50.2381 243.085 38.9232C242.981 38.5418 242.878 38.1605 242.677 37.8067C242.243 36.5949 240.307 37.1473 240.741 38.359C240.818 38.6451 240.993 38.9035 241.071 39.1895C243.623 46.2695 243.315 53.9597 239.171 60.5867C237.064 63.9617 233.813 67.3544 229.98 69.3723C229.883 69.4 229.883 69.4 229.786 69.4276C227.424 70.7176 224.81 71.4632 222.182 71.3909C214.421 71.2418 214.353 62.9394 208.352 60.439C206.22 59.506 203.915 59.8552 202.335 61.3333C201.026 57.289 199.84 53.3124 199.693 48.9367C199.738 48.7184 199.66 48.4324 199.705 48.2141C199.684 46.9872 197.689 46.9398 197.735 48.2621C197.742 48.6711 197.775 49.1754 197.782 49.5843C197.865 54.492 199.33 59.1083 200.891 63.697Z" fill="white" stroke="white" stroke-width="2"/>
<path d="M247.242 42.5912C249.715 50.4854 259.166 58.365 250.518 66.2081C249.596 67.0916 251.024 68.4467 251.946 67.5632C261.346 58.9885 251.915 50.7926 249.179 41.9372C248.766 40.8117 246.803 41.3695 247.242 42.5912Z" fill="white" stroke="white" stroke-width="2"/>
<path d="M217.868 54.5479C223.017 53.1842 227.287 50.1269 230.151 45.7307C230.884 44.6011 229.072 43.6848 228.435 44.7869C225.784 48.8157 221.919 51.4506 217.351 52.6492C216.069 52.912 216.586 54.8107 217.868 54.5479Z" fill="white" stroke="white" stroke-width="2"/>
<path d="M263.354 38.8825C268.584 42.0086 274.586 43.3754 280.774 42.7401C282.083 42.5719 282.075 40.6248 280.765 40.793C274.894 41.4409 269.33 40.1541 264.346 37.1633C263.338 36.5271 262.347 38.2463 263.354 38.8825Z" fill="white" stroke="white" stroke-width="2"/>
<path d="M111.773 156.562C112.509 151.229 114.573 145.416 119.6 142.446C124.556 139.6 128.622 143.052 133.414 143.428C136.915 143.66 140.119 142.03 140.599 138.819C146.542 142.659 152.202 146.989 154.312 153.97C154.988 153.777 155.569 153.612 156.246 153.419C153.8 145.202 146.991 140.482 140.042 136.007C139.28 135.507 138.469 136.353 138.579 137.141C140.037 144.41 126.296 139.104 124.304 139.057C121.679 138.985 119.339 139.959 117.251 141.476C112.837 144.783 110.741 150.094 109.882 155.359C110.547 155.887 111.16 156.225 111.773 156.562Z" fill="white" stroke="white" stroke-width="2"/>
<path d="M112.596 156.764C112.447 156.601 112.228 156.561 112.079 156.398C111.439 155.963 110.824 155.624 110.236 155.381C101.818 151.302 91.8389 155.692 83.921 159.597C83.1009 160.037 83.4124 161.182 84.1945 161.37C90.3616 163.314 82.9249 169.756 81.1117 171.919C79.2724 173.987 77.7758 176.162 76.3311 178.529C76.2601 178.652 76.1892 178.775 76.0214 178.926C75.3829 180.034 77.103 180.983 77.7414 179.875C77.9542 179.506 78.167 179.136 78.4058 178.863C80.0893 176.222 81.9475 173.84 84.0515 171.594C85.5361 170.142 87.2144 168.635 87.9359 166.68C88.8442 164.261 88.318 161.943 86.5651 160.488C95.5229 156.184 107.453 152.06 114.256 161.331C118.741 167.457 119.424 176.109 121.565 183.213C121.591 183.308 121.617 183.403 121.668 183.594C121.98 184.74 123.653 184.365 123.587 183.355C123.561 183.26 123.632 183.137 123.606 183.041C120.979 174.533 120.532 162.523 112.596 156.764Z" fill="white" stroke="white" stroke-width="2"/>
<path d="M181.649 167.859C181.325 167.437 180.763 167.289 180.305 167.522C172.682 171.341 172.628 158.098 167.347 155.185C164.032 153.356 160.234 153.206 156.502 154.065C155.824 154.258 155.217 154.328 154.565 154.617C152.557 155.293 150.601 156.159 148.891 157.161C139.184 162.91 133.913 173.459 135.656 184.473C135.734 184.759 135.689 184.977 135.767 185.263C136.008 186.531 137.944 185.978 137.704 184.711C137.678 184.615 137.678 184.615 137.652 184.52C135.396 172.008 143.765 159.034 156.537 156.11C160.269 155.251 166.037 155.353 168.456 158.877C169.679 160.687 170.186 163.317 171.241 165.277C173.377 169.293 175.943 171.439 180.269 169.691C182.624 173.747 182.946 178.383 180.193 182.457C180.122 182.58 180.122 182.58 180.148 182.676C179.801 183.7 181.248 184.418 181.912 183.406C182.125 183.037 182.364 182.763 182.479 182.422C185.245 177.625 184.618 172.253 181.649 167.859Z" fill="white" stroke="white" stroke-width="2"/>
<path d="M134.994 153.97C136.186 153.32 135.103 151.663 134.009 152.285C130.605 154.082 128.126 156.961 127.479 160.765C126.423 166.548 129.926 172.067 130.218 177.777C130.265 179.108 132.251 179.059 132.204 177.728C131.871 169.548 124.781 159.362 134.994 153.97Z" fill="white" stroke="white" stroke-width="2"/>
<path d="M163.605 175.511C164.866 175.56 164.929 173.509 163.597 173.582C158.289 173.564 153.425 175.554 149.508 179.105C148.601 179.972 150.005 181.301 150.912 180.434C154.494 177.182 158.927 175.517 163.605 175.511Z" fill="white" stroke="white" stroke-width="2"/>
<path d="M115.609 177.201C111.393 172.843 105.911 169.979 99.8295 169.139C98.5357 168.994 98.0076 170.895 99.3014 171.041C105.066 171.868 110.179 174.528 114.22 178.627C115.114 179.608 116.477 178.086 115.609 177.201Z" fill="white" stroke="white" stroke-width="2"/>
<path d="M247.658 117.937C263.73 126.321 280.636 125.1 295.493 117.876C296.184 116.958 296.848 115.945 297.513 114.932C295.969 115.784 294.398 116.541 292.828 117.298C276.536 124.623 259.432 122.812 244.666 113.849C231.919 106.163 222.155 94.8465 211.965 84.2689C201.503 73.4601 190.02 62.7369 175.376 58.0627C174.47 57.8063 173.565 57.55 172.659 57.2937C171.411 56.9293 170.909 58.9255 172.131 59.1944C172.254 59.2622 172.351 59.2345 172.474 59.3024C204.626 68.0396 219.152 103.012 247.658 117.937Z" fill="white" stroke="white" stroke-width="2"/>
<path d="M300.601 113.754C299.936 114.768 299.297 115.878 298.632 116.891C309.156 111.004 318.364 102.197 325.253 91.7852C335.469 76.3047 341.088 58.5307 346.029 40.9505C346.145 40.6084 346.19 40.3896 346.306 40.0475C346.699 38.8023 344.693 38.3448 344.397 39.5622C344.281 39.9043 344.165 40.2464 344.049 40.5885C336.254 68.0468 325.675 97.9477 300.601 113.754Z" fill="white" stroke="white" stroke-width="2"/>
<path d="M297.427 115.189C296.763 116.2 296.073 117.116 295.409 118.127C292.605 122.009 289.432 125.687 285.84 128.972C272.688 140.838 255.653 144.567 238.983 139.665C222.41 134.736 209.489 122.909 199.266 109.492C187.627 94.3205 178.994 77.1619 167.593 61.7173C167.393 61.3636 167.121 61.1328 166.921 60.7791C166.125 59.7732 164.416 60.7746 165.211 61.7804C165.386 62.0388 165.56 62.2972 165.709 62.4602C186.098 90.2365 200.262 128.109 235.472 140.564C250.347 145.772 266.649 144.718 280.166 135.727C287.959 130.627 294.021 123.762 298.952 116.192C299.615 115.181 300.279 114.17 300.917 113.064C304.301 107.476 307.141 101.427 309.568 95.3927C317.134 76.7987 321.153 57.0588 321.718 37.2769C321.711 36.868 321.73 36.5544 321.723 36.1454C321.799 34.891 319.707 34.8713 319.754 36.1935C319.735 36.5071 319.716 36.8207 319.697 37.1343C319.166 53.2082 316.518 69.1671 311.402 84.4942C308.005 95.0167 303.614 105.72 297.427 115.189Z" fill="white" stroke="white" stroke-width="2"/>
<path d="M62.2299 177.433C62.5406 177.035 62.9225 176.513 63.2333 176.115C79.2543 154.516 83.3916 127.741 92.4265 103.182C92.4976 103.058 92.4716 102.962 92.5427 102.839C92.9368 101.591 91.0236 101.105 90.6296 102.353C90.2546 103.285 89.9057 104.314 89.628 105.219C81.1434 129.105 76.9662 154.962 61.1256 175.684C61.0544 175.808 60.8861 175.959 60.8149 176.082C60.2646 176.755 60.6934 177.562 61.2837 177.806C61.3809 177.779 61.4782 177.751 61.5754 177.723C61.7959 177.763 61.9903 177.708 62.2299 177.433Z" fill="white" stroke="white" stroke-width="2"/>
<path d="M35.2952 171.257C35.9216 170.873 36.522 170.393 37.2453 169.981C56.8544 156.466 68.578 135.841 77.5347 114.256C77.6057 114.133 77.5797 114.038 77.6506 113.915C78.1662 112.739 76.1624 112.282 75.7438 113.43C75.3251 114.578 74.7836 115.658 74.3649 116.806C65.5102 137.23 53.8886 156.695 34.7501 169.253C34.6532 169.28 34.4853 169.431 34.3884 169.459C33.5942 169.994 33.9767 171.016 34.565 171.26L34.6879 171.328C34.8107 171.395 35.0305 171.436 35.2952 171.257Z" fill="white" stroke="white" stroke-width="2"/>
</svg>
