<?xml version="1.0" encoding="utf-8"?>
<svg
  x="0px" y="0px"
	viewBox="0 0 700 529"
	style="enable-background:new 0 0 700 529;"
	xmlns="http://www.w3.org/2000/svg"
	preserveAspectRatio="none">
<style type="text/css">
	path{fill:none;stroke:#B9293D;stroke-width:3;}
</style>
<path d="M352.2,13.8c-3.9,0-43,0-46.9,0c-46.9-3.9-66.4,0-136.8-3.9C98.2,9.8,8.3,5.9,8.3,5.9s0,78.4-3.9,137.3
	c0,58.8,0,98.1,0,98.1s0,11.8,3.9,23.5c0,11.8-3.9,23.5-3.9,35.3C-7.4,433.5,8.3,527.6,8.3,527.6c39.1-3.9,101.6-7.8,164.1-7.8
	c62.5,0,93.8,0,125.1,3.9c15.6,0,54.7,3.9,54.7,3.9s11.7,0,27.4-3.9c54.7-3.9,179.8-7.8,312.6,0c0-15.7,0-54.9,3.9-98.1
	c0-43.1,3.9-94.1,3.9-133.4c0-11.8,0-19.6,0-31.4c0-7.8,0-19.6,0-27.5C700,151.1,692.2,2,692.2,2C571,5.9,430.3,9.8,375.6,13.8
	C360,13.8,352.2,13.8,352.2,13.8z"/>
</svg>
