<svg width="230" height="212" viewBox="0 0 230 212" fill="none" xmlns="http://www.w3.org/2000/svg">
<path d="M178.736 29.158C181.242 23.8665 186.69 18.4915 192.957 18.9483C193.622 19.0564 193.527 19.8838 193.053 20.0876C188.185 22.6274 184.498 25.5597 182.141 30.6748C181.166 32.7235 177.612 31.3832 178.736 29.158Z" fill="white"/>
<path d="M118.296 27.6811C115.949 27.0588 114.279 24.7406 112.23 23.7654C109.49 22.3567 106.682 22.101 103.684 21.5334C103.019 21.4253 102.774 20.4625 103.574 20.2314C106.435 19.1714 109.596 19.7253 112.621 20.6184C115.308 21.3761 119.432 23.6519 119.692 26.7442C119.584 27.4089 118.974 27.9519 118.296 27.6811Z" fill="white"/>
<path d="M185.357 51.3841C185.75 52.1705 184.666 52.9172 183.974 52.4837C182.237 51.3184 180.676 50.3022 178.561 50.48C176.282 50.6715 175.47 52.7066 173.395 53.3727C172.432 53.6175 171.238 53.0622 171.468 51.8956C172.049 49.0604 175.357 47.4711 178.124 47.2386C181.379 46.9651 183.998 48.8758 185.357 51.3841Z" fill="white"/>
<path d="M136.963 52.8283C135.24 51.8258 133.558 51.3116 131.781 51.6248C130.004 51.938 129.165 53.6476 127.184 53.4862C126.357 53.3918 125.963 52.6054 126.071 51.9407C126.191 49.4721 129.69 48.1946 131.792 47.8541C134.545 47.4588 136.974 49.0576 138.617 51.0503C139.54 52.284 138.008 53.56 136.963 52.8283Z" fill="white"/>
<path d="M167.338 61.2572C167.879 59.9005 167.905 58.2593 166.508 57.2294C165.978 56.7822 165.137 56.5251 164.323 56.5935C162.831 56.391 160.878 56.5552 159.902 56.6372C157.949 56.8013 155.833 56.9791 154.111 57.9434C149.42 60.6322 154.903 65.4163 158.24 66.1193C161.577 66.8223 165.807 64.5 167.338 61.2572ZM165.532 59.2782L165.072 59.6447C165.072 59.6447 164.475 60.3505 164.326 60.5269C163.147 62.1011 160.504 63.7984 158.468 62.986C157.627 62.7289 155.402 61.6046 155.157 60.6418C155.157 60.6418 155.306 60.4654 155.469 60.4517C155.944 60.2479 156.581 60.0304 157.056 59.8266C158.656 59.3644 160.446 59.2139 162.087 59.2399C162.915 59.3343 163.919 59.5777 165.532 59.2782Z" fill="white"/>
<path d="M173.583 69.2556C175.026 76.6739 163.294 77.4959 158.639 72.8061C153.217 78.5066 140.004 75.3555 142.562 66.7815C142.819 65.9404 144.135 65.9937 144.366 66.7938C145.222 69.1804 145.861 70.9297 148.262 72.203C151.356 73.9098 155.886 73.2014 156.873 69.3486C157.238 67.8428 159.327 67.3395 160.115 68.9123C162.492 73.7936 169.137 72.9073 171.576 68.7687C172.158 67.9002 173.352 68.4555 173.583 69.2556Z" fill="white"/>
<path d="M193.904 73.1203C198.991 75.1513 203.578 79.0273 208.788 80.5564C209.127 80.6918 209.263 80.3526 209.072 80.0408C206.085 75.7025 200.726 72.3832 195.801 70.3385C196.966 68.6015 198.117 66.7018 198.618 64.8569C204.804 66.3039 210.597 68.9312 216.797 70.5409C217.801 70.7844 218.017 69.455 217.488 69.0077C212.86 64.6435 205.507 62.9667 199.348 61.8452C199.456 61.1805 199.415 60.6923 199.361 60.0413C202.588 59.4422 205.599 58.2059 208.854 57.9323C211.783 57.6861 214.564 57.6164 217.438 56.7192C217.764 56.6918 217.574 56.38 217.397 56.2309C212.445 53.8607 203.955 54.2464 198.612 56.99C196.575 52.2442 194.319 46.861 191.63 42.1699C198.109 35.3972 206.981 18.0974 200.927 10.4111C192.469 -0.51524 175.797 15.637 168.87 20.9723C156.332 14.1586 138.849 14.8082 126.416 20.934L126.253 20.9477C119.494 14.6318 103.21 4.19918 95.4584 13.3735C85.1721 25.5472 98.5288 40.1594 106.66 49.1464C105.237 51.7245 103.476 54.1672 101.049 56.5018C100.589 56.8683 100.508 57.8585 100.874 58.3194C101.282 59.2686 102.15 59.8512 103.005 60.2711L103.033 60.5966C97.9202 62.1735 93.0526 64.7133 89.1753 67.3338L89.2026 67.6593C93.1101 69.2978 97.462 66.4735 101.11 65.0197C102.845 64.2182 104.608 63.7423 106.385 63.4291C107.62 64.4726 108.868 65.6789 110.103 66.7224C109.792 66.9125 109.317 67.1163 109.005 67.3064C104.449 69.6561 99.2701 72.386 95.8277 76.2811C95.2314 76.9868 96.1135 77.7322 96.7508 77.5147C101.551 76.1279 105.849 72.6527 110.255 70.4794C111.042 70.0855 111.991 69.678 112.954 69.4332C114.202 70.6394 115.437 71.683 116.849 72.8756C115.303 73.9889 113.772 75.2649 112.24 76.5409C109.8 78.7128 106.113 81.6451 105.912 85.104C105.953 85.5922 106.468 85.8767 106.78 85.6866C110.034 83.4463 112.69 79.9451 115.93 77.5421C117.001 76.6326 118.248 75.8722 119.319 74.9626C120.377 75.8571 121.612 76.9006 122.671 77.7951C122.417 82.5696 122.745 86.4757 118.299 90.1274C114.476 93.3989 109.907 95.5858 105.31 97.4472C97.54 100.559 88.9961 102.26 81.2401 105.534C87.3754 92.726 77.8646 69.2677 67.6604 62.9135C58.3247 57.1419 43.4143 51.3471 32.689 56.3459C23.3738 60.5707 24.0576 68.7083 34.11 71.3055C41.1508 73.1724 48.8686 73.3434 54.5554 78.6021C62.2102 85.8261 66.0179 99.9296 57.872 108.318C46.7036 119.746 27.5507 118.077 17.4955 131.051C8.91748 142.098 9.05016 157.33 18.9453 167.807C28.4875 177.987 41.6063 181.965 55.1709 183.448C56.358 193.674 75.4713 196.821 85.1694 197.153C91.4088 197.285 97.7821 195.11 96.3529 187.855C96.0807 186.566 95.6595 185.454 95.0892 184.519C98.4796 183.906 101.829 182.805 104.826 181.406C108.622 179.776 113.205 177.752 116.052 174.562C113.781 186.554 111.838 200.485 125.063 201.832C128.698 202.182 134.069 201.731 137.296 199.165L137.472 199.314C140.036 200.574 145.054 199.824 147.767 198.941C150.479 198.057 153.23 195.695 153.296 192.576C153.265 186.35 146.467 183.479 141.393 181.611C141.379 181.448 141.529 181.272 141.515 181.109C142.783 170.841 146.536 164.789 152.742 156.728C157.322 150.77 160.872 144.244 163.213 136.999C165.405 129.931 167.529 122.049 166.249 114.617C164.901 106.371 161.044 99.4836 161.825 91.2229C170.274 90.3489 178.695 87.1828 184.971 81.9022C187.262 79.9067 190.936 76.8117 193.904 73.1203ZM126.498 80.4238C131.912 84.3941 137.761 87.6724 144.49 89.7294C149.034 91.1504 154.162 91.703 159.221 91.4417C157.488 96.1766 158.712 100.991 160.289 106.103C164.068 117.914 162.57 129.35 157.79 140.733C152.455 153.31 134.994 165.923 139.06 181.152C139.074 181.314 139.25 181.463 139.264 181.626C138.966 181.979 138.695 182.657 139.224 183.105C141.749 185.843 149.25 187.343 149.755 191.398C150.369 196.755 143.75 196 139.667 196.18C141.847 190.915 137.464 187.514 133.041 185.591C133.145 179.026 132.217 171.892 133.813 165.53C136.046 156.983 141.996 151.73 147.336 145.053C153.271 137.67 158.609 129.027 155.822 119.263C155.618 118.788 154.805 118.857 154.846 119.345C153.916 127.782 151.845 134.348 146.166 140.89C142.29 145.477 138.061 149.766 134.701 154.638C128.4 163.526 130.24 175.665 131.088 185.755C131.115 186.081 131.292 186.23 131.468 186.379C131.482 186.542 131.658 186.691 131.672 186.853C133.612 188.493 139.176 192.287 136.005 195.504C134.188 197.296 131.653 198.328 129.211 198.533C121.887 199.149 116.757 194.663 117.43 187.067C118.007 178.331 122.626 168.929 120.748 160.236C120.435 158.459 117.682 158.854 117.995 160.631C118.241 163.561 117.457 167.888 116.538 172.554L116.213 172.582C111.683 173.29 107.698 176.575 103.576 178.233C99.7653 179.701 95.7374 180.531 91.7233 181.524C89.6609 180.386 87.1649 179.94 84.6962 179.82C88.8991 177.172 92.9652 172.896 95.8387 170.032C100.23 165.73 105.503 160.206 106.109 153.763C107.077 141.88 97.7219 128.079 84.8548 134.897C84.543 135.087 84.5977 135.738 85.0723 135.534C100.397 132.607 107.964 150.492 98.5726 161.608C92.1623 169.194 84.1492 173.309 76.8157 179.662C75.5957 180.748 76.4109 182.647 78.0384 182.51C78.6894 182.455 79.1777 182.414 79.815 182.197C81.9718 182.507 83.9659 182.831 86.1364 183.304C88.9852 184.048 97.7247 190.526 91.1886 192.714C87.2018 194.032 82.5763 193.602 78.4254 192.967C73.9354 192.197 68.9707 191.631 64.7104 189.694C58.0621 186.647 58.3576 182.361 60.7948 176.255C61.4854 174.722 59.0701 173.286 58.203 174.67C56.9024 176.746 56.0763 178.619 55.7248 180.287C43.2721 178.383 28.3904 174.881 21.0583 163.696C10.1689 147.237 18.1465 130.996 35.6117 124.284C44.8189 120.724 57.2141 118.043 62.6876 109.06C67.8765 100.593 67.1517 91.967 62.8052 83.1537C59.4229 76.0623 51.9869 71.4423 44.4852 69.9419C41.9892 69.4961 39.3304 69.0639 36.8207 68.4553C35.1522 68.1038 33.6327 67.5759 32.0995 66.8852C31.6482 61.5143 33.7079 58.7188 38.2923 58.6614C44.4633 57.9789 50.9338 58.9103 56.8626 61.1984C67.7165 65.5312 74.5029 72.1726 77.7525 83.5366C80.0639 91.5375 81.4138 101.75 75.9116 108.441C65.5665 114.063 55.2775 122.303 48.8823 132.019C47.568 133.933 45.9555 136.199 44.5331 138.777C40.1524 139.309 35.3259 142.337 33.8638 146.394C32.6863 149.934 34.9813 153.839 37.9532 156.048C37.9272 157.689 38.064 159.317 38.5263 160.917C38.9885 162.517 41.4025 161.986 41.6049 160.494C41.8347 159.328 41.9017 158.175 42.1451 157.171C42.4433 156.818 42.7278 156.302 42.3612 155.841C45.4439 141.815 53.8989 129.303 65.4489 120.465C75.318 113.08 84.3078 108.882 95.9699 105.28C105.069 102.385 114.968 99.258 121.935 92.4443C124.795 89.4176 127.016 84.6417 126.498 80.4238ZM38.4114 151.748C36.9726 150.23 36.0084 148.508 37.2954 146.269C38.4333 144.207 40.467 143.052 42.338 141.912C40.6448 145.168 39.1144 148.411 38.4114 151.748ZM194.4 65.3752C191.583 70.8569 187.381 75.4714 182.447 79.1641C170.11 88.3959 152.872 90.0084 138.897 83.6433C132.425 80.7452 127.038 77.1003 121.949 73.1026C123.494 71.9893 125.053 71.0388 126.436 69.9392C127.982 68.8259 126.135 66.3586 124.59 67.4719C122.882 68.5989 121.187 69.8886 119.479 71.0155C118.42 70.1211 117.362 69.2266 116.303 68.3322C118.852 67.4623 121.253 66.7689 123.436 65.4382C124.059 65.0579 123.95 63.7559 123.122 63.6616C119.934 62.7821 116.273 64.0732 112.951 65.4997C112.055 64.5916 111.01 63.8599 110.114 62.9517C112.705 62.5702 115.309 62.3513 118.035 61.6306C119.472 61.182 119.62 59.0388 117.965 58.8501C114.479 58.3235 110.573 58.6518 106.884 59.6174C106.178 59.021 105.649 58.5738 104.943 57.9775C107.789 54.7881 110.514 52.1006 112.301 48.0167C114.238 43.7564 115.822 39.198 115.588 34.4644C115.506 33.4879 114.19 33.4346 113.933 34.2757C112.132 38.1968 110.656 42.0906 108.827 45.6862C105.57 42.0263 102.475 38.3527 99.8404 34.3126C96.7987 29.3234 92.8858 19.818 99.4068 15.5003C107.162 10.2593 118.114 19.6648 125.576 22.6436C125.523 23.9593 126.609 25.1793 128.195 24.5543C142.08 18.1426 155.373 20.3035 169.292 24.0509C169.645 24.3491 169.984 24.4845 170.473 24.4435C170.974 24.5652 171.314 24.7006 171.816 24.8223C172.657 25.0794 173.551 24.0208 172.669 23.2755L172.493 23.1264C178.484 18.3614 198.778 2.39654 198.923 15.8244C199.01 24.6677 193.712 31.833 190.259 39.4988C189.322 38.1024 188.385 36.706 187.462 35.4724C186.729 34.5506 185.332 35.4874 185.74 36.4366C188.213 42.4571 190.997 48.2875 193.796 54.2806C195.616 58.3891 196.811 60.9111 194.4 65.3752Z" fill="white"/>
</svg>
