<svg width="247" height="202" viewBox="0 0 247 202" fill="none" xmlns="http://www.w3.org/2000/svg">
<path d="M64.3096 34.459C67.3187 35.462 73.0501 33.7426 73.6233 30.1604C73.7665 28.7276 72.6203 27.7246 71.1874 28.2977C68.8948 29.444 68.1784 31.7366 65.1694 31.3067C62.4469 30.7336 61.4439 28.1544 60.4409 25.8618C60.0111 24.8588 58.7215 25.5753 58.7215 26.2917C58.4349 30.0171 61.0141 33.3127 64.3096 34.459Z" fill="white"/>
<path d="M34.7919 22.5664C33.6456 22.853 32.7859 20.9902 32.4993 20.2738C32.2128 19.7007 31.353 19.9872 31.353 20.5604C31.353 22.5664 31.9262 24.7157 34.2188 25.2888C36.2248 25.862 40.0935 24.2858 40.0935 21.9932C40.0935 21.4201 39.6637 20.7037 39.0905 20.7037C37.2278 20.2738 36.5114 21.9932 34.7919 22.5664Z" fill="white"/>
<path d="M156.443 141.351C147.846 143.07 139.392 145.219 130.651 146.509C119.332 148.229 104.717 149.088 96.1194 140.348C94.9731 143.357 93.8268 146.366 93.2536 149.661C92.1074 155.536 91.2476 161.554 89.3849 167.142C87.2356 173.877 83.0803 185.34 76.0593 188.779C70.4711 191.644 61.1575 190.068 56.8589 185.196C52.5603 180.325 57.5753 176.886 62.5903 176.169C72.0472 163.417 70.1845 152.384 64.1665 138.772C59.8679 129.171 54.9961 118.425 57.7186 107.678C57.8619 106.819 59.0082 107.105 59.1515 107.822C59.8679 115.989 61.3008 123.297 64.5963 130.748C66.8889 135.906 69.4681 140.921 71.3308 146.223C75.3428 158.115 73.3368 168.575 65.4561 178.319C64.7396 179.178 63.7366 178.892 63.0202 178.319C61.3007 179.178 57.7186 181.041 59.5813 182.617C61.1575 183.764 62.8769 184.767 64.7396 185.34C68.6084 186.486 73.0502 187.489 76.2025 184.05C80.7877 179.178 84.3699 172.444 86.2326 166.139C89.5282 154.533 89.3849 138.485 98.2687 129.315C99.1284 128.455 100.848 129.315 100.418 130.604C99.415 133.04 98.412 135.189 97.5522 137.482C111.164 145.936 125.493 143.93 141.111 140.491C148.276 138.915 157.159 136.192 165.9 135.189C166.043 134.616 166.903 134.616 167.189 135.046C172.204 134.473 177.076 134.616 181.518 135.906C181.232 133.183 181.661 130.604 182.951 128.025C183.094 127.595 183.811 127.882 183.811 128.168C183.811 135.189 185.244 141.207 190.115 146.509C193.697 150.521 198.139 153.1 202.151 156.539C202.438 156.826 202.581 156.969 202.581 157.256C208.743 162.987 206.163 174.307 202.724 180.898C198.856 188.635 191.548 190.211 186.39 196.373C185.817 197.089 195.274 197.662 196.563 197.232C198.712 196.516 200.862 195.37 202.438 193.65C205.877 189.925 207.883 185.196 209.172 180.325C211.465 172.301 212.325 164.133 214.331 156.109C214.331 155.823 214.331 155.536 214.617 155.106C218.629 147.512 221.925 138.772 221.782 129.888C221.638 122.15 219.202 115.846 215.62 109.398C213.758 109.684 213.041 106.819 214.904 106.246C224.074 103.81 236.11 98.938 241.125 90.1975C238.26 90.3408 235.394 90.0542 232.528 90.0542C230.809 90.0542 230.236 87.7616 231.668 86.7586C237.113 83.1765 241.698 78.5913 243.275 72.43C240.839 74.5793 238.26 76.442 235.394 78.1614C234.391 78.7346 232.815 78.0182 232.815 76.7286C233.674 65.6955 234.534 53.0863 228.659 43.916C236.683 63.8328 226.797 91.4871 204.874 96.932C187.679 101.231 172.204 90.6274 156.586 85.3258C140.681 79.8809 123.201 79.1645 107.869 72.2867C103.427 76.0122 97.6955 78.0182 91.5342 77.7316C66.3158 76.1554 85.0863 44.7757 84.5132 32.0232C84.3699 29.8739 87.8088 29.444 88.2386 31.5933C90.3879 42.4831 72.7637 68.2747 88.5252 73.1464C100.418 76.7286 117.326 64.4059 112.024 51.0803C109.302 44.4891 102.854 39.3308 102.137 32.0232C101.708 30.8769 101.278 29.7306 100.991 28.441C100.275 26.435 99.5583 24.429 98.9851 22.2797C98.8418 22.2797 98.6985 22.423 98.5552 22.423C98.1254 21.42 97.5522 20.417 96.8358 19.414C91.3909 11.2467 82.0773 7.52121 72.7637 6.23164C62.3038 4.79877 50.1244 2.79276 39.6645 6.08835C32.5002 8.38094 29.0613 12.5362 27.0553 19.5573C26.1956 22.423 25.4791 24.8589 23.6164 26.8649C25.6224 27.2947 27.4852 27.7246 29.4912 28.1545C32.6435 28.8709 36.7988 28.8709 39.6645 30.3038C39.9511 30.4471 39.9511 30.8769 39.6645 31.0202C36.3689 33.4561 29.4912 31.3068 25.909 30.5903C23.1866 30.0172 19.1745 28.8709 15.3058 28.441C16.0222 34.6024 9.57433 40.3338 3.41301 37.7547C4.98916 43.7727 11.1505 50.3639 15.0192 52.0833C22.7567 55.6655 31.2106 55.8088 39.3779 54.0893C41.5272 53.6595 42.3869 56.8118 40.2376 57.3849C35.3659 58.6745 29.6344 59.1043 24.3328 58.5312C24.1896 58.3879 24.0463 58.3879 23.903 58.2446C21.6104 57.3849 19.3178 56.955 16.882 56.8118C16.4521 56.6685 16.0222 56.5252 15.7357 56.3819C15.5924 60.2506 17.5984 62.1134 21.897 63.1164C24.7627 63.8328 27.7717 64.1194 30.7807 64.5492C35.939 65.4089 41.5272 66.412 46.2557 68.9911C53.2767 73.0031 55.7126 80.0242 52.1304 86.4721C51.1274 90.3408 49.8378 94.0662 48.6915 97.7917C44.8228 110.258 48.5482 120.288 53.5633 131.894C58.7216 143.93 56.7156 154.39 49.2647 164.993C48.9781 165.423 48.5482 165.566 48.2617 165.709C48.1184 165.853 47.9751 165.996 47.6885 165.996C45.2527 166.856 42.2437 167.142 40.0944 168.575C39.8078 168.719 39.3779 169.005 39.2346 169.292L39.3779 169.578C40.6675 170.725 42.5302 171.441 44.2497 171.871C46.8288 172.587 49.408 173.16 52.1304 173.447H52.2737C55.2827 169.721 58.2917 166.426 60.2978 161.984C62.447 157.256 64.0232 152.241 64.453 147.082C64.453 146.509 65.3128 146.366 65.4561 146.939C66.6023 152.527 65.1695 158.402 62.8769 163.56C60.8709 167.859 57.8619 174.307 53.1334 176.456H52.9901C52.7036 176.886 52.2737 177.172 51.5573 177.172C47.9751 176.743 44.2497 176.169 40.9541 174.737C39.0914 174.02 36.7988 173.017 35.7958 171.011C33.3599 165.709 42.2437 163.847 46.2557 163.417C50.1244 157.685 53.7066 151.094 52.9901 143.787C52.417 138.342 50.1244 133.47 47.8318 128.455C44.5362 120.718 41.2406 111.547 43.2467 102.95C44.3929 98.2215 45.8258 93.6364 47.2587 89.0512C47.2587 88.9079 47.2587 88.6213 47.2587 88.4781C47.402 88.1915 47.5453 87.9049 47.6885 87.4751C48.405 85.1825 48.9781 82.7466 49.5513 80.454C49.5513 80.3107 49.6945 80.1674 49.6945 79.8809C49.8378 79.8809 49.9811 79.8809 50.2677 79.8809C50.2677 78.5913 49.9811 77.445 49.2647 76.2987C47.2587 73.433 44.2497 71.7136 40.9541 70.5673C35.5092 68.7045 29.921 68.1314 24.1895 66.9851C19.7477 66.1254 14.4461 65.1224 12.0102 60.9671C10.7206 58.8178 11.7236 56.6685 13.4431 55.2356C12.4401 54.6625 11.4371 54.0893 10.5773 53.5162C4.41601 49.0743 -2.17515 39.6174 0.690575 31.4501C3.12645 24.7156 10.2908 24.7156 16.4521 25.432C18.1715 25.5753 20.0342 26.0052 21.7537 26.2917C24.1896 21.1334 24.1895 15.2587 27.0553 10.1004C29.6344 5.65849 35.5092 2.93605 40.3809 1.93304C52.1304 -0.359541 65.5993 0.50018 77.2055 3.22262C86.3759 5.37192 95.6895 9.67051 100.275 18.411C100.705 19.1274 100.991 19.8438 101.278 20.7036H101.134C101.994 22.423 102.567 24.1424 103.14 26.0052C104.143 29.0142 105.433 32.0232 106.579 35.0322C106.579 35.1755 106.723 35.4621 106.723 35.6054C112.024 43.6294 119.332 51.6534 115.463 61.3969C114.173 64.6925 112.167 67.7015 109.588 70.2807C123.344 74.0061 137.672 76.0121 151.428 79.8809C165.757 83.8929 179.655 93.7797 194.7 94.2095C222.641 94.926 237.4 59.1043 222.355 37.6114L222.211 37.4681C222.068 37.3248 221.782 37.1815 221.638 37.0382C221.065 36.7517 221.495 35.8919 222.068 36.0352C222.211 36.0352 222.498 36.1785 222.641 36.1785C223.214 35.8919 223.931 35.7486 224.361 36.4651L224.647 36.7517C237.4 41.6234 237.113 61.1103 236.254 73.433C239.119 71.427 241.698 69.2777 244.134 66.8418C245.137 65.8388 247 66.5552 247 67.9881C247 75.8689 243.131 81.8869 237.4 86.6153C239.406 86.7586 241.412 86.7586 243.418 86.4721C244.564 86.3288 245.997 87.1885 245.567 88.6214C241.125 99.5111 228.946 105.529 218.056 108.681C230.379 121.004 225.65 142.64 218.199 156.396C218.199 156.539 218.199 156.682 218.199 156.969C214.044 174.593 213.471 203.251 188.682 201.101C180.515 200.385 181.088 194.94 186.676 190.928C190.975 187.776 196.133 185.196 198.712 180.325C202.008 173.734 203.727 166.139 201.721 158.975C201.435 159.118 201.005 159.118 200.575 158.975C197.28 157.685 193.841 155.393 190.688 152.384C189.829 159.548 190.402 166.712 189.399 173.734C188.396 179.752 185.673 184.05 179.942 186.199C179.799 186.486 179.512 186.773 179.082 186.773C175.357 187.059 171.775 186.199 168.192 185.053C167.046 184.767 166.76 183.047 167.906 182.474C173.064 179.752 180.085 175.023 178.509 168.145C177.506 163.703 175.214 159.835 172.921 155.823C170.055 150.951 166.473 145.219 165.9 139.345C162.461 140.348 159.452 140.634 156.443 141.351ZM11.8669 28.8709C9.43105 28.8709 7.13846 29.1575 5.56231 30.4471C3.98616 31.4501 3.26973 32.8829 2.83987 34.3158C2.98316 34.3158 3.12645 34.3158 3.26974 34.3158C5.27575 34.6024 7.56833 35.3188 9.28776 33.7426C10.8639 32.4531 11.4371 30.5903 11.8669 28.8709ZM168.192 139.918C169.625 144.217 171.345 148.085 173.781 152.097C176.36 156.253 179.369 160.551 180.802 165.423C183.381 174.307 178.652 179.752 171.775 183.907C174.067 184.48 176.36 184.767 178.652 185.196C191.262 175.74 181.232 162.414 187.966 150.808C185.244 147.655 182.951 143.93 181.805 140.204C177.076 139.918 172.634 139.775 168.192 139.918Z" fill="white"/>
</svg>
