<svg width="143" height="135" viewBox="0 0 143 135" fill="none" xmlns="http://www.w3.org/2000/svg">
<path d="M99.1806 52.8472C99.1374 52.8942 99.0906 52.8512 99.1806 52.8472C98.9539 52.8121 98.7272 52.777 98.5905 52.738C98.774 52.8201 98.9539 52.8121 99.1806 52.8472Z" fill="white"/>
<path d="M79.4735 30.8991C88.3767 33.8861 97.0386 37.6045 105.322 42.0154C108.085 43.5157 110.991 45.2349 112.184 48.0657C112.784 49.5711 112.528 51.0691 112.409 52.6061C112.264 54.6399 111.803 55.5161 113.796 55.7888C117.876 56.4202 121.32 54.6467 125.204 57.1788C128.117 59.0779 129.742 62.5655 130.057 65.9756C130.354 68.936 130.054 72.7336 128.854 75.4445C127.781 77.9246 127.172 80.7447 126.052 83.1817C124.431 86.632 120.303 88.2103 116.446 88.6504C112.499 89.0945 108.43 88.733 104.642 87.5031C102.908 86.9487 101.077 86.2184 99.2353 86.3446C97.0334 86.4865 95.151 87.8759 93.3516 89.0815C90.2348 91.1559 86.9743 93.0114 83.4226 94.3392C81.6018 95.005 79.7307 95.5379 77.8057 95.8479C76.3269 96.0481 74.5569 95.7206 74.4948 97.5705C74.4801 98.337 75.6057 99.4588 75.904 100.167C76.4431 101.269 76.716 102.474 76.809 103.686C76.9304 105.618 76.689 106.349 74.4438 106.538C71.6554 106.661 68.8818 106.017 66.1981 105.369C60.2804 103.828 54.4852 101.965 48.8124 99.7823C46.2044 98.7708 43.5787 97.3096 40.8914 96.5719C38.9777 96.0254 37.3047 95.8738 35.888 94.2242C35.3701 93.6613 35.1115 92.8167 35.263 92.0892C35.4973 91.1778 36.4221 90.6415 37.3145 90.4221C38.2069 90.2026 39.1567 90.2959 40.0994 90.2093C41.2219 90.1149 42.3806 89.7935 43.3954 89.2533C42.3237 88.3544 41.1691 87.6393 40.011 86.8343C36.9467 84.5364 32.5556 80.5849 31.1506 76.9524C30.5937 75.4001 30.0799 73.8009 29.7461 72.1937C28.2029 63.9269 27.6741 56.2462 30.4195 48.1962C32.156 43.1189 34.4897 38.3307 36.2263 33.2535C37.8043 28.7238 38.155 25.0592 43.5814 23.2885C46.6076 22.3444 49.8996 22.4247 53.0691 22.8258C60.7645 23.7485 67.7249 26.5957 74.7683 29.2591C76.369 29.8644 77.923 30.4267 79.4735 30.8991ZM107.263 53.5084C106.72 53.4422 106.22 53.3291 105.677 53.2629C104.59 53.1305 103.507 53.0881 102.471 53.0886C101.345 53.0932 100.259 52.9608 99.1253 52.7854C98.3986 52.6372 97.6287 52.5359 96.9452 52.3408C95.7185 52.0794 94.4882 51.7281 93.3046 51.4198C92.1643 51.0645 91.0239 50.7092 89.8836 50.354C87.4194 49.5614 84.9121 48.8158 82.448 48.0232C80.1205 47.2697 77.8795 46.4222 75.6384 45.5748C73.3974 44.7274 71.1598 43.9699 69.0087 43.1185C67.7713 42.5873 66.4907 42.103 65.2569 41.6617C64.1597 41.2595 63.1058 40.8103 61.9654 40.4551C59.5013 39.6625 57.0839 38.9129 54.6197 38.1204C52.2491 37.4138 49.8749 36.6172 47.5906 35.8168C45.9467 35.2584 44.2092 34.6141 42.6446 33.7819C42.3676 33.6139 42.0907 33.4459 41.8137 33.2778C41.3563 34.2441 40.9421 35.1634 40.4847 36.1296C39.9842 37.1428 39.4404 38.2029 38.9398 39.2161C38.6913 39.7677 38.4428 40.3192 38.1475 40.8278C37.8126 41.4733 37.6144 42.1578 37.3227 42.7563C36.8292 43.9494 36.4257 45.1385 35.979 46.3746C35.7772 46.9692 35.5323 47.6107 35.3773 48.2482C36.0465 48.0836 36.6691 47.876 37.3816 47.6644C37.8709 47.5077 38.3603 47.351 38.8532 47.2843C39.3462 47.2175 39.8823 47.1038 40.3321 47.084C40.8717 47.0603 41.5049 47.1225 42.0085 47.3256C42.5553 47.4817 43.1524 47.7708 43.6164 48.1108C44.0803 48.4508 44.5911 48.8338 44.9686 49.2677C45.677 50.0925 46.3458 51.0542 46.8346 52.0238C47.6147 53.5213 48.2148 55.0266 48.7285 56.6259C49.1919 58.0922 49.6986 59.5116 50.2052 60.931C51.0655 59.9019 51.8792 58.8299 52.833 57.8869C53.8769 56.9399 54.9639 55.9459 56.2415 55.2139C56.9468 54.8224 57.6557 54.5209 58.4582 54.3054C59.0807 54.0978 59.75 53.9331 60.4228 53.8585C61.2755 53.7759 62.0383 53.6973 62.8982 53.7946C63.3515 53.8647 63.7615 53.9818 64.1716 54.0989C64.4918 54.22 64.7687 54.388 65.0457 54.556C65.6499 55.025 66.1642 55.4979 66.6388 56.1078C67.1637 56.8505 67.552 57.5543 67.8538 58.3519C68.206 59.2825 68.3818 60.311 68.6008 61.2925C68.7156 61.9182 68.834 62.6338 68.9488 63.2595C69.9205 62.7662 70.9353 62.2259 71.9537 61.7756C72.7958 61.4232 73.5911 61.0278 74.4367 60.7653C76.3007 60.0525 78.2979 59.2888 80.2661 58.9318C80.4892 58.8769 80.759 58.8651 80.9821 58.8102C81.2952 58.7514 81.6082 58.6925 81.9248 58.7236C82.1047 58.7157 82.3278 58.6609 82.5544 58.6959C82.871 58.7271 83.1444 58.8051 83.461 58.8362C83.6445 58.9183 83.8279 59.0003 84.0114 59.0823C84.3315 59.2034 84.5653 59.4183 84.7991 59.6333C85.3133 60.1062 85.6512 60.6771 85.856 61.2988C86.1543 62.0065 86.3159 62.6752 86.3911 63.4377C86.5095 64.1534 86.4947 64.9199 86.5232 65.6395C86.5049 66.3161 86.4434 67.0396 86.3351 67.7202C86.2446 68.8505 86.1109 70.0277 86.0672 71.201C86.2436 71.1031 86.4199 71.0053 86.5962 70.9074C87.1684 70.5668 87.7874 70.2693 88.3164 69.9757C88.9786 69.6311 89.5976 69.3336 90.2598 68.9891C91.4977 68.3939 92.6924 67.8458 93.9304 67.2506C94.5493 66.9531 95.1251 66.7025 95.6973 66.3619C96.2264 66.0683 96.7986 65.7278 97.3743 65.4772C97.8602 65.2305 98.346 64.9839 98.8354 64.8272C99.591 64.5686 100.397 64.443 101.21 64.4974C101.886 64.5126 102.523 64.6648 103.203 64.77C105.653 65.2028 105.467 62.7782 106.065 60.8146C106.739 58.4873 107.269 55.941 108.173 53.7387C107.896 53.5707 107.58 53.5395 107.263 53.5084ZM50.0075 60.4892C50.0578 60.6221 50.1081 60.755 50.1584 60.888C50.1081 60.755 50.0578 60.6221 50.0075 60.4892ZM42.0608 28.131C43.1722 28.893 44.3267 29.6081 45.5677 30.2292C47.8591 31.2096 50.2333 32.0061 52.6039 32.7127C54.658 33.3882 56.802 34.0597 58.8992 34.6882C60.0863 35.0865 61.2266 35.4417 62.4137 35.84C63.5541 36.1953 64.5613 36.6015 65.6585 37.0037C67.7161 37.7691 69.7772 38.6245 71.8348 39.3899C73.0687 39.8311 74.2593 40.3193 75.4464 40.7176C76.4968 41.0768 77.4608 41.53 78.5112 41.8892C80.8422 42.7327 83.1265 43.5332 85.4539 44.2867C87.8713 45.0363 90.3355 45.8288 92.7529 46.5784C95.0336 47.289 97.4007 47.9056 99.7606 48.3423C99.8506 48.3384 99.9873 48.3774 100.077 48.3734C100.667 48.4826 101.254 48.5019 101.84 48.5211C102.516 48.5364 103.146 48.5087 103.779 48.5709C104.413 48.6331 105.089 48.6484 105.722 48.7106C106.175 48.7808 106.629 48.8509 107.082 48.9211C106.942 48.7921 106.801 48.6631 106.661 48.5341C105.64 47.7681 104.665 47.0452 103.561 46.463C102.917 46.131 102.316 45.7519 101.629 45.4668C101.032 45.1778 100.435 44.8887 99.7912 44.5566C98.5035 43.8924 97.2625 43.2713 96.018 42.5602C94.867 41.9351 93.716 41.31 92.565 40.6848C92.1081 40.5247 91.6945 40.3177 91.2376 40.1576C90.6873 39.9115 90.047 39.6694 89.4534 39.4703C88.493 39.1071 87.5361 38.8338 86.6188 38.4237C85.5649 37.9745 84.5109 37.5253 83.4569 37.0762C82.3562 36.584 81.2123 36.1388 80.1152 35.7365C79.018 35.3343 77.9209 34.9321 76.7805 34.5768C75.5934 34.1785 74.3596 33.7373 73.2157 33.2921C70.9746 32.4446 68.6904 31.6441 66.4529 30.8866C64.1254 30.1331 61.8447 29.4226 59.4776 28.8059C57.294 28.2713 55.0636 27.6937 52.8835 27.2491C50.8905 26.9764 48.9116 27.0635 46.8895 27.1976C46.1268 27.2762 45.4108 27.3978 44.6947 27.5195C43.8456 27.692 43.0396 27.8176 42.1904 27.9901C42.2839 28.0761 42.194 28.0801 42.0608 28.131ZM70.9106 99.215C69.9324 98.4021 68.6553 98.0078 67.425 97.6564C61.5002 95.935 55.5499 94.7102 49.7044 92.7149C47.877 92.0745 45.4667 91.5048 44.1276 92.9604C44.771 94.4188 46.2889 95.208 47.7565 95.8642C54.1305 98.6922 61.2826 99.5487 67.9413 101.598C68.7615 101.833 70.7433 102.962 71.5351 102.476C71.6215 102.382 71.7546 102.331 71.7978 102.285C72.5754 101.439 71.7018 99.8559 70.9106 99.215ZM102.451 71.9664C104.566 66.1968 96.3431 70.1629 94.1046 71.6581C91.121 73.6816 88.0617 76.069 84.4135 76.0944C83.8738 76.1182 83.3305 76.052 82.9133 75.755C82.5429 75.5009 82.302 75.1061 82.1079 74.7542C80.4904 71.4465 82.4064 67.4877 81.5913 63.9644C81.5375 63.7415 81.4369 63.4756 81.2498 63.3036C81.0196 63.1786 80.7965 63.2335 80.5267 63.2454C76.7738 64.0413 73.1824 65.5059 70.019 67.5374C69.1408 68.1167 68.1727 68.6999 67.133 68.6105C65.2766 68.3769 64.5977 66.019 64.703 64.1222C64.855 62.2683 65.2194 60.0898 63.86 58.753C62.4971 57.3263 59.946 57.754 58.3696 58.9046C56.7968 60.1452 55.785 61.9017 54.4926 63.4003C53.2003 64.8989 51.2209 66.1123 49.2207 65.6598C46.7637 65.0471 45.7504 62.2083 45.2479 59.7526C44.6376 56.851 43.9664 53.5467 41.3407 52.0855C39.5458 51.1283 36.8906 51.2001 35.0804 52.1358C33.4034 53.0206 33.3526 54.014 32.9739 55.8327C32.6563 58.0543 32.612 60.3539 32.8376 62.6416C33.0383 64.2997 33.3289 65.9539 33.5728 67.565C33.6947 68.3706 33.8167 69.1762 33.9386 69.9817C34.1896 71.7728 34.6205 73.5559 35.2745 75.2842C35.6734 76.2578 36.1623 77.2274 36.7807 78.0561C38.0643 79.7567 39.7403 81.1246 41.3298 82.5864C42.2649 83.4463 43.1999 84.3061 44.2249 85.1621C45.7138 86.358 47.2891 87.46 48.9041 88.4251C50.2889 89.2652 51.7168 90.0583 53.1845 90.7146C58.6483 93.3123 64.746 94.846 70.7044 93.998C76.6197 93.197 82.449 91.3635 87.6457 88.3415C89.9346 86.9793 92.0797 85.3981 94.0809 83.598C97.6047 80.4244 100.87 76.4061 102.451 71.9664ZM124.958 74.8952C125.272 73.71 125.542 72.5718 125.766 71.3906C126.051 69.4859 126.293 67.6281 126.171 65.6962C126.053 64.9805 125.981 64.3079 125.73 63.6432C125.629 63.3773 125.485 63.1584 125.342 62.9394C125.198 62.7205 124.964 62.5055 124.777 62.3336C124.36 62.0366 123.943 61.7396 123.439 61.5365C122.568 61.1693 121.745 60.8452 120.835 60.6149C120.014 60.3807 119.151 60.1935 118.244 60.0532C117.385 59.9559 116.525 59.8586 115.625 59.8982C114.639 60.0317 113.614 60.3021 112.682 60.6585C112.016 60.913 111.397 61.2106 110.825 61.5512C110.385 62.9671 109.946 64.3831 109.506 65.7991C108.746 68.2203 107.896 70.6455 106.999 73.0277C106.75 73.5793 106.545 74.0839 106.296 74.6355C106.005 75.234 105.76 75.8755 105.421 76.431C104.37 78.3245 103.318 80.2179 101.99 81.9433C101.817 82.1311 101.691 82.362 101.518 82.5498C101.702 82.6318 101.928 82.6669 102.112 82.7489C103.069 83.0221 104.026 83.2954 104.982 83.5686C106.759 84.0761 108.583 84.6265 110.443 84.9501C111.213 85.0514 111.936 85.1096 112.703 85.121C113.062 85.1051 113.465 85.0423 113.872 85.0695C114.322 85.0497 114.815 84.9829 115.264 84.9631C116.477 84.8647 117.639 84.6333 118.841 84.2651C119.64 83.9596 120.392 83.6111 121.094 83.1297C121.4 82.8909 121.749 82.6053 122.051 82.2766C122.566 81.6232 122.987 80.8838 123.409 80.1444C124.061 78.4037 124.486 76.628 124.958 74.8952Z" fill="white"/>
</svg>
