<svg width="332" height="296" viewBox="0 0 332 296" fill="none" xmlns="http://www.w3.org/2000/svg">
<path d="M303.398 29.2445C298.452 27.6854 297.879 35.0741 297.528 38.2116C297.036 42.8673 297.132 51.438 303.429 52.2904C309.457 53.1087 315.272 48.7979 313.414 42.4181C312.718 39.7514 310.573 37.2852 308.931 35.1572C307.39 33.0967 305.648 30.901 303.667 29.2786C303.03 28.7041 302.283 29.8165 302.921 30.3911C308.193 34.515 318.311 47.3176 307.413 50.7102C300.394 52.8935 298.338 45.5011 298.699 40.1703C298.844 37.7748 299.287 29.2724 303.09 30.3575C303.795 30.8309 304.239 29.5156 303.398 29.2445Z" fill="white" stroke="white"/>
<path d="M300.539 44.1814C301.031 47.1535 303.149 48.5747 305.946 48.9838C306.755 49.0862 306.862 47.837 305.952 47.6669C303.694 47.3261 302.181 46.311 301.72 43.9467C301.656 43.17 300.475 43.4047 300.539 44.1814Z" fill="white" stroke="white"/>
<path d="M305.235 52.0211C305.635 53.1688 305.156 54.754 306.772 54.9587C308.557 55.1299 310.651 54.1881 312.003 53.0428C312.24 52.9082 312.343 52.5372 312.108 52.2332C311.606 51.4565 311.172 50.5786 310.535 50.0041C309.897 49.4296 308.848 50.3391 309.486 50.9136C310.023 51.4205 310.457 52.2984 310.926 52.9064C310.961 52.6365 310.996 52.3666 311.031 52.0967C309.881 52.9386 308.261 53.6112 306.778 53.6428C306.778 53.6428 306.809 54.2502 306.811 53.8116C306.846 53.5417 306.712 53.3053 306.646 52.9678C306.548 52.4616 306.449 51.9553 306.282 51.5502C306.117 50.7064 305.003 51.2784 305.235 52.0211Z" fill="white" stroke="white"/>
<path d="M250.54 48.2395C245.9 46.0062 244.148 53.6286 243.394 56.4954C242.023 61.588 241.589 68.3351 247.17 70.9071C252.449 73.2762 258.666 69.2364 258.725 63.7033C258.671 60.7342 256.731 57.5263 255.361 54.994C254.125 52.698 252.687 50.2668 250.91 48.3412C250.34 47.6656 249.292 48.5751 249.861 49.2507C254.522 54.2843 263.079 69.4113 250.509 70.0683C243.837 70.4301 243.296 63.1755 244.295 58.4197C244.81 56.1262 246.499 47.7277 250.164 49.4535C250.836 49.7581 251.212 48.5441 250.54 48.2395Z" fill="white" stroke="white"/>
<path d="M245.627 62.5296C245.682 65.5007 247.528 67.3264 250.221 68.1068C251.063 68.378 251.507 67.062 250.666 66.7907C248.612 66.1463 246.965 64.8948 246.942 62.5315C246.878 61.7549 245.631 61.6518 245.627 62.5296Z" fill="white" stroke="white"/>
<path d="M249.109 70.872C249.339 72.0534 248.692 73.6722 250.24 73.9781C251.991 74.4192 254.15 73.8149 255.737 72.9735C256.042 72.7377 256.245 72.4343 256.011 72.1303C255.677 71.32 255.311 70.3409 254.741 69.6652C254.172 68.9895 253.191 69.798 253.693 70.5748C253.693 70.5748 253.993 71.2164 254.127 71.4528C254.293 71.8579 254.561 72.3307 254.728 72.7359C254.762 72.466 254.966 72.1626 255.001 71.8927C253.65 72.5994 252.132 72.9009 250.616 72.7638C250.516 72.6962 250.347 72.7297 250.347 72.7297C250.446 73.236 250.547 73.3036 250.514 73.1349C250.549 72.865 250.583 72.5951 250.518 72.2575C250.587 71.7177 250.489 71.2114 250.39 70.7051C250.293 69.7602 248.944 70.0282 249.109 70.872Z" fill="white" stroke="white"/>
<path d="M196.183 36.0725C190.888 30.0272 177.736 48.3246 182.895 54.5721C186.648 58.9962 193.922 59.4787 196.776 53.9171C198.986 49.5352 197.744 40.932 196.349 36.4775C196.117 35.7351 194.836 35.9019 195.001 36.7455C197.159 43.7646 198.155 61.8796 185.788 55.487C180.815 52.8827 183.301 46.7808 185.607 43.3435C186.828 41.5238 192.453 34.0096 195.067 37.0828C195.704 37.6572 196.752 36.7479 196.183 36.0725Z" fill="white" stroke="white"/>
<path d="M185.625 47.0106C184.467 49.6072 185.467 52.0382 187.413 53.9305C188.051 54.5051 189.032 53.6966 188.462 53.021C186.751 51.4326 185.882 49.6767 186.937 47.4511C187.311 46.6756 185.999 46.235 185.625 47.0106Z" fill="white" stroke="white"/>
<path d="M185.293 56.0144C185.053 57.0266 183.732 58.341 184.874 59.2538C186.318 60.3696 188.608 60.8791 190.428 60.7804C190.698 60.8145 190.969 60.4099 191.004 60.14C191.008 59.2625 191.148 58.1827 190.983 57.3387C190.818 56.4947 189.469 56.7628 189.634 57.6068C189.866 58.3496 189.694 59.2606 189.69 60.1381C189.825 59.9358 190.062 59.8011 190.265 59.4977C189.321 59.5976 188.311 59.3599 187.369 59.0211C186.898 58.8517 185.888 58.614 185.721 58.2088C185.686 58.4787 185.719 58.6475 185.684 58.9175C186.059 58.1418 186.433 57.366 186.706 56.5227C186.778 55.544 185.566 55.1711 185.293 56.0144Z" fill="white" stroke="white"/>
<path d="M125.224 20.9632C120.386 18.1563 118.06 25.9798 116.732 29.0479C114.895 33.0936 114.051 40.8855 119.128 43.1192C124.306 45.4206 130.649 43.3716 131.384 37.2664C131.7 34.3993 130.231 31.361 129.198 28.7619C128.166 26.1627 126.999 23.3273 125.426 21.0985C124.856 20.4229 123.976 21.2988 124.377 22.0079C128.228 27.3773 134.831 42.3654 123.442 42.7879C116.501 43.1155 115.925 36.1313 117.397 31.1067C118.149 28.6788 121.017 20.0464 124.478 22.0755C125.183 22.5488 125.93 21.4365 125.224 20.9632Z" fill="white" stroke="white"/>
<path d="M118.428 34.5741C118.044 37.5442 119.822 39.4709 122.412 40.6223C123.186 40.9947 123.63 39.6788 122.856 39.3064C120.838 38.3921 119.496 36.9049 119.742 34.576C119.948 33.8336 118.532 33.7641 118.428 34.5741Z" fill="white" stroke="white"/>
<path d="M121.031 43.3523C121.093 44.5672 120.311 45.9496 121.825 46.5254C123.44 47.1689 125.733 46.8009 127.354 46.1283C127.59 45.9936 127.794 45.6902 127.728 45.3527C127.462 44.4412 127.265 43.4286 126.863 42.7194C126.462 42.0101 125.247 42.5146 125.648 43.2238C126.049 43.933 126.214 44.7769 126.446 45.5196C126.582 45.3173 126.617 45.0474 126.821 44.744C125.437 45.282 123.717 45.4483 122.236 45.0412C122.236 45.0412 122.167 45.5811 122.169 45.1424C122.203 44.8725 122.17 44.7037 122.306 44.5014C122.376 43.9616 122.446 43.4218 122.347 42.9154C122.215 42.2404 120.866 42.5084 121.031 43.3523Z" fill="white" stroke="white"/>
<path d="M50.8371 58.3083C42.9837 58.466 48.5422 81.5585 57.716 80.0864C63.3149 79.1493 67.6849 74.1606 65.0138 68.5544C63.812 65.9877 60.72 64.0597 58.5023 62.5716C56.1838 61.0158 53.7315 59.2236 51.0058 58.2748C50.1644 58.0036 49.7883 59.2181 50.5618 59.5904C56.5171 61.8263 69.4571 69.7756 62.146 76.7515C56.3239 82.3794 51.1966 75.8585 49.6034 70.3889C49.0064 68.2281 46.7194 59.6525 50.7304 59.5569C51.6067 59.5581 51.7134 58.3096 50.8371 58.3083Z" fill="white" stroke="white"/>
<path d="M52.7982 73.2592C54.2023 75.9622 56.6945 76.6073 59.4273 76.2397C60.271 76.0721 60.0073 74.7211 59.1636 74.8888C57.0379 75.2234 55.1178 74.8155 54.0143 72.7544C53.5121 71.9771 52.3968 72.5495 52.7982 73.2592Z" fill="white" stroke="white"/>
<path d="M59.6591 79.1813C60.2287 79.8569 60.5232 81.8139 61.7711 81.4783C63.6257 81.1099 65.4183 79.5268 66.3679 78.1113C66.5714 77.8079 66.4048 77.4029 66.2032 77.2677C65.5657 76.6933 64.7267 75.9836 63.9535 75.6115C63.1804 75.2393 62.7365 76.5543 63.5097 76.9265C63.3082 76.7913 63.7112 77.0617 63.7112 77.0617C63.9127 77.197 64.1143 77.3322 64.4165 77.535C64.8196 77.8055 65.2226 78.0759 65.5579 78.4475C65.492 78.11 65.4261 77.7726 65.3932 77.6039C64.5792 78.8172 63.1936 79.7936 61.9107 80.399C61.7422 80.4325 62.0425 81.0739 61.7751 80.6012C61.6414 80.3649 61.5077 80.1285 61.374 79.8922C61.1066 79.4195 60.94 79.0145 60.6048 78.6429C60.1708 77.7652 59.1901 78.5734 59.6591 79.1813Z" fill="white" stroke="white"/>
<path d="M7.08722 119.593C0.62906 124.208 17.2448 139.318 23.9725 134.737C28.8408 131.403 29.9851 124.249 24.8438 120.8C20.7107 118.026 12.0465 118.52 7.42456 119.526C6.58121 119.694 6.84478 121.044 7.68814 120.877C10.8929 120.24 14.5318 120.481 17.7326 120.722C19.6869 120.86 21.5732 121.099 23.3568 121.709C28.3043 123.268 27.3016 128.903 25.13 132.14C21.8727 136.996 15.6535 133.409 12.5324 130.435C10.7198 128.779 4.61124 123.066 7.92466 120.742C8.66917 120.068 7.76387 119.021 7.08722 119.593Z" fill="white" stroke="white"/>
<path d="M16.7177 131.183C19.2043 132.705 21.7008 132.034 23.8659 130.114C24.5424 129.541 23.6373 128.494 22.9608 129.066C21.3036 130.448 19.4467 131.255 17.3632 130.003C16.7585 129.598 16.0122 130.71 16.7177 131.183Z" fill="white" stroke="white"/>
<path d="M25.7478 132.557C26.8909 133.031 27.9294 134.314 28.9447 133.236C30.1964 132.024 30.8805 129.697 30.9891 128.011C30.9911 127.573 30.6888 127.37 30.4195 127.336C29.5109 127.166 28.5344 127.097 27.6586 127.096C26.8158 127.263 27.0463 128.444 27.922 128.445C28.4277 128.345 29.6057 128.549 30.4136 128.651C30.28 128.415 29.9777 128.212 29.844 127.976C29.7703 129.392 29.1909 130.909 28.3771 132.122C28.3093 132.224 28.2414 132.325 28.1736 132.426C28.6444 132.595 28.7452 132.663 28.5437 132.527C28.3422 132.392 28.1407 132.257 27.8384 132.054C27.4355 131.784 26.8639 131.547 26.3931 131.378C25.3507 130.971 24.9748 132.185 25.7478 132.557Z" fill="white" stroke="white"/>
<path d="M65.5799 123.563C70.7799 121.477 65.8888 114.821 64.2836 111.984C61.843 107.559 57.0759 103.334 51.843 105.25C46.4415 107.2 44.859 114.353 48.6161 118.341C52.0377 121.957 60.4907 123.522 65.2426 123.63C66.1189 123.631 66.1248 122.315 65.2485 122.313C58.6431 122.135 43.0207 118.401 49.0955 109.128C52.7272 103.496 58.4095 106.576 61.6276 110.495C63.1359 112.387 68.8954 120.8 64.9111 122.38C64.2694 122.683 64.8374 123.798 65.5799 123.563Z" fill="white" stroke="white"/>
<path d="M58.8915 109.986C56.7434 107.958 54.2153 108.022 51.6812 109.402C50.9716 109.806 51.4717 111.022 52.1813 110.618C54.1745 109.608 56.1307 109.307 57.7747 110.997C58.4803 111.471 59.4614 110.662 58.8915 109.986Z" fill="white" stroke="white"/>
<path d="M50.4385 106.657C49.4311 105.981 48.7647 104.362 47.4472 105.237C45.9612 106.145 44.7734 108.134 44.3277 109.887C44.225 110.258 44.3916 110.663 44.7616 110.764C45.6024 111.035 46.5769 111.543 47.3848 111.645C48.1927 111.747 48.3672 110.398 47.3907 110.33C47.3907 110.33 46.6506 110.126 46.4491 109.991C45.9784 109.822 45.5076 109.652 45.0368 109.483C45.1705 109.719 45.2363 110.057 45.4707 110.361C45.8816 108.877 46.7632 107.563 47.8792 106.553C47.947 106.452 48.1156 106.418 48.1156 106.418C47.7126 106.148 47.6118 106.08 47.7455 106.316C47.947 106.452 48.0806 106.688 48.3829 106.891C48.718 107.262 49.1539 107.701 49.6247 107.871C50.3977 108.243 51.1437 107.131 50.4385 106.657Z" fill="white" stroke="white"/>
<path d="M103.151 84.369C108.371 85.0851 107.664 77.4235 107.408 74.3185C107.13 68.8511 105.308 61.7617 98.6355 61.6847C93.6478 61.7115 88.2991 67.0697 90.7025 72.2026C92.8384 76.8626 98.2756 81.8311 102.78 84.2672C103.554 84.6395 104.3 83.527 103.527 83.1547C98.4172 80.3127 87.6727 71.4896 93.2947 65.2881C95.8343 62.592 100.487 62.1936 103.104 64.8295C104.848 66.5868 105.476 69.3549 105.937 71.7179C106.298 74.0132 107.299 83.6324 103.157 83.0529C102.416 82.8494 102.342 84.2666 103.151 84.369Z" fill="white" stroke="white"/>
<path d="M103.483 69.0542C102.585 66.2501 100.196 65.2337 97.5653 65.23C96.6885 65.2288 96.6826 66.5457 97.5594 66.547C99.9201 66.5165 101.637 67.2281 102.368 69.6266C102.533 70.4711 103.817 69.8651 103.483 69.0542Z" fill="white" stroke="white"/>
<path d="M97.6029 62.3236C97.068 61.3782 97.1088 59.7925 95.8627 59.6896C95.0545 59.5872 94.2773 60.0922 93.5351 60.3273C92.4885 60.7982 91.4749 61.4378 90.6628 62.2126C90.4593 62.516 90.3565 62.887 90.591 63.191C91.1608 63.8665 91.7634 64.7108 92.5696 65.2518C93.275 65.7251 94.0212 64.6128 93.3158 64.1395C93.5174 64.2747 93.215 64.0719 93.215 64.0719C93.0135 63.9366 92.8798 63.7003 92.5775 63.4974C92.2422 63.1258 91.907 62.7542 91.5717 62.3826C91.5368 62.6525 91.6027 62.99 91.4999 63.3609C92.1434 62.6196 92.8528 62.2157 93.7307 61.7784C94.2036 61.5091 95.318 60.9371 95.8897 61.1741C95.6882 61.0389 95.5545 60.8025 95.4537 60.7349C95.6862 61.4775 95.9517 62.3888 96.3528 63.0979C96.8896 63.6047 98.1048 63.1003 97.6029 62.3236Z" fill="white" stroke="white"/>
<path d="M147.022 74.4225C151.844 80.7369 166.305 63.3186 161.45 56.8355C158.002 52.1758 150.73 51.2548 147.573 56.6135C144.994 60.8937 145.798 69.4961 146.956 74.0851C147.121 74.9286 148.469 74.6607 148.305 73.8172C146.716 67.4736 146.115 51.3832 156.643 54.6362C163.068 56.6017 161.523 63.042 158.574 67.2204C157.218 69.2424 150.717 76.7551 148.138 73.4122C147.501 72.8378 146.452 73.7471 147.022 74.4225Z" fill="white" stroke="white"/>
<path d="M158.25 64.2277C159.677 61.6654 158.914 59.1001 156.935 57.0391C156.365 56.3635 155.317 57.273 155.886 57.9486C157.429 59.5703 158.229 61.4272 157.142 63.4839C156.768 64.2594 157.708 65.0367 158.25 64.2277Z" fill="white" stroke="white"/>
<path d="M159.189 55.1921C159.498 54.0788 160.851 52.9332 159.777 51.9192C158.501 50.7699 156.179 50.0916 154.527 50.1567C154.19 50.2238 153.784 50.392 153.85 50.7295C153.846 51.6071 153.606 52.6192 153.703 53.5644C153.868 54.4084 155.217 54.1403 155.052 53.2963C154.953 52.7899 155.161 51.6089 155.198 50.9002C154.961 51.0349 154.758 51.3383 154.521 51.473C155.397 51.4742 156.307 51.6443 157.249 51.9831C157.72 52.1525 158.932 52.5255 159.131 53.0995C159.166 52.8296 159.133 52.6608 159.168 52.3908C158.693 53.0989 158.319 53.8746 158.045 54.718C157.603 55.5949 158.916 56.0355 159.189 55.1921Z" fill="white" stroke="white"/>
<path d="M207.139 97.6288C211.961 103.943 226.422 86.5249 221.567 80.0418C218.119 75.3821 210.847 74.4611 207.691 79.8198C205.111 84.1 205.915 92.7024 207.073 97.2914C207.238 98.1349 208.586 97.867 208.422 97.0235C206.833 90.6799 206.232 74.5896 216.76 77.8425C223.185 79.808 221.641 86.2483 218.691 90.4268C217.335 92.4487 210.834 99.9614 208.187 96.7196C207.651 96.2129 206.67 97.021 207.139 97.6288Z" fill="white" stroke="white"/>
<path d="M218.3 87.5348C219.726 84.9726 218.963 82.4072 216.984 80.3462C216.414 79.6706 215.366 80.5802 215.935 81.2558C217.478 82.8775 218.278 84.7343 217.09 86.7234C216.817 87.5665 217.925 88.3104 218.3 87.5348Z" fill="white" stroke="white"/>
<path d="M219.238 78.4994C219.547 77.386 220.9 76.2404 219.826 75.2264C218.551 74.0771 216.228 73.3988 214.576 73.464C214.239 73.531 213.834 73.6992 213.9 74.0368C213.896 74.9143 213.655 75.9265 213.752 76.8716C213.917 77.7156 215.266 77.4475 215.101 76.6035C215.003 76.0971 215.21 74.9162 215.247 74.2075C215.01 74.3421 214.807 74.6456 214.57 74.7803C215.447 74.7815 216.356 74.9515 217.298 75.2904C217.87 75.5274 218.981 75.8327 219.18 76.4068C219.215 76.1368 219.182 75.968 219.217 75.6981C218.742 76.4061 218.368 77.1819 218.095 78.0252C217.821 78.8686 219.033 79.2416 219.238 78.4994Z" fill="white" stroke="white"/>
<path d="M283.977 95.8953C288.787 97.6567 289.83 90.4375 290.35 87.2666C291.249 82.0043 291.382 75.0538 285.461 72.9872C280.751 71.2935 273.961 75.0967 274.577 80.4961C275.161 85.7268 279.849 92.2455 283.674 95.6925C284.312 96.267 285.36 95.3574 284.723 94.7829C280.058 90.6262 271.081 78.7367 279.726 74.565C287.019 71.0999 289.984 78.6621 289.52 84.3637C289.375 86.7591 288.188 95.935 284.42 94.5801C283.512 94.4101 283.135 95.6242 283.977 95.8953Z" fill="white" stroke="white"/>
<path d="M287.677 81.2303C287.386 78.3938 285.404 76.7704 282.744 76.1589C281.834 75.9888 281.458 77.2038 282.299 77.475C284.59 77.9847 286.203 79.0674 286.428 81.5662C286.391 82.2752 287.741 82.007 287.677 81.2303Z" fill="white" stroke="white"/>
<path d="M283.487 73.2908C283.188 72.2107 283.634 70.4567 282.287 70.2861C280.469 69.9461 278.174 70.7527 276.721 71.8304C276.484 71.965 276.482 72.4037 276.616 72.64C277.017 73.3492 277.484 74.3958 278.054 75.0715C278.692 75.646 279.672 74.8376 279.103 74.1619C278.566 73.655 278.199 72.676 277.831 72.1356C277.796 72.4055 277.761 72.6754 277.727 72.9453C278.572 72.3391 279.483 72.0705 280.494 71.8695C281 71.7689 281.911 71.5003 282.415 71.8384C282.281 71.602 282.248 71.4333 282.115 71.1969C282.111 72.0742 282.175 72.8503 282.44 73.7617C282.37 74.3015 283.652 74.1346 283.487 73.2908Z" fill="white" stroke="white"/>
<path d="M342.757 69.1625C347.668 70.9914 348.611 63.7046 349.13 60.5337C350.03 55.2713 350.162 48.3208 344.241 46.2543C339.532 44.5606 332.742 48.3637 333.358 53.7632C333.941 58.9939 338.629 65.5126 342.455 68.9596C343.092 69.5341 344.141 68.6245 343.503 68.05C338.838 63.8933 329.862 52.0037 338.506 47.832C345.8 44.367 348.764 51.9292 348.301 57.6308C348.155 60.0262 346.969 69.2021 343.201 67.8472C342.36 67.5761 341.916 68.8913 342.757 69.1625Z" fill="white" stroke="white"/>
<path d="M381.567 59.362C377.134 18.7018 327.596 43.969 306.659 54.7018C290.18 63.1467 274.748 71.1207 256.104 73.8609C232.606 77.3028 210.303 69.8153 189.017 60.8111C171.06 53.161 154.421 44.6356 134.541 45.0799C117.728 45.5285 101.528 51.8146 87.5388 60.9041C57.6018 80.261 35.5573 112.686 25.1637 146.476C24.685 148.061 27.1403 148.976 27.6869 147.289C39.7552 108.171 68.0598 69.6822 106.64 53.7786C126.419 45.642 148.014 45.9086 167.585 54.202C188.602 63.1721 209.207 73.6261 232.104 76.5261C249.714 78.8114 267.317 75.2263 283.786 68.9743C294.552 64.9072 304.519 58.5448 314.818 53.4312C327.142 47.477 340.309 41.3553 354.164 39.6543C359.894 38.9538 366.024 39.4011 370.962 42.7143C376.605 46.5009 378.358 53.6895 378.97 59.9656C379.199 61.5853 381.796 60.9817 381.567 59.362Z" fill="white" stroke="white"/>
</svg>
