<svg width="205" height="387" viewBox="0 0 205 387" fill="none" xmlns="http://www.w3.org/2000/svg">
<path d="M177.096 262.841C176.631 263.028 176.167 263.214 175.702 263.4C175.931 276.016 175.271 288.691 173.952 301.588C174.299 301.831 174.55 302.092 174.8 302.353C175.551 303.135 174.562 304.233 173.693 303.88C172.917 310.758 171.928 317.572 170.746 324.421C171.055 324.467 171.364 324.514 171.673 324.56C172.909 324.744 172.787 326.705 171.55 326.521C171.145 326.493 170.835 326.447 170.43 326.418C169.052 333.813 167.481 341.243 165.679 348.511C166.007 348.655 166.335 348.8 166.663 348.945C167.86 349.443 167.216 351.295 166.019 350.797C165.691 350.652 165.479 350.589 165.151 350.444C163.701 356.423 161.961 362.455 160.105 368.405C152.098 369.958 144.072 371.412 136.162 372.948C128.117 374.304 120.091 375.758 112.143 377.096C70.4528 324.834 46.2884 267.967 40.2823 208.218C40.189 207.214 40.1147 206.309 40.0197 205.816L39.9627 205.52C38.9915 195.284 38.5039 184.961 38.3254 174.684C37.9783 174.44 37.7469 174.278 37.3998 174.035C36.4552 173.287 37.3686 171.795 38.2752 172.345C38.1672 158.278 38.736 144.088 40.2132 129.938C40.1165 129.956 40.1165 129.956 40.0198 129.973C38.7437 130.102 38.3637 128.13 39.6398 128.001C39.9299 127.948 40.1423 128.012 40.4324 127.959C40.8517 123.902 41.29 119.944 41.9027 115.852C40.9755 115.714 40.7682 114.118 41.8318 113.925C41.9285 113.908 42.0252 113.89 42.2186 113.855C44.1982 99.7161 46.8547 85.4544 50.3418 71.3484C49.9947 71.1051 49.7443 70.8442 49.3973 70.6009C48.356 69.8709 49.4247 68.1461 50.485 68.9747C50.6007 69.0558 50.7164 69.137 50.8511 69.3167C51.8506 65.1546 52.9658 61.0736 54.1587 56.8765C53.7926 56.5345 53.3108 56.1114 52.9447 55.7695C52.6943 55.5086 52.6563 55.3114 52.6183 55.1141C38.3432 105.166 33.4599 155.66 38.0874 205.656L38.1444 205.952C38.1617 206.561 38.3137 207.35 38.4261 208.453C44.3338 268.73 68.7866 326.055 111.016 379.036L111.401 379.476L111.981 379.371C120.219 377.98 128.342 376.509 136.58 375.118C144.78 373.53 152.903 372.058 161.103 370.47L161.683 370.365L161.878 369.819C163.833 363.34 165.671 356.78 167.316 350.256C169.372 342.227 171.1 334.054 172.538 325.934C176.398 304.411 178.111 283.175 177.678 262.226C177.619 262.44 177.483 262.771 177.096 262.841Z" fill="white" stroke="white" stroke-width="2"/>
<path d="M55.1478 54.9237C55.2639 55.0049 55.3991 55.1849 55.5152 55.2661C57.714 47.4072 60.223 39.5945 62.9261 31.7467C62.5985 31.0904 62.1739 30.4517 61.8272 29.6967C61.6729 29.418 61.7319 29.2029 61.7908 28.9879C58.755 37.7135 56.0103 46.3865 53.4788 55.1232C53.7908 54.658 54.6261 54.3025 55.1478 54.9237Z" fill="white" stroke="white" stroke-width="2"/>
<path d="M63.8124 28.257C63.8313 28.3555 63.9655 28.5351 63.9845 28.6337C65.3846 24.5037 66.881 20.3563 68.4738 16.1914C84.8012 34.2336 99.4703 52.985 112.288 72.4808C113.403 73.0941 114.403 73.6264 115.499 74.1411C116.613 74.7544 115.972 76.6048 114.857 75.9915C114.742 75.9105 114.645 75.928 114.53 75.8469C117.25 80.146 119.971 84.445 122.594 88.7616C123.479 89.2128 124.459 89.6465 125.325 89.9992C126.421 90.5139 125.798 92.4629 124.683 91.8496C124.568 91.7685 124.472 91.786 124.356 91.705C138.89 116.498 150.743 142.391 159.763 169.104C160.033 168.953 160.303 168.802 160.477 168.668C161.538 167.965 162.399 169.849 161.318 170.453C160.952 170.621 160.701 170.871 160.334 171.04C160.983 172.859 161.498 174.5 161.993 176.041C162.07 175.925 162.052 175.827 162.129 175.711C162.595 174.504 164.422 175.192 163.956 176.399C163.626 177.275 163.296 178.15 162.965 179.026C163.423 180.371 163.765 181.635 164.108 182.898L164.927 185.605C166.469 191.036 167.914 196.485 169.167 201.968C169.571 201.997 170.072 202.008 170.476 202.036C171.785 202.104 171.567 204.082 170.354 203.996C170.143 203.933 169.854 203.985 169.642 203.922C172.697 217.747 174.672 231.666 175.704 245.858C175.993 245.806 176.282 245.753 176.552 245.602C177.785 245.276 178.164 247.247 176.931 247.573C176.545 247.643 176.179 247.812 175.793 247.882C176.126 252.207 176.265 256.567 176.405 260.927C176.598 260.892 176.771 260.758 176.964 260.723C177.601 260.404 178.196 260.907 178.31 261.499C177.78 235.384 173.859 209.784 166.797 184.959L166.53 184.09C166.282 183.319 166.15 182.629 165.978 182.252C165.369 180.119 164.644 177.905 163.901 175.593C163.33 173.657 162.624 171.541 161.747 169.049C142.984 112.899 111.673 60.4562 68.7334 13.3906L67.8697 12.5277L67.3451 13.9488C65.5579 18.659 63.7897 23.4677 62.1178 28.259C62.4085 27.6962 63.4493 27.4051 63.8124 28.257Z" fill="white" stroke="white" stroke-width="2"/>
<path d="M155.918 276.546C155.839 276.663 155.78 276.878 155.702 276.995C155.78 276.878 155.859 276.762 155.918 276.546Z" fill="white" stroke="white" stroke-width="2"/>
<path d="M139.225 270.247C135.68 265.886 138.288 261.228 137.956 256.387C137.677 252.863 135.423 250.004 132.328 250.054C135.174 243.515 138.348 237.12 144.918 233.786C144.61 233.229 144.38 232.556 144.15 231.883C136.554 235.607 133.027 243.291 129.791 250.922C129.459 251.799 130.385 252.448 131.141 252.209C138.037 249.531 135.028 264.064 135.312 266.055C135.71 268.638 137.037 270.848 138.869 272.558C142.822 276.437 148.351 277.58 153.633 277.44C153.809 276.796 154.082 276.133 154.355 275.471C148.899 275.745 142.867 274.591 139.225 270.247Z" fill="white" stroke="white" stroke-width="2"/>
<path d="M146.403 232.139C146.384 232.041 146.384 232.041 146.366 231.942C146.384 232.041 146.403 232.139 146.403 232.139Z" fill="white" stroke="white" stroke-width="2"/>
<path d="M177.958 261.086C177.844 260.493 177.243 259.988 176.6 260.308C176.406 260.343 176.231 260.477 176.036 260.513C168.407 263.732 158.426 266.763 154.532 274.73C154.454 274.846 154.395 275.062 154.317 275.178C154.042 275.841 153.768 276.505 153.591 277.151C150.996 286.111 157.009 295.358 162.117 302.518C162.678 303.338 163.768 302.732 163.829 302.004C164.998 295.041 172.323 301.698 173.698 303.086C173.815 303.168 173.931 303.249 174.047 303.33C174.921 303.684 175.916 302.584 175.16 301.799C174.908 301.538 174.657 301.276 174.308 301.033C170.897 297.965 164.648 295.309 162.495 299.79C157.91 293.252 152.906 284.538 155.768 276.962C155.847 276.846 155.906 276.63 155.984 276.514C156.473 275.402 157.06 274.273 157.958 273.19C162.154 267.828 169.82 265.318 176.165 262.74C176.632 262.553 177.099 262.367 177.566 262.18C177.839 262.029 177.995 261.796 178.054 261.58C178.016 261.383 177.997 261.284 177.958 261.086Z" fill="white" stroke="white" stroke-width="2"/>
<path d="M154.79 203.754C154.012 203.895 153.639 205.088 154.434 205.558C161.359 209.627 149.448 214.643 147.519 216.117C145.591 217.59 144.243 219.471 143.594 221.839C142.728 225.167 143.202 228.662 144.435 231.917C144.666 232.592 144.975 233.15 145.206 233.824C145.38 234.202 145.553 234.58 145.843 235.039C151.89 246.019 164.195 250.856 175.807 247.94C176.196 247.87 176.585 247.799 176.955 247.63C178.2 247.303 177.818 245.326 176.573 245.653C176.281 245.706 176.008 245.857 175.717 245.91C168.442 247.838 160.807 246.864 154.565 242.16C151.386 239.767 148.288 236.234 146.611 232.241C146.592 232.142 146.592 232.142 146.572 232.043C145.492 229.578 144.976 226.909 145.277 224.297C146.099 216.578 154.376 217.231 157.388 211.47C158.503 209.427 158.355 207.1 157.02 205.398C161.162 204.445 165.227 203.608 169.599 203.842C169.812 203.906 170.104 203.853 170.318 203.917C171.542 204.002 171.762 202.019 170.441 201.951C170.033 201.922 169.527 201.911 169.119 201.882C164.223 201.539 159.497 202.597 154.79 203.754Z" fill="white" stroke="white" stroke-width="2"/>
<path d="M171.792 251.763C163.713 253.541 155.042 262.272 147.98 252.976C147.18 251.98 145.706 253.285 146.506 254.281C154.232 264.389 163.216 255.706 172.275 253.749C173.432 253.436 173.047 251.431 171.792 251.763Z" fill="white" stroke="white" stroke-width="2"/>
<path d="M162.431 221.462C163.342 226.709 166.017 231.228 170.148 234.463C171.21 235.292 172.28 233.567 171.237 232.836C167.454 229.845 165.164 225.766 164.367 221.111C164.217 219.811 162.28 220.161 162.431 221.462Z" fill="white" stroke="white" stroke-width="2"/>
<path d="M174.088 268.136C170.519 273.075 168.637 278.936 168.732 285.155C168.786 286.474 170.727 286.634 170.673 285.315C170.537 279.41 172.302 273.979 175.714 269.273C176.436 268.325 174.809 267.187 174.088 268.136Z" fill="white" stroke="white" stroke-width="2"/>
<path d="M70.0127 106.91C75.2615 108.106 80.874 110.667 83.3956 115.933C85.8013 121.117 82.0092 124.868 81.2181 129.609C80.6833 133.078 82.029 136.411 85.1859 137.168C80.8449 142.755 76.0399 148.018 68.9021 149.513C69.0355 150.204 69.1498 150.797 69.2832 151.488C77.6817 149.764 82.9749 143.392 88.0362 136.857C88.6006 136.142 87.8283 135.26 87.0334 135.301C79.6652 136.123 86.1442 122.894 86.364 120.913C86.6634 118.305 85.8962 115.889 84.5661 113.678C81.6549 108.993 76.5463 106.443 71.3754 105.131C70.7919 105.747 70.4023 106.328 70.0127 106.91Z" fill="white" stroke="white" stroke-width="2"/>
<path d="M69.7397 107.713C69.9153 107.579 69.9744 107.363 70.1499 107.229C70.6384 106.629 71.0295 106.047 71.3232 105.482C76.1171 97.4491 72.6101 87.1269 69.4075 78.8999C69.0406 78.0447 67.8725 78.2556 67.617 79.0184C65.1454 84.9935 59.3735 77.0256 57.376 75.0314C55.4758 73.0196 53.4383 71.3397 51.2061 69.695C51.0897 69.6136 50.9732 69.5323 50.8376 69.352C49.7893 68.6198 48.6942 70.2509 49.7425 70.9831C50.0919 71.2272 50.4414 71.4712 50.6935 71.7329C53.1777 73.6392 55.3891 75.6973 57.444 77.9883C58.7618 79.5933 60.1178 81.3962 62.0023 82.2846C64.3335 83.3995 66.689 83.0767 68.2899 81.4566C71.8003 90.7543 74.8728 102.998 65.0462 108.97C58.5536 112.906 49.8757 112.835 42.6129 114.351C42.5155 114.369 42.4182 114.386 42.2235 114.421C41.0553 114.632 41.2831 116.332 42.2949 116.354C42.3922 116.336 42.5087 116.418 42.6061 116.4C51.31 114.521 63.3134 115.119 69.7397 107.713Z" fill="white" stroke="white" stroke-width="2"/>
<path d="M52.6923 175.541C53.1405 175.256 53.3367 174.709 53.1439 174.232C50.0011 166.306 63.199 167.402 66.5598 162.394C68.67 159.25 69.1492 155.48 68.6174 151.687C68.4836 150.995 68.4662 150.384 68.2352 149.709C67.7365 147.651 67.0433 145.627 66.1938 143.836C61.3086 133.666 51.2578 127.499 40.134 128.28C39.8422 128.333 39.6285 128.269 39.3367 128.322C38.0531 128.451 38.4354 130.429 39.719 130.299C39.8163 130.282 39.8163 130.282 39.9135 130.264C52.5746 129.103 64.7725 138.567 66.5764 151.544C67.1082 155.337 66.5058 161.074 62.7853 163.178C60.8764 164.239 58.2118 164.516 56.1674 165.397C51.9813 167.176 49.6209 169.547 50.9865 174.007C46.7413 176.002 42.0948 175.92 38.2749 172.824C38.1585 172.742 38.1585 172.742 38.0613 172.76C37.0711 172.325 36.2305 173.704 37.1807 174.454C37.5299 174.698 37.7817 174.959 38.1118 175.104C42.6508 178.276 48.0564 178.118 52.6923 175.541Z" fill="white" stroke="white" stroke-width="2"/>
<path d="M70.5794 130.269C71.1232 131.512 72.8679 130.577 72.3433 129.434C70.8484 125.886 68.1962 123.167 64.462 122.192C58.7924 120.638 52.9904 123.648 47.2772 123.444C45.9469 123.375 45.8229 125.358 47.1532 125.427C55.3313 125.804 66.0946 119.626 70.5794 130.269Z" fill="white" stroke="white" stroke-width="2"/>
<path d="M46.6353 156.901C46.4774 158.153 48.5148 158.394 48.5576 157.061C49.0366 151.774 47.4764 146.756 44.2792 142.546C43.4941 141.567 42.0477 142.85 42.8329 143.828C45.7621 147.68 47.0353 152.24 46.6353 156.901Z" fill="white" stroke="white" stroke-width="2"/>
<path d="M49.1189 108.94C53.8266 105.118 57.1558 99.9052 58.5199 93.9199C58.7774 92.6436 56.929 91.9524 56.6715 93.2287C55.3474 98.8994 52.2531 103.762 47.8187 107.432C46.764 108.237 48.1617 109.727 49.1189 108.94Z" fill="white" stroke="white" stroke-width="2"/>
<path d="M96.6946 245.636C86.9463 260.918 86.6952 277.867 92.6025 293.295C93.4568 294.063 94.4084 294.813 95.3601 295.563C94.645 293.951 94.0273 292.321 93.4096 290.691C87.5265 273.824 90.8151 256.942 101.026 243.01C109.79 230.978 121.912 222.234 133.334 213C145.011 203.517 156.69 193.008 162.618 178.824C162.952 177.945 163.286 177.065 163.62 176.185C164.092 174.973 162.146 174.299 161.773 175.494C161.694 175.61 161.713 175.709 161.635 175.826C150.139 207.098 114.038 218.533 96.6946 245.636Z" fill="white" stroke="white" stroke-width="2"/>
<path d="M96.2648 298.742C95.3126 297.991 94.263 297.258 93.3108 296.508C98.2619 307.503 106.237 317.441 116.011 325.209C130.546 336.729 147.765 343.871 164.85 350.319C165.181 350.464 165.395 350.528 165.725 350.673C166.932 351.173 167.562 349.214 166.375 348.814C166.044 348.668 165.713 348.523 165.382 348.378C138.704 338.229 109.835 325.093 96.2648 298.742Z" fill="white" stroke="white" stroke-width="2"/>
<path d="M95.1111 295.455C94.1614 294.706 93.3089 293.939 92.3592 293.19C88.7358 290.059 85.3466 286.579 82.3863 282.715C71.7065 268.583 69.471 251.289 75.8015 235.107C82.1512 219.024 95.0549 207.179 109.31 198.16C125.434 187.881 143.277 180.771 159.653 170.754C160.023 170.585 160.277 170.335 160.646 170.166C161.717 169.461 160.868 167.67 159.797 168.375C159.525 168.527 159.252 168.678 159.077 168.812C129.635 186.713 90.6758 197.536 75.211 231.531C68.7311 245.898 68.3658 262.23 76.1498 276.476C80.5531 284.683 86.8661 291.318 93.9793 296.887C94.929 297.636 95.8787 298.385 96.9256 299.117C102.198 302.972 107.978 306.327 113.779 309.269C131.646 318.421 150.962 324.139 170.62 326.419C171.028 326.447 171.339 326.494 171.747 326.522C172.99 326.707 173.191 324.624 171.87 324.556C171.559 324.51 171.249 324.464 170.938 324.418C154.971 322.494 139.302 318.47 124.477 312.043C114.289 307.745 104.007 302.441 95.1111 295.455Z" fill="white" stroke="white" stroke-width="2"/>
<path d="M53.522 55.7421C53.8918 56.0862 54.3784 56.512 54.7482 56.8561C74.8749 74.692 101.189 81.1381 124.871 92.2712C124.988 92.3528 125.086 92.3352 125.203 92.4168C126.412 92.9176 127.062 91.0539 125.853 90.553C124.957 90.0985 123.963 89.6617 123.085 89.3065C100.025 78.7801 74.6288 72.3737 55.3602 54.7939C55.2434 54.7122 55.1073 54.5313 54.9905 54.4497C54.3678 53.8431 53.5271 54.2003 53.2324 54.7671C53.2516 54.8664 53.2708 54.9656 53.29 55.0649C53.2307 55.2811 53.2691 55.4796 53.522 55.7421Z" fill="white" stroke="white" stroke-width="2"/>
<path d="M62.0131 29.4453C62.3417 30.1027 62.7676 30.7425 63.1153 31.4988C74.8767 52.2073 94.4062 65.6773 115.132 76.4742C115.248 76.5555 115.345 76.538 115.462 76.6193C116.588 77.235 117.217 75.2785 116.11 74.7617C115.003 74.2449 113.974 73.6117 112.866 73.0949C93.2882 62.5004 74.906 49.2328 64.0574 29.0763C64.0382 28.9773 63.9026 28.797 63.8835 28.6981C63.4193 27.8604 62.3676 28.1527 62.0739 28.7177L61.9957 28.8342C61.9174 28.9507 61.8583 29.1661 62.0131 29.4453Z" fill="white" stroke="white" stroke-width="2"/>
</svg>
