<svg width="159" height="355" viewBox="0 0 159 355" fill="none" xmlns="http://www.w3.org/2000/svg">
<path d="M158.463 163.404C154.128 176.598 149.604 189.793 146.965 203.553C144.326 217.124 140.556 240.12 156.39 247.472C157.52 248.037 157.521 249.168 156.955 249.922C157.332 250.299 157.332 250.864 157.143 251.43C146.022 284.793 130.189 316.648 120.953 350.765C122.084 351.896 121.142 354.347 119.068 353.97C99.0879 350.765 81.1812 340.021 61.578 334.932C41.2208 329.654 21.9946 321.361 2.20293 314.386C1.44897 314.009 0.883466 313.444 0.883466 312.69C0.317989 312.124 -0.0589725 311.37 0.318012 310.428C17.0938 281.589 25.576 249.168 38.3934 218.444C38.5819 218.067 38.7704 217.69 39.1474 217.501C39.3359 217.124 39.5244 216.936 39.9014 216.747C62.5204 202.045 68.3637 171.321 69.1177 146.063C69.1177 145.309 69.4947 144.743 70.0601 144.555C70.2486 143.989 70.8141 143.612 71.7565 143.612C76.4688 143.612 81.1811 143.989 85.705 145.309C86.8359 144.366 89.0978 145.309 88.7208 147.194C85.328 162.462 79.1077 194.128 96.072 204.118C121.707 219.386 139.237 179.614 143.007 160.577L143.195 160.388C142.818 159.069 143.761 157.561 145.457 158.126C149.038 159.257 152.431 160.011 156.201 160.577C156.766 160.577 157.143 160.954 157.332 161.331C158.086 161.331 159.028 162.273 158.463 163.404ZM81.1812 148.136V148.513C79.1077 161.896 74.0185 176.787 77.4113 190.358C80.4272 202.987 90.7943 216.182 105.12 215.805C133.394 215.239 143.949 186.023 147.907 162.65C147.342 162.462 146.965 162.462 146.399 162.273C142.441 180.934 124.534 221.271 98.8994 209.773C76.6573 199.783 80.2387 169.059 84.574 148.702C83.443 148.513 82.3121 148.325 81.1812 148.136ZM154.316 163.97C153.374 163.781 152.431 163.593 151.489 163.404C147.342 187.343 132.074 225.795 100.219 219.009C88.1554 216.37 77.4113 206.192 74.3954 193.94C70.6256 178.295 75.1494 163.027 77.4113 147.571C75.9034 147.382 74.3954 147.382 72.8875 147.382C71.7566 173.771 65.3478 204.684 41.9748 219.952C29.3458 250.299 20.6752 282.531 4.27633 311.182C24.822 318.533 44.8022 326.638 65.9133 332.105C83.4431 336.628 99.2764 346.241 117.183 349.823C126.608 315.706 142.253 284.039 153.374 250.487L153.562 250.299C139.802 243.136 140.179 225.041 141.876 211.658C143.949 195.259 149.227 179.614 154.316 163.97Z" fill="white"/>
<path d="M105.12 236.727C102.292 260.477 90.2289 281.966 80.8043 303.642C84.0087 304.585 87.4016 305.527 90.7944 305.527C92.1139 305.527 92.6793 306.47 92.6793 307.412C92.8678 307.789 92.8678 307.978 92.6793 308.543C91.3599 312.313 88.9095 315.517 87.59 319.287C87.213 320.418 85.8936 320.983 84.7626 320.418C73.8301 314.952 60.0702 315.894 49.7031 309.108C44.6138 305.716 47.6297 300.249 50.834 295.726C51.3995 294.972 52.1535 294.783 52.9075 294.972C53.473 294.218 54.7924 293.841 55.7349 294.783C58.5622 297.233 62.1436 299.307 65.725 300.061C67.2329 298.741 68.1754 297.045 68.5523 295.16C70.8142 289.882 73.2646 284.604 75.5265 279.327C79.4849 270.091 83.0662 260.854 86.2706 251.43C79.2964 255.011 72.3222 258.593 65.348 261.797C64.0285 262.362 62.7091 261.608 62.5206 260.1C61.9551 255.388 59.8817 251.053 59.3162 246.341C59.1277 245.398 59.6932 244.833 60.4472 244.644C60.6357 244.267 61.0126 244.079 61.3896 243.89C71.9452 240.497 81.7468 235.597 91.1714 229.565H91.3599C91.7369 228.999 92.4908 228.622 93.2448 228.811C97.3916 229.565 101.35 231.261 104.931 233.335C106.251 234.277 106.062 235.973 105.12 236.727ZM101.35 235.973C98.7111 234.654 96.0722 233.523 93.0563 232.958L92.8678 233.146C83.6317 238.989 73.6416 243.89 63.086 247.472C63.6515 250.864 64.7825 254.257 65.5364 257.65C73.2646 254.069 80.8043 250.299 88.344 246.152C89.6634 245.398 91.5484 246.718 91.1714 248.225C85.3281 267.263 76.846 285.17 68.9293 303.265C68.5523 304.019 67.6099 304.208 66.8559 304.208C61.7666 303.265 57.6198 301.192 53.6614 298.176C52.1535 300.438 49.8916 305.15 51.588 305.904C55.7349 308.166 60.2587 309.485 64.971 310.616C71.7567 312.124 78.3539 313.444 84.7626 316.271C85.8936 313.821 87.4015 311.559 88.344 309.108C84.9511 308.731 81.7468 307.789 78.5424 306.847C77.223 307.035 75.9035 305.527 76.469 304.019C85.8936 282.154 98.7111 260.1 101.35 235.973Z" fill="white"/>
<path d="M88.8876 46.8095C86.0506 67.4412 66.1921 84.2873 45.0097 81.2588C22.8817 78.2303 7.37315 60.0593 10.5883 37.1562C15.5057 1.94983 51.4401 0.435575 52.3858 0.624856C72.4334 1.94983 91.7245 26.935 88.8876 46.8095ZM85.105 45.106C76.0268 45.8632 68.4617 43.781 60.3292 39.6168C56.1683 37.3455 38.012 26.5564 38.5794 37.9133C39.525 54.5701 62.0313 58.3557 61.2748 75.3911C72.4334 71.6054 81.8898 62.7092 84.3485 50.4059C84.9159 48.7024 85.105 46.8096 85.105 45.106ZM84.9159 40.374C74.8921 40.7525 69.7856 33.1813 61.2748 28.0707C53.1423 23.3386 36.6881 17.2816 30.8251 28.6385C20.423 48.7024 53.1423 57.22 54.277 76.5267V76.9053C55.4118 76.716 56.5466 76.5268 57.6814 76.3375C58.8161 63.6556 45.5771 58.545 38.7685 50.0273C35.5533 45.8631 32.3381 35.4526 36.8772 31.0992C41.4163 26.7457 48.2249 29.3956 53.1423 31.667C64.1117 36.5883 72.4334 42.2668 84.9159 41.3204C84.9159 40.9418 84.9159 40.7525 84.9159 40.374ZM84.1593 36.7776C80.9442 21.8244 69.0291 7.06041 54.4662 4.59975L54.0879 4.78904C34.0403 5.16761 19.0991 14.6317 14.9383 33.3706C10.5883 53.0559 20.0448 72.5519 40.8489 76.9053C44.0641 77.6625 47.2793 77.8517 50.4945 77.6624C50.3053 77.4732 50.3053 77.0946 50.3053 76.9053C49.1706 56.2736 12.4796 49.0809 28.5556 25.4207C33.2838 18.4173 43.1185 17.6602 50.4945 19.7423C55.4118 21.0672 60.3292 23.1493 64.49 25.9886C70.9204 30.342 76.216 36.7776 84.1593 36.7776Z" fill="white"/>
</svg>
